<?xml version="1.0" encoding="utf-8" standalone="no"?>
<!DOCTYPE svg PUBLIC "-//W3C//DTD SVG 1.1//EN"
  "http://www.w3.org/Graphics/SVG/1.1/DTD/svg11.dtd">
<!-- Created with matplotlib (https://matplotlib.org/) -->
<svg height="288pt" version="1.1" viewBox="0 0 864 288" width="864pt" xmlns="http://www.w3.org/2000/svg" xmlns:xlink="http://www.w3.org/1999/xlink">
 <defs>
  <style type="text/css">
*{stroke-linecap:butt;stroke-linejoin:round;}
  </style>
 </defs>
 <g id="figure_1">
  <g id="patch_1">
   <path d="M 0 288 
L 864 288 
L 864 0 
L 0 0 
z
" style="fill:#ffffff;"/>
  </g>
  <g id="axes_1">
   <g id="patch_2">
    <path d="M 108 252 
L 777.6 252 
L 777.6 34.56 
L 108 34.56 
z
" style="fill:#ffffff;"/>
   </g>
   <g id="matplotlib.axis_1">
    <g id="xtick_1">
     <g id="text_1">
      <!-- 1) LASTEN BS2 -->
      <defs>
       <path d="M 12.40625 8.296875 
L 28.515625 8.296875 
L 28.515625 63.921875 
L 10.984375 60.40625 
L 10.984375 69.390625 
L 28.421875 72.90625 
L 38.28125 72.90625 
L 38.28125 8.296875 
L 54.390625 8.296875 
L 54.390625 0 
L 12.40625 0 
z
" id="DejaVuSans-49"/>
       <path d="M 8.015625 75.875 
L 15.828125 75.875 
Q 23.140625 64.359375 26.78125 53.3125 
Q 30.421875 42.28125 30.421875 31.390625 
Q 30.421875 20.453125 26.78125 9.375 
Q 23.140625 -1.703125 15.828125 -13.1875 
L 8.015625 -13.1875 
Q 14.5 -2 17.703125 9.0625 
Q 20.90625 20.125 20.90625 31.390625 
Q 20.90625 42.671875 17.703125 53.65625 
Q 14.5 64.65625 8.015625 75.875 
z
" id="DejaVuSans-41"/>
       <path id="DejaVuSans-32"/>
       <path d="M 9.8125 72.90625 
L 19.671875 72.90625 
L 19.671875 8.296875 
L 55.171875 8.296875 
L 55.171875 0 
L 9.8125 0 
z
" id="DejaVuSans-76"/>
       <path d="M 34.1875 63.1875 
L 20.796875 26.90625 
L 47.609375 26.90625 
z
M 28.609375 72.90625 
L 39.796875 72.90625 
L 67.578125 0 
L 57.328125 0 
L 50.6875 18.703125 
L 17.828125 18.703125 
L 11.1875 0 
L 0.78125 0 
z
" id="DejaVuSans-65"/>
       <path d="M 53.515625 70.515625 
L 53.515625 60.890625 
Q 47.90625 63.578125 42.921875 64.890625 
Q 37.9375 66.21875 33.296875 66.21875 
Q 25.25 66.21875 20.875 63.09375 
Q 16.5 59.96875 16.5 54.203125 
Q 16.5 49.359375 19.40625 46.890625 
Q 22.3125 44.4375 30.421875 42.921875 
L 36.375 41.703125 
Q 47.40625 39.59375 52.65625 34.296875 
Q 57.90625 29 57.90625 20.125 
Q 57.90625 9.515625 50.796875 4.046875 
Q 43.703125 -1.421875 29.984375 -1.421875 
Q 24.8125 -1.421875 18.96875 -0.25 
Q 13.140625 0.921875 6.890625 3.21875 
L 6.890625 13.375 
Q 12.890625 10.015625 18.65625 8.296875 
Q 24.421875 6.59375 29.984375 6.59375 
Q 38.421875 6.59375 43.015625 9.90625 
Q 47.609375 13.234375 47.609375 19.390625 
Q 47.609375 24.75 44.3125 27.78125 
Q 41.015625 30.8125 33.5 32.328125 
L 27.484375 33.5 
Q 16.453125 35.6875 11.515625 40.375 
Q 6.59375 45.0625 6.59375 53.421875 
Q 6.59375 63.09375 13.40625 68.65625 
Q 20.21875 74.21875 32.171875 74.21875 
Q 37.3125 74.21875 42.625 73.28125 
Q 47.953125 72.359375 53.515625 70.515625 
z
" id="DejaVuSans-83"/>
       <path d="M -0.296875 72.90625 
L 61.375 72.90625 
L 61.375 64.59375 
L 35.5 64.59375 
L 35.5 0 
L 25.59375 0 
L 25.59375 64.59375 
L -0.296875 64.59375 
z
" id="DejaVuSans-84"/>
       <path d="M 9.8125 72.90625 
L 55.90625 72.90625 
L 55.90625 64.59375 
L 19.671875 64.59375 
L 19.671875 43.015625 
L 54.390625 43.015625 
L 54.390625 34.71875 
L 19.671875 34.71875 
L 19.671875 8.296875 
L 56.78125 8.296875 
L 56.78125 0 
L 9.8125 0 
z
" id="DejaVuSans-69"/>
       <path d="M 9.8125 72.90625 
L 23.09375 72.90625 
L 55.421875 11.921875 
L 55.421875 72.90625 
L 64.984375 72.90625 
L 64.984375 0 
L 51.703125 0 
L 19.390625 60.984375 
L 19.390625 0 
L 9.8125 0 
z
" id="DejaVuSans-78"/>
       <path d="M 19.671875 34.8125 
L 19.671875 8.109375 
L 35.5 8.109375 
Q 43.453125 8.109375 47.28125 11.40625 
Q 51.125 14.703125 51.125 21.484375 
Q 51.125 28.328125 47.28125 31.5625 
Q 43.453125 34.8125 35.5 34.8125 
z
M 19.671875 64.796875 
L 19.671875 42.828125 
L 34.28125 42.828125 
Q 41.5 42.828125 45.03125 45.53125 
Q 48.578125 48.25 48.578125 53.8125 
Q 48.578125 59.328125 45.03125 62.0625 
Q 41.5 64.796875 34.28125 64.796875 
z
M 9.8125 72.90625 
L 35.015625 72.90625 
Q 46.296875 72.90625 52.390625 68.21875 
Q 58.5 63.53125 58.5 54.890625 
Q 58.5 48.1875 55.375 44.234375 
Q 52.25 40.28125 46.1875 39.3125 
Q 53.46875 37.75 57.5 32.78125 
Q 61.53125 27.828125 61.53125 20.40625 
Q 61.53125 10.640625 54.890625 5.3125 
Q 48.25 0 35.984375 0 
L 9.8125 0 
z
" id="DejaVuSans-66"/>
       <path d="M 19.1875 8.296875 
L 53.609375 8.296875 
L 53.609375 0 
L 7.328125 0 
L 7.328125 8.296875 
Q 12.9375 14.109375 22.625 23.890625 
Q 32.328125 33.6875 34.8125 36.53125 
Q 39.546875 41.84375 41.421875 45.53125 
Q 43.3125 49.21875 43.3125 52.78125 
Q 43.3125 58.59375 39.234375 62.25 
Q 35.15625 65.921875 28.609375 65.921875 
Q 23.96875 65.921875 18.8125 64.3125 
Q 13.671875 62.703125 7.8125 59.421875 
L 7.8125 69.390625 
Q 13.765625 71.78125 18.9375 73 
Q 24.125 74.21875 28.421875 74.21875 
Q 39.75 74.21875 46.484375 68.546875 
Q 53.21875 62.890625 53.21875 53.421875 
Q 53.21875 48.921875 51.53125 44.890625 
Q 49.859375 40.875 45.40625 35.40625 
Q 44.1875 33.984375 37.640625 27.21875 
Q 31.109375 20.453125 19.1875 8.296875 
z
" id="DejaVuSans-50"/>
      </defs>
      <g style="fill:#262626;" transform="translate(150.498984 269.858281)scale(0.11 -0.11)">
       <use xlink:href="#DejaVuSans-49"/>
       <use x="63.623047" xlink:href="#DejaVuSans-41"/>
       <use x="102.636719" xlink:href="#DejaVuSans-32"/>
       <use x="134.423828" xlink:href="#DejaVuSans-76"/>
       <use x="192.386719" xlink:href="#DejaVuSans-65"/>
       <use x="260.794922" xlink:href="#DejaVuSans-83"/>
       <use x="324.271484" xlink:href="#DejaVuSans-84"/>
       <use x="385.355469" xlink:href="#DejaVuSans-69"/>
       <use x="448.539062" xlink:href="#DejaVuSans-78"/>
       <use x="523.34375" xlink:href="#DejaVuSans-32"/>
       <use x="555.130859" xlink:href="#DejaVuSans-66"/>
       <use x="621.984375" xlink:href="#DejaVuSans-83"/>
       <use x="685.460938" xlink:href="#DejaVuSans-50"/>
      </g>
     </g>
    </g>
    <g id="xtick_2">
     <g id="text_2">
      <!-- 2) LASTEN BS4 -->
      <defs>
       <path d="M 37.796875 64.3125 
L 12.890625 25.390625 
L 37.796875 25.390625 
z
M 35.203125 72.90625 
L 47.609375 72.90625 
L 47.609375 25.390625 
L 58.015625 25.390625 
L 58.015625 17.1875 
L 47.609375 17.1875 
L 47.609375 0 
L 37.796875 0 
L 37.796875 17.1875 
L 4.890625 17.1875 
L 4.890625 26.703125 
z
" id="DejaVuSans-52"/>
      </defs>
      <g style="fill:#262626;" transform="translate(317.898984 269.858281)scale(0.11 -0.11)">
       <use xlink:href="#DejaVuSans-50"/>
       <use x="63.623047" xlink:href="#DejaVuSans-41"/>
       <use x="102.636719" xlink:href="#DejaVuSans-32"/>
       <use x="134.423828" xlink:href="#DejaVuSans-76"/>
       <use x="192.386719" xlink:href="#DejaVuSans-65"/>
       <use x="260.794922" xlink:href="#DejaVuSans-83"/>
       <use x="324.271484" xlink:href="#DejaVuSans-84"/>
       <use x="385.355469" xlink:href="#DejaVuSans-69"/>
       <use x="448.539062" xlink:href="#DejaVuSans-78"/>
       <use x="523.34375" xlink:href="#DejaVuSans-32"/>
       <use x="555.130859" xlink:href="#DejaVuSans-66"/>
       <use x="621.984375" xlink:href="#DejaVuSans-83"/>
       <use x="685.460938" xlink:href="#DejaVuSans-52"/>
      </g>
     </g>
    </g>
    <g id="xtick_3">
     <g id="text_3">
      <!-- 3) LASTENS -->
      <defs>
       <path d="M 40.578125 39.3125 
Q 47.65625 37.796875 51.625 33 
Q 55.609375 28.21875 55.609375 21.1875 
Q 55.609375 10.40625 48.1875 4.484375 
Q 40.765625 -1.421875 27.09375 -1.421875 
Q 22.515625 -1.421875 17.65625 -0.515625 
Q 12.796875 0.390625 7.625 2.203125 
L 7.625 11.71875 
Q 11.71875 9.328125 16.59375 8.109375 
Q 21.484375 6.890625 26.8125 6.890625 
Q 36.078125 6.890625 40.9375 10.546875 
Q 45.796875 14.203125 45.796875 21.1875 
Q 45.796875 27.640625 41.28125 31.265625 
Q 36.765625 34.90625 28.71875 34.90625 
L 20.21875 34.90625 
L 20.21875 43.015625 
L 29.109375 43.015625 
Q 36.375 43.015625 40.234375 45.921875 
Q 44.09375 48.828125 44.09375 54.296875 
Q 44.09375 59.90625 40.109375 62.90625 
Q 36.140625 65.921875 28.71875 65.921875 
Q 24.65625 65.921875 20.015625 65.03125 
Q 15.375 64.15625 9.8125 62.3125 
L 9.8125 71.09375 
Q 15.4375 72.65625 20.34375 73.4375 
Q 25.25 74.21875 29.59375 74.21875 
Q 40.828125 74.21875 47.359375 69.109375 
Q 53.90625 64.015625 53.90625 55.328125 
Q 53.90625 49.265625 50.4375 45.09375 
Q 46.96875 40.921875 40.578125 39.3125 
z
" id="DejaVuSans-51"/>
      </defs>
      <g style="fill:#262626;" transform="translate(494.223594 269.858281)scale(0.11 -0.11)">
       <use xlink:href="#DejaVuSans-51"/>
       <use x="63.623047" xlink:href="#DejaVuSans-41"/>
       <use x="102.636719" xlink:href="#DejaVuSans-32"/>
       <use x="134.423828" xlink:href="#DejaVuSans-76"/>
       <use x="192.386719" xlink:href="#DejaVuSans-65"/>
       <use x="260.794922" xlink:href="#DejaVuSans-83"/>
       <use x="324.271484" xlink:href="#DejaVuSans-84"/>
       <use x="385.355469" xlink:href="#DejaVuSans-69"/>
       <use x="448.539062" xlink:href="#DejaVuSans-78"/>
       <use x="523.34375" xlink:href="#DejaVuSans-83"/>
      </g>
     </g>
    </g>
    <g id="xtick_4">
     <g id="text_4">
      <!-- 4) LASTENA -->
      <g style="fill:#262626;" transform="translate(661.352891 269.858281)scale(0.11 -0.11)">
       <use xlink:href="#DejaVuSans-52"/>
       <use x="63.623047" xlink:href="#DejaVuSans-41"/>
       <use x="102.636719" xlink:href="#DejaVuSans-32"/>
       <use x="134.423828" xlink:href="#DejaVuSans-76"/>
       <use x="192.386719" xlink:href="#DejaVuSans-65"/>
       <use x="260.794922" xlink:href="#DejaVuSans-83"/>
       <use x="324.271484" xlink:href="#DejaVuSans-84"/>
       <use x="385.355469" xlink:href="#DejaVuSans-69"/>
       <use x="448.539062" xlink:href="#DejaVuSans-78"/>
       <use x="523.34375" xlink:href="#DejaVuSans-65"/>
      </g>
     </g>
    </g>
   </g>
   <g id="matplotlib.axis_2">
    <g id="ytick_1">
     <g id="line2d_1">
      <path clip-path="url(#p60cb29cebf)" d="M 108 241.645714 
L 777.6 241.645714 
" style="fill:none;stroke:#cccccc;stroke-linecap:round;"/>
     </g>
     <g id="text_5">
      <!-- 0.0 -->
      <defs>
       <path d="M 31.78125 66.40625 
Q 24.171875 66.40625 20.328125 58.90625 
Q 16.5 51.421875 16.5 36.375 
Q 16.5 21.390625 20.328125 13.890625 
Q 24.171875 6.390625 31.78125 6.390625 
Q 39.453125 6.390625 43.28125 13.890625 
Q 47.125 21.390625 47.125 36.375 
Q 47.125 51.421875 43.28125 58.90625 
Q 39.453125 66.40625 31.78125 66.40625 
z
M 31.78125 74.21875 
Q 44.046875 74.21875 50.515625 64.515625 
Q 56.984375 54.828125 56.984375 36.375 
Q 56.984375 17.96875 50.515625 8.265625 
Q 44.046875 -1.421875 31.78125 -1.421875 
Q 19.53125 -1.421875 13.0625 8.265625 
Q 6.59375 17.96875 6.59375 36.375 
Q 6.59375 54.828125 13.0625 64.515625 
Q 19.53125 74.21875 31.78125 74.21875 
z
" id="DejaVuSans-48"/>
       <path d="M 10.6875 12.40625 
L 21 12.40625 
L 21 0 
L 10.6875 0 
z
" id="DejaVuSans-46"/>
      </defs>
      <g style="fill:#262626;" transform="translate(81.006563 245.824855)scale(0.11 -0.11)">
       <use xlink:href="#DejaVuSans-48"/>
       <use x="63.623047" xlink:href="#DejaVuSans-46"/>
       <use x="95.410156" xlink:href="#DejaVuSans-48"/>
      </g>
     </g>
    </g>
    <g id="ytick_2">
     <g id="line2d_2">
      <path clip-path="url(#p60cb29cebf)" d="M 108 215.76 
L 777.6 215.76 
" style="fill:none;stroke:#cccccc;stroke-linecap:round;"/>
     </g>
     <g id="text_6">
      <!-- 2.5 -->
      <defs>
       <path d="M 10.796875 72.90625 
L 49.515625 72.90625 
L 49.515625 64.59375 
L 19.828125 64.59375 
L 19.828125 46.734375 
Q 21.96875 47.46875 24.109375 47.828125 
Q 26.265625 48.1875 28.421875 48.1875 
Q 40.625 48.1875 47.75 41.5 
Q 54.890625 34.8125 54.890625 23.390625 
Q 54.890625 11.625 47.5625 5.09375 
Q 40.234375 -1.421875 26.90625 -1.421875 
Q 22.3125 -1.421875 17.546875 -0.640625 
Q 12.796875 0.140625 7.71875 1.703125 
L 7.71875 11.625 
Q 12.109375 9.234375 16.796875 8.0625 
Q 21.484375 6.890625 26.703125 6.890625 
Q 35.15625 6.890625 40.078125 11.328125 
Q 45.015625 15.765625 45.015625 23.390625 
Q 45.015625 31 40.078125 35.4375 
Q 35.15625 39.890625 26.703125 39.890625 
Q 22.75 39.890625 18.8125 39.015625 
Q 14.890625 38.140625 10.796875 36.28125 
z
" id="DejaVuSans-53"/>
      </defs>
      <g style="fill:#262626;" transform="translate(81.006563 219.939141)scale(0.11 -0.11)">
       <use xlink:href="#DejaVuSans-50"/>
       <use x="63.623047" xlink:href="#DejaVuSans-46"/>
       <use x="95.410156" xlink:href="#DejaVuSans-53"/>
      </g>
     </g>
    </g>
    <g id="ytick_3">
     <g id="line2d_3">
      <path clip-path="url(#p60cb29cebf)" d="M 108 189.874286 
L 777.6 189.874286 
" style="fill:none;stroke:#cccccc;stroke-linecap:round;"/>
     </g>
     <g id="text_7">
      <!-- 5.0 -->
      <g style="fill:#262626;" transform="translate(81.006563 194.053426)scale(0.11 -0.11)">
       <use xlink:href="#DejaVuSans-53"/>
       <use x="63.623047" xlink:href="#DejaVuSans-46"/>
       <use x="95.410156" xlink:href="#DejaVuSans-48"/>
      </g>
     </g>
    </g>
    <g id="ytick_4">
     <g id="line2d_4">
      <path clip-path="url(#p60cb29cebf)" d="M 108 163.988571 
L 777.6 163.988571 
" style="fill:none;stroke:#cccccc;stroke-linecap:round;"/>
     </g>
     <g id="text_8">
      <!-- 7.5 -->
      <defs>
       <path d="M 8.203125 72.90625 
L 55.078125 72.90625 
L 55.078125 68.703125 
L 28.609375 0 
L 18.3125 0 
L 43.21875 64.59375 
L 8.203125 64.59375 
z
" id="DejaVuSans-55"/>
      </defs>
      <g style="fill:#262626;" transform="translate(81.006563 168.167712)scale(0.11 -0.11)">
       <use xlink:href="#DejaVuSans-55"/>
       <use x="63.623047" xlink:href="#DejaVuSans-46"/>
       <use x="95.410156" xlink:href="#DejaVuSans-53"/>
      </g>
     </g>
    </g>
    <g id="ytick_5">
     <g id="line2d_5">
      <path clip-path="url(#p60cb29cebf)" d="M 108 138.102857 
L 777.6 138.102857 
" style="fill:none;stroke:#cccccc;stroke-linecap:round;"/>
     </g>
     <g id="text_9">
      <!-- 10.0 -->
      <g style="fill:#262626;" transform="translate(74.007812 142.281998)scale(0.11 -0.11)">
       <use xlink:href="#DejaVuSans-49"/>
       <use x="63.623047" xlink:href="#DejaVuSans-48"/>
       <use x="127.246094" xlink:href="#DejaVuSans-46"/>
       <use x="159.033203" xlink:href="#DejaVuSans-48"/>
      </g>
     </g>
    </g>
    <g id="ytick_6">
     <g id="line2d_6">
      <path clip-path="url(#p60cb29cebf)" d="M 108 112.217143 
L 777.6 112.217143 
" style="fill:none;stroke:#cccccc;stroke-linecap:round;"/>
     </g>
     <g id="text_10">
      <!-- 12.5 -->
      <g style="fill:#262626;" transform="translate(74.007812 116.396283)scale(0.11 -0.11)">
       <use xlink:href="#DejaVuSans-49"/>
       <use x="63.623047" xlink:href="#DejaVuSans-50"/>
       <use x="127.246094" xlink:href="#DejaVuSans-46"/>
       <use x="159.033203" xlink:href="#DejaVuSans-53"/>
      </g>
     </g>
    </g>
    <g id="ytick_7">
     <g id="line2d_7">
      <path clip-path="url(#p60cb29cebf)" d="M 108 86.331429 
L 777.6 86.331429 
" style="fill:none;stroke:#cccccc;stroke-linecap:round;"/>
     </g>
     <g id="text_11">
      <!-- 15.0 -->
      <g style="fill:#262626;" transform="translate(74.007812 90.510569)scale(0.11 -0.11)">
       <use xlink:href="#DejaVuSans-49"/>
       <use x="63.623047" xlink:href="#DejaVuSans-53"/>
       <use x="127.246094" xlink:href="#DejaVuSans-46"/>
       <use x="159.033203" xlink:href="#DejaVuSans-48"/>
      </g>
     </g>
    </g>
    <g id="ytick_8">
     <g id="line2d_8">
      <path clip-path="url(#p60cb29cebf)" d="M 108 60.445714 
L 777.6 60.445714 
" style="fill:none;stroke:#cccccc;stroke-linecap:round;"/>
     </g>
     <g id="text_12">
      <!-- 17.5 -->
      <g style="fill:#262626;" transform="translate(74.007812 64.624855)scale(0.11 -0.11)">
       <use xlink:href="#DejaVuSans-49"/>
       <use x="63.623047" xlink:href="#DejaVuSans-55"/>
       <use x="127.246094" xlink:href="#DejaVuSans-46"/>
       <use x="159.033203" xlink:href="#DejaVuSans-53"/>
      </g>
     </g>
    </g>
    <g id="ytick_9">
     <g id="line2d_9">
      <path clip-path="url(#p60cb29cebf)" d="M 108 34.56 
L 777.6 34.56 
" style="fill:none;stroke:#cccccc;stroke-linecap:round;"/>
     </g>
     <g id="text_13">
      <!-- 20.0 -->
      <g style="fill:#262626;" transform="translate(74.007812 38.739141)scale(0.11 -0.11)">
       <use xlink:href="#DejaVuSans-50"/>
       <use x="63.623047" xlink:href="#DejaVuSans-48"/>
       <use x="127.246094" xlink:href="#DejaVuSans-46"/>
       <use x="159.033203" xlink:href="#DejaVuSans-48"/>
      </g>
     </g>
    </g>
    <g id="text_14">
     <!-- MAED -->
     <defs>
      <path d="M 9.8125 72.90625 
L 24.515625 72.90625 
L 43.109375 23.296875 
L 61.8125 72.90625 
L 76.515625 72.90625 
L 76.515625 0 
L 66.890625 0 
L 66.890625 64.015625 
L 48.09375 14.015625 
L 38.1875 14.015625 
L 19.390625 64.015625 
L 19.390625 0 
L 9.8125 0 
z
" id="DejaVuSans-77"/>
      <path d="M 19.671875 64.796875 
L 19.671875 8.109375 
L 31.59375 8.109375 
Q 46.6875 8.109375 53.6875 14.9375 
Q 60.6875 21.78125 60.6875 36.53125 
Q 60.6875 51.171875 53.6875 57.984375 
Q 46.6875 64.796875 31.59375 64.796875 
z
M 9.8125 72.90625 
L 30.078125 72.90625 
Q 51.265625 72.90625 61.171875 64.09375 
Q 71.09375 55.28125 71.09375 36.53125 
Q 71.09375 17.671875 61.125 8.828125 
Q 51.171875 0 30.078125 0 
L 9.8125 0 
z
" id="DejaVuSans-68"/>
     </defs>
     <g style="fill:#262626;" transform="translate(67.512187 160.9725)rotate(-90)scale(0.12 -0.12)">
      <use xlink:href="#DejaVuSans-77"/>
      <use x="86.279297" xlink:href="#DejaVuSans-65"/>
      <use x="154.6875" xlink:href="#DejaVuSans-69"/>
      <use x="217.871094" xlink:href="#DejaVuSans-68"/>
     </g>
    </g>
   </g>
   <g id="PolyCollection_1">
    <defs>
     <path d="M 191.7 -64.536703 
L 151.915837 -64.536703 
L 149.389663 -64.726654 
L 146.898877 -64.916606 
L 144.463221 -65.106557 
L 142.102121 -65.296508 
L 139.834384 -65.48646 
L 137.677905 -65.676411 
L 135.649398 -65.866362 
L 133.764134 -66.056313 
L 132.035715 -66.246265 
L 130.47586 -66.436216 
L 129.09423 -66.626167 
L 127.898276 -66.816119 
L 126.893126 -67.00607 
L 126.081507 -67.196021 
L 125.463707 -67.385972 
L 125.037582 -67.575924 
L 124.798612 -67.765875 
L 124.74 -67.955826 
L 124.852826 -68.145778 
L 125.126246 -68.335729 
L 125.547738 -68.52568 
L 126.103391 -68.715631 
L 126.778221 -68.905583 
L 127.556523 -69.095534 
L 128.42223 -69.285485 
L 129.359276 -69.475437 
L 130.35195 -69.665388 
L 131.385231 -69.855339 
L 132.445089 -70.04529 
L 133.518734 -70.235242 
L 134.594828 -70.425193 
L 135.663629 -70.615144 
L 136.71708 -70.805096 
L 137.748835 -70.995047 
L 138.754234 -71.184998 
L 139.730221 -71.374949 
L 140.675223 -71.564901 
L 141.588992 -71.754852 
L 142.472428 -71.944803 
L 143.327379 -72.134755 
L 144.156446 -72.324706 
L 144.96279 -72.514657 
L 145.749943 -72.704609 
L 146.52165 -72.89456 
L 147.28172 -73.084511 
L 148.033909 -73.274462 
L 148.781822 -73.464414 
L 149.52884 -73.654365 
L 150.27807 -73.844316 
L 151.032308 -74.034268 
L 151.794028 -74.224219 
L 152.565374 -74.41417 
L 153.348167 -74.604121 
L 154.143915 -74.794073 
L 154.953836 -74.984024 
L 155.778871 -75.173975 
L 156.619704 -75.363927 
L 157.476784 -75.553878 
L 158.350335 -75.743829 
L 159.240369 -75.93378 
L 160.146691 -76.123732 
L 161.0689 -76.313683 
L 162.006384 -76.503634 
L 162.958309 -76.693586 
L 163.9236 -76.883537 
L 164.900927 -77.073488 
L 165.888675 -77.263439 
L 166.884929 -77.453391 
L 167.88745 -77.643342 
L 168.893661 -77.833293 
L 169.90064 -78.023245 
L 170.905124 -78.213196 
L 171.903528 -78.403147 
L 172.891978 -78.593098 
L 173.866358 -78.78305 
L 174.822383 -78.973001 
L 175.755678 -79.162952 
L 176.661875 -79.352904 
L 177.536727 -79.542855 
L 178.376221 -79.732806 
L 179.176699 -79.922757 
L 179.934972 -80.112709 
L 180.648436 -80.30266 
L 181.315159 -80.492611 
L 181.933962 -80.682563 
L 182.504469 -80.872514 
L 183.027132 -81.062465 
L 183.503232 -81.252416 
L 183.934837 -81.442368 
L 184.324746 -81.632319 
L 184.676393 -81.82227 
L 184.993736 -82.012222 
L 185.281123 -82.202173 
L 185.543145 -82.392124 
L 185.784483 -82.582075 
L 186.009759 -82.772027 
L 186.223384 -82.961978 
L 186.429433 -83.151929 
L 186.631525 -83.341881 
L 191.7 -83.341881 
L 191.7 -83.341881 
L 191.7 -83.151929 
L 191.7 -82.961978 
L 191.7 -82.772027 
L 191.7 -82.582075 
L 191.7 -82.392124 
L 191.7 -82.202173 
L 191.7 -82.012222 
L 191.7 -81.82227 
L 191.7 -81.632319 
L 191.7 -81.442368 
L 191.7 -81.252416 
L 191.7 -81.062465 
L 191.7 -80.872514 
L 191.7 -80.682563 
L 191.7 -80.492611 
L 191.7 -80.30266 
L 191.7 -80.112709 
L 191.7 -79.922757 
L 191.7 -79.732806 
L 191.7 -79.542855 
L 191.7 -79.352904 
L 191.7 -79.162952 
L 191.7 -78.973001 
L 191.7 -78.78305 
L 191.7 -78.593098 
L 191.7 -78.403147 
L 191.7 -78.213196 
L 191.7 -78.023245 
L 191.7 -77.833293 
L 191.7 -77.643342 
L 191.7 -77.453391 
L 191.7 -77.263439 
L 191.7 -77.073488 
L 191.7 -76.883537 
L 191.7 -76.693586 
L 191.7 -76.503634 
L 191.7 -76.313683 
L 191.7 -76.123732 
L 191.7 -75.93378 
L 191.7 -75.743829 
L 191.7 -75.553878 
L 191.7 -75.363927 
L 191.7 -75.173975 
L 191.7 -74.984024 
L 191.7 -74.794073 
L 191.7 -74.604121 
L 191.7 -74.41417 
L 191.7 -74.224219 
L 191.7 -74.034268 
L 191.7 -73.844316 
L 191.7 -73.654365 
L 191.7 -73.464414 
L 191.7 -73.274462 
L 191.7 -73.084511 
L 191.7 -72.89456 
L 191.7 -72.704609 
L 191.7 -72.514657 
L 191.7 -72.324706 
L 191.7 -72.134755 
L 191.7 -71.944803 
L 191.7 -71.754852 
L 191.7 -71.564901 
L 191.7 -71.374949 
L 191.7 -71.184998 
L 191.7 -70.995047 
L 191.7 -70.805096 
L 191.7 -70.615144 
L 191.7 -70.425193 
L 191.7 -70.235242 
L 191.7 -70.04529 
L 191.7 -69.855339 
L 191.7 -69.665388 
L 191.7 -69.475437 
L 191.7 -69.285485 
L 191.7 -69.095534 
L 191.7 -68.905583 
L 191.7 -68.715631 
L 191.7 -68.52568 
L 191.7 -68.335729 
L 191.7 -68.145778 
L 191.7 -67.955826 
L 191.7 -67.765875 
L 191.7 -67.575924 
L 191.7 -67.385972 
L 191.7 -67.196021 
L 191.7 -67.00607 
L 191.7 -66.816119 
L 191.7 -66.626167 
L 191.7 -66.436216 
L 191.7 -66.246265 
L 191.7 -66.056313 
L 191.7 -65.866362 
L 191.7 -65.676411 
L 191.7 -65.48646 
L 191.7 -65.296508 
L 191.7 -65.106557 
L 191.7 -64.916606 
L 191.7 -64.726654 
L 191.7 -64.536703 
z
" id="m9588b97a4c" style="stroke:#737373;stroke-width:1.5;"/>
    </defs>
    <g clip-path="url(#p60cb29cebf)">
     <use style="fill:#abc9ea;stroke:#737373;stroke-width:1.5;" x="0" xlink:href="#m9588b97a4c" y="288"/>
    </g>
   </g>
   <g id="PolyCollection_2">
    <defs>
     <path d="M 217.020897 -63.663886 
L 191.7 -63.663886 
L 191.7 -63.895706 
L 191.7 -64.127525 
L 191.7 -64.359345 
L 191.7 -64.591165 
L 191.7 -64.822985 
L 191.7 -65.054805 
L 191.7 -65.286624 
L 191.7 -65.518444 
L 191.7 -65.750264 
L 191.7 -65.982084 
L 191.7 -66.213903 
L 191.7 -66.445723 
L 191.7 -66.677543 
L 191.7 -66.909363 
L 191.7 -67.141183 
L 191.7 -67.373002 
L 191.7 -67.604822 
L 191.7 -67.836642 
L 191.7 -68.068462 
L 191.7 -68.300282 
L 191.7 -68.532101 
L 191.7 -68.763921 
L 191.7 -68.995741 
L 191.7 -69.227561 
L 191.7 -69.45938 
L 191.7 -69.6912 
L 191.7 -69.92302 
L 191.7 -70.15484 
L 191.7 -70.38666 
L 191.7 -70.618479 
L 191.7 -70.850299 
L 191.7 -71.082119 
L 191.7 -71.313939 
L 191.7 -71.545759 
L 191.7 -71.777578 
L 191.7 -72.009398 
L 191.7 -72.241218 
L 191.7 -72.473038 
L 191.7 -72.704857 
L 191.7 -72.936677 
L 191.7 -73.168497 
L 191.7 -73.400317 
L 191.7 -73.632137 
L 191.7 -73.863956 
L 191.7 -74.095776 
L 191.7 -74.327596 
L 191.7 -74.559416 
L 191.7 -74.791236 
L 191.7 -75.023055 
L 191.7 -75.254875 
L 191.7 -75.486695 
L 191.7 -75.718515 
L 191.7 -75.950334 
L 191.7 -76.182154 
L 191.7 -76.413974 
L 191.7 -76.645794 
L 191.7 -76.877614 
L 191.7 -77.109433 
L 191.7 -77.341253 
L 191.7 -77.573073 
L 191.7 -77.804893 
L 191.7 -78.036712 
L 191.7 -78.268532 
L 191.7 -78.500352 
L 191.7 -78.732172 
L 191.7 -78.963992 
L 191.7 -79.195811 
L 191.7 -79.427631 
L 191.7 -79.659451 
L 191.7 -79.891271 
L 191.7 -80.123091 
L 191.7 -80.35491 
L 191.7 -80.58673 
L 191.7 -80.81855 
L 191.7 -81.05037 
L 191.7 -81.282189 
L 191.7 -81.514009 
L 191.7 -81.745829 
L 191.7 -81.977649 
L 191.7 -82.209469 
L 191.7 -82.441288 
L 191.7 -82.673108 
L 191.7 -82.904928 
L 191.7 -83.136748 
L 191.7 -83.368568 
L 191.7 -83.600387 
L 191.7 -83.832207 
L 191.7 -84.064027 
L 191.7 -84.295847 
L 191.7 -84.527666 
L 191.7 -84.759486 
L 191.7 -84.991306 
L 191.7 -85.223126 
L 191.7 -85.454946 
L 191.7 -85.686765 
L 191.7 -85.918585 
L 191.7 -86.150405 
L 191.7 -86.382225 
L 191.7 -86.614045 
L 197.855449 -86.614045 
L 197.855449 -86.614045 
L 197.979318 -86.382225 
L 198.057347 -86.150405 
L 198.088581 -85.918585 
L 198.073372 -85.686765 
L 198.013417 -85.454946 
L 197.911747 -85.223126 
L 197.772665 -84.991306 
L 197.60164 -84.759486 
L 197.405168 -84.527666 
L 197.190591 -84.295847 
L 196.965891 -84.064027 
L 196.739473 -83.832207 
L 196.519932 -83.600387 
L 196.315824 -83.368568 
L 196.135441 -83.136748 
L 195.986605 -82.904928 
L 195.876478 -82.673108 
L 195.811406 -82.441288 
L 195.796789 -82.209469 
L 195.836983 -81.977649 
L 195.935241 -81.745829 
L 196.093691 -81.514009 
L 196.313349 -81.282189 
L 196.594167 -81.05037 
L 196.935112 -80.81855 
L 197.334282 -80.58673 
L 197.78904 -80.35491 
L 198.296174 -80.123091 
L 198.852064 -79.891271 
L 199.452871 -79.659451 
L 200.094708 -79.427631 
L 200.773823 -79.195811 
L 201.486759 -78.963992 
L 202.230495 -78.732172 
L 203.002572 -78.500352 
L 203.801183 -78.268532 
L 204.625245 -78.036712 
L 205.474433 -77.804893 
L 206.349194 -77.573073 
L 207.25074 -77.341253 
L 208.181011 -77.109433 
L 209.142629 -76.877614 
L 210.138836 -76.645794 
L 211.173419 -76.413974 
L 212.250621 -76.182154 
L 213.375043 -75.950334 
L 214.551526 -75.718515 
L 215.78502 -75.486695 
L 217.080426 -75.254875 
L 218.442407 -75.023055 
L 219.87518 -74.791236 
L 221.382272 -74.559416 
L 222.966246 -74.327596 
L 224.628417 -74.095776 
L 226.368544 -73.863956 
L 228.184537 -73.632137 
L 230.072175 -73.400317 
L 232.024865 -73.168497 
L 234.033463 -72.936677 
L 236.086166 -72.704857 
L 238.168499 -72.473038 
L 240.263413 -72.241218 
L 242.351486 -72.009398 
L 244.41125 -71.777578 
L 246.419618 -71.545759 
L 248.352403 -71.313939 
L 250.184922 -71.082119 
L 251.892636 -70.850299 
L 253.451822 -70.618479 
L 254.840224 -70.38666 
L 256.03767 -70.15484 
L 257.026612 -69.92302 
L 257.792573 -69.6912 
L 258.324484 -69.45938 
L 258.614884 -69.227561 
L 258.66 -68.995741 
L 258.459694 -68.763921 
L 258.017296 -68.532101 
L 257.339331 -68.300282 
L 256.435173 -68.068462 
L 255.316642 -67.836642 
L 253.997562 -67.604822 
L 252.493326 -67.373002 
L 250.820465 -67.141183 
L 248.996254 -66.909363 
L 247.038369 -66.677543 
L 244.964595 -66.445723 
L 242.792594 -66.213903 
L 240.539731 -65.982084 
L 238.222956 -65.750264 
L 235.858717 -65.518444 
L 233.462924 -65.286624 
L 231.050917 -65.054805 
L 228.637452 -64.822985 
L 226.236687 -64.591165 
L 223.862151 -64.359345 
L 221.526711 -64.127525 
L 219.242511 -63.895706 
L 217.020897 -63.663886 
z
" id="ma9cbdcec2b" style="stroke:#737373;stroke-width:1.5;"/>
    </defs>
    <g clip-path="url(#p60cb29cebf)">
     <use style="fill:#efb792;stroke:#737373;stroke-width:1.5;" x="0" xlink:href="#ma9cbdcec2b" y="288"/>
    </g>
   </g>
   <g id="PolyCollection_3">
    <defs>
     <path d="M 359.1 -57.914247 
L 327.925436 -57.914247 
L 325.188497 -58.209883 
L 322.392787 -58.50552 
L 319.561668 -58.801156 
L 316.720863 -59.096792 
L 313.898145 -59.392428 
L 311.122933 -59.688064 
L 308.425837 -59.9837 
L 305.838137 -60.279337 
L 303.391214 -60.574973 
L 301.115939 -60.870609 
L 299.042054 -61.166245 
L 297.197525 -61.461881 
L 295.607924 -61.757517 
L 294.295827 -62.053154 
L 293.28026 -62.34879 
L 292.576208 -62.644426 
L 292.194203 -62.940062 
L 292.14 -63.235698 
L 292.41437 -63.531334 
L 293.012995 -63.826971 
L 293.926494 -64.122607 
L 295.140569 -64.418243 
L 296.636272 -64.713879 
L 298.390393 -65.009515 
L 300.375951 -65.305151 
L 302.562777 -65.600788 
L 304.918181 -65.896424 
L 307.407666 -66.19206 
L 309.995683 -66.487696 
L 312.646399 -66.783332 
L 315.32445 -67.078968 
L 317.995668 -67.374605 
L 320.627754 -67.670241 
L 323.190873 -67.965877 
L 325.658175 -68.261513 
L 328.006212 -68.557149 
L 330.215248 -68.852785 
L 332.26947 -69.148421 
L 334.157079 -69.444058 
L 335.870282 -69.739694 
L 337.405188 -70.03533 
L 338.761609 -70.330966 
L 339.942786 -70.626602 
L 340.955051 -70.922238 
L 341.807438 -71.217875 
L 342.511255 -71.513511 
L 343.079639 -71.809147 
L 343.527094 -72.104783 
L 343.869042 -72.400419 
L 344.121381 -72.696055 
L 344.300072 -72.991692 
L 344.420761 -73.287328 
L 344.498437 -73.582964 
L 344.547139 -73.8786 
L 344.579713 -74.174236 
L 344.607614 -74.469872 
L 344.640769 -74.765509 
L 344.687486 -75.061145 
L 344.754411 -75.356781 
L 344.846536 -75.652417 
L 344.967244 -75.948053 
L 345.118399 -76.243689 
L 345.300462 -76.539326 
L 345.512633 -76.834962 
L 345.753022 -77.130598 
L 346.018825 -77.426234 
L 346.306513 -77.72187 
L 346.612023 -78.017506 
L 346.930949 -78.313143 
L 347.258719 -78.608779 
L 347.590765 -78.904415 
L 347.922678 -79.200051 
L 348.250339 -79.495687 
L 348.570038 -79.791323 
L 348.878563 -80.08696 
L 349.173269 -80.382596 
L 349.45213 -80.678232 
L 349.713761 -80.973868 
L 349.957424 -81.269504 
L 350.183013 -81.56514 
L 350.391027 -81.860777 
L 350.582515 -82.156413 
L 350.759023 -82.452049 
L 350.922522 -82.747685 
L 351.075326 -83.043321 
L 351.220007 -83.338957 
L 351.359311 -83.634594 
L 351.496061 -83.93023 
L 351.633071 -84.225866 
L 351.77306 -84.521502 
L 351.918569 -84.817138 
L 352.071888 -85.112774 
L 352.234994 -85.408411 
L 352.409491 -85.704047 
L 352.596576 -85.999683 
L 352.797005 -86.295319 
L 353.011079 -86.590955 
L 353.238649 -86.886591 
L 353.479122 -87.182227 
L 359.1 -87.182227 
L 359.1 -87.182227 
L 359.1 -86.886591 
L 359.1 -86.590955 
L 359.1 -86.295319 
L 359.1 -85.999683 
L 359.1 -85.704047 
L 359.1 -85.408411 
L 359.1 -85.112774 
L 359.1 -84.817138 
L 359.1 -84.521502 
L 359.1 -84.225866 
L 359.1 -83.93023 
L 359.1 -83.634594 
L 359.1 -83.338957 
L 359.1 -83.043321 
L 359.1 -82.747685 
L 359.1 -82.452049 
L 359.1 -82.156413 
L 359.1 -81.860777 
L 359.1 -81.56514 
L 359.1 -81.269504 
L 359.1 -80.973868 
L 359.1 -80.678232 
L 359.1 -80.382596 
L 359.1 -80.08696 
L 359.1 -79.791323 
L 359.1 -79.495687 
L 359.1 -79.200051 
L 359.1 -78.904415 
L 359.1 -78.608779 
L 359.1 -78.313143 
L 359.1 -78.017506 
L 359.1 -77.72187 
L 359.1 -77.426234 
L 359.1 -77.130598 
L 359.1 -76.834962 
L 359.1 -76.539326 
L 359.1 -76.243689 
L 359.1 -75.948053 
L 359.1 -75.652417 
L 359.1 -75.356781 
L 359.1 -75.061145 
L 359.1 -74.765509 
L 359.1 -74.469872 
L 359.1 -74.174236 
L 359.1 -73.8786 
L 359.1 -73.582964 
L 359.1 -73.287328 
L 359.1 -72.991692 
L 359.1 -72.696055 
L 359.1 -72.400419 
L 359.1 -72.104783 
L 359.1 -71.809147 
L 359.1 -71.513511 
L 359.1 -71.217875 
L 359.1 -70.922238 
L 359.1 -70.626602 
L 359.1 -70.330966 
L 359.1 -70.03533 
L 359.1 -69.739694 
L 359.1 -69.444058 
L 359.1 -69.148421 
L 359.1 -68.852785 
L 359.1 -68.557149 
L 359.1 -68.261513 
L 359.1 -67.965877 
L 359.1 -67.670241 
L 359.1 -67.374605 
L 359.1 -67.078968 
L 359.1 -66.783332 
L 359.1 -66.487696 
L 359.1 -66.19206 
L 359.1 -65.896424 
L 359.1 -65.600788 
L 359.1 -65.305151 
L 359.1 -65.009515 
L 359.1 -64.713879 
L 359.1 -64.418243 
L 359.1 -64.122607 
L 359.1 -63.826971 
L 359.1 -63.531334 
L 359.1 -63.235698 
L 359.1 -62.940062 
L 359.1 -62.644426 
L 359.1 -62.34879 
L 359.1 -62.053154 
L 359.1 -61.757517 
L 359.1 -61.461881 
L 359.1 -61.166245 
L 359.1 -60.870609 
L 359.1 -60.574973 
L 359.1 -60.279337 
L 359.1 -59.9837 
L 359.1 -59.688064 
L 359.1 -59.392428 
L 359.1 -59.096792 
L 359.1 -58.801156 
L 359.1 -58.50552 
L 359.1 -58.209883 
L 359.1 -57.914247 
z
" id="mec5b2e1771" style="stroke:#737373;stroke-width:1.5;"/>
    </defs>
    <g clip-path="url(#p60cb29cebf)">
     <use style="fill:#abc9ea;stroke:#737373;stroke-width:1.5;" x="0" xlink:href="#mec5b2e1771" y="288"/>
    </g>
   </g>
   <g id="PolyCollection_4">
    <defs>
     <path d="M 409.347446 -60.22125 
L 359.1 -60.22125 
L 359.1 -60.48239 
L 359.1 -60.743529 
L 359.1 -61.004669 
L 359.1 -61.265808 
L 359.1 -61.526948 
L 359.1 -61.788087 
L 359.1 -62.049227 
L 359.1 -62.310366 
L 359.1 -62.571506 
L 359.1 -62.832645 
L 359.1 -63.093785 
L 359.1 -63.354925 
L 359.1 -63.616064 
L 359.1 -63.877204 
L 359.1 -64.138343 
L 359.1 -64.399483 
L 359.1 -64.660622 
L 359.1 -64.921762 
L 359.1 -65.182901 
L 359.1 -65.444041 
L 359.1 -65.70518 
L 359.1 -65.96632 
L 359.1 -66.227459 
L 359.1 -66.488599 
L 359.1 -66.749738 
L 359.1 -67.010878 
L 359.1 -67.272017 
L 359.1 -67.533157 
L 359.1 -67.794297 
L 359.1 -68.055436 
L 359.1 -68.316576 
L 359.1 -68.577715 
L 359.1 -68.838855 
L 359.1 -69.099994 
L 359.1 -69.361134 
L 359.1 -69.622273 
L 359.1 -69.883413 
L 359.1 -70.144552 
L 359.1 -70.405692 
L 359.1 -70.666831 
L 359.1 -70.927971 
L 359.1 -71.18911 
L 359.1 -71.45025 
L 359.1 -71.711389 
L 359.1 -71.972529 
L 359.1 -72.233668 
L 359.1 -72.494808 
L 359.1 -72.755948 
L 359.1 -73.017087 
L 359.1 -73.278227 
L 359.1 -73.539366 
L 359.1 -73.800506 
L 359.1 -74.061645 
L 359.1 -74.322785 
L 359.1 -74.583924 
L 359.1 -74.845064 
L 359.1 -75.106203 
L 359.1 -75.367343 
L 359.1 -75.628482 
L 359.1 -75.889622 
L 359.1 -76.150761 
L 359.1 -76.411901 
L 359.1 -76.67304 
L 359.1 -76.93418 
L 359.1 -77.19532 
L 359.1 -77.456459 
L 359.1 -77.717599 
L 359.1 -77.978738 
L 359.1 -78.239878 
L 359.1 -78.501017 
L 359.1 -78.762157 
L 359.1 -79.023296 
L 359.1 -79.284436 
L 359.1 -79.545575 
L 359.1 -79.806715 
L 359.1 -80.067854 
L 359.1 -80.328994 
L 359.1 -80.590133 
L 359.1 -80.851273 
L 359.1 -81.112412 
L 359.1 -81.373552 
L 359.1 -81.634692 
L 359.1 -81.895831 
L 359.1 -82.156971 
L 359.1 -82.41811 
L 359.1 -82.67925 
L 359.1 -82.940389 
L 359.1 -83.201529 
L 359.1 -83.462668 
L 359.1 -83.723808 
L 359.1 -83.984947 
L 359.1 -84.246087 
L 359.1 -84.507226 
L 359.1 -84.768366 
L 359.1 -85.029505 
L 359.1 -85.290645 
L 359.1 -85.551784 
L 359.1 -85.812924 
L 359.1 -86.074063 
L 362.675187 -86.074063 
L 362.675187 -86.074063 
L 362.782244 -85.812924 
L 362.8768 -85.551784 
L 362.959359 -85.290645 
L 363.030683 -85.029505 
L 363.091729 -84.768366 
L 363.143566 -84.507226 
L 363.187311 -84.246087 
L 363.22405 -83.984947 
L 363.254789 -83.723808 
L 363.28041 -83.462668 
L 363.301648 -83.201529 
L 363.319081 -82.940389 
L 363.333145 -82.67925 
L 363.344152 -82.41811 
L 363.35233 -82.156971 
L 363.357856 -81.895831 
L 363.360896 -81.634692 
L 363.361639 -81.373552 
L 363.360321 -81.112412 
L 363.357242 -80.851273 
L 363.352765 -80.590133 
L 363.347315 -80.328994 
L 363.341357 -80.067854 
L 363.335386 -79.806715 
L 363.3299 -79.545575 
L 363.325393 -79.284436 
L 363.322349 -79.023296 
L 363.321251 -78.762157 
L 363.322606 -78.501017 
L 363.326983 -78.239878 
L 363.335068 -77.978738 
L 363.347724 -77.717599 
L 363.366061 -77.456459 
L 363.391502 -77.19532 
L 363.425843 -76.93418 
L 363.471295 -76.67304 
L 363.530513 -76.411901 
L 363.606596 -76.150761 
L 363.703065 -75.889622 
L 363.823812 -75.628482 
L 363.973026 -75.367343 
L 364.1551 -75.106203 
L 364.374529 -74.845064 
L 364.635794 -74.583924 
L 364.943255 -74.322785 
L 365.301053 -74.061645 
L 365.713025 -73.800506 
L 366.182649 -73.539366 
L 366.713003 -73.278227 
L 367.306767 -73.017087 
L 367.966234 -72.755948 
L 368.693351 -72.494808 
L 369.48978 -72.233668 
L 370.356957 -71.972529 
L 371.29616 -71.711389 
L 372.308573 -71.45025 
L 373.395323 -71.18911 
L 374.557513 -70.927971 
L 375.796221 -70.666831 
L 377.112473 -70.405692 
L 378.507193 -70.144552 
L 379.98112 -69.883413 
L 381.534712 -69.622273 
L 383.168016 -69.361134 
L 384.880539 -69.099994 
L 386.671094 -68.838855 
L 388.537645 -68.577715 
L 390.477152 -68.316576 
L 392.485408 -68.055436 
L 394.556881 -67.794297 
L 396.684562 -67.533157 
L 398.859818 -67.272017 
L 401.072255 -67.010878 
L 403.309599 -66.749738 
L 405.557601 -66.488599 
L 407.799969 -66.227459 
L 410.01835 -65.96632 
L 412.192358 -65.70518 
L 414.299682 -65.444041 
L 416.316259 -65.182901 
L 418.216552 -64.921762 
L 419.973914 -64.660622 
L 421.561059 -64.399483 
L 422.950631 -64.138343 
L 424.115853 -63.877204 
L 425.031263 -63.616064 
L 425.67348 -63.354925 
L 426.022006 -63.093785 
L 426.06 -62.832645 
L 425.77501 -62.571506 
L 425.159605 -62.310366 
L 424.211889 -62.049227 
L 422.935849 -61.788087 
L 421.341517 -61.526948 
L 419.444934 -61.265808 
L 417.267897 -61.004669 
L 414.837504 -60.743529 
L 412.185497 -60.48239 
L 409.347446 -60.22125 
z
" id="m0372143f9a" style="stroke:#737373;stroke-width:1.5;"/>
    </defs>
    <g clip-path="url(#p60cb29cebf)">
     <use style="fill:#efb792;stroke:#737373;stroke-width:1.5;" x="0" xlink:href="#m0372143f9a" y="288"/>
    </g>
   </g>
   <g id="PolyCollection_5">
    <defs>
     <path d="M 526.5 -50.081471 
L 497.393319 -50.081471 
L 486.164567 -52.398818 
L 475.198933 -54.716165 
L 466.275136 -57.033511 
L 460.83699 -59.350858 
L 459.54 -61.668205 
L 462.097462 -63.985551 
L 467.466945 -66.302898 
L 474.256935 -68.620245 
L 481.164096 -70.937592 
L 487.28769 -73.254938 
L 492.251066 -75.572285 
L 496.134633 -77.889632 
L 499.278776 -80.206978 
L 502.05198 -82.524325 
L 504.683456 -84.841672 
L 507.216459 -87.159019 
L 509.568597 -89.476365 
L 511.633524 -91.793712 
L 513.354148 -94.111059 
L 514.735214 -96.428406 
L 515.812403 -98.745752 
L 516.621126 -101.063099 
L 517.194868 -103.380446 
L 517.586341 -105.697792 
L 517.880941 -108.015139 
L 518.181276 -110.332486 
L 518.569815 -112.649833 
L 519.075995 -114.967179 
L 519.671183 -117.284526 
L 520.295202 -119.601873 
L 520.89561 -121.919219 
L 521.451847 -124.236566 
L 521.97008 -126.553913 
L 522.46009 -128.87126 
L 522.918154 -131.188606 
L 523.328924 -133.505953 
L 523.679681 -135.8233 
L 523.972146 -138.140647 
L 524.223035 -140.457993 
L 524.454396 -142.77534 
L 524.680633 -145.092687 
L 524.90033 -147.410033 
L 525.098253 -149.72738 
L 525.256668 -152.044727 
L 525.368507 -154.362074 
L 525.443478 -156.67942 
L 525.503682 -158.996767 
L 525.57266 -161.314114 
L 525.66482 -163.63146 
L 525.780062 -165.948807 
L 525.905111 -168.266154 
L 526.020816 -170.583501 
L 526.112391 -172.900847 
L 526.176962 -175.218194 
L 526.22317 -177.535541 
L 526.262905 -179.852888 
L 526.30165 -182.170234 
L 526.334944 -184.487581 
L 526.353218 -186.804928 
L 526.350643 -189.122274 
L 526.331345 -191.439621 
L 526.308755 -193.756968 
L 526.29866 -196.074315 
L 526.310557 -198.391661 
L 526.343078 -200.709008 
L 526.3862 -203.026355 
L 526.42789 -205.343701 
L 526.460102 -207.661048 
L 526.480729 -209.978395 
L 526.491876 -212.295742 
L 526.49701 -214.613088 
L 526.49904 -216.930435 
L 526.499731 -219.247782 
L 526.499934 -221.565129 
L 526.499986 -223.882475 
L 526.499997 -226.199822 
L 526.5 -228.517169 
L 526.5 -230.834515 
L 526.5 -233.151862 
L 526.5 -235.469209 
L 526.5 -237.786556 
L 526.5 -240.103902 
L 526.5 -242.421249 
L 526.5 -244.738596 
L 526.5 -247.055942 
L 526.499998 -249.373289 
L 526.499989 -251.690636 
L 526.499947 -254.007983 
L 526.49978 -256.325329 
L 526.499199 -258.642676 
L 526.497456 -260.960023 
L 526.492943 -263.27737 
L 526.482919 -265.594716 
L 526.463911 -267.912063 
L 526.433446 -270.22941 
L 526.392872 -272.546756 
L 526.349489 -274.864103 
L 526.315427 -277.18145 
L 526.302439 -279.498797 
L 526.5 -279.498797 
L 526.5 -279.498797 
L 526.5 -277.18145 
L 526.5 -274.864103 
L 526.5 -272.546756 
L 526.5 -270.22941 
L 526.5 -267.912063 
L 526.5 -265.594716 
L 526.5 -263.27737 
L 526.5 -260.960023 
L 526.5 -258.642676 
L 526.5 -256.325329 
L 526.5 -254.007983 
L 526.5 -251.690636 
L 526.5 -249.373289 
L 526.5 -247.055942 
L 526.5 -244.738596 
L 526.5 -242.421249 
L 526.5 -240.103902 
L 526.5 -237.786556 
L 526.5 -235.469209 
L 526.5 -233.151862 
L 526.5 -230.834515 
L 526.5 -228.517169 
L 526.5 -226.199822 
L 526.5 -223.882475 
L 526.5 -221.565129 
L 526.5 -219.247782 
L 526.5 -216.930435 
L 526.5 -214.613088 
L 526.5 -212.295742 
L 526.5 -209.978395 
L 526.5 -207.661048 
L 526.5 -205.343701 
L 526.5 -203.026355 
L 526.5 -200.709008 
L 526.5 -198.391661 
L 526.5 -196.074315 
L 526.5 -193.756968 
L 526.5 -191.439621 
L 526.5 -189.122274 
L 526.5 -186.804928 
L 526.5 -184.487581 
L 526.5 -182.170234 
L 526.5 -179.852888 
L 526.5 -177.535541 
L 526.5 -175.218194 
L 526.5 -172.900847 
L 526.5 -170.583501 
L 526.5 -168.266154 
L 526.5 -165.948807 
L 526.5 -163.63146 
L 526.5 -161.314114 
L 526.5 -158.996767 
L 526.5 -156.67942 
L 526.5 -154.362074 
L 526.5 -152.044727 
L 526.5 -149.72738 
L 526.5 -147.410033 
L 526.5 -145.092687 
L 526.5 -142.77534 
L 526.5 -140.457993 
L 526.5 -138.140647 
L 526.5 -135.8233 
L 526.5 -133.505953 
L 526.5 -131.188606 
L 526.5 -128.87126 
L 526.5 -126.553913 
L 526.5 -124.236566 
L 526.5 -121.919219 
L 526.5 -119.601873 
L 526.5 -117.284526 
L 526.5 -114.967179 
L 526.5 -112.649833 
L 526.5 -110.332486 
L 526.5 -108.015139 
L 526.5 -105.697792 
L 526.5 -103.380446 
L 526.5 -101.063099 
L 526.5 -98.745752 
L 526.5 -96.428406 
L 526.5 -94.111059 
L 526.5 -91.793712 
L 526.5 -89.476365 
L 526.5 -87.159019 
L 526.5 -84.841672 
L 526.5 -82.524325 
L 526.5 -80.206978 
L 526.5 -77.889632 
L 526.5 -75.572285 
L 526.5 -73.254938 
L 526.5 -70.937592 
L 526.5 -68.620245 
L 526.5 -66.302898 
L 526.5 -63.985551 
L 526.5 -61.668205 
L 526.5 -59.350858 
L 526.5 -57.033511 
L 526.5 -54.716165 
L 526.5 -52.398818 
L 526.5 -50.081471 
z
" id="m96301d1e37" style="stroke:#737373;stroke-width:1.5;"/>
    </defs>
    <g clip-path="url(#p60cb29cebf)">
     <use style="fill:#abc9ea;stroke:#737373;stroke-width:1.5;" x="0" xlink:href="#m96301d1e37" y="288"/>
    </g>
   </g>
   <g id="PolyCollection_6">
    <defs>
     <path d="M 582.524221 -109.906467 
L 526.5 -109.906467 
L 526.5 -110.894265 
L 526.5 -111.882064 
L 526.5 -112.869862 
L 526.5 -113.85766 
L 526.5 -114.845458 
L 526.5 -115.833256 
L 526.5 -116.821055 
L 526.5 -117.808853 
L 526.5 -118.796651 
L 526.5 -119.784449 
L 526.5 -120.772247 
L 526.5 -121.760045 
L 526.5 -122.747844 
L 526.5 -123.735642 
L 526.5 -124.72344 
L 526.5 -125.711238 
L 526.5 -126.699036 
L 526.5 -127.686834 
L 526.5 -128.674633 
L 526.5 -129.662431 
L 526.5 -130.650229 
L 526.5 -131.638027 
L 526.5 -132.625825 
L 526.5 -133.613623 
L 526.5 -134.601422 
L 526.5 -135.58922 
L 526.5 -136.577018 
L 526.5 -137.564816 
L 526.5 -138.552614 
L 526.5 -139.540412 
L 526.5 -140.528211 
L 526.5 -141.516009 
L 526.5 -142.503807 
L 526.5 -143.491605 
L 526.5 -144.479403 
L 526.5 -145.467201 
L 526.5 -146.455 
L 526.5 -147.442798 
L 526.5 -148.430596 
L 526.5 -149.418394 
L 526.5 -150.406192 
L 526.5 -151.39399 
L 526.5 -152.381789 
L 526.5 -153.369587 
L 526.5 -154.357385 
L 526.5 -155.345183 
L 526.5 -156.332981 
L 526.5 -157.320779 
L 526.5 -158.308578 
L 526.5 -159.296376 
L 526.5 -160.284174 
L 526.5 -161.271972 
L 526.5 -162.25977 
L 526.5 -163.247569 
L 526.5 -164.235367 
L 526.5 -165.223165 
L 526.5 -166.210963 
L 526.5 -167.198761 
L 526.5 -168.186559 
L 526.5 -169.174358 
L 526.5 -170.162156 
L 526.5 -171.149954 
L 526.5 -172.137752 
L 526.5 -173.12555 
L 526.5 -174.113348 
L 526.5 -175.101147 
L 526.5 -176.088945 
L 526.5 -177.076743 
L 526.5 -178.064541 
L 526.5 -179.052339 
L 526.5 -180.040137 
L 526.5 -181.027936 
L 526.5 -182.015734 
L 526.5 -183.003532 
L 526.5 -183.99133 
L 526.5 -184.979128 
L 526.5 -185.966926 
L 526.5 -186.954725 
L 526.5 -187.942523 
L 526.5 -188.930321 
L 526.5 -189.918119 
L 526.5 -190.905917 
L 526.5 -191.893715 
L 526.5 -192.881514 
L 526.5 -193.869312 
L 526.5 -194.85711 
L 526.5 -195.844908 
L 526.5 -196.832706 
L 526.5 -197.820504 
L 526.5 -198.808303 
L 526.5 -199.796101 
L 526.5 -200.783899 
L 526.5 -201.771697 
L 526.5 -202.759495 
L 526.5 -203.747293 
L 526.5 -204.735092 
L 526.5 -205.72289 
L 526.5 -206.710688 
L 526.5 -207.698486 
L 544.087013 -207.698486 
L 544.087013 -207.698486 
L 544.883569 -206.710688 
L 545.669786 -205.72289 
L 546.444419 -204.735092 
L 547.206728 -203.747293 
L 547.956489 -202.759495 
L 548.693987 -201.771697 
L 549.42 -200.783899 
L 550.135765 -199.796101 
L 550.842933 -198.808303 
L 551.543507 -197.820504 
L 552.239782 -196.832706 
L 552.934265 -195.844908 
L 553.6296 -194.85711 
L 554.328486 -193.869312 
L 555.033601 -192.881514 
L 555.747521 -191.893715 
L 556.47266 -190.905917 
L 557.211202 -189.918119 
L 557.965055 -188.930321 
L 558.735811 -187.942523 
L 559.524721 -186.954725 
L 560.332681 -185.966926 
L 561.160232 -184.979128 
L 562.00757 -183.99133 
L 562.874565 -183.003532 
L 563.760794 -182.015734 
L 564.665571 -181.027936 
L 565.587989 -180.040137 
L 566.526956 -179.052339 
L 567.48124 -178.064541 
L 568.449496 -177.076743 
L 569.430296 -176.088945 
L 570.422153 -175.101147 
L 571.423526 -174.113348 
L 572.432825 -173.12555 
L 573.448399 -172.137752 
L 574.468516 -171.149954 
L 575.491338 -170.162156 
L 576.514884 -169.174358 
L 577.536994 -168.186559 
L 578.555288 -167.198761 
L 579.567129 -166.210963 
L 580.569596 -165.223165 
L 581.559453 -164.235367 
L 582.533153 -163.247569 
L 583.486832 -162.25977 
L 584.416344 -161.271972 
L 585.317298 -160.284174 
L 586.185127 -159.296376 
L 587.015174 -158.308578 
L 587.80279 -157.320779 
L 588.543459 -156.332981 
L 589.232929 -155.345183 
L 589.867351 -154.357385 
L 590.443423 -153.369587 
L 590.958535 -152.381789 
L 591.410891 -151.39399 
L 591.799635 -150.406192 
L 592.12494 -149.418394 
L 592.388074 -148.430596 
L 592.591439 -147.442798 
L 592.738566 -146.455 
L 592.834077 -145.467201 
L 592.8836 -144.479403 
L 592.893651 -143.491605 
L 592.871475 -142.503807 
L 592.824846 -141.516009 
L 592.761845 -140.528211 
L 592.690606 -139.540412 
L 592.619053 -138.552614 
L 592.554614 -137.564816 
L 592.503954 -136.577018 
L 592.472697 -135.58922 
L 592.465185 -134.601422 
L 592.484251 -133.613623 
L 592.531033 -132.625825 
L 592.604836 -131.638027 
L 592.703041 -130.650229 
L 592.821066 -129.662431 
L 592.952391 -128.674633 
L 593.08864 -127.686834 
L 593.219726 -126.699036 
L 593.334048 -125.711238 
L 593.418747 -124.72344 
L 593.46 -123.735642 
L 593.443361 -122.747844 
L 593.354127 -121.760045 
L 593.17772 -120.772247 
L 592.900082 -119.784449 
L 592.508061 -118.796651 
L 591.989784 -117.808853 
L 591.334994 -116.821055 
L 590.535361 -115.833256 
L 589.584737 -114.845458 
L 588.479354 -113.85766 
L 587.217968 -112.869862 
L 585.801927 -111.882064 
L 584.235182 -110.894265 
L 582.524221 -109.906467 
z
" id="mab58b96764" style="stroke:#737373;stroke-width:1.5;"/>
    </defs>
    <g clip-path="url(#p60cb29cebf)">
     <use style="fill:#efb792;stroke:#737373;stroke-width:1.5;" x="0" xlink:href="#mab58b96764" y="288"/>
    </g>
   </g>
   <g id="PolyCollection_7">
    <defs>
     <path d="M 693.9 -54.966447 
L 683.568039 -54.966447 
L 682.028332 -56.309947 
L 680.978896 -57.653447 
L 680.488512 -58.996947 
L 680.484613 -60.340447 
L 680.761254 -61.683947 
L 681.022921 -63.027447 
L 680.948409 -64.370947 
L 680.25524 -65.714447 
L 678.749109 -67.057947 
L 676.350206 -68.401447 
L 673.095045 -69.744947 
L 669.117274 -71.088447 
L 664.614345 -72.431947 
L 659.809252 -73.775447 
L 654.916756 -75.118946 
L 650.1211 -76.462446 
L 645.567438 -77.805946 
L 641.364498 -79.149446 
L 637.593351 -80.492946 
L 634.317256 -81.836446 
L 631.589233 -83.179946 
L 629.455695 -84.523446 
L 627.95552 -85.866946 
L 627.114936 -87.210446 
L 626.94 -88.553946 
L 627.409991 -89.897446 
L 628.475371 -91.240946 
L 630.06239 -92.584446 
L 632.083228 -93.927946 
L 634.447479 -95.271446 
L 637.069604 -96.614946 
L 639.868915 -97.958446 
L 642.763193 -99.301946 
L 645.661962 -100.645446 
L 648.467465 -101.988946 
L 651.088188 -103.332446 
L 653.462262 -104.675945 
L 655.580348 -106.019445 
L 657.495098 -107.362945 
L 659.309181 -108.706445 
L 661.144027 -110.049945 
L 663.100818 -111.393445 
L 665.228848 -112.736945 
L 667.512704 -114.080445 
L 669.881364 -115.423945 
L 672.233744 -116.767445 
L 674.469803 -118.110945 
L 676.515752 -119.454445 
L 678.335819 -120.797945 
L 679.929421 -122.141445 
L 681.318607 -123.484945 
L 682.53342 -124.828445 
L 683.601433 -126.171945 
L 684.543763 -127.515445 
L 685.376051 -128.858945 
L 686.111433 -130.202445 
L 686.763168 -131.545945 
L 687.345925 -132.889445 
L 687.875586 -134.232944 
L 688.367663 -135.576444 
L 688.834768 -136.919944 
L 689.284188 -138.263444 
L 689.716925 -139.606944 
L 690.129074 -140.950444 
L 690.515058 -142.293944 
L 690.871066 -143.637444 
L 691.196875 -144.980944 
L 691.495228 -146.324444 
L 691.769505 -147.667944 
L 692.021391 -149.011444 
L 692.25 -150.354944 
L 692.452868 -151.698444 
L 692.627951 -153.041944 
L 692.775362 -154.385444 
L 692.89796 -155.728944 
L 693.000773 -157.072444 
L 693.089866 -158.415944 
L 693.171258 -159.759444 
L 693.25012 -161.102944 
L 693.330147 -162.446444 
L 693.412976 -163.789943 
L 693.497839 -165.133443 
L 693.581729 -166.476943 
L 693.660271 -167.820443 
L 693.729054 -169.163943 
L 693.784881 -170.507443 
L 693.826417 -171.850943 
L 693.854026 -173.194443 
L 693.868993 -174.537943 
L 693.872575 -175.881443 
L 693.865342 -177.224943 
L 693.847124 -178.568443 
L 693.817637 -179.911943 
L 693.777584 -181.255443 
L 693.729797 -182.598943 
L 693.679784 -183.942443 
L 693.635218 -185.285943 
L 693.604242 -186.629443 
L 693.59313 -187.972943 
L 693.9 -187.972943 
L 693.9 -187.972943 
L 693.9 -186.629443 
L 693.9 -185.285943 
L 693.9 -183.942443 
L 693.9 -182.598943 
L 693.9 -181.255443 
L 693.9 -179.911943 
L 693.9 -178.568443 
L 693.9 -177.224943 
L 693.9 -175.881443 
L 693.9 -174.537943 
L 693.9 -173.194443 
L 693.9 -171.850943 
L 693.9 -170.507443 
L 693.9 -169.163943 
L 693.9 -167.820443 
L 693.9 -166.476943 
L 693.9 -165.133443 
L 693.9 -163.789943 
L 693.9 -162.446444 
L 693.9 -161.102944 
L 693.9 -159.759444 
L 693.9 -158.415944 
L 693.9 -157.072444 
L 693.9 -155.728944 
L 693.9 -154.385444 
L 693.9 -153.041944 
L 693.9 -151.698444 
L 693.9 -150.354944 
L 693.9 -149.011444 
L 693.9 -147.667944 
L 693.9 -146.324444 
L 693.9 -144.980944 
L 693.9 -143.637444 
L 693.9 -142.293944 
L 693.9 -140.950444 
L 693.9 -139.606944 
L 693.9 -138.263444 
L 693.9 -136.919944 
L 693.9 -135.576444 
L 693.9 -134.232944 
L 693.9 -132.889445 
L 693.9 -131.545945 
L 693.9 -130.202445 
L 693.9 -128.858945 
L 693.9 -127.515445 
L 693.9 -126.171945 
L 693.9 -124.828445 
L 693.9 -123.484945 
L 693.9 -122.141445 
L 693.9 -120.797945 
L 693.9 -119.454445 
L 693.9 -118.110945 
L 693.9 -116.767445 
L 693.9 -115.423945 
L 693.9 -114.080445 
L 693.9 -112.736945 
L 693.9 -111.393445 
L 693.9 -110.049945 
L 693.9 -108.706445 
L 693.9 -107.362945 
L 693.9 -106.019445 
L 693.9 -104.675945 
L 693.9 -103.332446 
L 693.9 -101.988946 
L 693.9 -100.645446 
L 693.9 -99.301946 
L 693.9 -97.958446 
L 693.9 -96.614946 
L 693.9 -95.271446 
L 693.9 -93.927946 
L 693.9 -92.584446 
L 693.9 -91.240946 
L 693.9 -89.897446 
L 693.9 -88.553946 
L 693.9 -87.210446 
L 693.9 -85.866946 
L 693.9 -84.523446 
L 693.9 -83.179946 
L 693.9 -81.836446 
L 693.9 -80.492946 
L 693.9 -79.149446 
L 693.9 -77.805946 
L 693.9 -76.462446 
L 693.9 -75.118946 
L 693.9 -73.775447 
L 693.9 -72.431947 
L 693.9 -71.088447 
L 693.9 -69.744947 
L 693.9 -68.401447 
L 693.9 -67.057947 
L 693.9 -65.714447 
L 693.9 -64.370947 
L 693.9 -63.027447 
L 693.9 -61.683947 
L 693.9 -60.340447 
L 693.9 -58.996947 
L 693.9 -57.653447 
L 693.9 -56.309947 
L 693.9 -54.966447 
z
" id="m5b7c25b8bb" style="stroke:#737373;stroke-width:1.5;"/>
    </defs>
    <g clip-path="url(#p60cb29cebf)">
     <use style="fill:#abc9ea;stroke:#737373;stroke-width:1.5;" x="0" xlink:href="#m5b7c25b8bb" y="288"/>
    </g>
   </g>
   <g id="PolyCollection_8">
    <defs>
     <path d="M 714.524153 -54.395871 
L 693.9 -54.395871 
L 693.9 -54.513612 
L 693.9 -54.631353 
L 693.9 -54.749095 
L 693.9 -54.866836 
L 693.9 -54.984577 
L 693.9 -55.102318 
L 693.9 -55.22006 
L 693.9 -55.337801 
L 693.9 -55.455542 
L 693.9 -55.573283 
L 693.9 -55.691025 
L 693.9 -55.808766 
L 693.9 -55.926507 
L 693.9 -56.044248 
L 693.9 -56.16199 
L 693.9 -56.279731 
L 693.9 -56.397472 
L 693.9 -56.515213 
L 693.9 -56.632955 
L 693.9 -56.750696 
L 693.9 -56.868437 
L 693.9 -56.986178 
L 693.9 -57.10392 
L 693.9 -57.221661 
L 693.9 -57.339402 
L 693.9 -57.457143 
L 693.9 -57.574885 
L 693.9 -57.692626 
L 693.9 -57.810367 
L 693.9 -57.928108 
L 693.9 -58.04585 
L 693.9 -58.163591 
L 693.9 -58.281332 
L 693.9 -58.399073 
L 693.9 -58.516815 
L 693.9 -58.634556 
L 693.9 -58.752297 
L 693.9 -58.870038 
L 693.9 -58.98778 
L 693.9 -59.105521 
L 693.9 -59.223262 
L 693.9 -59.341003 
L 693.9 -59.458744 
L 693.9 -59.576486 
L 693.9 -59.694227 
L 693.9 -59.811968 
L 693.9 -59.929709 
L 693.9 -60.047451 
L 693.9 -60.165192 
L 693.9 -60.282933 
L 693.9 -60.400674 
L 693.9 -60.518416 
L 693.9 -60.636157 
L 693.9 -60.753898 
L 693.9 -60.871639 
L 693.9 -60.989381 
L 693.9 -61.107122 
L 693.9 -61.224863 
L 693.9 -61.342604 
L 693.9 -61.460346 
L 693.9 -61.578087 
L 693.9 -61.695828 
L 693.9 -61.813569 
L 693.9 -61.931311 
L 693.9 -62.049052 
L 693.9 -62.166793 
L 693.9 -62.284534 
L 693.9 -62.402276 
L 693.9 -62.520017 
L 693.9 -62.637758 
L 693.9 -62.755499 
L 693.9 -62.873241 
L 693.9 -62.990982 
L 693.9 -63.108723 
L 693.9 -63.226464 
L 693.9 -63.344206 
L 693.9 -63.461947 
L 693.9 -63.579688 
L 693.9 -63.697429 
L 693.9 -63.815171 
L 693.9 -63.932912 
L 693.9 -64.050653 
L 693.9 -64.168394 
L 693.9 -64.286136 
L 693.9 -64.403877 
L 693.9 -64.521618 
L 693.9 -64.639359 
L 693.9 -64.757101 
L 693.9 -64.874842 
L 693.9 -64.992583 
L 693.9 -65.110324 
L 693.9 -65.228066 
L 693.9 -65.345807 
L 693.9 -65.463548 
L 693.9 -65.581289 
L 693.9 -65.699031 
L 693.9 -65.816772 
L 693.9 -65.934513 
L 693.9 -66.052254 
L 700.368971 -66.052254 
L 700.368971 -66.052254 
L 700.438486 -65.934513 
L 700.451429 -65.816772 
L 700.408057 -65.699031 
L 700.310273 -65.581289 
L 700.161583 -65.463548 
L 699.966972 -65.345807 
L 699.732731 -65.228066 
L 699.466231 -65.110324 
L 699.17566 -64.992583 
L 698.86974 -64.874842 
L 698.557431 -64.757101 
L 698.247654 -64.639359 
L 697.949015 -64.521618 
L 697.669581 -64.403877 
L 697.416681 -64.286136 
L 697.196755 -64.168394 
L 697.01526 -64.050653 
L 696.876614 -63.932912 
L 696.784197 -63.815171 
L 696.740395 -63.697429 
L 696.746681 -63.579688 
L 696.803739 -63.461947 
L 696.911605 -63.344206 
L 697.069843 -63.226464 
L 697.277729 -63.108723 
L 697.534439 -62.990982 
L 697.839244 -62.873241 
L 698.191687 -62.755499 
L 698.591755 -62.637758 
L 699.040009 -62.520017 
L 699.537695 -62.402276 
L 700.086807 -62.284534 
L 700.690102 -62.166793 
L 701.351072 -62.049052 
L 702.073852 -61.931311 
L 702.863086 -61.813569 
L 703.723735 -61.695828 
L 704.660853 -61.578087 
L 705.679321 -61.460346 
L 706.783564 -61.342604 
L 707.977265 -61.224863 
L 709.263085 -61.107122 
L 710.64241 -60.989381 
L 712.115138 -60.871639 
L 713.679529 -60.753898 
L 715.332112 -60.636157 
L 717.067676 -60.518416 
L 718.879337 -60.400674 
L 720.758679 -60.282933 
L 722.695974 -60.165192 
L 724.680452 -60.047451 
L 726.700619 -59.929709 
L 728.744604 -59.811968 
L 730.800498 -59.694227 
L 732.856674 -59.576486 
L 734.902074 -59.458744 
L 736.926415 -59.341003 
L 738.92033 -59.223262 
L 740.87541 -59.105521 
L 742.784157 -58.98778 
L 744.639841 -58.870038 
L 746.436284 -58.752297 
L 748.167567 -58.634556 
L 749.827714 -58.516815 
L 751.41034 -58.399073 
L 752.908337 -58.281332 
L 754.313583 -58.163591 
L 755.61674 -58.04585 
L 756.807134 -57.928108 
L 757.872753 -57.810367 
L 758.80037 -57.692626 
L 759.575779 -57.574885 
L 760.18416 -57.457143 
L 760.610543 -57.339402 
L 760.840351 -57.221661 
L 760.86 -57.10392 
L 760.657526 -56.986178 
L 760.223194 -56.868437 
L 759.550071 -56.750696 
L 758.634524 -56.632955 
L 757.476605 -56.515213 
L 756.080328 -56.397472 
L 754.453785 -56.279731 
L 752.60913 -56.16199 
L 750.562395 -56.044248 
L 748.333173 -55.926507 
L 745.944164 -55.808766 
L 743.420612 -55.691025 
L 740.789662 -55.573283 
L 738.07965 -55.455542 
L 735.319383 -55.337801 
L 732.537421 -55.22006 
L 729.76139 -55.102318 
L 727.017371 -54.984577 
L 724.329371 -54.866836 
L 721.718888 -54.749095 
L 719.204602 -54.631353 
L 716.802173 -54.513612 
L 714.524153 -54.395871 
z
" id="me93c6c128b" style="stroke:#737373;stroke-width:1.5;"/>
    </defs>
    <g clip-path="url(#p60cb29cebf)">
     <use style="fill:#efb792;stroke:#737373;stroke-width:1.5;" x="0" xlink:href="#me93c6c128b" y="288"/>
    </g>
   </g>
   <g id="patch_3">
    <path clip-path="url(#p60cb29cebf)" d="M 191.7 241.645714 
L 191.7 241.645714 
L 191.7 241.645714 
L 191.7 241.645714 
z
" style="fill:#abc9ea;stroke:#737373;stroke-linejoin:miter;stroke-width:0.75;"/>
   </g>
   <g id="patch_4">
    <path clip-path="url(#p60cb29cebf)" d="M 191.7 241.645714 
L 191.7 241.645714 
L 191.7 241.645714 
L 191.7 241.645714 
z
" style="fill:#efb792;stroke:#737373;stroke-linejoin:miter;stroke-width:0.75;"/>
   </g>
   <g id="line2d_10">
    <path clip-path="url(#p60cb29cebf)" d="M 191.7 224.336114 
L 191.7 208.798783 
" style="fill:none;stroke:#737373;stroke-linecap:round;stroke-width:1.5;"/>
   </g>
   <g id="line2d_11">
    <path clip-path="url(#p60cb29cebf)" d="M 191.7 220.586907 
L 191.7 214.968345 
" style="fill:none;stroke:#737373;stroke-linecap:round;stroke-width:4.5;"/>
   </g>
   <g id="line2d_12">
    <path clip-path="url(#p60cb29cebf)" d="M 359.1 230.085753 
L 359.1 213.352897 
" style="fill:none;stroke:#737373;stroke-linecap:round;stroke-width:1.5;"/>
   </g>
   <g id="line2d_13">
    <path clip-path="url(#p60cb29cebf)" d="M 359.1 226.203915 
L 359.1 221.051646 
" style="fill:none;stroke:#737373;stroke-linecap:round;stroke-width:4.5;"/>
   </g>
   <g id="line2d_14">
    <path clip-path="url(#p60cb29cebf)" d="M 526.5 237.918529 
L 526.5 163.142011 
" style="fill:none;stroke:#737373;stroke-linecap:round;stroke-width:1.5;"/>
   </g>
   <g id="line2d_15">
    <path clip-path="url(#p60cb29cebf)" d="M 526.5 228.269572 
L 526.5 202.196613 
" style="fill:none;stroke:#737373;stroke-linecap:round;stroke-width:4.5;"/>
   </g>
   <g id="line2d_16">
    <path clip-path="url(#p60cb29cebf)" d="M 693.9 233.604129 
L 693.9 151.913239 
" style="fill:none;stroke:#737373;stroke-linecap:round;stroke-width:1.5;"/>
   </g>
   <g id="line2d_17">
    <path clip-path="url(#p60cb29cebf)" d="M 693.9 208.077365 
L 693.9 185.568163 
" style="fill:none;stroke:#737373;stroke-linecap:round;stroke-width:4.5;"/>
   </g>
   <g id="patch_5">
    <path d="M 108 252 
L 777.6 252 
" style="fill:none;stroke:#cccccc;stroke-linecap:square;stroke-linejoin:miter;stroke-width:1.25;"/>
   </g>
   <g id="PathCollection_1">
    <defs>
     <path d="M 0 1.5 
C 0.397805 1.5 0.77937 1.341951 1.06066 1.06066 
C 1.341951 0.77937 1.5 0.397805 1.5 0 
C 1.5 -0.397805 1.341951 -0.77937 1.06066 -1.06066 
C 0.77937 -1.341951 0.397805 -1.5 0 -1.5 
C -0.397805 -1.5 -0.77937 -1.341951 -1.06066 -1.06066 
C -1.341951 -0.77937 -1.5 -0.397805 -1.5 0 
C -1.5 0.397805 -1.341951 0.77937 -1.06066 1.06066 
C -0.77937 1.341951 -0.397805 1.5 0 1.5 
z
" id="m6c9b5bca74" style="stroke:#737373;"/>
    </defs>
    <g clip-path="url(#p60cb29cebf)">
     <use style="fill:#ffffff;stroke:#737373;" x="191.7" xlink:href="#m6c9b5bca74" y="218.445656"/>
    </g>
   </g>
   <g id="PathCollection_2">
    <g clip-path="url(#p60cb29cebf)">
     <use style="fill:#ffffff;stroke:#737373;" x="359.1" xlink:href="#m6c9b5bca74" y="224.034073"/>
    </g>
   </g>
   <g id="PathCollection_3">
    <g clip-path="url(#p60cb29cebf)">
     <use style="fill:#ffffff;stroke:#737373;" x="526.5" xlink:href="#m6c9b5bca74" y="220.376965"/>
    </g>
   </g>
   <g id="PathCollection_4">
    <g clip-path="url(#p60cb29cebf)">
     <use style="fill:#ffffff;stroke:#737373;" x="693.9" xlink:href="#m6c9b5bca74" y="197.710942"/>
    </g>
   </g>
   <g id="legend_1">
    <g id="patch_6">
     <path d="M 782 229.166406 
L 804 229.166406 
L 804 221.466406 
L 782 221.466406 
z
" style="fill:#abc9ea;stroke:#737373;stroke-linejoin:miter;stroke-width:0.75;"/>
    </g>
    <g id="text_15">
     <!-- val -->
     <defs>
      <path d="M 2.984375 54.6875 
L 12.5 54.6875 
L 29.59375 8.796875 
L 46.6875 54.6875 
L 56.203125 54.6875 
L 35.6875 0 
L 23.484375 0 
z
" id="DejaVuSans-118"/>
      <path d="M 34.28125 27.484375 
Q 23.390625 27.484375 19.1875 25 
Q 14.984375 22.515625 14.984375 16.5 
Q 14.984375 11.71875 18.140625 8.90625 
Q 21.296875 6.109375 26.703125 6.109375 
Q 34.1875 6.109375 38.703125 11.40625 
Q 43.21875 16.703125 43.21875 25.484375 
L 43.21875 27.484375 
z
M 52.203125 31.203125 
L 52.203125 0 
L 43.21875 0 
L 43.21875 8.296875 
Q 40.140625 3.328125 35.546875 0.953125 
Q 30.953125 -1.421875 24.3125 -1.421875 
Q 15.921875 -1.421875 10.953125 3.296875 
Q 6 8.015625 6 15.921875 
Q 6 25.140625 12.171875 29.828125 
Q 18.359375 34.515625 30.609375 34.515625 
L 43.21875 34.515625 
L 43.21875 35.40625 
Q 43.21875 41.609375 39.140625 45 
Q 35.0625 48.390625 27.6875 48.390625 
Q 23 48.390625 18.546875 47.265625 
Q 14.109375 46.140625 10.015625 43.890625 
L 10.015625 52.203125 
Q 14.9375 54.109375 19.578125 55.046875 
Q 24.21875 56 28.609375 56 
Q 40.484375 56 46.34375 49.84375 
Q 52.203125 43.703125 52.203125 31.203125 
z
" id="DejaVuSans-97"/>
      <path d="M 9.421875 75.984375 
L 18.40625 75.984375 
L 18.40625 0 
L 9.421875 0 
z
" id="DejaVuSans-108"/>
     </defs>
     <g style="fill:#262626;" transform="translate(812.8 229.166406)scale(0.11 -0.11)">
      <use xlink:href="#DejaVuSans-118"/>
      <use x="59.179688" xlink:href="#DejaVuSans-97"/>
      <use x="120.458984" xlink:href="#DejaVuSans-108"/>
     </g>
    </g>
    <g id="patch_7">
     <path d="M 782 245.312344 
L 804 245.312344 
L 804 237.612344 
L 782 237.612344 
z
" style="fill:#efb792;stroke:#737373;stroke-linejoin:miter;stroke-width:0.75;"/>
    </g>
    <g id="text_16">
     <!-- test -->
     <defs>
      <path d="M 18.3125 70.21875 
L 18.3125 54.6875 
L 36.8125 54.6875 
L 36.8125 47.703125 
L 18.3125 47.703125 
L 18.3125 18.015625 
Q 18.3125 11.328125 20.140625 9.421875 
Q 21.96875 7.515625 27.59375 7.515625 
L 36.8125 7.515625 
L 36.8125 0 
L 27.59375 0 
Q 17.1875 0 13.234375 3.875 
Q 9.28125 7.765625 9.28125 18.015625 
L 9.28125 47.703125 
L 2.6875 47.703125 
L 2.6875 54.6875 
L 9.28125 54.6875 
L 9.28125 70.21875 
z
" id="DejaVuSans-116"/>
      <path d="M 56.203125 29.59375 
L 56.203125 25.203125 
L 14.890625 25.203125 
Q 15.484375 15.921875 20.484375 11.0625 
Q 25.484375 6.203125 34.421875 6.203125 
Q 39.59375 6.203125 44.453125 7.46875 
Q 49.3125 8.734375 54.109375 11.28125 
L 54.109375 2.78125 
Q 49.265625 0.734375 44.1875 -0.34375 
Q 39.109375 -1.421875 33.890625 -1.421875 
Q 20.796875 -1.421875 13.15625 6.1875 
Q 5.515625 13.8125 5.515625 26.8125 
Q 5.515625 40.234375 12.765625 48.109375 
Q 20.015625 56 32.328125 56 
Q 43.359375 56 49.78125 48.890625 
Q 56.203125 41.796875 56.203125 29.59375 
z
M 47.21875 32.234375 
Q 47.125 39.59375 43.09375 43.984375 
Q 39.0625 48.390625 32.421875 48.390625 
Q 24.90625 48.390625 20.390625 44.140625 
Q 15.875 39.890625 15.1875 32.171875 
z
" id="DejaVuSans-101"/>
      <path d="M 44.28125 53.078125 
L 44.28125 44.578125 
Q 40.484375 46.53125 36.375 47.5 
Q 32.28125 48.484375 27.875 48.484375 
Q 21.1875 48.484375 17.84375 46.4375 
Q 14.5 44.390625 14.5 40.28125 
Q 14.5 37.15625 16.890625 35.375 
Q 19.28125 33.59375 26.515625 31.984375 
L 29.59375 31.296875 
Q 39.15625 29.25 43.1875 25.515625 
Q 47.21875 21.78125 47.21875 15.09375 
Q 47.21875 7.46875 41.1875 3.015625 
Q 35.15625 -1.421875 24.609375 -1.421875 
Q 20.21875 -1.421875 15.453125 -0.5625 
Q 10.6875 0.296875 5.421875 2 
L 5.421875 11.28125 
Q 10.40625 8.6875 15.234375 7.390625 
Q 20.0625 6.109375 24.8125 6.109375 
Q 31.15625 6.109375 34.5625 8.28125 
Q 37.984375 10.453125 37.984375 14.40625 
Q 37.984375 18.0625 35.515625 20.015625 
Q 33.0625 21.96875 24.703125 23.78125 
L 21.578125 24.515625 
Q 13.234375 26.265625 9.515625 29.90625 
Q 5.8125 33.546875 5.8125 39.890625 
Q 5.8125 47.609375 11.28125 51.796875 
Q 16.75 56 26.8125 56 
Q 31.78125 56 36.171875 55.265625 
Q 40.578125 54.546875 44.28125 53.078125 
z
" id="DejaVuSans-115"/>
     </defs>
     <g style="fill:#262626;" transform="translate(812.8 245.312344)scale(0.11 -0.11)">
      <use xlink:href="#DejaVuSans-116"/>
      <use x="39.208984" xlink:href="#DejaVuSans-101"/>
      <use x="100.732422" xlink:href="#DejaVuSans-115"/>
      <use x="152.832031" xlink:href="#DejaVuSans-116"/>
     </g>
    </g>
   </g>
  </g>
 </g>
 <defs>
  <clipPath id="p60cb29cebf">
   <rect height="217.44" width="669.6" x="108" y="34.56"/>
  </clipPath>
 </defs>
</svg>
