<?xml version="1.0" encoding="utf-8" standalone="no"?>
<!DOCTYPE svg PUBLIC "-//W3C//DTD SVG 1.1//EN"
  "http://www.w3.org/Graphics/SVG/1.1/DTD/svg11.dtd">
<!-- Created with matplotlib (https://matplotlib.org/) -->
<svg height="288pt" version="1.1" viewBox="0 0 864 288" width="864pt" xmlns="http://www.w3.org/2000/svg" xmlns:xlink="http://www.w3.org/1999/xlink">
 <defs>
  <style type="text/css">
*{stroke-linecap:butt;stroke-linejoin:round;}
  </style>
 </defs>
 <g id="figure_1">
  <g id="patch_1">
   <path d="M 0 288 
L 864 288 
L 864 0 
L 0 0 
z
" style="fill:#ffffff;"/>
  </g>
  <g id="axes_1">
   <g id="patch_2">
    <path d="M 108 252 
L 777.6 252 
L 777.6 34.56 
L 108 34.56 
z
" style="fill:#ffffff;"/>
   </g>
   <g id="matplotlib.axis_1">
    <g id="xtick_1">
     <g id="text_1">
      <!-- 1) LASTEN BS2 -->
      <defs>
       <path d="M 12.40625 8.296875 
L 28.515625 8.296875 
L 28.515625 63.921875 
L 10.984375 60.40625 
L 10.984375 69.390625 
L 28.421875 72.90625 
L 38.28125 72.90625 
L 38.28125 8.296875 
L 54.390625 8.296875 
L 54.390625 0 
L 12.40625 0 
z
" id="DejaVuSans-49"/>
       <path d="M 8.015625 75.875 
L 15.828125 75.875 
Q 23.140625 64.359375 26.78125 53.3125 
Q 30.421875 42.28125 30.421875 31.390625 
Q 30.421875 20.453125 26.78125 9.375 
Q 23.140625 -1.703125 15.828125 -13.1875 
L 8.015625 -13.1875 
Q 14.5 -2 17.703125 9.0625 
Q 20.90625 20.125 20.90625 31.390625 
Q 20.90625 42.671875 17.703125 53.65625 
Q 14.5 64.65625 8.015625 75.875 
z
" id="DejaVuSans-41"/>
       <path id="DejaVuSans-32"/>
       <path d="M 9.8125 72.90625 
L 19.671875 72.90625 
L 19.671875 8.296875 
L 55.171875 8.296875 
L 55.171875 0 
L 9.8125 0 
z
" id="DejaVuSans-76"/>
       <path d="M 34.1875 63.1875 
L 20.796875 26.90625 
L 47.609375 26.90625 
z
M 28.609375 72.90625 
L 39.796875 72.90625 
L 67.578125 0 
L 57.328125 0 
L 50.6875 18.703125 
L 17.828125 18.703125 
L 11.1875 0 
L 0.78125 0 
z
" id="DejaVuSans-65"/>
       <path d="M 53.515625 70.515625 
L 53.515625 60.890625 
Q 47.90625 63.578125 42.921875 64.890625 
Q 37.9375 66.21875 33.296875 66.21875 
Q 25.25 66.21875 20.875 63.09375 
Q 16.5 59.96875 16.5 54.203125 
Q 16.5 49.359375 19.40625 46.890625 
Q 22.3125 44.4375 30.421875 42.921875 
L 36.375 41.703125 
Q 47.40625 39.59375 52.65625 34.296875 
Q 57.90625 29 57.90625 20.125 
Q 57.90625 9.515625 50.796875 4.046875 
Q 43.703125 -1.421875 29.984375 -1.421875 
Q 24.8125 -1.421875 18.96875 -0.25 
Q 13.140625 0.921875 6.890625 3.21875 
L 6.890625 13.375 
Q 12.890625 10.015625 18.65625 8.296875 
Q 24.421875 6.59375 29.984375 6.59375 
Q 38.421875 6.59375 43.015625 9.90625 
Q 47.609375 13.234375 47.609375 19.390625 
Q 47.609375 24.75 44.3125 27.78125 
Q 41.015625 30.8125 33.5 32.328125 
L 27.484375 33.5 
Q 16.453125 35.6875 11.515625 40.375 
Q 6.59375 45.0625 6.59375 53.421875 
Q 6.59375 63.09375 13.40625 68.65625 
Q 20.21875 74.21875 32.171875 74.21875 
Q 37.3125 74.21875 42.625 73.28125 
Q 47.953125 72.359375 53.515625 70.515625 
z
" id="DejaVuSans-83"/>
       <path d="M -0.296875 72.90625 
L 61.375 72.90625 
L 61.375 64.59375 
L 35.5 64.59375 
L 35.5 0 
L 25.59375 0 
L 25.59375 64.59375 
L -0.296875 64.59375 
z
" id="DejaVuSans-84"/>
       <path d="M 9.8125 72.90625 
L 55.90625 72.90625 
L 55.90625 64.59375 
L 19.671875 64.59375 
L 19.671875 43.015625 
L 54.390625 43.015625 
L 54.390625 34.71875 
L 19.671875 34.71875 
L 19.671875 8.296875 
L 56.78125 8.296875 
L 56.78125 0 
L 9.8125 0 
z
" id="DejaVuSans-69"/>
       <path d="M 9.8125 72.90625 
L 23.09375 72.90625 
L 55.421875 11.921875 
L 55.421875 72.90625 
L 64.984375 72.90625 
L 64.984375 0 
L 51.703125 0 
L 19.390625 60.984375 
L 19.390625 0 
L 9.8125 0 
z
" id="DejaVuSans-78"/>
       <path d="M 19.671875 34.8125 
L 19.671875 8.109375 
L 35.5 8.109375 
Q 43.453125 8.109375 47.28125 11.40625 
Q 51.125 14.703125 51.125 21.484375 
Q 51.125 28.328125 47.28125 31.5625 
Q 43.453125 34.8125 35.5 34.8125 
z
M 19.671875 64.796875 
L 19.671875 42.828125 
L 34.28125 42.828125 
Q 41.5 42.828125 45.03125 45.53125 
Q 48.578125 48.25 48.578125 53.8125 
Q 48.578125 59.328125 45.03125 62.0625 
Q 41.5 64.796875 34.28125 64.796875 
z
M 9.8125 72.90625 
L 35.015625 72.90625 
Q 46.296875 72.90625 52.390625 68.21875 
Q 58.5 63.53125 58.5 54.890625 
Q 58.5 48.1875 55.375 44.234375 
Q 52.25 40.28125 46.1875 39.3125 
Q 53.46875 37.75 57.5 32.78125 
Q 61.53125 27.828125 61.53125 20.40625 
Q 61.53125 10.640625 54.890625 5.3125 
Q 48.25 0 35.984375 0 
L 9.8125 0 
z
" id="DejaVuSans-66"/>
       <path d="M 19.1875 8.296875 
L 53.609375 8.296875 
L 53.609375 0 
L 7.328125 0 
L 7.328125 8.296875 
Q 12.9375 14.109375 22.625 23.890625 
Q 32.328125 33.6875 34.8125 36.53125 
Q 39.546875 41.84375 41.421875 45.53125 
Q 43.3125 49.21875 43.3125 52.78125 
Q 43.3125 58.59375 39.234375 62.25 
Q 35.15625 65.921875 28.609375 65.921875 
Q 23.96875 65.921875 18.8125 64.3125 
Q 13.671875 62.703125 7.8125 59.421875 
L 7.8125 69.390625 
Q 13.765625 71.78125 18.9375 73 
Q 24.125 74.21875 28.421875 74.21875 
Q 39.75 74.21875 46.484375 68.546875 
Q 53.21875 62.890625 53.21875 53.421875 
Q 53.21875 48.921875 51.53125 44.890625 
Q 49.859375 40.875 45.40625 35.40625 
Q 44.1875 33.984375 37.640625 27.21875 
Q 31.109375 20.453125 19.1875 8.296875 
z
" id="DejaVuSans-50"/>
      </defs>
      <g style="fill:#262626;" transform="translate(150.498984 269.858281)scale(0.11 -0.11)">
       <use xlink:href="#DejaVuSans-49"/>
       <use x="63.623047" xlink:href="#DejaVuSans-41"/>
       <use x="102.636719" xlink:href="#DejaVuSans-32"/>
       <use x="134.423828" xlink:href="#DejaVuSans-76"/>
       <use x="192.386719" xlink:href="#DejaVuSans-65"/>
       <use x="260.794922" xlink:href="#DejaVuSans-83"/>
       <use x="324.271484" xlink:href="#DejaVuSans-84"/>
       <use x="385.355469" xlink:href="#DejaVuSans-69"/>
       <use x="448.539062" xlink:href="#DejaVuSans-78"/>
       <use x="523.34375" xlink:href="#DejaVuSans-32"/>
       <use x="555.130859" xlink:href="#DejaVuSans-66"/>
       <use x="621.984375" xlink:href="#DejaVuSans-83"/>
       <use x="685.460938" xlink:href="#DejaVuSans-50"/>
      </g>
     </g>
    </g>
    <g id="xtick_2">
     <g id="text_2">
      <!-- 2) LASTEN BS4 -->
      <defs>
       <path d="M 37.796875 64.3125 
L 12.890625 25.390625 
L 37.796875 25.390625 
z
M 35.203125 72.90625 
L 47.609375 72.90625 
L 47.609375 25.390625 
L 58.015625 25.390625 
L 58.015625 17.1875 
L 47.609375 17.1875 
L 47.609375 0 
L 37.796875 0 
L 37.796875 17.1875 
L 4.890625 17.1875 
L 4.890625 26.703125 
z
" id="DejaVuSans-52"/>
      </defs>
      <g style="fill:#262626;" transform="translate(317.898984 269.858281)scale(0.11 -0.11)">
       <use xlink:href="#DejaVuSans-50"/>
       <use x="63.623047" xlink:href="#DejaVuSans-41"/>
       <use x="102.636719" xlink:href="#DejaVuSans-32"/>
       <use x="134.423828" xlink:href="#DejaVuSans-76"/>
       <use x="192.386719" xlink:href="#DejaVuSans-65"/>
       <use x="260.794922" xlink:href="#DejaVuSans-83"/>
       <use x="324.271484" xlink:href="#DejaVuSans-84"/>
       <use x="385.355469" xlink:href="#DejaVuSans-69"/>
       <use x="448.539062" xlink:href="#DejaVuSans-78"/>
       <use x="523.34375" xlink:href="#DejaVuSans-32"/>
       <use x="555.130859" xlink:href="#DejaVuSans-66"/>
       <use x="621.984375" xlink:href="#DejaVuSans-83"/>
       <use x="685.460938" xlink:href="#DejaVuSans-52"/>
      </g>
     </g>
    </g>
    <g id="xtick_3">
     <g id="text_3">
      <!-- 3) LASTENS -->
      <defs>
       <path d="M 40.578125 39.3125 
Q 47.65625 37.796875 51.625 33 
Q 55.609375 28.21875 55.609375 21.1875 
Q 55.609375 10.40625 48.1875 4.484375 
Q 40.765625 -1.421875 27.09375 -1.421875 
Q 22.515625 -1.421875 17.65625 -0.515625 
Q 12.796875 0.390625 7.625 2.203125 
L 7.625 11.71875 
Q 11.71875 9.328125 16.59375 8.109375 
Q 21.484375 6.890625 26.8125 6.890625 
Q 36.078125 6.890625 40.9375 10.546875 
Q 45.796875 14.203125 45.796875 21.1875 
Q 45.796875 27.640625 41.28125 31.265625 
Q 36.765625 34.90625 28.71875 34.90625 
L 20.21875 34.90625 
L 20.21875 43.015625 
L 29.109375 43.015625 
Q 36.375 43.015625 40.234375 45.921875 
Q 44.09375 48.828125 44.09375 54.296875 
Q 44.09375 59.90625 40.109375 62.90625 
Q 36.140625 65.921875 28.71875 65.921875 
Q 24.65625 65.921875 20.015625 65.03125 
Q 15.375 64.15625 9.8125 62.3125 
L 9.8125 71.09375 
Q 15.4375 72.65625 20.34375 73.4375 
Q 25.25 74.21875 29.59375 74.21875 
Q 40.828125 74.21875 47.359375 69.109375 
Q 53.90625 64.015625 53.90625 55.328125 
Q 53.90625 49.265625 50.4375 45.09375 
Q 46.96875 40.921875 40.578125 39.3125 
z
" id="DejaVuSans-51"/>
      </defs>
      <g style="fill:#262626;" transform="translate(494.223594 269.858281)scale(0.11 -0.11)">
       <use xlink:href="#DejaVuSans-51"/>
       <use x="63.623047" xlink:href="#DejaVuSans-41"/>
       <use x="102.636719" xlink:href="#DejaVuSans-32"/>
       <use x="134.423828" xlink:href="#DejaVuSans-76"/>
       <use x="192.386719" xlink:href="#DejaVuSans-65"/>
       <use x="260.794922" xlink:href="#DejaVuSans-83"/>
       <use x="324.271484" xlink:href="#DejaVuSans-84"/>
       <use x="385.355469" xlink:href="#DejaVuSans-69"/>
       <use x="448.539062" xlink:href="#DejaVuSans-78"/>
       <use x="523.34375" xlink:href="#DejaVuSans-83"/>
      </g>
     </g>
    </g>
    <g id="xtick_4">
     <g id="text_4">
      <!-- 4) LASTENA -->
      <g style="fill:#262626;" transform="translate(661.352891 269.858281)scale(0.11 -0.11)">
       <use xlink:href="#DejaVuSans-52"/>
       <use x="63.623047" xlink:href="#DejaVuSans-41"/>
       <use x="102.636719" xlink:href="#DejaVuSans-32"/>
       <use x="134.423828" xlink:href="#DejaVuSans-76"/>
       <use x="192.386719" xlink:href="#DejaVuSans-65"/>
       <use x="260.794922" xlink:href="#DejaVuSans-83"/>
       <use x="324.271484" xlink:href="#DejaVuSans-84"/>
       <use x="385.355469" xlink:href="#DejaVuSans-69"/>
       <use x="448.539062" xlink:href="#DejaVuSans-78"/>
       <use x="523.34375" xlink:href="#DejaVuSans-65"/>
      </g>
     </g>
    </g>
   </g>
   <g id="matplotlib.axis_2">
    <g id="ytick_1">
     <g id="line2d_1">
      <path clip-path="url(#p8f67751def)" d="M 108 230.256 
L 777.6 230.256 
" style="fill:none;stroke:#cccccc;stroke-linecap:round;"/>
     </g>
     <g id="text_5">
      <!-- 0.2 -->
      <defs>
       <path d="M 31.78125 66.40625 
Q 24.171875 66.40625 20.328125 58.90625 
Q 16.5 51.421875 16.5 36.375 
Q 16.5 21.390625 20.328125 13.890625 
Q 24.171875 6.390625 31.78125 6.390625 
Q 39.453125 6.390625 43.28125 13.890625 
Q 47.125 21.390625 47.125 36.375 
Q 47.125 51.421875 43.28125 58.90625 
Q 39.453125 66.40625 31.78125 66.40625 
z
M 31.78125 74.21875 
Q 44.046875 74.21875 50.515625 64.515625 
Q 56.984375 54.828125 56.984375 36.375 
Q 56.984375 17.96875 50.515625 8.265625 
Q 44.046875 -1.421875 31.78125 -1.421875 
Q 19.53125 -1.421875 13.0625 8.265625 
Q 6.59375 17.96875 6.59375 36.375 
Q 6.59375 54.828125 13.0625 64.515625 
Q 19.53125 74.21875 31.78125 74.21875 
z
" id="DejaVuSans-48"/>
       <path d="M 10.6875 12.40625 
L 21 12.40625 
L 21 0 
L 10.6875 0 
z
" id="DejaVuSans-46"/>
      </defs>
      <g style="fill:#262626;" transform="translate(81.006563 234.435141)scale(0.11 -0.11)">
       <use xlink:href="#DejaVuSans-48"/>
       <use x="63.623047" xlink:href="#DejaVuSans-46"/>
       <use x="95.410156" xlink:href="#DejaVuSans-50"/>
      </g>
     </g>
    </g>
    <g id="ytick_2">
     <g id="line2d_2">
      <path clip-path="url(#p8f67751def)" d="M 108 183.802909 
L 777.6 183.802909 
" style="fill:none;stroke:#cccccc;stroke-linecap:round;"/>
     </g>
     <g id="text_6">
      <!-- 0.4 -->
      <g style="fill:#262626;" transform="translate(81.006563 187.98205)scale(0.11 -0.11)">
       <use xlink:href="#DejaVuSans-48"/>
       <use x="63.623047" xlink:href="#DejaVuSans-46"/>
       <use x="95.410156" xlink:href="#DejaVuSans-52"/>
      </g>
     </g>
    </g>
    <g id="ytick_3">
     <g id="line2d_3">
      <path clip-path="url(#p8f67751def)" d="M 108 137.349818 
L 777.6 137.349818 
" style="fill:none;stroke:#cccccc;stroke-linecap:round;"/>
     </g>
     <g id="text_7">
      <!-- 0.6 -->
      <defs>
       <path d="M 33.015625 40.375 
Q 26.375 40.375 22.484375 35.828125 
Q 18.609375 31.296875 18.609375 23.390625 
Q 18.609375 15.53125 22.484375 10.953125 
Q 26.375 6.390625 33.015625 6.390625 
Q 39.65625 6.390625 43.53125 10.953125 
Q 47.40625 15.53125 47.40625 23.390625 
Q 47.40625 31.296875 43.53125 35.828125 
Q 39.65625 40.375 33.015625 40.375 
z
M 52.59375 71.296875 
L 52.59375 62.3125 
Q 48.875 64.0625 45.09375 64.984375 
Q 41.3125 65.921875 37.59375 65.921875 
Q 27.828125 65.921875 22.671875 59.328125 
Q 17.53125 52.734375 16.796875 39.40625 
Q 19.671875 43.65625 24.015625 45.921875 
Q 28.375 48.1875 33.59375 48.1875 
Q 44.578125 48.1875 50.953125 41.515625 
Q 57.328125 34.859375 57.328125 23.390625 
Q 57.328125 12.15625 50.6875 5.359375 
Q 44.046875 -1.421875 33.015625 -1.421875 
Q 20.359375 -1.421875 13.671875 8.265625 
Q 6.984375 17.96875 6.984375 36.375 
Q 6.984375 53.65625 15.1875 63.9375 
Q 23.390625 74.21875 37.203125 74.21875 
Q 40.921875 74.21875 44.703125 73.484375 
Q 48.484375 72.75 52.59375 71.296875 
z
" id="DejaVuSans-54"/>
      </defs>
      <g style="fill:#262626;" transform="translate(81.006563 141.528959)scale(0.11 -0.11)">
       <use xlink:href="#DejaVuSans-48"/>
       <use x="63.623047" xlink:href="#DejaVuSans-46"/>
       <use x="95.410156" xlink:href="#DejaVuSans-54"/>
      </g>
     </g>
    </g>
    <g id="ytick_4">
     <g id="line2d_4">
      <path clip-path="url(#p8f67751def)" d="M 108 90.896727 
L 777.6 90.896727 
" style="fill:none;stroke:#cccccc;stroke-linecap:round;"/>
     </g>
     <g id="text_8">
      <!-- 0.8 -->
      <defs>
       <path d="M 31.78125 34.625 
Q 24.75 34.625 20.71875 30.859375 
Q 16.703125 27.09375 16.703125 20.515625 
Q 16.703125 13.921875 20.71875 10.15625 
Q 24.75 6.390625 31.78125 6.390625 
Q 38.8125 6.390625 42.859375 10.171875 
Q 46.921875 13.96875 46.921875 20.515625 
Q 46.921875 27.09375 42.890625 30.859375 
Q 38.875 34.625 31.78125 34.625 
z
M 21.921875 38.8125 
Q 15.578125 40.375 12.03125 44.71875 
Q 8.5 49.078125 8.5 55.328125 
Q 8.5 64.0625 14.71875 69.140625 
Q 20.953125 74.21875 31.78125 74.21875 
Q 42.671875 74.21875 48.875 69.140625 
Q 55.078125 64.0625 55.078125 55.328125 
Q 55.078125 49.078125 51.53125 44.71875 
Q 48 40.375 41.703125 38.8125 
Q 48.828125 37.15625 52.796875 32.3125 
Q 56.78125 27.484375 56.78125 20.515625 
Q 56.78125 9.90625 50.3125 4.234375 
Q 43.84375 -1.421875 31.78125 -1.421875 
Q 19.734375 -1.421875 13.25 4.234375 
Q 6.78125 9.90625 6.78125 20.515625 
Q 6.78125 27.484375 10.78125 32.3125 
Q 14.796875 37.15625 21.921875 38.8125 
z
M 18.3125 54.390625 
Q 18.3125 48.734375 21.84375 45.5625 
Q 25.390625 42.390625 31.78125 42.390625 
Q 38.140625 42.390625 41.71875 45.5625 
Q 45.3125 48.734375 45.3125 54.390625 
Q 45.3125 60.0625 41.71875 63.234375 
Q 38.140625 66.40625 31.78125 66.40625 
Q 25.390625 66.40625 21.84375 63.234375 
Q 18.3125 60.0625 18.3125 54.390625 
z
" id="DejaVuSans-56"/>
      </defs>
      <g style="fill:#262626;" transform="translate(81.006563 95.075868)scale(0.11 -0.11)">
       <use xlink:href="#DejaVuSans-48"/>
       <use x="63.623047" xlink:href="#DejaVuSans-46"/>
       <use x="95.410156" xlink:href="#DejaVuSans-56"/>
      </g>
     </g>
    </g>
    <g id="ytick_5">
     <g id="line2d_5">
      <path clip-path="url(#p8f67751def)" d="M 108 44.443636 
L 777.6 44.443636 
" style="fill:none;stroke:#cccccc;stroke-linecap:round;"/>
     </g>
     <g id="text_9">
      <!-- 1.0 -->
      <g style="fill:#262626;" transform="translate(81.006563 48.622777)scale(0.11 -0.11)">
       <use xlink:href="#DejaVuSans-49"/>
       <use x="63.623047" xlink:href="#DejaVuSans-46"/>
       <use x="95.410156" xlink:href="#DejaVuSans-48"/>
      </g>
     </g>
    </g>
    <g id="text_10">
     <!-- Accuracy -->
     <defs>
      <path d="M 48.78125 52.59375 
L 48.78125 44.1875 
Q 44.96875 46.296875 41.140625 47.34375 
Q 37.3125 48.390625 33.40625 48.390625 
Q 24.65625 48.390625 19.8125 42.84375 
Q 14.984375 37.3125 14.984375 27.296875 
Q 14.984375 17.28125 19.8125 11.734375 
Q 24.65625 6.203125 33.40625 6.203125 
Q 37.3125 6.203125 41.140625 7.25 
Q 44.96875 8.296875 48.78125 10.40625 
L 48.78125 2.09375 
Q 45.015625 0.34375 40.984375 -0.53125 
Q 36.96875 -1.421875 32.421875 -1.421875 
Q 20.0625 -1.421875 12.78125 6.34375 
Q 5.515625 14.109375 5.515625 27.296875 
Q 5.515625 40.671875 12.859375 48.328125 
Q 20.21875 56 33.015625 56 
Q 37.15625 56 41.109375 55.140625 
Q 45.0625 54.296875 48.78125 52.59375 
z
" id="DejaVuSans-99"/>
      <path d="M 8.5 21.578125 
L 8.5 54.6875 
L 17.484375 54.6875 
L 17.484375 21.921875 
Q 17.484375 14.15625 20.5 10.265625 
Q 23.53125 6.390625 29.59375 6.390625 
Q 36.859375 6.390625 41.078125 11.03125 
Q 45.3125 15.671875 45.3125 23.6875 
L 45.3125 54.6875 
L 54.296875 54.6875 
L 54.296875 0 
L 45.3125 0 
L 45.3125 8.40625 
Q 42.046875 3.421875 37.71875 1 
Q 33.40625 -1.421875 27.6875 -1.421875 
Q 18.265625 -1.421875 13.375 4.4375 
Q 8.5 10.296875 8.5 21.578125 
z
M 31.109375 56 
z
" id="DejaVuSans-117"/>
      <path d="M 41.109375 46.296875 
Q 39.59375 47.171875 37.8125 47.578125 
Q 36.03125 48 33.890625 48 
Q 26.265625 48 22.1875 43.046875 
Q 18.109375 38.09375 18.109375 28.8125 
L 18.109375 0 
L 9.078125 0 
L 9.078125 54.6875 
L 18.109375 54.6875 
L 18.109375 46.1875 
Q 20.953125 51.171875 25.484375 53.578125 
Q 30.03125 56 36.53125 56 
Q 37.453125 56 38.578125 55.875 
Q 39.703125 55.765625 41.0625 55.515625 
z
" id="DejaVuSans-114"/>
      <path d="M 34.28125 27.484375 
Q 23.390625 27.484375 19.1875 25 
Q 14.984375 22.515625 14.984375 16.5 
Q 14.984375 11.71875 18.140625 8.90625 
Q 21.296875 6.109375 26.703125 6.109375 
Q 34.1875 6.109375 38.703125 11.40625 
Q 43.21875 16.703125 43.21875 25.484375 
L 43.21875 27.484375 
z
M 52.203125 31.203125 
L 52.203125 0 
L 43.21875 0 
L 43.21875 8.296875 
Q 40.140625 3.328125 35.546875 0.953125 
Q 30.953125 -1.421875 24.3125 -1.421875 
Q 15.921875 -1.421875 10.953125 3.296875 
Q 6 8.015625 6 15.921875 
Q 6 25.140625 12.171875 29.828125 
Q 18.359375 34.515625 30.609375 34.515625 
L 43.21875 34.515625 
L 43.21875 35.40625 
Q 43.21875 41.609375 39.140625 45 
Q 35.0625 48.390625 27.6875 48.390625 
Q 23 48.390625 18.546875 47.265625 
Q 14.109375 46.140625 10.015625 43.890625 
L 10.015625 52.203125 
Q 14.9375 54.109375 19.578125 55.046875 
Q 24.21875 56 28.609375 56 
Q 40.484375 56 46.34375 49.84375 
Q 52.203125 43.703125 52.203125 31.203125 
z
" id="DejaVuSans-97"/>
      <path d="M 32.171875 -5.078125 
Q 28.375 -14.84375 24.75 -17.8125 
Q 21.140625 -20.796875 15.09375 -20.796875 
L 7.90625 -20.796875 
L 7.90625 -13.28125 
L 13.1875 -13.28125 
Q 16.890625 -13.28125 18.9375 -11.515625 
Q 21 -9.765625 23.484375 -3.21875 
L 25.09375 0.875 
L 2.984375 54.6875 
L 12.5 54.6875 
L 29.59375 11.921875 
L 46.6875 54.6875 
L 56.203125 54.6875 
z
" id="DejaVuSans-121"/>
     </defs>
     <g style="fill:#262626;" transform="translate(74.510937 170.67375)rotate(-90)scale(0.12 -0.12)">
      <use xlink:href="#DejaVuSans-65"/>
      <use x="66.658203" xlink:href="#DejaVuSans-99"/>
      <use x="121.638672" xlink:href="#DejaVuSans-99"/>
      <use x="176.619141" xlink:href="#DejaVuSans-117"/>
      <use x="239.998047" xlink:href="#DejaVuSans-114"/>
      <use x="281.111328" xlink:href="#DejaVuSans-97"/>
      <use x="342.390625" xlink:href="#DejaVuSans-99"/>
      <use x="397.371094" xlink:href="#DejaVuSans-121"/>
     </g>
    </g>
   </g>
   <g id="PolyCollection_1">
    <defs>
     <path d="M 191.7 -242.067483 
L 187.764298 -242.067483 
L 187.770088 -242.082522 
L 187.807027 -242.097561 
L 187.874237 -242.1126 
L 187.970137 -242.127639 
L 188.092506 -242.142679 
L 188.238562 -242.157718 
L 188.405075 -242.172757 
L 188.58848 -242.187796 
L 188.785006 -242.202835 
L 188.990801 -242.217875 
L 189.202059 -242.232914 
L 189.41513 -242.247953 
L 189.62662 -242.262992 
L 189.833473 -242.278031 
L 190.03303 -242.293071 
L 190.223072 -242.30811 
L 190.401837 -242.323149 
L 190.568025 -242.338188 
L 190.720775 -242.353227 
L 190.859638 -242.368267 
L 190.984535 -242.383306 
L 191.095706 -242.398345 
L 191.193655 -242.413384 
L 191.279096 -242.428423 
L 191.352898 -242.443463 
L 191.416032 -242.458502 
L 191.469527 -242.473541 
L 191.51443 -242.48858 
L 191.55177 -242.503619 
L 191.582537 -242.518659 
L 191.607657 -242.533698 
L 191.627981 -242.548737 
L 191.644277 -242.563776 
L 191.657227 -242.578815 
L 191.667427 -242.593855 
L 191.675388 -242.608894 
L 191.681547 -242.623933 
L 191.686268 -242.638972 
L 191.68985 -242.654011 
L 191.692539 -242.669051 
L 191.69453 -242.68409 
L 191.695975 -242.699129 
L 191.69699 -242.714168 
L 191.697657 -242.729207 
L 191.698028 -242.744247 
L 191.698128 -242.759286 
L 191.69795 -242.774325 
L 191.697454 -242.789364 
L 191.696563 -242.804403 
L 191.69515 -242.819443 
L 191.693028 -242.834482 
L 191.689928 -242.849521 
L 191.685478 -242.86456 
L 191.679171 -242.879599 
L 191.670325 -242.894639 
L 191.658034 -242.909678 
L 191.641109 -242.924717 
L 191.618004 -242.939756 
L 191.586736 -242.954796 
L 191.544784 -242.969835 
L 191.48898 -242.984874 
L 191.415392 -242.999913 
L 191.319191 -243.014952 
L 191.194522 -243.029992 
L 191.034369 -243.045031 
L 190.830439 -243.06007 
L 190.573057 -243.075109 
L 190.251097 -243.090148 
L 189.851958 -243.105188 
L 189.361595 -243.120227 
L 188.76463 -243.135266 
L 188.044545 -243.150305 
L 187.183985 -243.165344 
L 186.165167 -243.180384 
L 184.970402 -243.195423 
L 183.582749 -243.210462 
L 181.98676 -243.225501 
L 180.169327 -243.24054 
L 178.120603 -243.25558 
L 175.834943 -243.270619 
L 173.311846 -243.285658 
L 170.556838 -243.300697 
L 167.582235 -243.315736 
L 164.407738 -243.330776 
L 161.060808 -243.345815 
L 157.576747 -243.360854 
L 153.99848 -243.375893 
L 150.375975 -243.390932 
L 146.765315 -243.405972 
L 143.227422 -243.421011 
L 139.826464 -243.43605 
L 136.627992 -243.451089 
L 133.696888 -243.466128 
L 131.095202 -243.481168 
L 128.879983 -243.496207 
L 127.101206 -243.511246 
L 125.799897 -243.526285 
L 125.006562 -243.541324 
L 124.74 -243.556364 
L 191.7 -243.556364 
L 191.7 -243.556364 
L 191.7 -243.541324 
L 191.7 -243.526285 
L 191.7 -243.511246 
L 191.7 -243.496207 
L 191.7 -243.481168 
L 191.7 -243.466128 
L 191.7 -243.451089 
L 191.7 -243.43605 
L 191.7 -243.421011 
L 191.7 -243.405972 
L 191.7 -243.390932 
L 191.7 -243.375893 
L 191.7 -243.360854 
L 191.7 -243.345815 
L 191.7 -243.330776 
L 191.7 -243.315736 
L 191.7 -243.300697 
L 191.7 -243.285658 
L 191.7 -243.270619 
L 191.7 -243.25558 
L 191.7 -243.24054 
L 191.7 -243.225501 
L 191.7 -243.210462 
L 191.7 -243.195423 
L 191.7 -243.180384 
L 191.7 -243.165344 
L 191.7 -243.150305 
L 191.7 -243.135266 
L 191.7 -243.120227 
L 191.7 -243.105188 
L 191.7 -243.090148 
L 191.7 -243.075109 
L 191.7 -243.06007 
L 191.7 -243.045031 
L 191.7 -243.029992 
L 191.7 -243.014952 
L 191.7 -242.999913 
L 191.7 -242.984874 
L 191.7 -242.969835 
L 191.7 -242.954796 
L 191.7 -242.939756 
L 191.7 -242.924717 
L 191.7 -242.909678 
L 191.7 -242.894639 
L 191.7 -242.879599 
L 191.7 -242.86456 
L 191.7 -242.849521 
L 191.7 -242.834482 
L 191.7 -242.819443 
L 191.7 -242.804403 
L 191.7 -242.789364 
L 191.7 -242.774325 
L 191.7 -242.759286 
L 191.7 -242.744247 
L 191.7 -242.729207 
L 191.7 -242.714168 
L 191.7 -242.699129 
L 191.7 -242.68409 
L 191.7 -242.669051 
L 191.7 -242.654011 
L 191.7 -242.638972 
L 191.7 -242.623933 
L 191.7 -242.608894 
L 191.7 -242.593855 
L 191.7 -242.578815 
L 191.7 -242.563776 
L 191.7 -242.548737 
L 191.7 -242.533698 
L 191.7 -242.518659 
L 191.7 -242.503619 
L 191.7 -242.48858 
L 191.7 -242.473541 
L 191.7 -242.458502 
L 191.7 -242.443463 
L 191.7 -242.428423 
L 191.7 -242.413384 
L 191.7 -242.398345 
L 191.7 -242.383306 
L 191.7 -242.368267 
L 191.7 -242.353227 
L 191.7 -242.338188 
L 191.7 -242.323149 
L 191.7 -242.30811 
L 191.7 -242.293071 
L 191.7 -242.278031 
L 191.7 -242.262992 
L 191.7 -242.247953 
L 191.7 -242.232914 
L 191.7 -242.217875 
L 191.7 -242.202835 
L 191.7 -242.187796 
L 191.7 -242.172757 
L 191.7 -242.157718 
L 191.7 -242.142679 
L 191.7 -242.127639 
L 191.7 -242.1126 
L 191.7 -242.097561 
L 191.7 -242.082522 
L 191.7 -242.067483 
z
" id="m4c93e5cc6e" style="stroke:#737373;stroke-width:1.5;"/>
    </defs>
    <g clip-path="url(#p8f67751def)">
     <use style="fill:#abc9ea;stroke:#737373;stroke-width:1.5;" x="0" xlink:href="#m4c93e5cc6e" y="288"/>
    </g>
   </g>
   <g id="PolyCollection_2">
    <defs>
     <path d="M 195.294788 -227.178671 
L 191.7 -227.178671 
L 191.7 -227.344103 
L 191.7 -227.509534 
L 191.7 -227.674965 
L 191.7 -227.840396 
L 191.7 -228.005828 
L 191.7 -228.171259 
L 191.7 -228.33669 
L 191.7 -228.502121 
L 191.7 -228.667552 
L 191.7 -228.832984 
L 191.7 -228.998415 
L 191.7 -229.163846 
L 191.7 -229.329277 
L 191.7 -229.494709 
L 191.7 -229.66014 
L 191.7 -229.825571 
L 191.7 -229.991002 
L 191.7 -230.156434 
L 191.7 -230.321865 
L 191.7 -230.487296 
L 191.7 -230.652727 
L 191.7 -230.818159 
L 191.7 -230.98359 
L 191.7 -231.149021 
L 191.7 -231.314452 
L 191.7 -231.479883 
L 191.7 -231.645315 
L 191.7 -231.810746 
L 191.7 -231.976177 
L 191.7 -232.141608 
L 191.7 -232.30704 
L 191.7 -232.472471 
L 191.7 -232.637902 
L 191.7 -232.803333 
L 191.7 -232.968765 
L 191.7 -233.134196 
L 191.7 -233.299627 
L 191.7 -233.465058 
L 191.7 -233.63049 
L 191.7 -233.795921 
L 191.7 -233.961352 
L 191.7 -234.126783 
L 191.7 -234.292214 
L 191.7 -234.457646 
L 191.7 -234.623077 
L 191.7 -234.788508 
L 191.7 -234.953939 
L 191.7 -235.119371 
L 191.7 -235.284802 
L 191.7 -235.450233 
L 191.7 -235.615664 
L 191.7 -235.781096 
L 191.7 -235.946527 
L 191.7 -236.111958 
L 191.7 -236.277389 
L 191.7 -236.442821 
L 191.7 -236.608252 
L 191.7 -236.773683 
L 191.7 -236.939114 
L 191.7 -237.104545 
L 191.7 -237.269977 
L 191.7 -237.435408 
L 191.7 -237.600839 
L 191.7 -237.76627 
L 191.7 -237.931702 
L 191.7 -238.097133 
L 191.7 -238.262564 
L 191.7 -238.427995 
L 191.7 -238.593427 
L 191.7 -238.758858 
L 191.7 -238.924289 
L 191.7 -239.08972 
L 191.7 -239.255152 
L 191.7 -239.420583 
L 191.7 -239.586014 
L 191.7 -239.751445 
L 191.7 -239.916876 
L 191.7 -240.082308 
L 191.7 -240.247739 
L 191.7 -240.41317 
L 191.7 -240.578601 
L 191.7 -240.744033 
L 191.7 -240.909464 
L 191.7 -241.074895 
L 191.7 -241.240326 
L 191.7 -241.405758 
L 191.7 -241.571189 
L 191.7 -241.73662 
L 191.7 -241.902051 
L 191.7 -242.067483 
L 191.7 -242.232914 
L 191.7 -242.398345 
L 191.7 -242.563776 
L 191.7 -242.729207 
L 191.7 -242.894639 
L 191.7 -243.06007 
L 191.7 -243.225501 
L 191.7 -243.390932 
L 191.7 -243.556364 
L 258.66 -243.556364 
L 258.66 -243.556364 
L 258.605161 -243.390932 
L 258.003703 -243.225501 
L 256.872525 -243.06007 
L 255.241265 -242.894639 
L 253.151018 -242.729207 
L 250.652619 -242.563776 
L 247.804594 -242.398345 
L 244.670892 -242.232914 
L 241.318508 -242.067483 
L 237.815146 -241.902051 
L 234.227008 -241.73662 
L 230.616818 -241.571189 
L 227.042155 -241.405758 
L 223.554147 -241.240326 
L 220.19655 -241.074895 
L 217.005216 -240.909464 
L 214.007935 -240.744033 
L 211.224597 -240.578601 
L 208.667648 -240.41317 
L 206.342761 -240.247739 
L 204.249659 -240.082308 
L 202.383049 -239.916876 
L 200.733577 -239.751445 
L 199.288785 -239.586014 
L 198.034009 -239.420583 
L 196.953197 -239.255152 
L 196.029622 -239.08972 
L 195.24648 -238.924289 
L 194.587376 -238.758858 
L 194.036684 -238.593427 
L 193.579819 -238.427995 
L 193.203401 -238.262564 
L 192.895348 -238.097133 
L 192.644901 -237.931702 
L 192.442604 -237.76627 
L 192.280239 -237.600839 
L 192.150745 -237.435408 
L 192.04811 -237.269977 
L 191.96727 -237.104545 
L 191.903993 -236.939114 
L 191.854774 -236.773683 
L 191.816734 -236.608252 
L 191.787526 -236.442821 
L 191.765252 -236.277389 
L 191.748393 -236.111958 
L 191.735739 -235.946527 
L 191.726338 -235.781096 
L 191.719452 -235.615664 
L 191.714512 -235.450233 
L 191.711094 -235.284802 
L 191.708892 -235.119371 
L 191.707694 -234.953939 
L 191.707374 -234.788508 
L 191.70788 -234.623077 
L 191.709224 -234.457646 
L 191.711482 -234.292214 
L 191.714792 -234.126783 
L 191.719354 -233.961352 
L 191.725436 -233.795921 
L 191.733373 -233.63049 
L 191.743574 -233.465058 
L 191.756525 -233.299627 
L 191.772792 -233.134196 
L 191.793019 -232.968765 
L 191.817932 -232.803333 
L 191.848327 -232.637902 
L 191.885065 -232.472471 
L 191.929059 -232.30704 
L 191.981248 -232.141608 
L 192.042578 -231.976177 
L 192.113969 -231.810746 
L 192.196277 -231.645315 
L 192.290254 -231.479883 
L 192.396505 -231.314452 
L 192.51544 -231.149021 
L 192.647224 -230.98359 
L 192.791739 -230.818159 
L 192.948538 -230.652727 
L 193.116815 -230.487296 
L 193.29538 -230.321865 
L 193.482649 -230.156434 
L 193.676648 -229.991002 
L 193.875028 -229.825571 
L 194.075105 -229.66014 
L 194.273904 -229.494709 
L 194.468234 -229.329277 
L 194.654762 -229.163846 
L 194.830108 -228.998415 
L 194.99094 -228.832984 
L 195.134085 -228.667552 
L 195.256621 -228.502121 
L 195.355984 -228.33669 
L 195.43005 -228.171259 
L 195.477212 -228.005828 
L 195.496436 -227.840396 
L 195.487298 -227.674965 
L 195.449999 -227.509534 
L 195.385359 -227.344103 
L 195.294788 -227.178671 
z
" id="m747d48171e" style="stroke:#737373;stroke-width:1.5;"/>
    </defs>
    <g clip-path="url(#p8f67751def)">
     <use style="fill:#efb792;stroke:#737373;stroke-width:1.5;" x="0" xlink:href="#m747d48171e" y="288"/>
    </g>
   </g>
   <g id="PolyCollection_3">
    <defs>
     <path d="M 361.304678 -231.624919 
L 359.1 -231.624919 
L 359.1 -231.745439 
L 359.1 -231.865958 
L 359.1 -231.986478 
L 359.1 -232.106998 
L 359.1 -232.227517 
L 359.1 -232.348037 
L 359.1 -232.468557 
L 359.1 -232.589076 
L 359.1 -232.709596 
L 359.1 -232.830115 
L 359.1 -232.950635 
L 359.1 -233.071155 
L 359.1 -233.191674 
L 359.1 -233.312194 
L 359.1 -233.432714 
L 359.1 -233.553233 
L 359.1 -233.673753 
L 359.1 -233.794273 
L 359.1 -233.914792 
L 359.1 -234.035312 
L 359.1 -234.155832 
L 359.1 -234.276351 
L 359.1 -234.396871 
L 359.1 -234.51739 
L 359.1 -234.63791 
L 359.1 -234.75843 
L 359.1 -234.878949 
L 359.1 -234.999469 
L 359.1 -235.119989 
L 359.1 -235.240508 
L 359.1 -235.361028 
L 359.1 -235.481548 
L 359.1 -235.602067 
L 359.1 -235.722587 
L 359.1 -235.843107 
L 359.1 -235.963626 
L 359.1 -236.084146 
L 359.1 -236.204665 
L 359.1 -236.325185 
L 359.1 -236.445705 
L 359.1 -236.566224 
L 359.1 -236.686744 
L 359.1 -236.807264 
L 359.1 -236.927783 
L 359.1 -237.048303 
L 359.1 -237.168823 
L 359.1 -237.289342 
L 359.1 -237.409862 
L 359.1 -237.530382 
L 359.1 -237.650901 
L 359.1 -237.771421 
L 359.1 -237.89194 
L 359.1 -238.01246 
L 359.1 -238.13298 
L 359.1 -238.253499 
L 359.1 -238.374019 
L 359.1 -238.494539 
L 359.1 -238.615058 
L 359.1 -238.735578 
L 359.1 -238.856098 
L 359.1 -238.976617 
L 359.1 -239.097137 
L 359.1 -239.217657 
L 359.1 -239.338176 
L 359.1 -239.458696 
L 359.1 -239.579215 
L 359.1 -239.699735 
L 359.1 -239.820255 
L 359.1 -239.940774 
L 359.1 -240.061294 
L 359.1 -240.181814 
L 359.1 -240.302333 
L 359.1 -240.422853 
L 359.1 -240.543373 
L 359.1 -240.663892 
L 359.1 -240.784412 
L 359.1 -240.904932 
L 359.1 -241.025451 
L 359.1 -241.145971 
L 359.1 -241.26649 
L 359.1 -241.38701 
L 359.1 -241.50753 
L 359.1 -241.628049 
L 359.1 -241.748569 
L 359.1 -241.869089 
L 359.1 -241.989608 
L 359.1 -242.110128 
L 359.1 -242.230648 
L 359.1 -242.351167 
L 359.1 -242.471687 
L 359.1 -242.592206 
L 359.1 -242.712726 
L 359.1 -242.833246 
L 359.1 -242.953765 
L 359.1 -243.074285 
L 359.1 -243.194805 
L 359.1 -243.315324 
L 359.1 -243.435844 
L 359.1 -243.556364 
L 425.959065 -243.556364 
L 425.959065 -243.556364 
L 426.06 -243.435844 
L 425.474419 -243.315324 
L 424.232049 -243.194805 
L 422.383011 -243.074285 
L 419.99474 -242.953765 
L 417.148083 -242.833246 
L 413.932872 -242.712726 
L 410.443321 -242.592206 
L 406.773558 -242.471687 
L 403.013599 -242.351167 
L 399.245986 -242.230648 
L 395.54324 -242.110128 
L 391.966214 -241.989608 
L 388.563321 -241.869089 
L 385.37057 -241.748569 
L 382.412277 -241.628049 
L 379.702276 -241.50753 
L 377.245467 -241.38701 
L 375.039508 -241.26649 
L 373.076519 -241.145971 
L 371.344658 -241.025451 
L 369.829493 -240.904932 
L 368.515129 -240.784412 
L 367.385057 -240.663892 
L 366.422761 -240.543373 
L 365.612109 -240.422853 
L 364.937567 -240.302333 
L 364.384297 -240.181814 
L 363.938179 -240.061294 
L 363.585797 -239.940774 
L 363.314418 -239.820255 
L 363.111985 -239.699735 
L 362.967126 -239.579215 
L 362.869186 -239.458696 
L 362.80827 -239.338176 
L 362.775287 -239.217657 
L 362.761999 -239.097137 
L 362.761045 -238.976617 
L 362.765949 -238.856098 
L 362.771117 -238.735578 
L 362.771805 -238.615058 
L 362.764073 -238.494539 
L 362.744742 -238.374019 
L 362.711335 -238.253499 
L 362.662033 -238.13298 
L 362.595627 -238.01246 
L 362.511489 -237.89194 
L 362.409543 -237.771421 
L 362.290243 -237.650901 
L 362.154548 -237.530382 
L 362.003892 -237.409862 
L 361.840144 -237.289342 
L 361.665553 -237.168823 
L 361.482672 -237.048303 
L 361.294278 -236.927783 
L 361.103267 -236.807264 
L 360.91255 -236.686744 
L 360.724945 -236.566224 
L 360.543077 -236.445705 
L 360.369284 -236.325185 
L 360.205556 -236.204665 
L 360.053477 -236.084146 
L 359.914209 -235.963626 
L 359.788492 -235.843107 
L 359.676668 -235.722587 
L 359.578726 -235.602067 
L 359.494366 -235.481548 
L 359.423067 -235.361028 
L 359.364166 -235.240508 
L 359.316932 -235.119989 
L 359.280641 -234.999469 
L 359.254638 -234.878949 
L 359.23839 -234.75843 
L 359.231525 -234.63791 
L 359.233856 -234.51739 
L 359.245388 -234.396871 
L 359.266305 -234.276351 
L 359.29695 -234.155832 
L 359.337775 -234.035312 
L 359.389286 -233.914792 
L 359.451973 -233.794273 
L 359.526229 -233.673753 
L 359.612258 -233.553233 
L 359.709997 -233.432714 
L 359.819021 -233.312194 
L 359.938482 -233.191674 
L 360.06705 -233.071155 
L 360.202884 -232.950635 
L 360.343634 -232.830115 
L 360.486477 -232.709596 
L 360.628186 -232.589076 
L 360.765233 -232.468557 
L 360.893927 -232.348037 
L 361.01057 -232.227517 
L 361.11163 -232.106998 
L 361.193915 -231.986478 
L 361.254745 -231.865958 
L 361.292087 -231.745439 
L 361.304678 -231.624919 
z
" id="m5aa8340a1d" style="stroke:#737373;stroke-width:1.5;"/>
    </defs>
    <g clip-path="url(#p8f67751def)">
     <use style="fill:#efb792;stroke:#737373;stroke-width:1.5;" x="0" xlink:href="#m5aa8340a1d" y="288"/>
    </g>
   </g>
   <g id="PolyCollection_4">
    <defs>
     <path d="M 526.5 -45.883636 
L 526.264914 -45.883636 
L 526.243241 -47.880331 
L 526.223746 -49.877025 
L 526.205326 -51.873719 
L 526.187303 -53.870413 
L 526.170022 -55.867107 
L 526.155053 -57.863802 
L 526.144897 -59.860496 
L 526.142276 -61.85719 
L 526.149205 -63.853884 
L 526.166178 -65.850579 
L 526.191692 -67.847273 
L 526.222247 -69.843967 
L 526.252825 -71.840661 
L 526.277714 -73.837355 
L 526.291529 -75.83405 
L 526.290212 -77.830744 
L 526.271835 -79.827438 
L 526.237049 -81.824132 
L 526.189044 -83.820826 
L 526.132976 -85.817521 
L 526.074901 -87.814215 
L 526.020434 -89.810909 
L 525.97343 -91.807603 
L 525.935058 -93.804298 
L 525.903523 -95.800992 
L 525.87454 -97.797686 
L 525.842405 -99.79438 
L 525.801335 -101.791074 
L 525.746674 -103.787769 
L 525.675622 -105.784463 
L 525.587314 -107.781157 
L 525.48235 -109.777851 
L 525.362046 -111.774545 
L 525.227773 -113.77124 
L 525.080693 -115.767934 
L 524.921913 -117.764628 
L 524.752874 -119.761322 
L 524.575592 -121.758017 
L 524.392465 -123.754711 
L 524.205634 -125.751405 
L 524.016253 -127.748099 
L 523.824152 -129.744793 
L 523.628274 -131.741488 
L 523.427801 -133.738182 
L 523.223437 -135.734876 
L 523.018087 -137.73157 
L 522.816397 -139.728264 
L 522.623148 -141.724959 
L 522.441112 -143.721653 
L 522.269308 -145.718347 
L 522.102455 -147.715041 
L 521.93196 -149.711736 
L 521.748165 -151.70843 
L 521.543125 -153.705124 
L 521.313052 -155.701818 
L 521.059695 -157.698512 
L 520.790224 -159.695207 
L 520.515564 -161.691901 
L 520.247454 -163.688595 
L 519.994848 -165.685289 
L 519.760536 -167.681983 
L 519.538965 -169.678678 
L 519.316082 -171.675372 
L 519.071555 -173.672066 
L 518.782972 -175.66876 
L 518.430893 -177.665455 
L 518.003144 -179.662149 
L 517.49682 -181.658843 
L 516.917211 -183.655537 
L 516.274018 -185.652231 
L 515.576458 -187.648926 
L 514.829451 -189.64562 
L 514.032745 -191.642314 
L 513.183539 -193.639008 
L 512.281438 -195.635702 
L 511.333213 -197.632397 
L 510.354637 -199.629091 
L 509.367738 -201.625785 
L 508.393817 -203.622479 
L 507.444432 -205.619174 
L 506.513436 -207.615868 
L 505.572541 -209.612562 
L 504.57113 -211.609256 
L 503.439157 -213.60595 
L 502.090966 -215.602645 
L 500.428499 -217.599339 
L 498.344439 -219.596033 
L 495.728368 -221.592727 
L 492.480708 -223.589421 
L 488.538561 -225.586116 
L 483.913866 -227.58281 
L 478.73783 -229.579504 
L 473.298172 -231.576198 
L 468.050698 -233.572893 
L 463.587953 -235.569587 
L 460.557549 -237.566281 
L 459.54 -239.562975 
L 460.914645 -241.559669 
L 464.753708 -243.556364 
L 526.5 -243.556364 
L 526.5 -243.556364 
L 526.5 -241.559669 
L 526.5 -239.562975 
L 526.5 -237.566281 
L 526.5 -235.569587 
L 526.5 -233.572893 
L 526.5 -231.576198 
L 526.5 -229.579504 
L 526.5 -227.58281 
L 526.5 -225.586116 
L 526.5 -223.589421 
L 526.5 -221.592727 
L 526.5 -219.596033 
L 526.5 -217.599339 
L 526.5 -215.602645 
L 526.5 -213.60595 
L 526.5 -211.609256 
L 526.5 -209.612562 
L 526.5 -207.615868 
L 526.5 -205.619174 
L 526.5 -203.622479 
L 526.5 -201.625785 
L 526.5 -199.629091 
L 526.5 -197.632397 
L 526.5 -195.635702 
L 526.5 -193.639008 
L 526.5 -191.642314 
L 526.5 -189.64562 
L 526.5 -187.648926 
L 526.5 -185.652231 
L 526.5 -183.655537 
L 526.5 -181.658843 
L 526.5 -179.662149 
L 526.5 -177.665455 
L 526.5 -175.66876 
L 526.5 -173.672066 
L 526.5 -171.675372 
L 526.5 -169.678678 
L 526.5 -167.681983 
L 526.5 -165.685289 
L 526.5 -163.688595 
L 526.5 -161.691901 
L 526.5 -159.695207 
L 526.5 -157.698512 
L 526.5 -155.701818 
L 526.5 -153.705124 
L 526.5 -151.70843 
L 526.5 -149.711736 
L 526.5 -147.715041 
L 526.5 -145.718347 
L 526.5 -143.721653 
L 526.5 -141.724959 
L 526.5 -139.728264 
L 526.5 -137.73157 
L 526.5 -135.734876 
L 526.5 -133.738182 
L 526.5 -131.741488 
L 526.5 -129.744793 
L 526.5 -127.748099 
L 526.5 -125.751405 
L 526.5 -123.754711 
L 526.5 -121.758017 
L 526.5 -119.761322 
L 526.5 -117.764628 
L 526.5 -115.767934 
L 526.5 -113.77124 
L 526.5 -111.774545 
L 526.5 -109.777851 
L 526.5 -107.781157 
L 526.5 -105.784463 
L 526.5 -103.787769 
L 526.5 -101.791074 
L 526.5 -99.79438 
L 526.5 -97.797686 
L 526.5 -95.800992 
L 526.5 -93.804298 
L 526.5 -91.807603 
L 526.5 -89.810909 
L 526.5 -87.814215 
L 526.5 -85.817521 
L 526.5 -83.820826 
L 526.5 -81.824132 
L 526.5 -79.827438 
L 526.5 -77.830744 
L 526.5 -75.83405 
L 526.5 -73.837355 
L 526.5 -71.840661 
L 526.5 -69.843967 
L 526.5 -67.847273 
L 526.5 -65.850579 
L 526.5 -63.853884 
L 526.5 -61.85719 
L 526.5 -59.860496 
L 526.5 -57.863802 
L 526.5 -55.867107 
L 526.5 -53.870413 
L 526.5 -51.873719 
L 526.5 -49.877025 
L 526.5 -47.880331 
L 526.5 -45.883636 
z
" id="m7c7c67f903" style="stroke:#737373;stroke-width:1.5;"/>
    </defs>
    <g clip-path="url(#p8f67751def)">
     <use style="fill:#abc9ea;stroke:#737373;stroke-width:1.5;" x="0" xlink:href="#m7c7c67f903" y="288"/>
    </g>
   </g>
   <g id="PolyCollection_5">
    <defs>
     <path d="M 550.759908 -85.706055 
L 526.5 -85.706055 
L 526.5 -86.582776 
L 526.5 -87.459497 
L 526.5 -88.336219 
L 526.5 -89.21294 
L 526.5 -90.089662 
L 526.5 -90.966383 
L 526.5 -91.843104 
L 526.5 -92.719826 
L 526.5 -93.596547 
L 526.5 -94.473269 
L 526.5 -95.34999 
L 526.5 -96.226711 
L 526.5 -97.103433 
L 526.5 -97.980154 
L 526.5 -98.856875 
L 526.5 -99.733597 
L 526.5 -100.610318 
L 526.5 -101.48704 
L 526.5 -102.363761 
L 526.5 -103.240482 
L 526.5 -104.117204 
L 526.5 -104.993925 
L 526.5 -105.870646 
L 526.5 -106.747368 
L 526.5 -107.624089 
L 526.5 -108.500811 
L 526.5 -109.377532 
L 526.5 -110.254253 
L 526.5 -111.130975 
L 526.5 -112.007696 
L 526.5 -112.884417 
L 526.5 -113.761139 
L 526.5 -114.63786 
L 526.5 -115.514582 
L 526.5 -116.391303 
L 526.5 -117.268024 
L 526.5 -118.144746 
L 526.5 -119.021467 
L 526.5 -119.898189 
L 526.5 -120.77491 
L 526.5 -121.651631 
L 526.5 -122.528353 
L 526.5 -123.405074 
L 526.5 -124.281795 
L 526.5 -125.158517 
L 526.5 -126.035238 
L 526.5 -126.91196 
L 526.5 -127.788681 
L 526.5 -128.665402 
L 526.5 -129.542124 
L 526.5 -130.418845 
L 526.5 -131.295566 
L 526.5 -132.172288 
L 526.5 -133.049009 
L 526.5 -133.925731 
L 526.5 -134.802452 
L 526.5 -135.679173 
L 526.5 -136.555895 
L 526.5 -137.432616 
L 526.5 -138.309337 
L 526.5 -139.186059 
L 526.5 -140.06278 
L 526.5 -140.939502 
L 526.5 -141.816223 
L 526.5 -142.692944 
L 526.5 -143.569666 
L 526.5 -144.446387 
L 526.5 -145.323109 
L 526.5 -146.19983 
L 526.5 -147.076551 
L 526.5 -147.953273 
L 526.5 -148.829994 
L 526.5 -149.706715 
L 526.5 -150.583437 
L 526.5 -151.460158 
L 526.5 -152.33688 
L 526.5 -153.213601 
L 526.5 -154.090322 
L 526.5 -154.967044 
L 526.5 -155.843765 
L 526.5 -156.720486 
L 526.5 -157.597208 
L 526.5 -158.473929 
L 526.5 -159.350651 
L 526.5 -160.227372 
L 526.5 -161.104093 
L 526.5 -161.980815 
L 526.5 -162.857536 
L 526.5 -163.734257 
L 526.5 -164.610979 
L 526.5 -165.4877 
L 526.5 -166.364422 
L 526.5 -167.241143 
L 526.5 -168.117864 
L 526.5 -168.994586 
L 526.5 -169.871307 
L 526.5 -170.748029 
L 526.5 -171.62475 
L 526.5 -172.501471 
L 565.389787 -172.501471 
L 565.389787 -172.501471 
L 567.471541 -171.62475 
L 569.515629 -170.748029 
L 571.509165 -169.871307 
L 573.439956 -168.994586 
L 575.296745 -168.117864 
L 577.069433 -167.241143 
L 578.749283 -166.364422 
L 580.329083 -165.4877 
L 581.803281 -164.610979 
L 583.168071 -163.734257 
L 584.421434 -162.857536 
L 585.563135 -161.980815 
L 586.594665 -161.104093 
L 587.519142 -160.227372 
L 588.34116 -159.350651 
L 589.066602 -158.473929 
L 589.702416 -157.597208 
L 590.256366 -156.720486 
L 590.736753 -155.843765 
L 591.152136 -154.967044 
L 591.511043 -154.090322 
L 591.821692 -153.213601 
L 592.091722 -152.33688 
L 592.327959 -151.460158 
L 592.536202 -150.583437 
L 592.721054 -149.706715 
L 592.885796 -148.829994 
L 593.032308 -147.953273 
L 593.16104 -147.076551 
L 593.271027 -146.19983 
L 593.359966 -145.323109 
L 593.424324 -144.446387 
L 593.459497 -143.569666 
L 593.46 -142.692944 
L 593.41969 -141.816223 
L 593.332006 -140.939502 
L 593.190226 -140.06278 
L 592.987727 -139.186059 
L 592.718241 -138.309337 
L 592.376106 -137.432616 
L 591.95649 -136.555895 
L 591.455598 -135.679173 
L 590.870841 -134.802452 
L 590.20098 -133.925731 
L 589.446221 -133.049009 
L 588.60828 -132.172288 
L 587.690402 -131.295566 
L 586.697338 -130.418845 
L 585.635291 -129.542124 
L 584.511816 -128.665402 
L 583.335692 -127.788681 
L 582.116764 -126.91196 
L 580.865761 -126.035238 
L 579.594088 -125.158517 
L 578.313611 -124.281795 
L 577.036422 -123.405074 
L 575.774605 -122.528353 
L 574.540003 -121.651631 
L 573.343977 -120.77491 
L 572.19719 -119.898189 
L 571.109392 -119.021467 
L 570.089225 -118.144746 
L 569.144051 -117.268024 
L 568.279798 -116.391303 
L 567.500845 -115.514582 
L 566.809917 -114.63786 
L 566.208036 -113.761139 
L 565.69448 -112.884417 
L 565.2668 -112.007696 
L 564.920852 -111.130975 
L 564.650879 -110.254253 
L 564.449617 -109.377532 
L 564.308438 -108.500811 
L 564.217521 -107.624089 
L 564.166046 -106.747368 
L 564.142418 -105.870646 
L 564.1345 -104.993925 
L 564.129862 -104.117204 
L 564.116038 -103.240482 
L 564.080779 -102.363761 
L 564.012303 -101.48704 
L 563.899536 -100.610318 
L 563.732325 -99.733597 
L 563.501643 -98.856875 
L 563.199753 -97.980154 
L 562.820347 -97.103433 
L 562.358649 -96.226711 
L 561.811485 -95.34999 
L 561.177306 -94.473269 
L 560.456186 -93.596547 
L 559.649775 -92.719826 
L 558.761223 -91.843104 
L 557.795068 -90.966383 
L 556.757107 -90.089662 
L 555.654233 -89.21294 
L 554.494266 -88.336219 
L 553.285764 -87.459497 
L 552.037827 -86.582776 
L 550.759908 -85.706055 
z
" id="m05cbeea888" style="stroke:#737373;stroke-width:1.5;"/>
    </defs>
    <g clip-path="url(#p8f67751def)">
     <use style="fill:#efb792;stroke:#737373;stroke-width:1.5;" x="0" xlink:href="#m05cbeea888" y="288"/>
    </g>
   </g>
   <g id="PolyCollection_6">
    <defs>
     <path d="M 693.9 -54.61026 
L 693.578751 -54.61026 
L 693.587481 -56.518806 
L 693.612456 -58.427353 
L 693.648975 -60.335899 
L 693.690417 -62.244446 
L 693.729469 -64.152992 
L 693.759226 -66.061539 
L 693.77391 -67.970085 
L 693.769233 -69.878632 
L 693.742606 -71.787178 
L 693.693411 -73.695725 
L 693.623405 -75.604271 
L 693.537062 -77.512818 
L 693.441503 -79.421364 
L 693.345677 -81.329911 
L 693.25876 -83.238457 
L 693.188052 -85.147004 
L 693.137031 -87.05555 
L 693.104198 -88.964097 
L 693.083111 -90.872643 
L 693.063513 -92.78119 
L 693.033073 -94.689736 
L 692.979117 -96.598283 
L 692.889892 -98.506829 
L 692.755281 -100.415376 
L 692.56718 -102.323922 
L 692.31985 -104.232469 
L 692.010444 -106.141015 
L 691.639649 -108.049562 
L 691.212165 -109.958108 
L 690.736607 -111.866655 
L 690.224433 -113.775201 
L 689.687727 -115.683748 
L 689.13606 -117.592294 
L 688.573198 -119.500841 
L 687.994881 -121.409387 
L 687.388897 -123.317934 
L 686.738083 -125.22648 
L 686.025779 -127.135027 
L 685.242095 -129.043573 
L 684.388795 -130.95212 
L 683.480876 -132.860666 
L 682.544075 -134.769213 
L 681.608936 -136.677759 
L 680.70313 -138.586306 
L 679.844096 -140.494852 
L 679.03372 -142.403399 
L 678.256019 -144.311945 
L 677.477942 -146.220492 
L 676.652798 -148.129038 
L 675.725513 -150.037585 
L 674.638911 -151.946131 
L 673.340389 -153.854678 
L 671.788553 -155.763224 
L 669.959405 -157.671771 
L 667.851471 -159.580317 
L 665.488886 -161.488864 
L 662.921114 -163.39741 
L 660.218201 -165.305957 
L 657.461282 -167.214503 
L 654.729593 -169.12305 
L 652.086882 -171.031596 
L 649.570995 -172.940143 
L 647.189986 -174.848689 
L 644.926222 -176.757236 
L 642.74727 -178.665783 
L 640.620075 -180.574329 
L 638.524097 -182.482876 
L 636.459942 -184.391422 
L 634.45211 -186.299969 
L 632.546624 -188.208515 
L 630.805601 -190.117062 
L 629.300837 -192.025608 
L 628.107621 -193.934155 
L 627.298987 -195.842701 
L 626.94 -197.751248 
L 627.081813 -199.659794 
L 627.755851 -201.568341 
L 628.969189 -203.476887 
L 630.702475 -205.385434 
L 632.911291 -207.29398 
L 635.530848 -209.202527 
L 638.482725 -211.111073 
L 641.681731 -213.01962 
L 645.041218 -214.928166 
L 648.475981 -216.836713 
L 651.902936 -218.745259 
L 655.240349 -220.653806 
L 658.406705 -222.562352 
L 661.320568 -224.470899 
L 663.903262 -226.379445 
L 666.086451 -228.287992 
L 667.825816 -230.196538 
L 669.119407 -232.105085 
L 670.025352 -234.013631 
L 670.670382 -235.922178 
L 671.240688 -237.830724 
L 671.951398 -239.739271 
L 672.999546 -241.647817 
L 674.513957 -243.556364 
L 693.9 -243.556364 
L 693.9 -243.556364 
L 693.9 -241.647817 
L 693.9 -239.739271 
L 693.9 -237.830724 
L 693.9 -235.922178 
L 693.9 -234.013631 
L 693.9 -232.105085 
L 693.9 -230.196538 
L 693.9 -228.287992 
L 693.9 -226.379445 
L 693.9 -224.470899 
L 693.9 -222.562352 
L 693.9 -220.653806 
L 693.9 -218.745259 
L 693.9 -216.836713 
L 693.9 -214.928166 
L 693.9 -213.01962 
L 693.9 -211.111073 
L 693.9 -209.202527 
L 693.9 -207.29398 
L 693.9 -205.385434 
L 693.9 -203.476887 
L 693.9 -201.568341 
L 693.9 -199.659794 
L 693.9 -197.751248 
L 693.9 -195.842701 
L 693.9 -193.934155 
L 693.9 -192.025608 
L 693.9 -190.117062 
L 693.9 -188.208515 
L 693.9 -186.299969 
L 693.9 -184.391422 
L 693.9 -182.482876 
L 693.9 -180.574329 
L 693.9 -178.665783 
L 693.9 -176.757236 
L 693.9 -174.848689 
L 693.9 -172.940143 
L 693.9 -171.031596 
L 693.9 -169.12305 
L 693.9 -167.214503 
L 693.9 -165.305957 
L 693.9 -163.39741 
L 693.9 -161.488864 
L 693.9 -159.580317 
L 693.9 -157.671771 
L 693.9 -155.763224 
L 693.9 -153.854678 
L 693.9 -151.946131 
L 693.9 -150.037585 
L 693.9 -148.129038 
L 693.9 -146.220492 
L 693.9 -144.311945 
L 693.9 -142.403399 
L 693.9 -140.494852 
L 693.9 -138.586306 
L 693.9 -136.677759 
L 693.9 -134.769213 
L 693.9 -132.860666 
L 693.9 -130.95212 
L 693.9 -129.043573 
L 693.9 -127.135027 
L 693.9 -125.22648 
L 693.9 -123.317934 
L 693.9 -121.409387 
L 693.9 -119.500841 
L 693.9 -117.592294 
L 693.9 -115.683748 
L 693.9 -113.775201 
L 693.9 -111.866655 
L 693.9 -109.958108 
L 693.9 -108.049562 
L 693.9 -106.141015 
L 693.9 -104.232469 
L 693.9 -102.323922 
L 693.9 -100.415376 
L 693.9 -98.506829 
L 693.9 -96.598283 
L 693.9 -94.689736 
L 693.9 -92.78119 
L 693.9 -90.872643 
L 693.9 -88.964097 
L 693.9 -87.05555 
L 693.9 -85.147004 
L 693.9 -83.238457 
L 693.9 -81.329911 
L 693.9 -79.421364 
L 693.9 -77.512818 
L 693.9 -75.604271 
L 693.9 -73.695725 
L 693.9 -71.787178 
L 693.9 -69.878632 
L 693.9 -67.970085 
L 693.9 -66.061539 
L 693.9 -64.152992 
L 693.9 -62.244446 
L 693.9 -60.335899 
L 693.9 -58.427353 
L 693.9 -56.518806 
L 693.9 -54.61026 
z
" id="ma6faeb67bb" style="stroke:#737373;stroke-width:1.5;"/>
    </defs>
    <g clip-path="url(#p8f67751def)">
     <use style="fill:#abc9ea;stroke:#737373;stroke-width:1.5;" x="0" xlink:href="#ma6faeb67bb" y="288"/>
    </g>
   </g>
   <g id="PolyCollection_7">
    <defs>
     <path d="M 695.919895 -239.579215 
L 693.9 -239.579215 
L 693.9 -239.619389 
L 693.9 -239.659562 
L 693.9 -239.699735 
L 693.9 -239.739908 
L 693.9 -239.780082 
L 693.9 -239.820255 
L 693.9 -239.860428 
L 693.9 -239.900601 
L 693.9 -239.940774 
L 693.9 -239.980948 
L 693.9 -240.021121 
L 693.9 -240.061294 
L 693.9 -240.101467 
L 693.9 -240.14164 
L 693.9 -240.181814 
L 693.9 -240.221987 
L 693.9 -240.26216 
L 693.9 -240.302333 
L 693.9 -240.342507 
L 693.9 -240.38268 
L 693.9 -240.422853 
L 693.9 -240.463026 
L 693.9 -240.503199 
L 693.9 -240.543373 
L 693.9 -240.583546 
L 693.9 -240.623719 
L 693.9 -240.663892 
L 693.9 -240.704065 
L 693.9 -240.744239 
L 693.9 -240.784412 
L 693.9 -240.824585 
L 693.9 -240.864758 
L 693.9 -240.904932 
L 693.9 -240.945105 
L 693.9 -240.985278 
L 693.9 -241.025451 
L 693.9 -241.065624 
L 693.9 -241.105798 
L 693.9 -241.145971 
L 693.9 -241.186144 
L 693.9 -241.226317 
L 693.9 -241.26649 
L 693.9 -241.306664 
L 693.9 -241.346837 
L 693.9 -241.38701 
L 693.9 -241.427183 
L 693.9 -241.467357 
L 693.9 -241.50753 
L 693.9 -241.547703 
L 693.9 -241.587876 
L 693.9 -241.628049 
L 693.9 -241.668223 
L 693.9 -241.708396 
L 693.9 -241.748569 
L 693.9 -241.788742 
L 693.9 -241.828915 
L 693.9 -241.869089 
L 693.9 -241.909262 
L 693.9 -241.949435 
L 693.9 -241.989608 
L 693.9 -242.029782 
L 693.9 -242.069955 
L 693.9 -242.110128 
L 693.9 -242.150301 
L 693.9 -242.190474 
L 693.9 -242.230648 
L 693.9 -242.270821 
L 693.9 -242.310994 
L 693.9 -242.351167 
L 693.9 -242.39134 
L 693.9 -242.431514 
L 693.9 -242.471687 
L 693.9 -242.51186 
L 693.9 -242.552033 
L 693.9 -242.592206 
L 693.9 -242.63238 
L 693.9 -242.672553 
L 693.9 -242.712726 
L 693.9 -242.752899 
L 693.9 -242.793073 
L 693.9 -242.833246 
L 693.9 -242.873419 
L 693.9 -242.913592 
L 693.9 -242.953765 
L 693.9 -242.993939 
L 693.9 -243.034112 
L 693.9 -243.074285 
L 693.9 -243.114458 
L 693.9 -243.154631 
L 693.9 -243.194805 
L 693.9 -243.234978 
L 693.9 -243.275151 
L 693.9 -243.315324 
L 693.9 -243.355498 
L 693.9 -243.395671 
L 693.9 -243.435844 
L 693.9 -243.476017 
L 693.9 -243.51619 
L 693.9 -243.556364 
L 760.86 -243.556364 
L 760.86 -243.556364 
L 760.465549 -243.51619 
L 759.137819 -243.476017 
L 756.941532 -243.435844 
L 753.977508 -243.395671 
L 750.375433 -243.355498 
L 746.284835 -243.315324 
L 741.865095 -243.275151 
L 737.275421 -243.234978 
L 732.665639 -243.194805 
L 728.168506 -243.154631 
L 723.894053 -243.114458 
L 719.926214 -243.074285 
L 716.32176 -243.034112 
L 713.11131 -242.993939 
L 710.302061 -242.953765 
L 707.881729 -242.913592 
L 705.82319 -242.873419 
L 704.089307 -242.833246 
L 702.63751 -242.793073 
L 701.423789 -242.752899 
L 700.405891 -242.712726 
L 699.545623 -242.672553 
L 698.810257 -242.63238 
L 698.173136 -242.592206 
L 697.613617 -242.552033 
L 697.116529 -242.51186 
L 696.671316 -242.471687 
L 696.271035 -242.431514 
L 695.911342 -242.39134 
L 695.589568 -242.351167 
L 695.303949 -242.310994 
L 695.053041 -242.270821 
L 694.835325 -242.230648 
L 694.648987 -242.190474 
L 694.491835 -242.150301 
L 694.361319 -242.110128 
L 694.254625 -242.069955 
L 694.168796 -242.029782 
L 694.100862 -241.989608 
L 694.047961 -241.949435 
L 694.007431 -241.909262 
L 693.976882 -241.869089 
L 693.954225 -241.828915 
L 693.937692 -241.788742 
L 693.92582 -241.748569 
L 693.917431 -241.708396 
L 693.911596 -241.668223 
L 693.907602 -241.628049 
L 693.904912 -241.587876 
L 693.903127 -241.547703 
L 693.901962 -241.50753 
L 693.901213 -241.467357 
L 693.900739 -241.427183 
L 693.900444 -241.38701 
L 693.900264 -241.346837 
L 693.900156 -241.306664 
L 693.900093 -241.26649 
L 693.900058 -241.226317 
L 693.900044 -241.186144 
L 693.900044 -241.145971 
L 693.900058 -241.105798 
L 693.900091 -241.065624 
L 693.90015 -241.025451 
L 693.900251 -240.985278 
L 693.900415 -240.945105 
L 693.900678 -240.904932 
L 693.901092 -240.864758 
L 693.901735 -240.824585 
L 693.902715 -240.784412 
L 693.904188 -240.744239 
L 693.906367 -240.704065 
L 693.909537 -240.663892 
L 693.914076 -240.623719 
L 693.920474 -240.583546 
L 693.929346 -240.543373 
L 693.941448 -240.503199 
L 693.957688 -240.463026 
L 693.979119 -240.422853 
L 694.006929 -240.38268 
L 694.042405 -240.342507 
L 694.086887 -240.302333 
L 694.141685 -240.26216 
L 694.207991 -240.221987 
L 694.286764 -240.181814 
L 694.378601 -240.14164 
L 694.483605 -240.101467 
L 694.601268 -240.061294 
L 694.730362 -240.021121 
L 694.86888 -239.980948 
L 695.014015 -239.940774 
L 695.162208 -239.900601 
L 695.309256 -239.860428 
L 695.450485 -239.820255 
L 695.580986 -239.780082 
L 695.695888 -239.739908 
L 695.79066 -239.699735 
L 695.861401 -239.659562 
L 695.90511 -239.619389 
L 695.919895 -239.579215 
z
" id="mcfcd057cdf" style="stroke:#737373;stroke-width:1.5;"/>
    </defs>
    <g clip-path="url(#p8f67751def)">
     <use style="fill:#efb792;stroke:#737373;stroke-width:1.5;" x="0" xlink:href="#mcfcd057cdf" y="288"/>
    </g>
   </g>
   <g id="patch_3">
    <path clip-path="url(#p8f67751def)" d="M 191.7 276.709091 
L 191.7 276.709091 
L 191.7 276.709091 
L 191.7 276.709091 
z
" style="fill:#abc9ea;stroke:#737373;stroke-linejoin:miter;stroke-width:0.75;"/>
   </g>
   <g id="patch_4">
    <path clip-path="url(#p8f67751def)" d="M 191.7 276.709091 
L 191.7 276.709091 
L 191.7 276.709091 
L 191.7 276.709091 
z
" style="fill:#efb792;stroke:#737373;stroke-linejoin:miter;stroke-width:0.75;"/>
   </g>
   <g id="line2d_6">
    <path clip-path="url(#p8f67751def)" d="M 191.7 44.443636 
L 191.7 44.443636 
" style="fill:none;stroke:#737373;stroke-linecap:round;stroke-width:1.5;"/>
   </g>
   <g id="line2d_7">
    <path clip-path="url(#p8f67751def)" d="M 191.7 44.443636 
L 191.7 44.443636 
" style="fill:none;stroke:#737373;stroke-linecap:round;stroke-width:4.5;"/>
   </g>
   <g id="line2d_8">
    <path clip-path="url(#p8f67751def)" d="M 292.14 44.443636 
L 359.1 44.443636 
" style="fill:none;stroke:#737373;stroke-linecap:round;stroke-width:1.5;"/>
   </g>
   <g id="line2d_9">
    <path clip-path="url(#p8f67751def)" d="M 359.1 44.443636 
L 359.1 44.443636 
" style="fill:none;stroke:#737373;stroke-linecap:round;stroke-width:1.5;"/>
   </g>
   <g id="line2d_10">
    <path clip-path="url(#p8f67751def)" d="M 359.1 44.443636 
L 359.1 44.443636 
" style="fill:none;stroke:#737373;stroke-linecap:round;stroke-width:4.5;"/>
   </g>
   <g id="line2d_11">
    <path clip-path="url(#p8f67751def)" d="M 526.5 144.707295 
L 526.5 44.443636 
" style="fill:none;stroke:#737373;stroke-linecap:round;stroke-width:1.5;"/>
   </g>
   <g id="line2d_12">
    <path clip-path="url(#p8f67751def)" d="M 526.5 85.658071 
L 526.5 46.026488 
" style="fill:none;stroke:#737373;stroke-linecap:round;stroke-width:4.5;"/>
   </g>
   <g id="line2d_13">
    <path clip-path="url(#p8f67751def)" d="M 693.9 169.317537 
L 693.9 44.443636 
" style="fill:none;stroke:#737373;stroke-linecap:round;stroke-width:1.5;"/>
   </g>
   <g id="line2d_14">
    <path clip-path="url(#p8f67751def)" d="M 693.9 111.798104 
L 693.9 73.251553 
" style="fill:none;stroke:#737373;stroke-linecap:round;stroke-width:4.5;"/>
   </g>
   <g id="patch_5">
    <path d="M 108 252 
L 777.6 252 
" style="fill:none;stroke:#cccccc;stroke-linecap:square;stroke-linejoin:miter;stroke-width:1.25;"/>
   </g>
   <g id="PathCollection_1">
    <defs>
     <path d="M 0 1.5 
C 0.397805 1.5 0.77937 1.341951 1.06066 1.06066 
C 1.341951 0.77937 1.5 0.397805 1.5 0 
C 1.5 -0.397805 1.341951 -0.77937 1.06066 -1.06066 
C 0.77937 -1.341951 0.397805 -1.5 0 -1.5 
C -0.397805 -1.5 -0.77937 -1.341951 -1.06066 -1.06066 
C -1.341951 -0.77937 -1.5 -0.397805 -1.5 0 
C -1.5 0.397805 -1.341951 0.77937 -1.06066 1.06066 
C -0.77937 1.341951 -0.397805 1.5 0 1.5 
z
" id="m3607c1963e" style="stroke:#737373;"/>
    </defs>
    <g clip-path="url(#p8f67751def)">
     <use style="fill:#ffffff;stroke:#737373;" x="191.7" xlink:href="#m3607c1963e" y="44.443636"/>
    </g>
   </g>
   <g id="PathCollection_2">
    <g clip-path="url(#p8f67751def)">
     <use style="fill:#ffffff;stroke:#737373;" x="359.1" xlink:href="#m3607c1963e" y="44.443636"/>
    </g>
   </g>
   <g id="PathCollection_3">
    <g clip-path="url(#p8f67751def)">
     <use style="fill:#ffffff;stroke:#737373;" x="526.5" xlink:href="#m3607c1963e" y="57.009105"/>
    </g>
   </g>
   <g id="PathCollection_4">
    <g clip-path="url(#p8f67751def)">
     <use style="fill:#ffffff;stroke:#737373;" x="693.9" xlink:href="#m3607c1963e" y="91.690855"/>
    </g>
   </g>
   <g id="legend_1">
    <g id="patch_6">
     <path d="M 782 229.166406 
L 804 229.166406 
L 804 221.466406 
L 782 221.466406 
z
" style="fill:#abc9ea;stroke:#737373;stroke-linejoin:miter;stroke-width:0.75;"/>
    </g>
    <g id="text_11">
     <!-- val -->
     <defs>
      <path d="M 2.984375 54.6875 
L 12.5 54.6875 
L 29.59375 8.796875 
L 46.6875 54.6875 
L 56.203125 54.6875 
L 35.6875 0 
L 23.484375 0 
z
" id="DejaVuSans-118"/>
      <path d="M 9.421875 75.984375 
L 18.40625 75.984375 
L 18.40625 0 
L 9.421875 0 
z
" id="DejaVuSans-108"/>
     </defs>
     <g style="fill:#262626;" transform="translate(812.8 229.166406)scale(0.11 -0.11)">
      <use xlink:href="#DejaVuSans-118"/>
      <use x="59.179688" xlink:href="#DejaVuSans-97"/>
      <use x="120.458984" xlink:href="#DejaVuSans-108"/>
     </g>
    </g>
    <g id="patch_7">
     <path d="M 782 245.312344 
L 804 245.312344 
L 804 237.612344 
L 782 237.612344 
z
" style="fill:#efb792;stroke:#737373;stroke-linejoin:miter;stroke-width:0.75;"/>
    </g>
    <g id="text_12">
     <!-- test -->
     <defs>
      <path d="M 18.3125 70.21875 
L 18.3125 54.6875 
L 36.8125 54.6875 
L 36.8125 47.703125 
L 18.3125 47.703125 
L 18.3125 18.015625 
Q 18.3125 11.328125 20.140625 9.421875 
Q 21.96875 7.515625 27.59375 7.515625 
L 36.8125 7.515625 
L 36.8125 0 
L 27.59375 0 
Q 17.1875 0 13.234375 3.875 
Q 9.28125 7.765625 9.28125 18.015625 
L 9.28125 47.703125 
L 2.6875 47.703125 
L 2.6875 54.6875 
L 9.28125 54.6875 
L 9.28125 70.21875 
z
" id="DejaVuSans-116"/>
      <path d="M 56.203125 29.59375 
L 56.203125 25.203125 
L 14.890625 25.203125 
Q 15.484375 15.921875 20.484375 11.0625 
Q 25.484375 6.203125 34.421875 6.203125 
Q 39.59375 6.203125 44.453125 7.46875 
Q 49.3125 8.734375 54.109375 11.28125 
L 54.109375 2.78125 
Q 49.265625 0.734375 44.1875 -0.34375 
Q 39.109375 -1.421875 33.890625 -1.421875 
Q 20.796875 -1.421875 13.15625 6.1875 
Q 5.515625 13.8125 5.515625 26.8125 
Q 5.515625 40.234375 12.765625 48.109375 
Q 20.015625 56 32.328125 56 
Q 43.359375 56 49.78125 48.890625 
Q 56.203125 41.796875 56.203125 29.59375 
z
M 47.21875 32.234375 
Q 47.125 39.59375 43.09375 43.984375 
Q 39.0625 48.390625 32.421875 48.390625 
Q 24.90625 48.390625 20.390625 44.140625 
Q 15.875 39.890625 15.1875 32.171875 
z
" id="DejaVuSans-101"/>
      <path d="M 44.28125 53.078125 
L 44.28125 44.578125 
Q 40.484375 46.53125 36.375 47.5 
Q 32.28125 48.484375 27.875 48.484375 
Q 21.1875 48.484375 17.84375 46.4375 
Q 14.5 44.390625 14.5 40.28125 
Q 14.5 37.15625 16.890625 35.375 
Q 19.28125 33.59375 26.515625 31.984375 
L 29.59375 31.296875 
Q 39.15625 29.25 43.1875 25.515625 
Q 47.21875 21.78125 47.21875 15.09375 
Q 47.21875 7.46875 41.1875 3.015625 
Q 35.15625 -1.421875 24.609375 -1.421875 
Q 20.21875 -1.421875 15.453125 -0.5625 
Q 10.6875 0.296875 5.421875 2 
L 5.421875 11.28125 
Q 10.40625 8.6875 15.234375 7.390625 
Q 20.0625 6.109375 24.8125 6.109375 
Q 31.15625 6.109375 34.5625 8.28125 
Q 37.984375 10.453125 37.984375 14.40625 
Q 37.984375 18.0625 35.515625 20.015625 
Q 33.0625 21.96875 24.703125 23.78125 
L 21.578125 24.515625 
Q 13.234375 26.265625 9.515625 29.90625 
Q 5.8125 33.546875 5.8125 39.890625 
Q 5.8125 47.609375 11.28125 51.796875 
Q 16.75 56 26.8125 56 
Q 31.78125 56 36.171875 55.265625 
Q 40.578125 54.546875 44.28125 53.078125 
z
" id="DejaVuSans-115"/>
     </defs>
     <g style="fill:#262626;" transform="translate(812.8 245.312344)scale(0.11 -0.11)">
      <use xlink:href="#DejaVuSans-116"/>
      <use x="39.208984" xlink:href="#DejaVuSans-101"/>
      <use x="100.732422" xlink:href="#DejaVuSans-115"/>
      <use x="152.832031" xlink:href="#DejaVuSans-116"/>
     </g>
    </g>
   </g>
  </g>
 </g>
 <defs>
  <clipPath id="p8f67751def">
   <rect height="217.44" width="669.6" x="108" y="34.56"/>
  </clipPath>
 </defs>
</svg>
