<?xml version="1.0" encoding="utf-8" standalone="no"?>
<!DOCTYPE svg PUBLIC "-//W3C//DTD SVG 1.1//EN"
  "http://www.w3.org/Graphics/SVG/1.1/DTD/svg11.dtd">
<!-- Created with matplotlib (https://matplotlib.org/) -->
<svg height="288pt" version="1.1" viewBox="0 0 864 288" width="864pt" xmlns="http://www.w3.org/2000/svg" xmlns:xlink="http://www.w3.org/1999/xlink">
 <defs>
  <style type="text/css">
*{stroke-linecap:butt;stroke-linejoin:round;}
  </style>
 </defs>
 <g id="figure_1">
  <g id="patch_1">
   <path d="M 0 288 
L 864 288 
L 864 0 
L 0 0 
z
" style="fill:#ffffff;"/>
  </g>
  <g id="axes_1">
   <g id="patch_2">
    <path d="M 108 252 
L 777.6 252 
L 777.6 34.56 
L 108 34.56 
z
" style="fill:#ffffff;"/>
   </g>
   <g id="matplotlib.axis_1">
    <g id="xtick_1">
     <g id="text_1">
      <!-- 1) LASTEN BS2 -->
      <defs>
       <path d="M 12.40625 8.296875 
L 28.515625 8.296875 
L 28.515625 63.921875 
L 10.984375 60.40625 
L 10.984375 69.390625 
L 28.421875 72.90625 
L 38.28125 72.90625 
L 38.28125 8.296875 
L 54.390625 8.296875 
L 54.390625 0 
L 12.40625 0 
z
" id="DejaVuSans-49"/>
       <path d="M 8.015625 75.875 
L 15.828125 75.875 
Q 23.140625 64.359375 26.78125 53.3125 
Q 30.421875 42.28125 30.421875 31.390625 
Q 30.421875 20.453125 26.78125 9.375 
Q 23.140625 -1.703125 15.828125 -13.1875 
L 8.015625 -13.1875 
Q 14.5 -2 17.703125 9.0625 
Q 20.90625 20.125 20.90625 31.390625 
Q 20.90625 42.671875 17.703125 53.65625 
Q 14.5 64.65625 8.015625 75.875 
z
" id="DejaVuSans-41"/>
       <path id="DejaVuSans-32"/>
       <path d="M 9.8125 72.90625 
L 19.671875 72.90625 
L 19.671875 8.296875 
L 55.171875 8.296875 
L 55.171875 0 
L 9.8125 0 
z
" id="DejaVuSans-76"/>
       <path d="M 34.1875 63.1875 
L 20.796875 26.90625 
L 47.609375 26.90625 
z
M 28.609375 72.90625 
L 39.796875 72.90625 
L 67.578125 0 
L 57.328125 0 
L 50.6875 18.703125 
L 17.828125 18.703125 
L 11.1875 0 
L 0.78125 0 
z
" id="DejaVuSans-65"/>
       <path d="M 53.515625 70.515625 
L 53.515625 60.890625 
Q 47.90625 63.578125 42.921875 64.890625 
Q 37.9375 66.21875 33.296875 66.21875 
Q 25.25 66.21875 20.875 63.09375 
Q 16.5 59.96875 16.5 54.203125 
Q 16.5 49.359375 19.40625 46.890625 
Q 22.3125 44.4375 30.421875 42.921875 
L 36.375 41.703125 
Q 47.40625 39.59375 52.65625 34.296875 
Q 57.90625 29 57.90625 20.125 
Q 57.90625 9.515625 50.796875 4.046875 
Q 43.703125 -1.421875 29.984375 -1.421875 
Q 24.8125 -1.421875 18.96875 -0.25 
Q 13.140625 0.921875 6.890625 3.21875 
L 6.890625 13.375 
Q 12.890625 10.015625 18.65625 8.296875 
Q 24.421875 6.59375 29.984375 6.59375 
Q 38.421875 6.59375 43.015625 9.90625 
Q 47.609375 13.234375 47.609375 19.390625 
Q 47.609375 24.75 44.3125 27.78125 
Q 41.015625 30.8125 33.5 32.328125 
L 27.484375 33.5 
Q 16.453125 35.6875 11.515625 40.375 
Q 6.59375 45.0625 6.59375 53.421875 
Q 6.59375 63.09375 13.40625 68.65625 
Q 20.21875 74.21875 32.171875 74.21875 
Q 37.3125 74.21875 42.625 73.28125 
Q 47.953125 72.359375 53.515625 70.515625 
z
" id="DejaVuSans-83"/>
       <path d="M -0.296875 72.90625 
L 61.375 72.90625 
L 61.375 64.59375 
L 35.5 64.59375 
L 35.5 0 
L 25.59375 0 
L 25.59375 64.59375 
L -0.296875 64.59375 
z
" id="DejaVuSans-84"/>
       <path d="M 9.8125 72.90625 
L 55.90625 72.90625 
L 55.90625 64.59375 
L 19.671875 64.59375 
L 19.671875 43.015625 
L 54.390625 43.015625 
L 54.390625 34.71875 
L 19.671875 34.71875 
L 19.671875 8.296875 
L 56.78125 8.296875 
L 56.78125 0 
L 9.8125 0 
z
" id="DejaVuSans-69"/>
       <path d="M 9.8125 72.90625 
L 23.09375 72.90625 
L 55.421875 11.921875 
L 55.421875 72.90625 
L 64.984375 72.90625 
L 64.984375 0 
L 51.703125 0 
L 19.390625 60.984375 
L 19.390625 0 
L 9.8125 0 
z
" id="DejaVuSans-78"/>
       <path d="M 19.671875 34.8125 
L 19.671875 8.109375 
L 35.5 8.109375 
Q 43.453125 8.109375 47.28125 11.40625 
Q 51.125 14.703125 51.125 21.484375 
Q 51.125 28.328125 47.28125 31.5625 
Q 43.453125 34.8125 35.5 34.8125 
z
M 19.671875 64.796875 
L 19.671875 42.828125 
L 34.28125 42.828125 
Q 41.5 42.828125 45.03125 45.53125 
Q 48.578125 48.25 48.578125 53.8125 
Q 48.578125 59.328125 45.03125 62.0625 
Q 41.5 64.796875 34.28125 64.796875 
z
M 9.8125 72.90625 
L 35.015625 72.90625 
Q 46.296875 72.90625 52.390625 68.21875 
Q 58.5 63.53125 58.5 54.890625 
Q 58.5 48.1875 55.375 44.234375 
Q 52.25 40.28125 46.1875 39.3125 
Q 53.46875 37.75 57.5 32.78125 
Q 61.53125 27.828125 61.53125 20.40625 
Q 61.53125 10.640625 54.890625 5.3125 
Q 48.25 0 35.984375 0 
L 9.8125 0 
z
" id="DejaVuSans-66"/>
       <path d="M 19.1875 8.296875 
L 53.609375 8.296875 
L 53.609375 0 
L 7.328125 0 
L 7.328125 8.296875 
Q 12.9375 14.109375 22.625 23.890625 
Q 32.328125 33.6875 34.8125 36.53125 
Q 39.546875 41.84375 41.421875 45.53125 
Q 43.3125 49.21875 43.3125 52.78125 
Q 43.3125 58.59375 39.234375 62.25 
Q 35.15625 65.921875 28.609375 65.921875 
Q 23.96875 65.921875 18.8125 64.3125 
Q 13.671875 62.703125 7.8125 59.421875 
L 7.8125 69.390625 
Q 13.765625 71.78125 18.9375 73 
Q 24.125 74.21875 28.421875 74.21875 
Q 39.75 74.21875 46.484375 68.546875 
Q 53.21875 62.890625 53.21875 53.421875 
Q 53.21875 48.921875 51.53125 44.890625 
Q 49.859375 40.875 45.40625 35.40625 
Q 44.1875 33.984375 37.640625 27.21875 
Q 31.109375 20.453125 19.1875 8.296875 
z
" id="DejaVuSans-50"/>
      </defs>
      <g style="fill:#262626;" transform="translate(133.785625 269.858281)scale(0.11 -0.11)">
       <use xlink:href="#DejaVuSans-49"/>
       <use x="63.623047" xlink:href="#DejaVuSans-41"/>
       <use x="102.636719" xlink:href="#DejaVuSans-32"/>
       <use x="134.423828" xlink:href="#DejaVuSans-76"/>
       <use x="190.167969" xlink:href="#DejaVuSans-65"/>
       <use x="258.576172" xlink:href="#DejaVuSans-83"/>
       <use x="322.052734" xlink:href="#DejaVuSans-84"/>
       <use x="383.136719" xlink:href="#DejaVuSans-69"/>
       <use x="446.320312" xlink:href="#DejaVuSans-78"/>
       <use x="521.125" xlink:href="#DejaVuSans-32"/>
       <use x="552.912109" xlink:href="#DejaVuSans-66"/>
       <use x="621.5" xlink:href="#DejaVuSans-83"/>
       <use x="684.976562" xlink:href="#DejaVuSans-50"/>
      </g>
     </g>
    </g>
    <g id="xtick_2">
     <g id="text_2">
      <!-- 2) LASTEN BS4 -->
      <defs>
       <path d="M 37.796875 64.3125 
L 12.890625 25.390625 
L 37.796875 25.390625 
z
M 35.203125 72.90625 
L 47.609375 72.90625 
L 47.609375 25.390625 
L 58.015625 25.390625 
L 58.015625 17.1875 
L 47.609375 17.1875 
L 47.609375 0 
L 37.796875 0 
L 37.796875 17.1875 
L 4.890625 17.1875 
L 4.890625 26.703125 
z
" id="DejaVuSans-52"/>
      </defs>
      <g style="fill:#262626;" transform="translate(267.705625 269.858281)scale(0.11 -0.11)">
       <use xlink:href="#DejaVuSans-50"/>
       <use x="63.623047" xlink:href="#DejaVuSans-41"/>
       <use x="102.636719" xlink:href="#DejaVuSans-32"/>
       <use x="134.423828" xlink:href="#DejaVuSans-76"/>
       <use x="190.167969" xlink:href="#DejaVuSans-65"/>
       <use x="258.576172" xlink:href="#DejaVuSans-83"/>
       <use x="322.052734" xlink:href="#DejaVuSans-84"/>
       <use x="383.136719" xlink:href="#DejaVuSans-69"/>
       <use x="446.320312" xlink:href="#DejaVuSans-78"/>
       <use x="521.125" xlink:href="#DejaVuSans-32"/>
       <use x="552.912109" xlink:href="#DejaVuSans-66"/>
       <use x="621.5" xlink:href="#DejaVuSans-83"/>
       <use x="684.976562" xlink:href="#DejaVuSans-52"/>
      </g>
     </g>
    </g>
    <g id="xtick_3">
     <g id="text_3">
      <!-- 3) LASTENS -->
      <defs>
       <path d="M 40.578125 39.3125 
Q 47.65625 37.796875 51.625 33 
Q 55.609375 28.21875 55.609375 21.1875 
Q 55.609375 10.40625 48.1875 4.484375 
Q 40.765625 -1.421875 27.09375 -1.421875 
Q 22.515625 -1.421875 17.65625 -0.515625 
Q 12.796875 0.390625 7.625 2.203125 
L 7.625 11.71875 
Q 11.71875 9.328125 16.59375 8.109375 
Q 21.484375 6.890625 26.8125 6.890625 
Q 36.078125 6.890625 40.9375 10.546875 
Q 45.796875 14.203125 45.796875 21.1875 
Q 45.796875 27.640625 41.28125 31.265625 
Q 36.765625 34.90625 28.71875 34.90625 
L 20.21875 34.90625 
L 20.21875 43.015625 
L 29.109375 43.015625 
Q 36.375 43.015625 40.234375 45.921875 
Q 44.09375 48.828125 44.09375 54.296875 
Q 44.09375 59.90625 40.109375 62.90625 
Q 36.140625 65.921875 28.71875 65.921875 
Q 24.65625 65.921875 20.015625 65.03125 
Q 15.375 64.15625 9.8125 62.3125 
L 9.8125 71.09375 
Q 15.4375 72.65625 20.34375 73.4375 
Q 25.25 74.21875 29.59375 74.21875 
Q 40.828125 74.21875 47.359375 69.109375 
Q 53.90625 64.015625 53.90625 55.328125 
Q 53.90625 49.265625 50.4375 45.09375 
Q 46.96875 40.921875 40.578125 39.3125 
z
" id="DejaVuSans-51"/>
      </defs>
      <g style="fill:#262626;" transform="translate(410.645625 269.858281)scale(0.11 -0.11)">
       <use xlink:href="#DejaVuSans-51"/>
       <use x="63.623047" xlink:href="#DejaVuSans-41"/>
       <use x="102.636719" xlink:href="#DejaVuSans-32"/>
       <use x="134.423828" xlink:href="#DejaVuSans-76"/>
       <use x="190.167969" xlink:href="#DejaVuSans-65"/>
       <use x="258.576172" xlink:href="#DejaVuSans-83"/>
       <use x="322.052734" xlink:href="#DejaVuSans-84"/>
       <use x="383.136719" xlink:href="#DejaVuSans-69"/>
       <use x="446.320312" xlink:href="#DejaVuSans-78"/>
       <use x="521.125" xlink:href="#DejaVuSans-83"/>
      </g>
     </g>
    </g>
    <g id="xtick_4">
     <g id="text_4">
      <!-- 4) LASTENA -->
      <g style="fill:#262626;" transform="translate(544.294922 269.858281)scale(0.11 -0.11)">
       <use xlink:href="#DejaVuSans-52"/>
       <use x="63.623047" xlink:href="#DejaVuSans-41"/>
       <use x="102.636719" xlink:href="#DejaVuSans-32"/>
       <use x="134.423828" xlink:href="#DejaVuSans-76"/>
       <use x="190.167969" xlink:href="#DejaVuSans-65"/>
       <use x="258.576172" xlink:href="#DejaVuSans-83"/>
       <use x="322.052734" xlink:href="#DejaVuSans-84"/>
       <use x="383.136719" xlink:href="#DejaVuSans-69"/>
       <use x="446.320312" xlink:href="#DejaVuSans-78"/>
       <use x="521.125" xlink:href="#DejaVuSans-65"/>
      </g>
     </g>
    </g>
    <g id="xtick_5">
     <g id="text_5">
      <!-- 5) LASTENAS -->
      <defs>
       <path d="M 10.796875 72.90625 
L 49.515625 72.90625 
L 49.515625 64.59375 
L 19.828125 64.59375 
L 19.828125 46.734375 
Q 21.96875 47.46875 24.109375 47.828125 
Q 26.265625 48.1875 28.421875 48.1875 
Q 40.625 48.1875 47.75 41.5 
Q 54.890625 34.8125 54.890625 23.390625 
Q 54.890625 11.625 47.5625 5.09375 
Q 40.234375 -1.421875 26.90625 -1.421875 
Q 22.3125 -1.421875 17.546875 -0.640625 
Q 12.796875 0.140625 7.71875 1.703125 
L 7.71875 11.625 
Q 12.109375 9.234375 16.796875 8.0625 
Q 21.484375 6.890625 26.703125 6.890625 
Q 35.15625 6.890625 40.078125 11.328125 
Q 45.015625 15.765625 45.015625 23.390625 
Q 45.015625 31 40.078125 35.4375 
Q 35.15625 39.890625 26.703125 39.890625 
Q 22.75 39.890625 18.8125 39.015625 
Q 14.890625 38.140625 10.796875 36.28125 
z
" id="DejaVuSans-53"/>
      </defs>
      <g style="fill:#262626;" transform="translate(674.723281 269.858281)scale(0.11 -0.11)">
       <use xlink:href="#DejaVuSans-53"/>
       <use x="63.623047" xlink:href="#DejaVuSans-41"/>
       <use x="102.636719" xlink:href="#DejaVuSans-32"/>
       <use x="134.423828" xlink:href="#DejaVuSans-76"/>
       <use x="190.167969" xlink:href="#DejaVuSans-65"/>
       <use x="258.576172" xlink:href="#DejaVuSans-83"/>
       <use x="322.052734" xlink:href="#DejaVuSans-84"/>
       <use x="383.136719" xlink:href="#DejaVuSans-69"/>
       <use x="446.320312" xlink:href="#DejaVuSans-78"/>
       <use x="521.125" xlink:href="#DejaVuSans-65"/>
       <use x="589.533203" xlink:href="#DejaVuSans-83"/>
      </g>
     </g>
    </g>
   </g>
   <g id="matplotlib.axis_2">
    <g id="ytick_1">
     <g id="line2d_1">
      <path clip-path="url(#p5a3793cc87)" d="M 108 241.645714 
L 777.6 241.645714 
" style="fill:none;stroke:#cccccc;stroke-linecap:round;"/>
     </g>
     <g id="text_6">
      <!-- 0.0 -->
      <defs>
       <path d="M 31.78125 66.40625 
Q 24.171875 66.40625 20.328125 58.90625 
Q 16.5 51.421875 16.5 36.375 
Q 16.5 21.390625 20.328125 13.890625 
Q 24.171875 6.390625 31.78125 6.390625 
Q 39.453125 6.390625 43.28125 13.890625 
Q 47.125 21.390625 47.125 36.375 
Q 47.125 51.421875 43.28125 58.90625 
Q 39.453125 66.40625 31.78125 66.40625 
z
M 31.78125 74.21875 
Q 44.046875 74.21875 50.515625 64.515625 
Q 56.984375 54.828125 56.984375 36.375 
Q 56.984375 17.96875 50.515625 8.265625 
Q 44.046875 -1.421875 31.78125 -1.421875 
Q 19.53125 -1.421875 13.0625 8.265625 
Q 6.59375 17.96875 6.59375 36.375 
Q 6.59375 54.828125 13.0625 64.515625 
Q 19.53125 74.21875 31.78125 74.21875 
z
" id="DejaVuSans-48"/>
       <path d="M 10.6875 12.40625 
L 21 12.40625 
L 21 0 
L 10.6875 0 
z
" id="DejaVuSans-46"/>
      </defs>
      <g style="fill:#262626;" transform="translate(81.006563 245.824855)scale(0.11 -0.11)">
       <use xlink:href="#DejaVuSans-48"/>
       <use x="63.623047" xlink:href="#DejaVuSans-46"/>
       <use x="95.410156" xlink:href="#DejaVuSans-48"/>
      </g>
     </g>
    </g>
    <g id="ytick_2">
     <g id="line2d_2">
      <path clip-path="url(#p5a3793cc87)" d="M 108 215.76 
L 777.6 215.76 
" style="fill:none;stroke:#cccccc;stroke-linecap:round;"/>
     </g>
     <g id="text_7">
      <!-- 2.5 -->
      <g style="fill:#262626;" transform="translate(81.006563 219.939141)scale(0.11 -0.11)">
       <use xlink:href="#DejaVuSans-50"/>
       <use x="63.623047" xlink:href="#DejaVuSans-46"/>
       <use x="95.410156" xlink:href="#DejaVuSans-53"/>
      </g>
     </g>
    </g>
    <g id="ytick_3">
     <g id="line2d_3">
      <path clip-path="url(#p5a3793cc87)" d="M 108 189.874286 
L 777.6 189.874286 
" style="fill:none;stroke:#cccccc;stroke-linecap:round;"/>
     </g>
     <g id="text_8">
      <!-- 5.0 -->
      <g style="fill:#262626;" transform="translate(81.006563 194.053426)scale(0.11 -0.11)">
       <use xlink:href="#DejaVuSans-53"/>
       <use x="63.623047" xlink:href="#DejaVuSans-46"/>
       <use x="95.410156" xlink:href="#DejaVuSans-48"/>
      </g>
     </g>
    </g>
    <g id="ytick_4">
     <g id="line2d_4">
      <path clip-path="url(#p5a3793cc87)" d="M 108 163.988571 
L 777.6 163.988571 
" style="fill:none;stroke:#cccccc;stroke-linecap:round;"/>
     </g>
     <g id="text_9">
      <!-- 7.5 -->
      <defs>
       <path d="M 8.203125 72.90625 
L 55.078125 72.90625 
L 55.078125 68.703125 
L 28.609375 0 
L 18.3125 0 
L 43.21875 64.59375 
L 8.203125 64.59375 
z
" id="DejaVuSans-55"/>
      </defs>
      <g style="fill:#262626;" transform="translate(81.006563 168.167712)scale(0.11 -0.11)">
       <use xlink:href="#DejaVuSans-55"/>
       <use x="63.623047" xlink:href="#DejaVuSans-46"/>
       <use x="95.410156" xlink:href="#DejaVuSans-53"/>
      </g>
     </g>
    </g>
    <g id="ytick_5">
     <g id="line2d_5">
      <path clip-path="url(#p5a3793cc87)" d="M 108 138.102857 
L 777.6 138.102857 
" style="fill:none;stroke:#cccccc;stroke-linecap:round;"/>
     </g>
     <g id="text_10">
      <!-- 10.0 -->
      <g style="fill:#262626;" transform="translate(74.007812 142.281998)scale(0.11 -0.11)">
       <use xlink:href="#DejaVuSans-49"/>
       <use x="63.623047" xlink:href="#DejaVuSans-48"/>
       <use x="127.246094" xlink:href="#DejaVuSans-46"/>
       <use x="159.033203" xlink:href="#DejaVuSans-48"/>
      </g>
     </g>
    </g>
    <g id="ytick_6">
     <g id="line2d_6">
      <path clip-path="url(#p5a3793cc87)" d="M 108 112.217143 
L 777.6 112.217143 
" style="fill:none;stroke:#cccccc;stroke-linecap:round;"/>
     </g>
     <g id="text_11">
      <!-- 12.5 -->
      <g style="fill:#262626;" transform="translate(74.007812 116.396283)scale(0.11 -0.11)">
       <use xlink:href="#DejaVuSans-49"/>
       <use x="63.623047" xlink:href="#DejaVuSans-50"/>
       <use x="127.246094" xlink:href="#DejaVuSans-46"/>
       <use x="159.033203" xlink:href="#DejaVuSans-53"/>
      </g>
     </g>
    </g>
    <g id="ytick_7">
     <g id="line2d_7">
      <path clip-path="url(#p5a3793cc87)" d="M 108 86.331429 
L 777.6 86.331429 
" style="fill:none;stroke:#cccccc;stroke-linecap:round;"/>
     </g>
     <g id="text_12">
      <!-- 15.0 -->
      <g style="fill:#262626;" transform="translate(74.007812 90.510569)scale(0.11 -0.11)">
       <use xlink:href="#DejaVuSans-49"/>
       <use x="63.623047" xlink:href="#DejaVuSans-53"/>
       <use x="127.246094" xlink:href="#DejaVuSans-46"/>
       <use x="159.033203" xlink:href="#DejaVuSans-48"/>
      </g>
     </g>
    </g>
    <g id="ytick_8">
     <g id="line2d_8">
      <path clip-path="url(#p5a3793cc87)" d="M 108 60.445714 
L 777.6 60.445714 
" style="fill:none;stroke:#cccccc;stroke-linecap:round;"/>
     </g>
     <g id="text_13">
      <!-- 17.5 -->
      <g style="fill:#262626;" transform="translate(74.007812 64.624855)scale(0.11 -0.11)">
       <use xlink:href="#DejaVuSans-49"/>
       <use x="63.623047" xlink:href="#DejaVuSans-55"/>
       <use x="127.246094" xlink:href="#DejaVuSans-46"/>
       <use x="159.033203" xlink:href="#DejaVuSans-53"/>
      </g>
     </g>
    </g>
    <g id="ytick_9">
     <g id="line2d_9">
      <path clip-path="url(#p5a3793cc87)" d="M 108 34.56 
L 777.6 34.56 
" style="fill:none;stroke:#cccccc;stroke-linecap:round;"/>
     </g>
     <g id="text_14">
      <!-- 20.0 -->
      <g style="fill:#262626;" transform="translate(74.007812 38.739141)scale(0.11 -0.11)">
       <use xlink:href="#DejaVuSans-50"/>
       <use x="63.623047" xlink:href="#DejaVuSans-48"/>
       <use x="127.246094" xlink:href="#DejaVuSans-46"/>
       <use x="159.033203" xlink:href="#DejaVuSans-48"/>
      </g>
     </g>
    </g>
    <g id="text_15">
     <!-- MAED -->
     <defs>
      <path d="M 9.8125 72.90625 
L 24.515625 72.90625 
L 43.109375 23.296875 
L 61.8125 72.90625 
L 76.515625 72.90625 
L 76.515625 0 
L 66.890625 0 
L 66.890625 64.015625 
L 48.09375 14.015625 
L 38.1875 14.015625 
L 19.390625 64.015625 
L 19.390625 0 
L 9.8125 0 
z
" id="DejaVuSans-77"/>
      <path d="M 19.671875 64.796875 
L 19.671875 8.109375 
L 31.59375 8.109375 
Q 46.6875 8.109375 53.6875 14.9375 
Q 60.6875 21.78125 60.6875 36.53125 
Q 60.6875 51.171875 53.6875 57.984375 
Q 46.6875 64.796875 31.59375 64.796875 
z
M 9.8125 72.90625 
L 30.078125 72.90625 
Q 51.265625 72.90625 61.171875 64.09375 
Q 71.09375 55.28125 71.09375 36.53125 
Q 71.09375 17.671875 61.125 8.828125 
Q 51.171875 0 30.078125 0 
L 9.8125 0 
z
" id="DejaVuSans-68"/>
     </defs>
     <g style="fill:#262626;" transform="translate(67.512187 160.9725)rotate(-90)scale(0.12 -0.12)">
      <use xlink:href="#DejaVuSans-77"/>
      <use x="86.279297" xlink:href="#DejaVuSans-65"/>
      <use x="154.6875" xlink:href="#DejaVuSans-69"/>
      <use x="217.871094" xlink:href="#DejaVuSans-68"/>
     </g>
    </g>
   </g>
   <g id="PolyCollection_1">
    <defs>
     <path d="M 174.96 -64.536703 
L 143.132669 -64.536703 
L 141.111731 -64.726654 
L 139.119102 -64.916606 
L 137.170577 -65.106557 
L 135.281697 -65.296508 
L 133.467507 -65.48646 
L 131.742324 -65.676411 
L 130.119518 -65.866362 
L 128.611307 -66.056313 
L 127.228572 -66.246265 
L 125.980688 -66.436216 
L 124.875384 -66.626167 
L 123.918621 -66.816119 
L 123.114501 -67.00607 
L 122.465206 -67.196021 
L 121.970965 -67.385972 
L 121.630066 -67.575924 
L 121.43889 -67.765875 
L 121.392 -67.955826 
L 121.482261 -68.145778 
L 121.700997 -68.335729 
L 122.038191 -68.52568 
L 122.482712 -68.715631 
L 123.022577 -68.905583 
L 123.645219 -69.095534 
L 124.337784 -69.285485 
L 125.087421 -69.475437 
L 125.88156 -69.665388 
L 126.708185 -69.855339 
L 127.556071 -70.04529 
L 128.414987 -70.235242 
L 129.275862 -70.425193 
L 130.130903 -70.615144 
L 130.973664 -70.805096 
L 131.799068 -70.995047 
L 132.603387 -71.184998 
L 133.384177 -71.374949 
L 134.140178 -71.564901 
L 134.871194 -71.754852 
L 135.577942 -71.944803 
L 136.261903 -72.134755 
L 136.925157 -72.324706 
L 137.570232 -72.514657 
L 138.199954 -72.704609 
L 138.81732 -72.89456 
L 139.425376 -73.084511 
L 140.027127 -73.274462 
L 140.625458 -73.464414 
L 141.223072 -73.654365 
L 141.822456 -73.844316 
L 142.425847 -74.034268 
L 143.035223 -74.224219 
L 143.652299 -74.41417 
L 144.278533 -74.604121 
L 144.915132 -74.794073 
L 145.563069 -74.984024 
L 146.223097 -75.173975 
L 146.895763 -75.363927 
L 147.581427 -75.553878 
L 148.280268 -75.743829 
L 148.992295 -75.93378 
L 149.717352 -76.123732 
L 150.45512 -76.313683 
L 151.205107 -76.503634 
L 151.966647 -76.693586 
L 152.73888 -76.883537 
L 153.520741 -77.073488 
L 154.31094 -77.263439 
L 155.107943 -77.453391 
L 155.90996 -77.643342 
L 156.714929 -77.833293 
L 157.520512 -78.023245 
L 158.324099 -78.213196 
L 159.122823 -78.403147 
L 159.913582 -78.593098 
L 160.693086 -78.78305 
L 161.457907 -78.973001 
L 162.204542 -79.162952 
L 162.9295 -79.352904 
L 163.629382 -79.542855 
L 164.300977 -79.732806 
L 164.941359 -79.922757 
L 165.547978 -80.112709 
L 166.118749 -80.30266 
L 166.652127 -80.492611 
L 167.14717 -80.682563 
L 167.603575 -80.872514 
L 168.021706 -81.062465 
L 168.402585 -81.252416 
L 168.74787 -81.442368 
L 169.059796 -81.632319 
L 169.341114 -81.82227 
L 169.594989 -82.012222 
L 169.824899 -82.202173 
L 170.034516 -82.392124 
L 170.227587 -82.582075 
L 170.407807 -82.772027 
L 170.578707 -82.961978 
L 170.743546 -83.151929 
L 170.90522 -83.341881 
L 174.96 -83.341881 
L 174.96 -83.341881 
L 174.96 -83.151929 
L 174.96 -82.961978 
L 174.96 -82.772027 
L 174.96 -82.582075 
L 174.96 -82.392124 
L 174.96 -82.202173 
L 174.96 -82.012222 
L 174.96 -81.82227 
L 174.96 -81.632319 
L 174.96 -81.442368 
L 174.96 -81.252416 
L 174.96 -81.062465 
L 174.96 -80.872514 
L 174.96 -80.682563 
L 174.96 -80.492611 
L 174.96 -80.30266 
L 174.96 -80.112709 
L 174.96 -79.922757 
L 174.96 -79.732806 
L 174.96 -79.542855 
L 174.96 -79.352904 
L 174.96 -79.162952 
L 174.96 -78.973001 
L 174.96 -78.78305 
L 174.96 -78.593098 
L 174.96 -78.403147 
L 174.96 -78.213196 
L 174.96 -78.023245 
L 174.96 -77.833293 
L 174.96 -77.643342 
L 174.96 -77.453391 
L 174.96 -77.263439 
L 174.96 -77.073488 
L 174.96 -76.883537 
L 174.96 -76.693586 
L 174.96 -76.503634 
L 174.96 -76.313683 
L 174.96 -76.123732 
L 174.96 -75.93378 
L 174.96 -75.743829 
L 174.96 -75.553878 
L 174.96 -75.363927 
L 174.96 -75.173975 
L 174.96 -74.984024 
L 174.96 -74.794073 
L 174.96 -74.604121 
L 174.96 -74.41417 
L 174.96 -74.224219 
L 174.96 -74.034268 
L 174.96 -73.844316 
L 174.96 -73.654365 
L 174.96 -73.464414 
L 174.96 -73.274462 
L 174.96 -73.084511 
L 174.96 -72.89456 
L 174.96 -72.704609 
L 174.96 -72.514657 
L 174.96 -72.324706 
L 174.96 -72.134755 
L 174.96 -71.944803 
L 174.96 -71.754852 
L 174.96 -71.564901 
L 174.96 -71.374949 
L 174.96 -71.184998 
L 174.96 -70.995047 
L 174.96 -70.805096 
L 174.96 -70.615144 
L 174.96 -70.425193 
L 174.96 -70.235242 
L 174.96 -70.04529 
L 174.96 -69.855339 
L 174.96 -69.665388 
L 174.96 -69.475437 
L 174.96 -69.285485 
L 174.96 -69.095534 
L 174.96 -68.905583 
L 174.96 -68.715631 
L 174.96 -68.52568 
L 174.96 -68.335729 
L 174.96 -68.145778 
L 174.96 -67.955826 
L 174.96 -67.765875 
L 174.96 -67.575924 
L 174.96 -67.385972 
L 174.96 -67.196021 
L 174.96 -67.00607 
L 174.96 -66.816119 
L 174.96 -66.626167 
L 174.96 -66.436216 
L 174.96 -66.246265 
L 174.96 -66.056313 
L 174.96 -65.866362 
L 174.96 -65.676411 
L 174.96 -65.48646 
L 174.96 -65.296508 
L 174.96 -65.106557 
L 174.96 -64.916606 
L 174.96 -64.726654 
L 174.96 -64.536703 
z
" id="madae7d68e4" style="stroke:#737373;stroke-width:1.5;"/>
    </defs>
    <g clip-path="url(#p5a3793cc87)">
     <use style="fill:#abc9ea;stroke:#737373;stroke-width:1.5;" x="0" xlink:href="#madae7d68e4" y="288"/>
    </g>
   </g>
   <g id="PolyCollection_2">
    <defs>
     <path d="M 195.216718 -63.663886 
L 174.96 -63.663886 
L 174.96 -63.895706 
L 174.96 -64.127525 
L 174.96 -64.359345 
L 174.96 -64.591165 
L 174.96 -64.822985 
L 174.96 -65.054805 
L 174.96 -65.286624 
L 174.96 -65.518444 
L 174.96 -65.750264 
L 174.96 -65.982084 
L 174.96 -66.213903 
L 174.96 -66.445723 
L 174.96 -66.677543 
L 174.96 -66.909363 
L 174.96 -67.141183 
L 174.96 -67.373002 
L 174.96 -67.604822 
L 174.96 -67.836642 
L 174.96 -68.068462 
L 174.96 -68.300282 
L 174.96 -68.532101 
L 174.96 -68.763921 
L 174.96 -68.995741 
L 174.96 -69.227561 
L 174.96 -69.45938 
L 174.96 -69.6912 
L 174.96 -69.92302 
L 174.96 -70.15484 
L 174.96 -70.38666 
L 174.96 -70.618479 
L 174.96 -70.850299 
L 174.96 -71.082119 
L 174.96 -71.313939 
L 174.96 -71.545759 
L 174.96 -71.777578 
L 174.96 -72.009398 
L 174.96 -72.241218 
L 174.96 -72.473038 
L 174.96 -72.704857 
L 174.96 -72.936677 
L 174.96 -73.168497 
L 174.96 -73.400317 
L 174.96 -73.632137 
L 174.96 -73.863956 
L 174.96 -74.095776 
L 174.96 -74.327596 
L 174.96 -74.559416 
L 174.96 -74.791236 
L 174.96 -75.023055 
L 174.96 -75.254875 
L 174.96 -75.486695 
L 174.96 -75.718515 
L 174.96 -75.950334 
L 174.96 -76.182154 
L 174.96 -76.413974 
L 174.96 -76.645794 
L 174.96 -76.877614 
L 174.96 -77.109433 
L 174.96 -77.341253 
L 174.96 -77.573073 
L 174.96 -77.804893 
L 174.96 -78.036712 
L 174.96 -78.268532 
L 174.96 -78.500352 
L 174.96 -78.732172 
L 174.96 -78.963992 
L 174.96 -79.195811 
L 174.96 -79.427631 
L 174.96 -79.659451 
L 174.96 -79.891271 
L 174.96 -80.123091 
L 174.96 -80.35491 
L 174.96 -80.58673 
L 174.96 -80.81855 
L 174.96 -81.05037 
L 174.96 -81.282189 
L 174.96 -81.514009 
L 174.96 -81.745829 
L 174.96 -81.977649 
L 174.96 -82.209469 
L 174.96 -82.441288 
L 174.96 -82.673108 
L 174.96 -82.904928 
L 174.96 -83.136748 
L 174.96 -83.368568 
L 174.96 -83.600387 
L 174.96 -83.832207 
L 174.96 -84.064027 
L 174.96 -84.295847 
L 174.96 -84.527666 
L 174.96 -84.759486 
L 174.96 -84.991306 
L 174.96 -85.223126 
L 174.96 -85.454946 
L 174.96 -85.686765 
L 174.96 -85.918585 
L 174.96 -86.150405 
L 174.96 -86.382225 
L 174.96 -86.614045 
L 179.884359 -86.614045 
L 179.884359 -86.614045 
L 179.983454 -86.382225 
L 180.045878 -86.150405 
L 180.070865 -85.918585 
L 180.058697 -85.686765 
L 180.010734 -85.454946 
L 179.929398 -85.223126 
L 179.818132 -84.991306 
L 179.681312 -84.759486 
L 179.524135 -84.527666 
L 179.352473 -84.295847 
L 179.172713 -84.064027 
L 178.991578 -83.832207 
L 178.815946 -83.600387 
L 178.65266 -83.368568 
L 178.508353 -83.136748 
L 178.389284 -82.904928 
L 178.301182 -82.673108 
L 178.249125 -82.441288 
L 178.237431 -82.209469 
L 178.269586 -81.977649 
L 178.348193 -81.745829 
L 178.474953 -81.514009 
L 178.65068 -81.282189 
L 178.875333 -81.05037 
L 179.148089 -80.81855 
L 179.467425 -80.58673 
L 179.831232 -80.35491 
L 180.236939 -80.123091 
L 180.681651 -79.891271 
L 181.162297 -79.659451 
L 181.675766 -79.427631 
L 182.219059 -79.195811 
L 182.789407 -78.963992 
L 183.384396 -78.732172 
L 184.002057 -78.500352 
L 184.640947 -78.268532 
L 185.300196 -78.036712 
L 185.979546 -77.804893 
L 186.679356 -77.573073 
L 187.400592 -77.341253 
L 188.144809 -77.109433 
L 188.914103 -76.877614 
L 189.711069 -76.645794 
L 190.538735 -76.413974 
L 191.400497 -76.182154 
L 192.300034 -75.950334 
L 193.241221 -75.718515 
L 194.228016 -75.486695 
L 195.264341 -75.254875 
L 196.353925 -75.023055 
L 197.500144 -74.791236 
L 198.705817 -74.559416 
L 199.972997 -74.327596 
L 201.302733 -74.095776 
L 202.694835 -73.863956 
L 204.14763 -73.632137 
L 205.65774 -73.400317 
L 207.219892 -73.168497 
L 208.826771 -72.936677 
L 210.468933 -72.704857 
L 212.134799 -72.473038 
L 213.81073 -72.241218 
L 215.481189 -72.009398 
L 217.129 -71.777578 
L 218.735694 -71.545759 
L 220.281923 -71.313939 
L 221.747938 -71.082119 
L 223.114109 -70.850299 
L 224.361458 -70.618479 
L 225.472179 -70.38666 
L 226.430136 -70.15484 
L 227.221289 -69.92302 
L 227.834059 -69.6912 
L 228.259587 -69.45938 
L 228.491907 -69.227561 
L 228.528 -68.995741 
L 228.367755 -68.763921 
L 228.013837 -68.532101 
L 227.471465 -68.300282 
L 226.748139 -68.068462 
L 225.853314 -67.836642 
L 224.79805 -67.604822 
L 223.594661 -67.373002 
L 222.256372 -67.141183 
L 220.797003 -66.909363 
L 219.230695 -66.677543 
L 217.571676 -66.445723 
L 215.834075 -66.213903 
L 214.031785 -65.982084 
L 212.178364 -65.750264 
L 210.286974 -65.518444 
L 208.370339 -65.286624 
L 206.440734 -65.054805 
L 204.509962 -64.822985 
L 202.589349 -64.591165 
L 200.689721 -64.359345 
L 198.821369 -64.127525 
L 196.994009 -63.895706 
L 195.216718 -63.663886 
z
" id="mfb6740e9ce" style="stroke:#737373;stroke-width:1.5;"/>
    </defs>
    <g clip-path="url(#p5a3793cc87)">
     <use style="fill:#efb792;stroke:#737373;stroke-width:1.5;" x="0" xlink:href="#mfb6740e9ce" y="288"/>
    </g>
   </g>
   <g id="PolyCollection_3">
    <defs>
     <path d="M 308.88 -109.978666 
L 301.110327 -109.978666 
L 300.844635 -110.323019 
L 300.584568 -110.667372 
L 300.325394 -111.011725 
L 300.061429 -111.356079 
L 299.786172 -111.700432 
L 299.492474 -112.044785 
L 299.172745 -112.389138 
L 298.819187 -112.733492 
L 298.42404 -113.077845 
L 297.979845 -113.422198 
L 297.479693 -113.766551 
L 296.917467 -114.110905 
L 296.288053 -114.455258 
L 295.587527 -114.799611 
L 294.813283 -115.143964 
L 293.964134 -115.488318 
L 293.040341 -115.832671 
L 292.043604 -116.177024 
L 290.976992 -116.521377 
L 289.844831 -116.865731 
L 288.65255 -117.210084 
L 287.406487 -117.554437 
L 286.113682 -117.89879 
L 284.781651 -118.243144 
L 283.418158 -118.587497 
L 282.031003 -118.93185 
L 280.627825 -119.276204 
L 279.215937 -119.620557 
L 277.802195 -119.96491 
L 276.392911 -120.309263 
L 274.993809 -120.653617 
L 273.610025 -120.99797 
L 272.246144 -121.342323 
L 270.906281 -121.686676 
L 269.594178 -122.03103 
L 268.313332 -122.375383 
L 267.067126 -122.719736 
L 265.858961 -123.064089 
L 264.692381 -123.408443 
L 263.571168 -123.752796 
L 262.499425 -124.097149 
L 261.481612 -124.441502 
L 260.52255 -124.785856 
L 259.627389 -125.130209 
L 258.80153 -125.474562 
L 258.050519 -125.818915 
L 257.379905 -126.163269 
L 256.795078 -126.507622 
L 256.301085 -126.851975 
L 255.902443 -127.196328 
L 255.602954 -127.540682 
L 255.405523 -127.885035 
L 255.312 -128.229388 
L 255.323046 -128.573741 
L 255.43803 -128.918095 
L 255.654963 -129.262448 
L 255.970474 -129.606801 
L 256.379825 -129.951154 
L 256.876967 -130.295508 
L 257.454644 -130.639861 
L 258.104528 -130.984214 
L 258.817393 -131.328568 
L 259.583317 -131.672921 
L 260.391908 -132.017274 
L 261.232553 -132.361627 
L 262.094665 -132.705981 
L 262.967952 -133.050334 
L 263.84266 -133.394687 
L 264.709828 -133.73904 
L 265.5615 -134.083394 
L 266.390934 -134.427747 
L 267.192762 -134.7721 
L 267.963122 -135.116453 
L 268.699742 -135.460807 
L 269.401986 -135.80516 
L 270.070844 -136.149513 
L 270.708877 -136.493866 
L 271.320119 -136.83822 
L 271.90992 -137.182573 
L 272.484766 -137.526926 
L 273.052045 -137.871279 
L 273.619793 -138.215633 
L 274.196418 -138.559986 
L 274.790405 -138.904339 
L 275.410028 -139.248692 
L 276.063061 -139.593046 
L 276.756505 -139.937399 
L 277.496351 -140.281752 
L 278.287364 -140.626105 
L 279.132921 -140.970459 
L 280.03489 -141.314812 
L 280.993557 -141.659165 
L 282.007616 -142.003518 
L 283.0742 -142.347872 
L 284.188972 -142.692225 
L 285.346252 -143.036578 
L 286.539191 -143.380932 
L 287.759972 -143.725285 
L 289.000041 -144.069638 
L 308.88 -144.069638 
L 308.88 -144.069638 
L 308.88 -143.725285 
L 308.88 -143.380932 
L 308.88 -143.036578 
L 308.88 -142.692225 
L 308.88 -142.347872 
L 308.88 -142.003518 
L 308.88 -141.659165 
L 308.88 -141.314812 
L 308.88 -140.970459 
L 308.88 -140.626105 
L 308.88 -140.281752 
L 308.88 -139.937399 
L 308.88 -139.593046 
L 308.88 -139.248692 
L 308.88 -138.904339 
L 308.88 -138.559986 
L 308.88 -138.215633 
L 308.88 -137.871279 
L 308.88 -137.526926 
L 308.88 -137.182573 
L 308.88 -136.83822 
L 308.88 -136.493866 
L 308.88 -136.149513 
L 308.88 -135.80516 
L 308.88 -135.460807 
L 308.88 -135.116453 
L 308.88 -134.7721 
L 308.88 -134.427747 
L 308.88 -134.083394 
L 308.88 -133.73904 
L 308.88 -133.394687 
L 308.88 -133.050334 
L 308.88 -132.705981 
L 308.88 -132.361627 
L 308.88 -132.017274 
L 308.88 -131.672921 
L 308.88 -131.328568 
L 308.88 -130.984214 
L 308.88 -130.639861 
L 308.88 -130.295508 
L 308.88 -129.951154 
L 308.88 -129.606801 
L 308.88 -129.262448 
L 308.88 -128.918095 
L 308.88 -128.573741 
L 308.88 -128.229388 
L 308.88 -127.885035 
L 308.88 -127.540682 
L 308.88 -127.196328 
L 308.88 -126.851975 
L 308.88 -126.507622 
L 308.88 -126.163269 
L 308.88 -125.818915 
L 308.88 -125.474562 
L 308.88 -125.130209 
L 308.88 -124.785856 
L 308.88 -124.441502 
L 308.88 -124.097149 
L 308.88 -123.752796 
L 308.88 -123.408443 
L 308.88 -123.064089 
L 308.88 -122.719736 
L 308.88 -122.375383 
L 308.88 -122.03103 
L 308.88 -121.686676 
L 308.88 -121.342323 
L 308.88 -120.99797 
L 308.88 -120.653617 
L 308.88 -120.309263 
L 308.88 -119.96491 
L 308.88 -119.620557 
L 308.88 -119.276204 
L 308.88 -118.93185 
L 308.88 -118.587497 
L 308.88 -118.243144 
L 308.88 -117.89879 
L 308.88 -117.554437 
L 308.88 -117.210084 
L 308.88 -116.865731 
L 308.88 -116.521377 
L 308.88 -116.177024 
L 308.88 -115.832671 
L 308.88 -115.488318 
L 308.88 -115.143964 
L 308.88 -114.799611 
L 308.88 -114.455258 
L 308.88 -114.110905 
L 308.88 -113.766551 
L 308.88 -113.422198 
L 308.88 -113.077845 
L 308.88 -112.733492 
L 308.88 -112.389138 
L 308.88 -112.044785 
L 308.88 -111.700432 
L 308.88 -111.356079 
L 308.88 -111.011725 
L 308.88 -110.667372 
L 308.88 -110.323019 
L 308.88 -109.978666 
z
" id="md749bb249f" style="stroke:#737373;stroke-width:1.5;"/>
    </defs>
    <g clip-path="url(#p5a3793cc87)">
     <use style="fill:#abc9ea;stroke:#737373;stroke-width:1.5;" x="0" xlink:href="#md749bb249f" y="288"/>
    </g>
   </g>
   <g id="PolyCollection_4">
    <defs>
     <path d="M 314.212118 -105.776641 
L 308.88 -105.776641 
L 308.88 -106.170277 
L 308.88 -106.563913 
L 308.88 -106.957549 
L 308.88 -107.351185 
L 308.88 -107.74482 
L 308.88 -108.138456 
L 308.88 -108.532092 
L 308.88 -108.925728 
L 308.88 -109.319364 
L 308.88 -109.713 
L 308.88 -110.106636 
L 308.88 -110.500272 
L 308.88 -110.893907 
L 308.88 -111.287543 
L 308.88 -111.681179 
L 308.88 -112.074815 
L 308.88 -112.468451 
L 308.88 -112.862087 
L 308.88 -113.255723 
L 308.88 -113.649359 
L 308.88 -114.042994 
L 308.88 -114.43663 
L 308.88 -114.830266 
L 308.88 -115.223902 
L 308.88 -115.617538 
L 308.88 -116.011174 
L 308.88 -116.40481 
L 308.88 -116.798445 
L 308.88 -117.192081 
L 308.88 -117.585717 
L 308.88 -117.979353 
L 308.88 -118.372989 
L 308.88 -118.766625 
L 308.88 -119.160261 
L 308.88 -119.553897 
L 308.88 -119.947532 
L 308.88 -120.341168 
L 308.88 -120.734804 
L 308.88 -121.12844 
L 308.88 -121.522076 
L 308.88 -121.915712 
L 308.88 -122.309348 
L 308.88 -122.702984 
L 308.88 -123.096619 
L 308.88 -123.490255 
L 308.88 -123.883891 
L 308.88 -124.277527 
L 308.88 -124.671163 
L 308.88 -125.064799 
L 308.88 -125.458435 
L 308.88 -125.852071 
L 308.88 -126.245706 
L 308.88 -126.639342 
L 308.88 -127.032978 
L 308.88 -127.426614 
L 308.88 -127.82025 
L 308.88 -128.213886 
L 308.88 -128.607522 
L 308.88 -129.001157 
L 308.88 -129.394793 
L 308.88 -129.788429 
L 308.88 -130.182065 
L 308.88 -130.575701 
L 308.88 -130.969337 
L 308.88 -131.362973 
L 308.88 -131.756609 
L 308.88 -132.150244 
L 308.88 -132.54388 
L 308.88 -132.937516 
L 308.88 -133.331152 
L 308.88 -133.724788 
L 308.88 -134.118424 
L 308.88 -134.51206 
L 308.88 -134.905696 
L 308.88 -135.299331 
L 308.88 -135.692967 
L 308.88 -136.086603 
L 308.88 -136.480239 
L 308.88 -136.873875 
L 308.88 -137.267511 
L 308.88 -137.661147 
L 308.88 -138.054783 
L 308.88 -138.448418 
L 308.88 -138.842054 
L 308.88 -139.23569 
L 308.88 -139.629326 
L 308.88 -140.022962 
L 308.88 -140.416598 
L 308.88 -140.810234 
L 308.88 -141.20387 
L 308.88 -141.597505 
L 308.88 -141.991141 
L 308.88 -142.384777 
L 308.88 -142.778413 
L 308.88 -143.172049 
L 308.88 -143.565685 
L 308.88 -143.959321 
L 308.88 -144.352956 
L 308.88 -144.746592 
L 316.012871 -144.746592 
L 316.012871 -144.746592 
L 316.434141 -144.352956 
L 316.836952 -143.959321 
L 317.219002 -143.565685 
L 317.579122 -143.172049 
L 317.917426 -142.778413 
L 318.235419 -142.384777 
L 318.536059 -141.991141 
L 318.823752 -141.597505 
L 319.1043 -141.20387 
L 319.384771 -140.810234 
L 319.673329 -140.416598 
L 319.979 -140.022962 
L 320.311404 -139.629326 
L 320.680448 -139.23569 
L 321.096014 -138.842054 
L 321.567631 -138.448418 
L 322.104168 -138.054783 
L 322.713542 -137.661147 
L 323.402462 -137.267511 
L 324.176216 -136.873875 
L 325.038499 -136.480239 
L 325.991297 -136.086603 
L 327.034814 -135.692967 
L 328.167457 -135.299331 
L 329.38586 -134.905696 
L 330.684959 -134.51206 
L 332.058106 -134.118424 
L 333.497223 -133.724788 
L 334.992994 -133.331152 
L 336.535084 -132.937516 
L 338.112391 -132.54388 
L 339.713313 -132.150244 
L 341.326031 -131.756609 
L 342.938787 -131.362973 
L 344.540158 -130.969337 
L 346.119292 -130.575701 
L 347.666109 -130.182065 
L 349.171442 -129.788429 
L 350.627113 -129.394793 
L 352.025926 -129.001157 
L 353.36159 -128.607522 
L 354.628556 -128.213886 
L 355.821799 -127.82025 
L 356.936548 -127.426614 
L 357.967993 -127.032978 
L 358.910994 -126.639342 
L 359.759819 -126.245706 
L 360.507943 -125.852071 
L 361.147926 -125.458435 
L 361.6714 -125.064799 
L 362.069165 -124.671163 
L 362.331401 -124.277527 
L 362.448 -123.883891 
L 362.408992 -123.490255 
L 362.20505 -123.096619 
L 361.828036 -122.702984 
L 361.271577 -122.309348 
L 360.531607 -121.915712 
L 359.606865 -121.522076 
L 358.499296 -121.12844 
L 357.21435 -120.734804 
L 355.761129 -120.341168 
L 354.152389 -119.947532 
L 352.404377 -119.553897 
L 350.536516 -119.160261 
L 348.570932 -118.766625 
L 346.531857 -118.372989 
L 344.444929 -117.979353 
L 342.33642 -117.585717 
L 340.232426 -117.192081 
L 338.158065 -116.798445 
L 336.13672 -116.40481 
L 334.189362 -116.011174 
L 332.33398 -115.617538 
L 330.585164 -115.223902 
L 328.95383 -114.830266 
L 327.447119 -114.43663 
L 326.068459 -114.042994 
L 324.81777 -113.649359 
L 323.691813 -113.255723 
L 322.684633 -112.862087 
L 321.788078 -112.468451 
L 320.992362 -112.074815 
L 320.286625 -111.681179 
L 319.659474 -111.287543 
L 319.099466 -110.893907 
L 318.595528 -110.500272 
L 318.137285 -110.106636 
L 317.715308 -109.713 
L 317.321265 -109.319364 
L 316.948003 -108.925728 
L 316.589559 -108.532092 
L 316.241116 -108.138456 
L 315.898924 -107.74482 
L 315.560204 -107.351185 
L 315.223031 -106.957549 
L 314.886225 -106.563913 
L 314.549251 -106.170277 
L 314.212118 -105.776641 
z
" id="m3fc0346ea7" style="stroke:#737373;stroke-width:1.5;"/>
    </defs>
    <g clip-path="url(#p5a3793cc87)">
     <use style="fill:#efb792;stroke:#737373;stroke-width:1.5;" x="0" xlink:href="#m3fc0346ea7" y="288"/>
    </g>
   </g>
   <g id="PolyCollection_5">
    <defs>
     <path d="M 442.8 -50.081471 
L 419.514655 -50.081471 
L 410.531654 -52.398818 
L 401.759146 -54.716165 
L 394.620109 -57.033511 
L 390.269592 -59.350858 
L 389.232 -61.668205 
L 391.27797 -63.985551 
L 395.573556 -66.302898 
L 401.005548 -68.620245 
L 406.531277 -70.937592 
L 411.430152 -73.254938 
L 415.400853 -75.572285 
L 418.507706 -77.889632 
L 421.023021 -80.206978 
L 423.241584 -82.524325 
L 425.346765 -84.841672 
L 427.373167 -87.159019 
L 429.254877 -89.476365 
L 430.906819 -91.793712 
L 432.283318 -94.111059 
L 433.388171 -96.428406 
L 434.249922 -98.745752 
L 434.896901 -101.063099 
L 435.355894 -103.380446 
L 435.669073 -105.697792 
L 435.904753 -108.015139 
L 436.145021 -110.332486 
L 436.455852 -112.649833 
L 436.860796 -114.967179 
L 437.336946 -117.284526 
L 437.836162 -119.601873 
L 438.316488 -121.919219 
L 438.761478 -124.236566 
L 439.176064 -126.553913 
L 439.568072 -128.87126 
L 439.934523 -131.188606 
L 440.263139 -133.505953 
L 440.543745 -135.8233 
L 440.777717 -138.140647 
L 440.978428 -140.457993 
L 441.163517 -142.77534 
L 441.344506 -145.092687 
L 441.520264 -147.410033 
L 441.678602 -149.72738 
L 441.805335 -152.044727 
L 441.894806 -154.362074 
L 441.954782 -156.67942 
L 442.002945 -158.996767 
L 442.058128 -161.314114 
L 442.131856 -163.63146 
L 442.22405 -165.948807 
L 442.324089 -168.266154 
L 442.416653 -170.583501 
L 442.489913 -172.900847 
L 442.54157 -175.218194 
L 442.578536 -177.535541 
L 442.610324 -179.852888 
L 442.64132 -182.170234 
L 442.667955 -184.487581 
L 442.682574 -186.804928 
L 442.680515 -189.122274 
L 442.665076 -191.439621 
L 442.647004 -193.756968 
L 442.638928 -196.074315 
L 442.648445 -198.391661 
L 442.674463 -200.709008 
L 442.70896 -203.026355 
L 442.742312 -205.343701 
L 442.768082 -207.661048 
L 442.784584 -209.978395 
L 442.7935 -212.295742 
L 442.797608 -214.613088 
L 442.799232 -216.930435 
L 442.799785 -219.247782 
L 442.799947 -221.565129 
L 442.799989 -223.882475 
L 442.799998 -226.199822 
L 442.8 -228.517169 
L 442.8 -230.834515 
L 442.8 -233.151862 
L 442.8 -235.469209 
L 442.8 -237.786556 
L 442.8 -240.103902 
L 442.8 -242.421249 
L 442.8 -244.738596 
L 442.8 -247.055942 
L 442.799998 -249.373289 
L 442.799991 -251.690636 
L 442.799958 -254.007983 
L 442.799824 -256.325329 
L 442.799359 -258.642676 
L 442.797964 -260.960023 
L 442.794355 -263.27737 
L 442.786335 -265.594716 
L 442.771128 -267.912063 
L 442.746757 -270.22941 
L 442.714297 -272.546756 
L 442.679591 -274.864103 
L 442.652342 -277.18145 
L 442.641951 -279.498797 
L 442.8 -279.498797 
L 442.8 -279.498797 
L 442.8 -277.18145 
L 442.8 -274.864103 
L 442.8 -272.546756 
L 442.8 -270.22941 
L 442.8 -267.912063 
L 442.8 -265.594716 
L 442.8 -263.27737 
L 442.8 -260.960023 
L 442.8 -258.642676 
L 442.8 -256.325329 
L 442.8 -254.007983 
L 442.8 -251.690636 
L 442.8 -249.373289 
L 442.8 -247.055942 
L 442.8 -244.738596 
L 442.8 -242.421249 
L 442.8 -240.103902 
L 442.8 -237.786556 
L 442.8 -235.469209 
L 442.8 -233.151862 
L 442.8 -230.834515 
L 442.8 -228.517169 
L 442.8 -226.199822 
L 442.8 -223.882475 
L 442.8 -221.565129 
L 442.8 -219.247782 
L 442.8 -216.930435 
L 442.8 -214.613088 
L 442.8 -212.295742 
L 442.8 -209.978395 
L 442.8 -207.661048 
L 442.8 -205.343701 
L 442.8 -203.026355 
L 442.8 -200.709008 
L 442.8 -198.391661 
L 442.8 -196.074315 
L 442.8 -193.756968 
L 442.8 -191.439621 
L 442.8 -189.122274 
L 442.8 -186.804928 
L 442.8 -184.487581 
L 442.8 -182.170234 
L 442.8 -179.852888 
L 442.8 -177.535541 
L 442.8 -175.218194 
L 442.8 -172.900847 
L 442.8 -170.583501 
L 442.8 -168.266154 
L 442.8 -165.948807 
L 442.8 -163.63146 
L 442.8 -161.314114 
L 442.8 -158.996767 
L 442.8 -156.67942 
L 442.8 -154.362074 
L 442.8 -152.044727 
L 442.8 -149.72738 
L 442.8 -147.410033 
L 442.8 -145.092687 
L 442.8 -142.77534 
L 442.8 -140.457993 
L 442.8 -138.140647 
L 442.8 -135.8233 
L 442.8 -133.505953 
L 442.8 -131.188606 
L 442.8 -128.87126 
L 442.8 -126.553913 
L 442.8 -124.236566 
L 442.8 -121.919219 
L 442.8 -119.601873 
L 442.8 -117.284526 
L 442.8 -114.967179 
L 442.8 -112.649833 
L 442.8 -110.332486 
L 442.8 -108.015139 
L 442.8 -105.697792 
L 442.8 -103.380446 
L 442.8 -101.063099 
L 442.8 -98.745752 
L 442.8 -96.428406 
L 442.8 -94.111059 
L 442.8 -91.793712 
L 442.8 -89.476365 
L 442.8 -87.159019 
L 442.8 -84.841672 
L 442.8 -82.524325 
L 442.8 -80.206978 
L 442.8 -77.889632 
L 442.8 -75.572285 
L 442.8 -73.254938 
L 442.8 -70.937592 
L 442.8 -68.620245 
L 442.8 -66.302898 
L 442.8 -63.985551 
L 442.8 -61.668205 
L 442.8 -59.350858 
L 442.8 -57.033511 
L 442.8 -54.716165 
L 442.8 -52.398818 
L 442.8 -50.081471 
z
" id="m7603637740" style="stroke:#737373;stroke-width:1.5;"/>
    </defs>
    <g clip-path="url(#p5a3793cc87)">
     <use style="fill:#abc9ea;stroke:#737373;stroke-width:1.5;" x="0" xlink:href="#m7603637740" y="288"/>
    </g>
   </g>
   <g id="PolyCollection_6">
    <defs>
     <path d="M 487.619377 -109.906467 
L 442.8 -109.906467 
L 442.8 -110.894265 
L 442.8 -111.882064 
L 442.8 -112.869862 
L 442.8 -113.85766 
L 442.8 -114.845458 
L 442.8 -115.833256 
L 442.8 -116.821055 
L 442.8 -117.808853 
L 442.8 -118.796651 
L 442.8 -119.784449 
L 442.8 -120.772247 
L 442.8 -121.760045 
L 442.8 -122.747844 
L 442.8 -123.735642 
L 442.8 -124.72344 
L 442.8 -125.711238 
L 442.8 -126.699036 
L 442.8 -127.686834 
L 442.8 -128.674633 
L 442.8 -129.662431 
L 442.8 -130.650229 
L 442.8 -131.638027 
L 442.8 -132.625825 
L 442.8 -133.613623 
L 442.8 -134.601422 
L 442.8 -135.58922 
L 442.8 -136.577018 
L 442.8 -137.564816 
L 442.8 -138.552614 
L 442.8 -139.540412 
L 442.8 -140.528211 
L 442.8 -141.516009 
L 442.8 -142.503807 
L 442.8 -143.491605 
L 442.8 -144.479403 
L 442.8 -145.467201 
L 442.8 -146.455 
L 442.8 -147.442798 
L 442.8 -148.430596 
L 442.8 -149.418394 
L 442.8 -150.406192 
L 442.8 -151.39399 
L 442.8 -152.381789 
L 442.8 -153.369587 
L 442.8 -154.357385 
L 442.8 -155.345183 
L 442.8 -156.332981 
L 442.8 -157.320779 
L 442.8 -158.308578 
L 442.8 -159.296376 
L 442.8 -160.284174 
L 442.8 -161.271972 
L 442.8 -162.25977 
L 442.8 -163.247569 
L 442.8 -164.235367 
L 442.8 -165.223165 
L 442.8 -166.210963 
L 442.8 -167.198761 
L 442.8 -168.186559 
L 442.8 -169.174358 
L 442.8 -170.162156 
L 442.8 -171.149954 
L 442.8 -172.137752 
L 442.8 -173.12555 
L 442.8 -174.113348 
L 442.8 -175.101147 
L 442.8 -176.088945 
L 442.8 -177.076743 
L 442.8 -178.064541 
L 442.8 -179.052339 
L 442.8 -180.040137 
L 442.8 -181.027936 
L 442.8 -182.015734 
L 442.8 -183.003532 
L 442.8 -183.99133 
L 442.8 -184.979128 
L 442.8 -185.966926 
L 442.8 -186.954725 
L 442.8 -187.942523 
L 442.8 -188.930321 
L 442.8 -189.918119 
L 442.8 -190.905917 
L 442.8 -191.893715 
L 442.8 -192.881514 
L 442.8 -193.869312 
L 442.8 -194.85711 
L 442.8 -195.844908 
L 442.8 -196.832706 
L 442.8 -197.820504 
L 442.8 -198.808303 
L 442.8 -199.796101 
L 442.8 -200.783899 
L 442.8 -201.771697 
L 442.8 -202.759495 
L 442.8 -203.747293 
L 442.8 -204.735092 
L 442.8 -205.72289 
L 442.8 -206.710688 
L 442.8 -207.698486 
L 456.86961 -207.698486 
L 456.86961 -207.698486 
L 457.506855 -206.710688 
L 458.135829 -205.72289 
L 458.755535 -204.735092 
L 459.365383 -203.747293 
L 459.965191 -202.759495 
L 460.555189 -201.771697 
L 461.136 -200.783899 
L 461.708612 -199.796101 
L 462.274346 -198.808303 
L 462.834806 -197.820504 
L 463.391826 -196.832706 
L 463.947412 -195.844908 
L 464.50368 -194.85711 
L 465.062789 -193.869312 
L 465.62688 -192.881514 
L 466.198017 -191.893715 
L 466.778128 -190.905917 
L 467.368962 -189.918119 
L 467.972044 -188.930321 
L 468.588649 -187.942523 
L 469.219777 -186.954725 
L 469.866145 -185.966926 
L 470.528185 -184.979128 
L 471.206056 -183.99133 
L 471.899652 -183.003532 
L 472.608635 -182.015734 
L 473.332457 -181.027936 
L 474.070391 -180.040137 
L 474.821565 -179.052339 
L 475.584992 -178.064541 
L 476.359596 -177.076743 
L 477.144237 -176.088945 
L 477.937722 -175.101147 
L 478.738821 -174.113348 
L 479.54626 -173.12555 
L 480.358719 -172.137752 
L 481.174813 -171.149954 
L 481.99307 -170.162156 
L 482.811907 -169.174358 
L 483.629595 -168.186559 
L 484.44423 -167.198761 
L 485.253704 -166.210963 
L 486.055676 -165.223165 
L 486.847563 -164.235367 
L 487.626522 -163.247569 
L 488.389466 -162.25977 
L 489.133075 -161.271972 
L 489.853838 -160.284174 
L 490.548102 -159.296376 
L 491.212139 -158.308578 
L 491.842232 -157.320779 
L 492.434767 -156.332981 
L 492.986343 -155.345183 
L 493.49388 -154.357385 
L 493.954739 -153.369587 
L 494.366828 -152.381789 
L 494.728713 -151.39399 
L 495.039708 -150.406192 
L 495.299952 -149.418394 
L 495.510459 -148.430596 
L 495.673151 -147.442798 
L 495.790853 -146.455 
L 495.867262 -145.467201 
L 495.90688 -144.479403 
L 495.914921 -143.491605 
L 495.89718 -142.503807 
L 495.859877 -141.516009 
L 495.809476 -140.528211 
L 495.752485 -139.540412 
L 495.695242 -138.552614 
L 495.643691 -137.564816 
L 495.603163 -136.577018 
L 495.578158 -135.58922 
L 495.572148 -134.601422 
L 495.5874 -133.613623 
L 495.624826 -132.625825 
L 495.683869 -131.638027 
L 495.762433 -130.650229 
L 495.856853 -129.662431 
L 495.961912 -128.674633 
L 496.070912 -127.686834 
L 496.17578 -126.699036 
L 496.267239 -125.711238 
L 496.334998 -124.72344 
L 496.368 -123.735642 
L 496.354689 -122.747844 
L 496.283301 -121.760045 
L 496.142176 -120.772247 
L 495.920065 -119.784449 
L 495.606449 -118.796651 
L 495.191827 -117.808853 
L 494.667995 -116.821055 
L 494.028289 -115.833256 
L 493.267789 -114.845458 
L 492.383483 -113.85766 
L 491.374374 -112.869862 
L 490.241542 -111.882064 
L 488.988146 -110.894265 
L 487.619377 -109.906467 
z
" id="m2d4f4280b2" style="stroke:#737373;stroke-width:1.5;"/>
    </defs>
    <g clip-path="url(#p5a3793cc87)">
     <use style="fill:#efb792;stroke:#737373;stroke-width:1.5;" x="0" xlink:href="#m2d4f4280b2" y="288"/>
    </g>
   </g>
   <g id="PolyCollection_7">
    <defs>
     <path d="M 576.72 -54.966447 
L 568.454431 -54.966447 
L 567.222665 -56.309947 
L 566.383117 -57.653447 
L 565.990809 -58.996947 
L 565.98769 -60.340447 
L 566.209003 -61.683947 
L 566.418337 -63.027447 
L 566.358727 -64.370947 
L 565.804192 -65.714447 
L 564.599287 -67.057947 
L 562.680165 -68.401447 
L 560.076036 -69.744947 
L 556.893819 -71.088447 
L 553.291476 -72.431947 
L 549.447401 -73.775447 
L 545.533405 -75.118946 
L 541.69688 -76.462446 
L 538.05395 -77.805946 
L 534.691598 -79.149446 
L 531.674681 -80.492946 
L 529.053805 -81.836446 
L 526.871387 -83.179946 
L 525.164556 -84.523446 
L 523.964416 -85.866946 
L 523.291949 -87.210446 
L 523.152 -88.553946 
L 523.527993 -89.897446 
L 524.380297 -91.240946 
L 525.649912 -92.584446 
L 527.266582 -93.927946 
L 529.157983 -95.271446 
L 531.255683 -96.614946 
L 533.495132 -97.958446 
L 535.810554 -99.301946 
L 538.12957 -100.645446 
L 540.373972 -101.988946 
L 542.470551 -103.332446 
L 544.369809 -104.675945 
L 546.064279 -106.019445 
L 547.596078 -107.362945 
L 549.047345 -108.706445 
L 550.515222 -110.049945 
L 552.080654 -111.393445 
L 553.783079 -112.736945 
L 555.610163 -114.080445 
L 557.505091 -115.423945 
L 559.386995 -116.767445 
L 561.175842 -118.110945 
L 562.812602 -119.454445 
L 564.268655 -120.797945 
L 565.543537 -122.141445 
L 566.654886 -123.484945 
L 567.626736 -124.828445 
L 568.481147 -126.171945 
L 569.235011 -127.515445 
L 569.900841 -128.858945 
L 570.489147 -130.202445 
L 571.010534 -131.545945 
L 571.47674 -132.889445 
L 571.900468 -134.232944 
L 572.29413 -135.576444 
L 572.667815 -136.919944 
L 573.02735 -138.263444 
L 573.37354 -139.606944 
L 573.703259 -140.950444 
L 574.012046 -142.293944 
L 574.296853 -143.637444 
L 574.5575 -144.980944 
L 574.796182 -146.324444 
L 575.015604 -147.667944 
L 575.217112 -149.011444 
L 575.4 -150.354944 
L 575.562295 -151.698444 
L 575.702361 -153.041944 
L 575.82029 -154.385444 
L 575.918368 -155.728944 
L 576.000619 -157.072444 
L 576.071893 -158.415944 
L 576.137006 -159.759444 
L 576.200096 -161.102944 
L 576.264117 -162.446444 
L 576.330381 -163.789943 
L 576.398271 -165.133443 
L 576.465383 -166.476943 
L 576.528217 -167.820443 
L 576.583243 -169.163943 
L 576.627905 -170.507443 
L 576.661133 -171.850943 
L 576.683221 -173.194443 
L 576.695194 -174.537943 
L 576.69806 -175.881443 
L 576.692273 -177.224943 
L 576.677699 -178.568443 
L 576.654109 -179.911943 
L 576.622068 -181.255443 
L 576.583837 -182.598943 
L 576.543827 -183.942443 
L 576.508174 -185.285943 
L 576.483394 -186.629443 
L 576.474504 -187.972943 
L 576.72 -187.972943 
L 576.72 -187.972943 
L 576.72 -186.629443 
L 576.72 -185.285943 
L 576.72 -183.942443 
L 576.72 -182.598943 
L 576.72 -181.255443 
L 576.72 -179.911943 
L 576.72 -178.568443 
L 576.72 -177.224943 
L 576.72 -175.881443 
L 576.72 -174.537943 
L 576.72 -173.194443 
L 576.72 -171.850943 
L 576.72 -170.507443 
L 576.72 -169.163943 
L 576.72 -167.820443 
L 576.72 -166.476943 
L 576.72 -165.133443 
L 576.72 -163.789943 
L 576.72 -162.446444 
L 576.72 -161.102944 
L 576.72 -159.759444 
L 576.72 -158.415944 
L 576.72 -157.072444 
L 576.72 -155.728944 
L 576.72 -154.385444 
L 576.72 -153.041944 
L 576.72 -151.698444 
L 576.72 -150.354944 
L 576.72 -149.011444 
L 576.72 -147.667944 
L 576.72 -146.324444 
L 576.72 -144.980944 
L 576.72 -143.637444 
L 576.72 -142.293944 
L 576.72 -140.950444 
L 576.72 -139.606944 
L 576.72 -138.263444 
L 576.72 -136.919944 
L 576.72 -135.576444 
L 576.72 -134.232944 
L 576.72 -132.889445 
L 576.72 -131.545945 
L 576.72 -130.202445 
L 576.72 -128.858945 
L 576.72 -127.515445 
L 576.72 -126.171945 
L 576.72 -124.828445 
L 576.72 -123.484945 
L 576.72 -122.141445 
L 576.72 -120.797945 
L 576.72 -119.454445 
L 576.72 -118.110945 
L 576.72 -116.767445 
L 576.72 -115.423945 
L 576.72 -114.080445 
L 576.72 -112.736945 
L 576.72 -111.393445 
L 576.72 -110.049945 
L 576.72 -108.706445 
L 576.72 -107.362945 
L 576.72 -106.019445 
L 576.72 -104.675945 
L 576.72 -103.332446 
L 576.72 -101.988946 
L 576.72 -100.645446 
L 576.72 -99.301946 
L 576.72 -97.958446 
L 576.72 -96.614946 
L 576.72 -95.271446 
L 576.72 -93.927946 
L 576.72 -92.584446 
L 576.72 -91.240946 
L 576.72 -89.897446 
L 576.72 -88.553946 
L 576.72 -87.210446 
L 576.72 -85.866946 
L 576.72 -84.523446 
L 576.72 -83.179946 
L 576.72 -81.836446 
L 576.72 -80.492946 
L 576.72 -79.149446 
L 576.72 -77.805946 
L 576.72 -76.462446 
L 576.72 -75.118946 
L 576.72 -73.775447 
L 576.72 -72.431947 
L 576.72 -71.088447 
L 576.72 -69.744947 
L 576.72 -68.401447 
L 576.72 -67.057947 
L 576.72 -65.714447 
L 576.72 -64.370947 
L 576.72 -63.027447 
L 576.72 -61.683947 
L 576.72 -60.340447 
L 576.72 -58.996947 
L 576.72 -57.653447 
L 576.72 -56.309947 
L 576.72 -54.966447 
z
" id="mbc17515d94" style="stroke:#737373;stroke-width:1.5;"/>
    </defs>
    <g clip-path="url(#p5a3793cc87)">
     <use style="fill:#abc9ea;stroke:#737373;stroke-width:1.5;" x="0" xlink:href="#mbc17515d94" y="288"/>
    </g>
   </g>
   <g id="PolyCollection_8">
    <defs>
     <path d="M 593.219322 -54.395871 
L 576.72 -54.395871 
L 576.72 -54.513612 
L 576.72 -54.631353 
L 576.72 -54.749095 
L 576.72 -54.866836 
L 576.72 -54.984577 
L 576.72 -55.102318 
L 576.72 -55.22006 
L 576.72 -55.337801 
L 576.72 -55.455542 
L 576.72 -55.573283 
L 576.72 -55.691025 
L 576.72 -55.808766 
L 576.72 -55.926507 
L 576.72 -56.044248 
L 576.72 -56.16199 
L 576.72 -56.279731 
L 576.72 -56.397472 
L 576.72 -56.515213 
L 576.72 -56.632955 
L 576.72 -56.750696 
L 576.72 -56.868437 
L 576.72 -56.986178 
L 576.72 -57.10392 
L 576.72 -57.221661 
L 576.72 -57.339402 
L 576.72 -57.457143 
L 576.72 -57.574885 
L 576.72 -57.692626 
L 576.72 -57.810367 
L 576.72 -57.928108 
L 576.72 -58.04585 
L 576.72 -58.163591 
L 576.72 -58.281332 
L 576.72 -58.399073 
L 576.72 -58.516815 
L 576.72 -58.634556 
L 576.72 -58.752297 
L 576.72 -58.870038 
L 576.72 -58.98778 
L 576.72 -59.105521 
L 576.72 -59.223262 
L 576.72 -59.341003 
L 576.72 -59.458744 
L 576.72 -59.576486 
L 576.72 -59.694227 
L 576.72 -59.811968 
L 576.72 -59.929709 
L 576.72 -60.047451 
L 576.72 -60.165192 
L 576.72 -60.282933 
L 576.72 -60.400674 
L 576.72 -60.518416 
L 576.72 -60.636157 
L 576.72 -60.753898 
L 576.72 -60.871639 
L 576.72 -60.989381 
L 576.72 -61.107122 
L 576.72 -61.224863 
L 576.72 -61.342604 
L 576.72 -61.460346 
L 576.72 -61.578087 
L 576.72 -61.695828 
L 576.72 -61.813569 
L 576.72 -61.931311 
L 576.72 -62.049052 
L 576.72 -62.166793 
L 576.72 -62.284534 
L 576.72 -62.402276 
L 576.72 -62.520017 
L 576.72 -62.637758 
L 576.72 -62.755499 
L 576.72 -62.873241 
L 576.72 -62.990982 
L 576.72 -63.108723 
L 576.72 -63.226464 
L 576.72 -63.344206 
L 576.72 -63.461947 
L 576.72 -63.579688 
L 576.72 -63.697429 
L 576.72 -63.815171 
L 576.72 -63.932912 
L 576.72 -64.050653 
L 576.72 -64.168394 
L 576.72 -64.286136 
L 576.72 -64.403877 
L 576.72 -64.521618 
L 576.72 -64.639359 
L 576.72 -64.757101 
L 576.72 -64.874842 
L 576.72 -64.992583 
L 576.72 -65.110324 
L 576.72 -65.228066 
L 576.72 -65.345807 
L 576.72 -65.463548 
L 576.72 -65.581289 
L 576.72 -65.699031 
L 576.72 -65.816772 
L 576.72 -65.934513 
L 576.72 -66.052254 
L 581.895177 -66.052254 
L 581.895177 -66.052254 
L 581.950789 -65.934513 
L 581.961143 -65.816772 
L 581.926445 -65.699031 
L 581.848219 -65.581289 
L 581.729267 -65.463548 
L 581.573578 -65.345807 
L 581.386185 -65.228066 
L 581.172985 -65.110324 
L 580.940528 -64.992583 
L 580.695792 -64.874842 
L 580.445945 -64.757101 
L 580.198123 -64.639359 
L 579.959212 -64.521618 
L 579.735665 -64.403877 
L 579.533345 -64.286136 
L 579.357404 -64.168394 
L 579.212208 -64.050653 
L 579.101291 -63.932912 
L 579.027357 -63.815171 
L 578.992316 -63.697429 
L 578.997345 -63.579688 
L 579.042991 -63.461947 
L 579.129284 -63.344206 
L 579.255875 -63.226464 
L 579.422183 -63.108723 
L 579.627551 -62.990982 
L 579.871395 -62.873241 
L 580.15335 -62.755499 
L 580.473404 -62.637758 
L 580.832007 -62.520017 
L 581.230156 -62.402276 
L 581.669445 -62.284534 
L 582.152082 -62.166793 
L 582.680858 -62.049052 
L 583.259082 -61.931311 
L 583.890468 -61.813569 
L 584.578988 -61.695828 
L 585.328682 -61.578087 
L 586.143456 -61.460346 
L 587.026851 -61.342604 
L 587.981812 -61.224863 
L 589.010468 -61.107122 
L 590.113928 -60.989381 
L 591.292111 -60.871639 
L 592.543623 -60.753898 
L 593.865689 -60.636157 
L 595.254141 -60.518416 
L 596.703469 -60.400674 
L 598.206944 -60.282933 
L 599.756779 -60.165192 
L 601.344361 -60.047451 
L 602.960495 -59.929709 
L 604.595684 -59.811968 
L 606.240398 -59.694227 
L 607.885339 -59.576486 
L 609.521659 -59.458744 
L 611.141132 -59.341003 
L 612.736264 -59.223262 
L 614.300328 -59.105521 
L 615.827325 -58.98778 
L 617.311873 -58.870038 
L 618.749027 -58.752297 
L 620.134054 -58.634556 
L 621.462171 -58.516815 
L 622.728272 -58.399073 
L 623.926669 -58.281332 
L 625.050867 -58.163591 
L 626.093392 -58.04585 
L 627.045707 -57.928108 
L 627.898203 -57.810367 
L 628.640296 -57.692626 
L 629.260623 -57.574885 
L 629.747328 -57.457143 
L 630.088434 -57.339402 
L 630.272281 -57.221661 
L 630.288 -57.10392 
L 630.126021 -56.986178 
L 629.778555 -56.868437 
L 629.240057 -56.750696 
L 628.507619 -56.632955 
L 627.581284 -56.515213 
L 626.464262 -56.397472 
L 625.163028 -56.279731 
L 623.687304 -56.16199 
L 622.049916 -56.044248 
L 620.266538 -55.926507 
L 618.355331 -55.808766 
L 616.33649 -55.691025 
L 614.231729 -55.573283 
L 612.06372 -55.455542 
L 609.855507 -55.337801 
L 607.629937 -55.22006 
L 605.409112 -55.102318 
L 603.213897 -54.984577 
L 601.063497 -54.866836 
L 598.97511 -54.749095 
L 596.963682 -54.631353 
L 595.041738 -54.513612 
L 593.219322 -54.395871 
z
" id="m47458e8d3b" style="stroke:#737373;stroke-width:1.5;"/>
    </defs>
    <g clip-path="url(#p5a3793cc87)">
     <use style="fill:#efb792;stroke:#737373;stroke-width:1.5;" x="0" xlink:href="#m47458e8d3b" y="288"/>
    </g>
   </g>
   <g id="PolyCollection_9">
    <defs>
     <path d="M 710.64 -65.458353 
L 697.48213 -65.458353 
L 696.009996 -68.210922 
L 694.960766 -70.963491 
L 694.323948 -73.716061 
L 693.990111 -76.46863 
L 693.772787 -79.221199 
L 693.449092 -81.973768 
L 692.805998 -84.726338 
L 691.678688 -87.478907 
L 689.972265 -90.231476 
L 687.665439 -92.984045 
L 684.801259 -95.736614 
L 681.472752 -98.489184 
L 677.81012 -101.241753 
L 673.972097 -103.994322 
L 670.139724 -106.746891 
L 666.508305 -109.499461 
L 663.273735 -112.25203 
L 660.612355 -115.004599 
L 658.657506 -117.757168 
L 657.47895 -120.509738 
L 657.072 -123.262307 
L 657.36102 -126.014876 
L 658.217752 -128.767445 
L 659.490347 -131.520015 
L 661.035544 -134.272584 
L 662.745474 -137.025153 
L 664.56224 -139.777722 
L 666.477212 -142.530291 
L 668.516597 -145.282861 
L 670.718703 -148.03543 
L 673.110289 -150.787999 
L 675.688973 -153.540568 
L 678.416188 -156.293138 
L 681.221687 -159.045707 
L 684.017195 -161.798276 
L 686.714387 -164.550845 
L 689.241476 -167.303415 
L 691.55354 -170.055984 
L 693.634033 -172.808553 
L 695.488026 -175.561122 
L 697.130669 -178.313691 
L 698.575878 -181.066261 
L 699.829731 -183.81883 
L 700.890767 -186.571399 
L 701.756269 -189.323968 
L 702.431146 -192.076538 
L 702.935221 -194.829107 
L 703.305674 -197.581676 
L 703.593486 -200.334245 
L 703.855003 -203.086815 
L 704.141286 -205.839384 
L 704.488436 -208.591953 
L 704.911563 -211.344522 
L 705.403876 -214.097091 
L 705.940867 -216.849661 
L 706.488194 -219.60223 
L 707.01098 -222.354799 
L 707.482037 -225.107368 
L 707.887036 -227.859938 
L 708.225667 -230.612507 
L 708.509023 -233.365076 
L 708.754432 -236.117645 
L 708.97951 -238.870215 
L 709.197174 -241.622784 
L 709.412827 -244.375353 
L 709.624123 -247.127922 
L 709.822889 -249.880491 
L 709.998243 -252.633061 
L 710.139806 -255.38563 
L 710.240157 -258.138199 
L 710.29617 -260.890768 
L 710.309281 -263.643338 
L 710.285023 -266.395907 
L 710.232145 -269.148476 
L 710.161549 -271.901045 
L 710.085129 -274.653615 
L 710.014552 -277.406184 
L 709.960059 -280.158753 
L 709.929392 -282.911322 
L 709.926998 -285.663891 
L 709.953642 -288.416461 
L 710.0065 -291.16903 
L 710.079735 -293.921599 
L 710.1655 -296.674168 
L 710.255169 -299.426738 
L 710.340574 -302.179307 
L 710.414963 -304.931876 
L 710.473515 -307.684445 
L 710.513364 -310.437015 
L 710.533298 -313.189584 
L 710.533389 -315.942153 
L 710.5148 -318.694722 
L 710.479882 -321.447291 
L 710.43247 -324.199861 
L 710.378094 -326.95243 
L 710.323809 -329.704999 
L 710.277409 -332.457568 
L 710.246126 -335.210138 
L 710.235129 -337.962707 
L 710.64 -337.962707 
L 710.64 -337.962707 
L 710.64 -335.210138 
L 710.64 -332.457568 
L 710.64 -329.704999 
L 710.64 -326.95243 
L 710.64 -324.199861 
L 710.64 -321.447291 
L 710.64 -318.694722 
L 710.64 -315.942153 
L 710.64 -313.189584 
L 710.64 -310.437015 
L 710.64 -307.684445 
L 710.64 -304.931876 
L 710.64 -302.179307 
L 710.64 -299.426738 
L 710.64 -296.674168 
L 710.64 -293.921599 
L 710.64 -291.16903 
L 710.64 -288.416461 
L 710.64 -285.663891 
L 710.64 -282.911322 
L 710.64 -280.158753 
L 710.64 -277.406184 
L 710.64 -274.653615 
L 710.64 -271.901045 
L 710.64 -269.148476 
L 710.64 -266.395907 
L 710.64 -263.643338 
L 710.64 -260.890768 
L 710.64 -258.138199 
L 710.64 -255.38563 
L 710.64 -252.633061 
L 710.64 -249.880491 
L 710.64 -247.127922 
L 710.64 -244.375353 
L 710.64 -241.622784 
L 710.64 -238.870215 
L 710.64 -236.117645 
L 710.64 -233.365076 
L 710.64 -230.612507 
L 710.64 -227.859938 
L 710.64 -225.107368 
L 710.64 -222.354799 
L 710.64 -219.60223 
L 710.64 -216.849661 
L 710.64 -214.097091 
L 710.64 -211.344522 
L 710.64 -208.591953 
L 710.64 -205.839384 
L 710.64 -203.086815 
L 710.64 -200.334245 
L 710.64 -197.581676 
L 710.64 -194.829107 
L 710.64 -192.076538 
L 710.64 -189.323968 
L 710.64 -186.571399 
L 710.64 -183.81883 
L 710.64 -181.066261 
L 710.64 -178.313691 
L 710.64 -175.561122 
L 710.64 -172.808553 
L 710.64 -170.055984 
L 710.64 -167.303415 
L 710.64 -164.550845 
L 710.64 -161.798276 
L 710.64 -159.045707 
L 710.64 -156.293138 
L 710.64 -153.540568 
L 710.64 -150.787999 
L 710.64 -148.03543 
L 710.64 -145.282861 
L 710.64 -142.530291 
L 710.64 -139.777722 
L 710.64 -137.025153 
L 710.64 -134.272584 
L 710.64 -131.520015 
L 710.64 -128.767445 
L 710.64 -126.014876 
L 710.64 -123.262307 
L 710.64 -120.509738 
L 710.64 -117.757168 
L 710.64 -115.004599 
L 710.64 -112.25203 
L 710.64 -109.499461 
L 710.64 -106.746891 
L 710.64 -103.994322 
L 710.64 -101.241753 
L 710.64 -98.489184 
L 710.64 -95.736614 
L 710.64 -92.984045 
L 710.64 -90.231476 
L 710.64 -87.478907 
L 710.64 -84.726338 
L 710.64 -81.973768 
L 710.64 -79.221199 
L 710.64 -76.46863 
L 710.64 -73.716061 
L 710.64 -70.963491 
L 710.64 -68.210922 
L 710.64 -65.458353 
z
" id="mb7f7169eb5" style="stroke:#737373;stroke-width:1.5;"/>
    </defs>
    <g clip-path="url(#p5a3793cc87)">
     <use style="fill:#abc9ea;stroke:#737373;stroke-width:1.5;" x="0" xlink:href="#mb7f7169eb5" y="288"/>
    </g>
   </g>
   <g id="PolyCollection_10">
    <defs>
     <path d="M 730.007191 -65.728007 
L 710.64 -65.728007 
L 710.64 -65.834873 
L 710.64 -65.94174 
L 710.64 -66.048607 
L 710.64 -66.155473 
L 710.64 -66.26234 
L 710.64 -66.369207 
L 710.64 -66.476073 
L 710.64 -66.58294 
L 710.64 -66.689807 
L 710.64 -66.796673 
L 710.64 -66.90354 
L 710.64 -67.010407 
L 710.64 -67.117273 
L 710.64 -67.22414 
L 710.64 -67.331007 
L 710.64 -67.437874 
L 710.64 -67.54474 
L 710.64 -67.651607 
L 710.64 -67.758474 
L 710.64 -67.86534 
L 710.64 -67.972207 
L 710.64 -68.079074 
L 710.64 -68.18594 
L 710.64 -68.292807 
L 710.64 -68.399674 
L 710.64 -68.50654 
L 710.64 -68.613407 
L 710.64 -68.720274 
L 710.64 -68.82714 
L 710.64 -68.934007 
L 710.64 -69.040874 
L 710.64 -69.147741 
L 710.64 -69.254607 
L 710.64 -69.361474 
L 710.64 -69.468341 
L 710.64 -69.575207 
L 710.64 -69.682074 
L 710.64 -69.788941 
L 710.64 -69.895807 
L 710.64 -70.002674 
L 710.64 -70.109541 
L 710.64 -70.216407 
L 710.64 -70.323274 
L 710.64 -70.430141 
L 710.64 -70.537008 
L 710.64 -70.643874 
L 710.64 -70.750741 
L 710.64 -70.857608 
L 710.64 -70.964474 
L 710.64 -71.071341 
L 710.64 -71.178208 
L 710.64 -71.285074 
L 710.64 -71.391941 
L 710.64 -71.498808 
L 710.64 -71.605674 
L 710.64 -71.712541 
L 710.64 -71.819408 
L 710.64 -71.926274 
L 710.64 -72.033141 
L 710.64 -72.140008 
L 710.64 -72.246875 
L 710.64 -72.353741 
L 710.64 -72.460608 
L 710.64 -72.567475 
L 710.64 -72.674341 
L 710.64 -72.781208 
L 710.64 -72.888075 
L 710.64 -72.994941 
L 710.64 -73.101808 
L 710.64 -73.208675 
L 710.64 -73.315541 
L 710.64 -73.422408 
L 710.64 -73.529275 
L 710.64 -73.636141 
L 710.64 -73.743008 
L 710.64 -73.849875 
L 710.64 -73.956742 
L 710.64 -74.063608 
L 710.64 -74.170475 
L 710.64 -74.277342 
L 710.64 -74.384208 
L 710.64 -74.491075 
L 710.64 -74.597942 
L 710.64 -74.704808 
L 710.64 -74.811675 
L 710.64 -74.918542 
L 710.64 -75.025408 
L 710.64 -75.132275 
L 710.64 -75.239142 
L 710.64 -75.346009 
L 710.64 -75.452875 
L 710.64 -75.559742 
L 710.64 -75.666609 
L 710.64 -75.773475 
L 710.64 -75.880342 
L 710.64 -75.987209 
L 710.64 -76.094075 
L 710.64 -76.200942 
L 710.64 -76.307809 
L 719.963545 -76.307809 
L 719.963545 -76.307809 
L 720.500358 -76.200942 
L 721.04557 -76.094075 
L 721.59965 -75.987209 
L 722.163269 -75.880342 
L 722.737252 -75.773475 
L 723.322517 -75.666609 
L 723.920006 -75.559742 
L 724.530623 -75.452875 
L 725.155169 -75.346009 
L 725.794277 -75.239142 
L 726.448365 -75.132275 
L 727.117592 -75.025408 
L 727.801831 -74.918542 
L 728.500648 -74.811675 
L 729.213303 -74.704808 
L 729.938756 -74.597942 
L 730.675684 -74.491075 
L 731.42251 -74.384208 
L 732.177432 -74.277342 
L 732.938465 -74.170475 
L 733.703476 -74.063608 
L 734.470225 -73.956742 
L 735.236405 -73.849875 
L 735.999679 -73.743008 
L 736.75772 -73.636141 
L 737.508248 -73.529275 
L 738.249068 -73.422408 
L 738.978114 -73.315541 
L 739.693488 -73.208675 
L 740.393512 -73.101808 
L 741.076768 -72.994941 
L 741.742159 -72.888075 
L 742.388949 -72.781208 
L 743.01682 -72.674341 
L 743.62591 -72.567475 
L 744.216846 -72.460608 
L 744.79077 -72.353741 
L 745.349338 -72.246875 
L 745.894715 -72.140008 
L 746.429534 -72.033141 
L 746.956845 -71.926274 
L 747.480038 -71.819408 
L 748.002745 -71.712541 
L 748.528727 -71.605674 
L 749.061745 -71.498808 
L 749.60543 -71.391941 
L 750.163139 -71.285074 
L 750.737825 -71.178208 
L 751.331902 -71.071341 
L 751.94714 -70.964474 
L 752.584556 -70.857608 
L 753.244345 -70.750741 
L 753.925818 -70.643874 
L 754.627367 -70.537008 
L 755.346452 -70.430141 
L 756.079608 -70.323274 
L 756.822469 -70.216407 
L 757.569808 -70.109541 
L 758.315588 -70.002674 
L 759.053033 -69.895807 
L 759.774695 -69.788941 
L 760.472548 -69.682074 
L 761.138076 -69.575207 
L 761.762376 -69.468341 
L 762.336279 -69.361474 
L 762.850468 -69.254607 
L 763.295624 -69.147741 
L 763.662569 -69.040874 
L 763.942434 -68.934007 
L 764.126824 -68.82714 
L 764.208 -68.720274 
L 764.179056 -68.613407 
L 764.034093 -68.50654 
L 763.768383 -68.399674 
L 763.378516 -68.292807 
L 762.862523 -68.18594 
L 762.219964 -68.079074 
L 761.451987 -67.972207 
L 760.561334 -67.86534 
L 759.552318 -67.758474 
L 758.430748 -67.651607 
L 757.20381 -67.54474 
L 755.879921 -67.437874 
L 754.468542 -67.331007 
L 752.97997 -67.22414 
L 751.425116 -67.117273 
L 749.815275 -67.010407 
L 748.161899 -66.90354 
L 746.476381 -66.796673 
L 744.769859 -66.689807 
L 743.053043 -66.58294 
L 741.33607 -66.476073 
L 739.628397 -66.369207 
L 737.938717 -66.26234 
L 736.274911 -66.155473 
L 734.644031 -66.048607 
L 733.0523 -65.94174 
L 731.505135 -65.834873 
L 730.007191 -65.728007 
z
" id="m2f2f3bbc12" style="stroke:#737373;stroke-width:1.5;"/>
    </defs>
    <g clip-path="url(#p5a3793cc87)">
     <use style="fill:#efb792;stroke:#737373;stroke-width:1.5;" x="0" xlink:href="#m2f2f3bbc12" y="288"/>
    </g>
   </g>
   <g id="patch_3">
    <path clip-path="url(#p5a3793cc87)" d="M 174.96 241.645714 
L 174.96 241.645714 
L 174.96 241.645714 
L 174.96 241.645714 
z
" style="fill:#abc9ea;stroke:#737373;stroke-linejoin:miter;stroke-width:0.75;"/>
   </g>
   <g id="patch_4">
    <path clip-path="url(#p5a3793cc87)" d="M 174.96 241.645714 
L 174.96 241.645714 
L 174.96 241.645714 
L 174.96 241.645714 
z
" style="fill:#efb792;stroke:#737373;stroke-linejoin:miter;stroke-width:0.75;"/>
   </g>
   <g id="line2d_10">
    <path clip-path="url(#p5a3793cc87)" d="M 174.96 224.336114 
L 174.96 208.798783 
" style="fill:none;stroke:#737373;stroke-linecap:round;stroke-width:1.5;"/>
   </g>
   <g id="line2d_11">
    <path clip-path="url(#p5a3793cc87)" d="M 174.96 220.586907 
L 174.96 214.968345 
" style="fill:none;stroke:#737373;stroke-linecap:round;stroke-width:4.5;"/>
   </g>
   <g id="line2d_12">
    <path clip-path="url(#p5a3793cc87)" d="M 308.88 182.223359 
L 308.88 143.253408 
" style="fill:none;stroke:#737373;stroke-linecap:round;stroke-width:1.5;"/>
   </g>
   <g id="line2d_13">
    <path clip-path="url(#p5a3793cc87)" d="M 308.88 166.530327 
L 308.88 155.966821 
" style="fill:none;stroke:#737373;stroke-linecap:round;stroke-width:4.5;"/>
   </g>
   <g id="line2d_14">
    <path clip-path="url(#p5a3793cc87)" d="M 442.8 237.918529 
L 442.8 163.142011 
" style="fill:none;stroke:#737373;stroke-linecap:round;stroke-width:1.5;"/>
   </g>
   <g id="line2d_15">
    <path clip-path="url(#p5a3793cc87)" d="M 442.8 228.269572 
L 442.8 202.196613 
" style="fill:none;stroke:#737373;stroke-linecap:round;stroke-width:4.5;"/>
   </g>
   <g id="line2d_16">
    <path clip-path="url(#p5a3793cc87)" d="M 576.72 233.604129 
L 576.72 151.913239 
" style="fill:none;stroke:#737373;stroke-linecap:round;stroke-width:1.5;"/>
   </g>
   <g id="line2d_17">
    <path clip-path="url(#p5a3793cc87)" d="M 576.72 208.077365 
L 576.72 185.568163 
" style="fill:none;stroke:#737373;stroke-linecap:round;stroke-width:4.5;"/>
   </g>
   <g id="line2d_18">
    <path clip-path="url(#p5a3793cc87)" d="M 710.64 222.541647 
L 710.64 74.866604 
" style="fill:none;stroke:#737373;stroke-linecap:round;stroke-width:1.5;"/>
   </g>
   <g id="line2d_19">
    <path clip-path="url(#p5a3793cc87)" d="M 710.64 186.135004 
L 710.64 140.768838 
" style="fill:none;stroke:#737373;stroke-linecap:round;stroke-width:4.5;"/>
   </g>
   <g id="patch_5">
    <path d="M 108 252 
L 777.6 252 
" style="fill:none;stroke:#cccccc;stroke-linecap:square;stroke-linejoin:miter;stroke-width:1.25;"/>
   </g>
   <g id="PathCollection_1">
    <defs>
     <path d="M 0 1.5 
C 0.397805 1.5 0.77937 1.341951 1.06066 1.06066 
C 1.341951 0.77937 1.5 0.397805 1.5 0 
C 1.5 -0.397805 1.341951 -0.77937 1.06066 -1.06066 
C 0.77937 -1.341951 0.397805 -1.5 0 -1.5 
C -0.397805 -1.5 -0.77937 -1.341951 -1.06066 -1.06066 
C -1.341951 -0.77937 -1.5 -0.397805 -1.5 0 
C -1.5 0.397805 -1.341951 0.77937 -1.06066 1.06066 
C -0.77937 1.341951 -0.397805 1.5 0 1.5 
z
" id="m338ddf9c19" style="stroke:#737373;"/>
    </defs>
    <g clip-path="url(#p5a3793cc87)">
     <use style="fill:#ffffff;stroke:#737373;" x="174.96" xlink:href="#m338ddf9c19" y="218.445656"/>
    </g>
   </g>
   <g id="PathCollection_2">
    <g clip-path="url(#p5a3793cc87)">
     <use style="fill:#ffffff;stroke:#737373;" x="308.88" xlink:href="#m338ddf9c19" y="160.848021"/>
    </g>
   </g>
   <g id="PathCollection_3">
    <g clip-path="url(#p5a3793cc87)">
     <use style="fill:#ffffff;stroke:#737373;" x="442.8" xlink:href="#m338ddf9c19" y="220.376965"/>
    </g>
   </g>
   <g id="PathCollection_4">
    <g clip-path="url(#p5a3793cc87)">
     <use style="fill:#ffffff;stroke:#737373;" x="576.72" xlink:href="#m338ddf9c19" y="197.710942"/>
    </g>
   </g>
   <g id="PathCollection_5">
    <g clip-path="url(#p5a3793cc87)">
     <use style="fill:#ffffff;stroke:#737373;" x="710.64" xlink:href="#m338ddf9c19" y="164.426012"/>
    </g>
   </g>
   <g id="legend_1">
    <g id="patch_6">
     <path d="M 782 229.166406 
L 804 229.166406 
L 804 221.466406 
L 782 221.466406 
z
" style="fill:#abc9ea;stroke:#737373;stroke-linejoin:miter;stroke-width:0.75;"/>
    </g>
    <g id="text_16">
     <!-- val -->
     <defs>
      <path d="M 2.984375 54.6875 
L 12.5 54.6875 
L 29.59375 8.796875 
L 46.6875 54.6875 
L 56.203125 54.6875 
L 35.6875 0 
L 23.484375 0 
z
" id="DejaVuSans-118"/>
      <path d="M 34.28125 27.484375 
Q 23.390625 27.484375 19.1875 25 
Q 14.984375 22.515625 14.984375 16.5 
Q 14.984375 11.71875 18.140625 8.90625 
Q 21.296875 6.109375 26.703125 6.109375 
Q 34.1875 6.109375 38.703125 11.40625 
Q 43.21875 16.703125 43.21875 25.484375 
L 43.21875 27.484375 
z
M 52.203125 31.203125 
L 52.203125 0 
L 43.21875 0 
L 43.21875 8.296875 
Q 40.140625 3.328125 35.546875 0.953125 
Q 30.953125 -1.421875 24.3125 -1.421875 
Q 15.921875 -1.421875 10.953125 3.296875 
Q 6 8.015625 6 15.921875 
Q 6 25.140625 12.171875 29.828125 
Q 18.359375 34.515625 30.609375 34.515625 
L 43.21875 34.515625 
L 43.21875 35.40625 
Q 43.21875 41.609375 39.140625 45 
Q 35.0625 48.390625 27.6875 48.390625 
Q 23 48.390625 18.546875 47.265625 
Q 14.109375 46.140625 10.015625 43.890625 
L 10.015625 52.203125 
Q 14.9375 54.109375 19.578125 55.046875 
Q 24.21875 56 28.609375 56 
Q 40.484375 56 46.34375 49.84375 
Q 52.203125 43.703125 52.203125 31.203125 
z
" id="DejaVuSans-97"/>
      <path d="M 9.421875 75.984375 
L 18.40625 75.984375 
L 18.40625 0 
L 9.421875 0 
z
" id="DejaVuSans-108"/>
     </defs>
     <g style="fill:#262626;" transform="translate(812.8 229.166406)scale(0.11 -0.11)">
      <use xlink:href="#DejaVuSans-118"/>
      <use x="59.179688" xlink:href="#DejaVuSans-97"/>
      <use x="120.458984" xlink:href="#DejaVuSans-108"/>
     </g>
    </g>
    <g id="patch_7">
     <path d="M 782 245.312344 
L 804 245.312344 
L 804 237.612344 
L 782 237.612344 
z
" style="fill:#efb792;stroke:#737373;stroke-linejoin:miter;stroke-width:0.75;"/>
    </g>
    <g id="text_17">
     <!-- test -->
     <defs>
      <path d="M 18.3125 70.21875 
L 18.3125 54.6875 
L 36.8125 54.6875 
L 36.8125 47.703125 
L 18.3125 47.703125 
L 18.3125 18.015625 
Q 18.3125 11.328125 20.140625 9.421875 
Q 21.96875 7.515625 27.59375 7.515625 
L 36.8125 7.515625 
L 36.8125 0 
L 27.59375 0 
Q 17.1875 0 13.234375 3.875 
Q 9.28125 7.765625 9.28125 18.015625 
L 9.28125 47.703125 
L 2.6875 47.703125 
L 2.6875 54.6875 
L 9.28125 54.6875 
L 9.28125 70.21875 
z
" id="DejaVuSans-116"/>
      <path d="M 56.203125 29.59375 
L 56.203125 25.203125 
L 14.890625 25.203125 
Q 15.484375 15.921875 20.484375 11.0625 
Q 25.484375 6.203125 34.421875 6.203125 
Q 39.59375 6.203125 44.453125 7.46875 
Q 49.3125 8.734375 54.109375 11.28125 
L 54.109375 2.78125 
Q 49.265625 0.734375 44.1875 -0.34375 
Q 39.109375 -1.421875 33.890625 -1.421875 
Q 20.796875 -1.421875 13.15625 6.1875 
Q 5.515625 13.8125 5.515625 26.8125 
Q 5.515625 40.234375 12.765625 48.109375 
Q 20.015625 56 32.328125 56 
Q 43.359375 56 49.78125 48.890625 
Q 56.203125 41.796875 56.203125 29.59375 
z
M 47.21875 32.234375 
Q 47.125 39.59375 43.09375 43.984375 
Q 39.0625 48.390625 32.421875 48.390625 
Q 24.90625 48.390625 20.390625 44.140625 
Q 15.875 39.890625 15.1875 32.171875 
z
" id="DejaVuSans-101"/>
      <path d="M 44.28125 53.078125 
L 44.28125 44.578125 
Q 40.484375 46.53125 36.375 47.5 
Q 32.28125 48.484375 27.875 48.484375 
Q 21.1875 48.484375 17.84375 46.4375 
Q 14.5 44.390625 14.5 40.28125 
Q 14.5 37.15625 16.890625 35.375 
Q 19.28125 33.59375 26.515625 31.984375 
L 29.59375 31.296875 
Q 39.15625 29.25 43.1875 25.515625 
Q 47.21875 21.78125 47.21875 15.09375 
Q 47.21875 7.46875 41.1875 3.015625 
Q 35.15625 -1.421875 24.609375 -1.421875 
Q 20.21875 -1.421875 15.453125 -0.5625 
Q 10.6875 0.296875 5.421875 2 
L 5.421875 11.28125 
Q 10.40625 8.6875 15.234375 7.390625 
Q 20.0625 6.109375 24.8125 6.109375 
Q 31.15625 6.109375 34.5625 8.28125 
Q 37.984375 10.453125 37.984375 14.40625 
Q 37.984375 18.0625 35.515625 20.015625 
Q 33.0625 21.96875 24.703125 23.78125 
L 21.578125 24.515625 
Q 13.234375 26.265625 9.515625 29.90625 
Q 5.8125 33.546875 5.8125 39.890625 
Q 5.8125 47.609375 11.28125 51.796875 
Q 16.75 56 26.8125 56 
Q 31.78125 56 36.171875 55.265625 
Q 40.578125 54.546875 44.28125 53.078125 
z
" id="DejaVuSans-115"/>
     </defs>
     <g style="fill:#262626;" transform="translate(812.8 245.312344)scale(0.11 -0.11)">
      <use xlink:href="#DejaVuSans-116"/>
      <use x="39.208984" xlink:href="#DejaVuSans-101"/>
      <use x="100.732422" xlink:href="#DejaVuSans-115"/>
      <use x="152.832031" xlink:href="#DejaVuSans-116"/>
     </g>
    </g>
   </g>
  </g>
 </g>
 <defs>
  <clipPath id="p5a3793cc87">
   <rect height="217.44" width="669.6" x="108" y="34.56"/>
  </clipPath>
 </defs>
</svg>
