<?xml version="1.0" encoding="utf-8" standalone="no"?>
<!DOCTYPE svg PUBLIC "-//W3C//DTD SVG 1.1//EN"
  "http://www.w3.org/Graphics/SVG/1.1/DTD/svg11.dtd">
<!-- Created with matplotlib (https://matplotlib.org/) -->
<svg height="288pt" version="1.1" viewBox="0 0 864 288" width="864pt" xmlns="http://www.w3.org/2000/svg" xmlns:xlink="http://www.w3.org/1999/xlink">
 <defs>
  <style type="text/css">
*{stroke-linecap:butt;stroke-linejoin:round;}
  </style>
 </defs>
 <g id="figure_1">
  <g id="patch_1">
   <path d="M 0 288 
L 864 288 
L 864 0 
L 0 0 
z
" style="fill:#ffffff;"/>
  </g>
  <g id="axes_1">
   <g id="patch_2">
    <path d="M 108 252 
L 777.6 252 
L 777.6 34.56 
L 108 34.56 
z
" style="fill:#ffffff;"/>
   </g>
   <g id="matplotlib.axis_1">
    <g id="xtick_1">
     <g id="text_1">
      <!-- 1 -->
      <defs>
       <path d="M 12.40625 8.296875 
L 28.515625 8.296875 
L 28.515625 63.921875 
L 10.984375 60.40625 
L 10.984375 69.390625 
L 28.421875 72.90625 
L 38.28125 72.90625 
L 38.28125 8.296875 
L 54.390625 8.296875 
L 54.390625 0 
L 12.40625 0 
z
" id="DejaVuSans-49"/>
      </defs>
      <g style="fill:#262626;" transform="translate(439.300625 269.858281)scale(0.11 -0.11)">
       <use xlink:href="#DejaVuSans-49"/>
      </g>
     </g>
    </g>
    <g id="text_2">
     <!-- ID -->
     <defs>
      <path d="M 9.8125 72.90625 
L 19.671875 72.90625 
L 19.671875 0 
L 9.8125 0 
z
" id="DejaVuSans-73"/>
      <path d="M 19.671875 64.796875 
L 19.671875 8.109375 
L 31.59375 8.109375 
Q 46.6875 8.109375 53.6875 14.9375 
Q 60.6875 21.78125 60.6875 36.53125 
Q 60.6875 51.171875 53.6875 57.984375 
Q 46.6875 64.796875 31.59375 64.796875 
z
M 9.8125 72.90625 
L 30.078125 72.90625 
Q 51.265625 72.90625 61.171875 64.09375 
Q 71.09375 55.28125 71.09375 36.53125 
Q 71.09375 17.671875 61.125 8.828125 
Q 51.171875 0 30.078125 0 
L 9.8125 0 
z
" id="DejaVuSans-68"/>
     </defs>
     <g style="fill:#262626;" transform="translate(436.41 285.264063)scale(0.12 -0.12)">
      <use xlink:href="#DejaVuSans-73"/>
      <use x="29.492188" xlink:href="#DejaVuSans-68"/>
     </g>
    </g>
   </g>
   <g id="matplotlib.axis_2">
    <g id="ytick_1">
     <g id="line2d_1">
      <path clip-path="url(#p782f245f7b)" d="M 108 232.232727 
L 777.6 232.232727 
" style="fill:none;stroke:#cccccc;stroke-linecap:round;"/>
     </g>
     <g id="text_3">
      <!-- 0 -->
      <defs>
       <path d="M 31.78125 66.40625 
Q 24.171875 66.40625 20.328125 58.90625 
Q 16.5 51.421875 16.5 36.375 
Q 16.5 21.390625 20.328125 13.890625 
Q 24.171875 6.390625 31.78125 6.390625 
Q 39.453125 6.390625 43.28125 13.890625 
Q 47.125 21.390625 47.125 36.375 
Q 47.125 51.421875 43.28125 58.90625 
Q 39.453125 66.40625 31.78125 66.40625 
z
M 31.78125 74.21875 
Q 44.046875 74.21875 50.515625 64.515625 
Q 56.984375 54.828125 56.984375 36.375 
Q 56.984375 17.96875 50.515625 8.265625 
Q 44.046875 -1.421875 31.78125 -1.421875 
Q 19.53125 -1.421875 13.0625 8.265625 
Q 6.59375 17.96875 6.59375 36.375 
Q 6.59375 54.828125 13.0625 64.515625 
Q 19.53125 74.21875 31.78125 74.21875 
z
" id="DejaVuSans-48"/>
      </defs>
      <g style="fill:#262626;" transform="translate(91.50125 236.411868)scale(0.11 -0.11)">
       <use xlink:href="#DejaVuSans-48"/>
      </g>
     </g>
    </g>
    <g id="ytick_2">
     <g id="line2d_2">
      <path clip-path="url(#p782f245f7b)" d="M 108 192.698182 
L 777.6 192.698182 
" style="fill:none;stroke:#cccccc;stroke-linecap:round;"/>
     </g>
     <g id="text_4">
      <!-- 2 -->
      <defs>
       <path d="M 19.1875 8.296875 
L 53.609375 8.296875 
L 53.609375 0 
L 7.328125 0 
L 7.328125 8.296875 
Q 12.9375 14.109375 22.625 23.890625 
Q 32.328125 33.6875 34.8125 36.53125 
Q 39.546875 41.84375 41.421875 45.53125 
Q 43.3125 49.21875 43.3125 52.78125 
Q 43.3125 58.59375 39.234375 62.25 
Q 35.15625 65.921875 28.609375 65.921875 
Q 23.96875 65.921875 18.8125 64.3125 
Q 13.671875 62.703125 7.8125 59.421875 
L 7.8125 69.390625 
Q 13.765625 71.78125 18.9375 73 
Q 24.125 74.21875 28.421875 74.21875 
Q 39.75 74.21875 46.484375 68.546875 
Q 53.21875 62.890625 53.21875 53.421875 
Q 53.21875 48.921875 51.53125 44.890625 
Q 49.859375 40.875 45.40625 35.40625 
Q 44.1875 33.984375 37.640625 27.21875 
Q 31.109375 20.453125 19.1875 8.296875 
z
" id="DejaVuSans-50"/>
      </defs>
      <g style="fill:#262626;" transform="translate(91.50125 196.877322)scale(0.11 -0.11)">
       <use xlink:href="#DejaVuSans-50"/>
      </g>
     </g>
    </g>
    <g id="ytick_3">
     <g id="line2d_3">
      <path clip-path="url(#p782f245f7b)" d="M 108 153.163636 
L 777.6 153.163636 
" style="fill:none;stroke:#cccccc;stroke-linecap:round;"/>
     </g>
     <g id="text_5">
      <!-- 4 -->
      <defs>
       <path d="M 37.796875 64.3125 
L 12.890625 25.390625 
L 37.796875 25.390625 
z
M 35.203125 72.90625 
L 47.609375 72.90625 
L 47.609375 25.390625 
L 58.015625 25.390625 
L 58.015625 17.1875 
L 47.609375 17.1875 
L 47.609375 0 
L 37.796875 0 
L 37.796875 17.1875 
L 4.890625 17.1875 
L 4.890625 26.703125 
z
" id="DejaVuSans-52"/>
      </defs>
      <g style="fill:#262626;" transform="translate(91.50125 157.342777)scale(0.11 -0.11)">
       <use xlink:href="#DejaVuSans-52"/>
      </g>
     </g>
    </g>
    <g id="ytick_4">
     <g id="line2d_4">
      <path clip-path="url(#p782f245f7b)" d="M 108 113.629091 
L 777.6 113.629091 
" style="fill:none;stroke:#cccccc;stroke-linecap:round;"/>
     </g>
     <g id="text_6">
      <!-- 6 -->
      <defs>
       <path d="M 33.015625 40.375 
Q 26.375 40.375 22.484375 35.828125 
Q 18.609375 31.296875 18.609375 23.390625 
Q 18.609375 15.53125 22.484375 10.953125 
Q 26.375 6.390625 33.015625 6.390625 
Q 39.65625 6.390625 43.53125 10.953125 
Q 47.40625 15.53125 47.40625 23.390625 
Q 47.40625 31.296875 43.53125 35.828125 
Q 39.65625 40.375 33.015625 40.375 
z
M 52.59375 71.296875 
L 52.59375 62.3125 
Q 48.875 64.0625 45.09375 64.984375 
Q 41.3125 65.921875 37.59375 65.921875 
Q 27.828125 65.921875 22.671875 59.328125 
Q 17.53125 52.734375 16.796875 39.40625 
Q 19.671875 43.65625 24.015625 45.921875 
Q 28.375 48.1875 33.59375 48.1875 
Q 44.578125 48.1875 50.953125 41.515625 
Q 57.328125 34.859375 57.328125 23.390625 
Q 57.328125 12.15625 50.6875 5.359375 
Q 44.046875 -1.421875 33.015625 -1.421875 
Q 20.359375 -1.421875 13.671875 8.265625 
Q 6.984375 17.96875 6.984375 36.375 
Q 6.984375 53.65625 15.1875 63.9375 
Q 23.390625 74.21875 37.203125 74.21875 
Q 40.921875 74.21875 44.703125 73.484375 
Q 48.484375 72.75 52.59375 71.296875 
z
" id="DejaVuSans-54"/>
      </defs>
      <g style="fill:#262626;" transform="translate(91.50125 117.808232)scale(0.11 -0.11)">
       <use xlink:href="#DejaVuSans-54"/>
      </g>
     </g>
    </g>
    <g id="ytick_5">
     <g id="line2d_5">
      <path clip-path="url(#p782f245f7b)" d="M 108 74.094545 
L 777.6 74.094545 
" style="fill:none;stroke:#cccccc;stroke-linecap:round;"/>
     </g>
     <g id="text_7">
      <!-- 8 -->
      <defs>
       <path d="M 31.78125 34.625 
Q 24.75 34.625 20.71875 30.859375 
Q 16.703125 27.09375 16.703125 20.515625 
Q 16.703125 13.921875 20.71875 10.15625 
Q 24.75 6.390625 31.78125 6.390625 
Q 38.8125 6.390625 42.859375 10.171875 
Q 46.921875 13.96875 46.921875 20.515625 
Q 46.921875 27.09375 42.890625 30.859375 
Q 38.875 34.625 31.78125 34.625 
z
M 21.921875 38.8125 
Q 15.578125 40.375 12.03125 44.71875 
Q 8.5 49.078125 8.5 55.328125 
Q 8.5 64.0625 14.71875 69.140625 
Q 20.953125 74.21875 31.78125 74.21875 
Q 42.671875 74.21875 48.875 69.140625 
Q 55.078125 64.0625 55.078125 55.328125 
Q 55.078125 49.078125 51.53125 44.71875 
Q 48 40.375 41.703125 38.8125 
Q 48.828125 37.15625 52.796875 32.3125 
Q 56.78125 27.484375 56.78125 20.515625 
Q 56.78125 9.90625 50.3125 4.234375 
Q 43.84375 -1.421875 31.78125 -1.421875 
Q 19.734375 -1.421875 13.25 4.234375 
Q 6.78125 9.90625 6.78125 20.515625 
Q 6.78125 27.484375 10.78125 32.3125 
Q 14.796875 37.15625 21.921875 38.8125 
z
M 18.3125 54.390625 
Q 18.3125 48.734375 21.84375 45.5625 
Q 25.390625 42.390625 31.78125 42.390625 
Q 38.140625 42.390625 41.71875 45.5625 
Q 45.3125 48.734375 45.3125 54.390625 
Q 45.3125 60.0625 41.71875 63.234375 
Q 38.140625 66.40625 31.78125 66.40625 
Q 25.390625 66.40625 21.84375 63.234375 
Q 18.3125 60.0625 18.3125 54.390625 
z
" id="DejaVuSans-56"/>
      </defs>
      <g style="fill:#262626;" transform="translate(91.50125 78.273686)scale(0.11 -0.11)">
       <use xlink:href="#DejaVuSans-56"/>
      </g>
     </g>
    </g>
    <g id="ytick_6">
     <g id="line2d_6">
      <path clip-path="url(#p782f245f7b)" d="M 108 34.56 
L 777.6 34.56 
" style="fill:none;stroke:#cccccc;stroke-linecap:round;"/>
     </g>
     <g id="text_8">
      <!-- 10 -->
      <g style="fill:#262626;" transform="translate(84.5025 38.739141)scale(0.11 -0.11)">
       <use xlink:href="#DejaVuSans-49"/>
       <use x="63.623047" xlink:href="#DejaVuSans-48"/>
      </g>
     </g>
    </g>
    <g id="text_9">
     <!-- MAED -->
     <defs>
      <path d="M 9.8125 72.90625 
L 24.515625 72.90625 
L 43.109375 23.296875 
L 61.8125 72.90625 
L 76.515625 72.90625 
L 76.515625 0 
L 66.890625 0 
L 66.890625 64.015625 
L 48.09375 14.015625 
L 38.1875 14.015625 
L 19.390625 64.015625 
L 19.390625 0 
L 9.8125 0 
z
" id="DejaVuSans-77"/>
      <path d="M 34.1875 63.1875 
L 20.796875 26.90625 
L 47.609375 26.90625 
z
M 28.609375 72.90625 
L 39.796875 72.90625 
L 67.578125 0 
L 57.328125 0 
L 50.6875 18.703125 
L 17.828125 18.703125 
L 11.1875 0 
L 0.78125 0 
z
" id="DejaVuSans-65"/>
      <path d="M 9.8125 72.90625 
L 55.90625 72.90625 
L 55.90625 64.59375 
L 19.671875 64.59375 
L 19.671875 43.015625 
L 54.390625 43.015625 
L 54.390625 34.71875 
L 19.671875 34.71875 
L 19.671875 8.296875 
L 56.78125 8.296875 
L 56.78125 0 
L 9.8125 0 
z
" id="DejaVuSans-69"/>
     </defs>
     <g style="fill:#262626;" transform="translate(78.006875 160.9725)rotate(-90)scale(0.12 -0.12)">
      <use xlink:href="#DejaVuSans-77"/>
      <use x="86.279297" xlink:href="#DejaVuSans-65"/>
      <use x="154.6875" xlink:href="#DejaVuSans-69"/>
      <use x="217.871094" xlink:href="#DejaVuSans-68"/>
     </g>
    </g>
   </g>
   <g id="PolyCollection_1">
    <defs>
     <path d="M 442.8 -100.061309 
L 313.667099 -100.061309 
L 304.031233 -100.37121 
L 294.282008 -100.681112 
L 284.485706 -100.991014 
L 274.712486 -101.300915 
L 265.03552 -101.610817 
L 255.530015 -101.920718 
L 246.272174 -102.23062 
L 237.338086 -102.540521 
L 228.802577 -102.850423 
L 220.738059 -103.160324 
L 213.213381 -103.470226 
L 206.292723 -103.780127 
L 200.034554 -104.090029 
L 194.490675 -104.39993 
L 189.705376 -104.709832 
L 185.714721 -105.019733 
L 182.545971 -105.329635 
L 180.217173 -105.639536 
L 178.736909 -105.949438 
L 178.104207 -106.259339 
L 178.308631 -106.569241 
L 179.330521 -106.879142 
L 181.141403 -107.189044 
L 183.704536 -107.498945 
L 186.975596 -107.808847 
L 190.903482 -108.118748 
L 195.431221 -108.42865 
L 200.496973 -108.738551 
L 206.035088 -109.048453 
L 211.977223 -109.358355 
L 218.253493 -109.668256 
L 224.793617 -109.978158 
L 231.528062 -110.288059 
L 238.389147 -110.597961 
L 245.312088 -110.907862 
L 252.235964 -111.217764 
L 259.104576 -111.527665 
L 265.867189 -111.837567 
L 272.479128 -112.147468 
L 278.902219 -112.45737 
L 285.10507 -112.767271 
L 291.063175 -113.077173 
L 296.758848 -113.387074 
L 302.180995 -113.696976 
L 307.324731 -114.006877 
L 312.190852 -114.316779 
L 316.785208 -114.62668 
L 321.117966 -114.936582 
L 325.20283 -115.246483 
L 329.056214 -115.556385 
L 332.696422 -115.866286 
L 336.142846 -116.176188 
L 339.415222 -116.486089 
L 342.532951 -116.795991 
L 345.514515 -117.105892 
L 348.376994 -117.415794 
L 351.135683 -117.725696 
L 353.803833 -118.035597 
L 356.392487 -118.345499 
L 358.910426 -118.6554 
L 361.364195 -118.965302 
L 363.758219 -119.275203 
L 366.09498 -119.585105 
L 368.37524 -119.895006 
L 370.598308 -120.204908 
L 372.762333 -120.514809 
L 374.864601 -120.824711 
L 376.90184 -121.134612 
L 378.870521 -121.444514 
L 380.767134 -121.754415 
L 382.588453 -122.064317 
L 384.331768 -122.374218 
L 385.995093 -122.68412 
L 387.577331 -122.994021 
L 389.078414 -123.303923 
L 390.499397 -123.613824 
L 391.842517 -123.923726 
L 393.111213 -124.233627 
L 394.310107 -124.543529 
L 395.444946 -124.85343 
L 396.522514 -125.163332 
L 397.550503 -125.473233 
L 398.537364 -125.783135 
L 399.492127 -126.093037 
L 400.424202 -126.402938 
L 401.343168 -126.71284 
L 402.258548 -127.022741 
L 403.179587 -127.332643 
L 404.115029 -127.642544 
L 405.072902 -127.952446 
L 406.060323 -128.262347 
L 407.083315 -128.572249 
L 408.146663 -128.88215 
L 409.253783 -129.192052 
L 410.406642 -129.501953 
L 411.605702 -129.811855 
L 412.849912 -130.121756 
L 414.136738 -130.431658 
L 415.462225 -130.741559 
L 442.8 -130.741559 
L 442.8 -130.741559 
L 442.8 -130.431658 
L 442.8 -130.121756 
L 442.8 -129.811855 
L 442.8 -129.501953 
L 442.8 -129.192052 
L 442.8 -128.88215 
L 442.8 -128.572249 
L 442.8 -128.262347 
L 442.8 -127.952446 
L 442.8 -127.642544 
L 442.8 -127.332643 
L 442.8 -127.022741 
L 442.8 -126.71284 
L 442.8 -126.402938 
L 442.8 -126.093037 
L 442.8 -125.783135 
L 442.8 -125.473233 
L 442.8 -125.163332 
L 442.8 -124.85343 
L 442.8 -124.543529 
L 442.8 -124.233627 
L 442.8 -123.923726 
L 442.8 -123.613824 
L 442.8 -123.303923 
L 442.8 -122.994021 
L 442.8 -122.68412 
L 442.8 -122.374218 
L 442.8 -122.064317 
L 442.8 -121.754415 
L 442.8 -121.444514 
L 442.8 -121.134612 
L 442.8 -120.824711 
L 442.8 -120.514809 
L 442.8 -120.204908 
L 442.8 -119.895006 
L 442.8 -119.585105 
L 442.8 -119.275203 
L 442.8 -118.965302 
L 442.8 -118.6554 
L 442.8 -118.345499 
L 442.8 -118.035597 
L 442.8 -117.725696 
L 442.8 -117.415794 
L 442.8 -117.105892 
L 442.8 -116.795991 
L 442.8 -116.486089 
L 442.8 -116.176188 
L 442.8 -115.866286 
L 442.8 -115.556385 
L 442.8 -115.246483 
L 442.8 -114.936582 
L 442.8 -114.62668 
L 442.8 -114.316779 
L 442.8 -114.006877 
L 442.8 -113.696976 
L 442.8 -113.387074 
L 442.8 -113.077173 
L 442.8 -112.767271 
L 442.8 -112.45737 
L 442.8 -112.147468 
L 442.8 -111.837567 
L 442.8 -111.527665 
L 442.8 -111.217764 
L 442.8 -110.907862 
L 442.8 -110.597961 
L 442.8 -110.288059 
L 442.8 -109.978158 
L 442.8 -109.668256 
L 442.8 -109.358355 
L 442.8 -109.048453 
L 442.8 -108.738551 
L 442.8 -108.42865 
L 442.8 -108.118748 
L 442.8 -107.808847 
L 442.8 -107.498945 
L 442.8 -107.189044 
L 442.8 -106.879142 
L 442.8 -106.569241 
L 442.8 -106.259339 
L 442.8 -105.949438 
L 442.8 -105.639536 
L 442.8 -105.329635 
L 442.8 -105.019733 
L 442.8 -104.709832 
L 442.8 -104.39993 
L 442.8 -104.090029 
L 442.8 -103.780127 
L 442.8 -103.470226 
L 442.8 -103.160324 
L 442.8 -102.850423 
L 442.8 -102.540521 
L 442.8 -102.23062 
L 442.8 -101.920718 
L 442.8 -101.610817 
L 442.8 -101.300915 
L 442.8 -100.991014 
L 442.8 -100.681112 
L 442.8 -100.37121 
L 442.8 -100.061309 
z
" id="m1531e03f05" style="stroke:#737373;stroke-width:1.5;"/>
    </defs>
    <g clip-path="url(#p782f245f7b)">
     <use style="fill:#abc9ea;stroke:#737373;stroke-width:1.5;" x="0" xlink:href="#m1531e03f05" y="288"/>
    </g>
   </g>
   <g id="PolyCollection_2">
    <defs>
     <path d="M 461.320921 -89.264782 
L 442.8 -89.264782 
L 442.8 -89.806043 
L 442.8 -90.347305 
L 442.8 -90.888566 
L 442.8 -91.429828 
L 442.8 -91.971089 
L 442.8 -92.512351 
L 442.8 -93.053612 
L 442.8 -93.594873 
L 442.8 -94.136135 
L 442.8 -94.677396 
L 442.8 -95.218658 
L 442.8 -95.759919 
L 442.8 -96.301181 
L 442.8 -96.842442 
L 442.8 -97.383703 
L 442.8 -97.924965 
L 442.8 -98.466226 
L 442.8 -99.007488 
L 442.8 -99.548749 
L 442.8 -100.090011 
L 442.8 -100.631272 
L 442.8 -101.172533 
L 442.8 -101.713795 
L 442.8 -102.255056 
L 442.8 -102.796318 
L 442.8 -103.337579 
L 442.8 -103.878841 
L 442.8 -104.420102 
L 442.8 -104.961363 
L 442.8 -105.502625 
L 442.8 -106.043886 
L 442.8 -106.585148 
L 442.8 -107.126409 
L 442.8 -107.667671 
L 442.8 -108.208932 
L 442.8 -108.750193 
L 442.8 -109.291455 
L 442.8 -109.832716 
L 442.8 -110.373978 
L 442.8 -110.915239 
L 442.8 -111.456501 
L 442.8 -111.997762 
L 442.8 -112.539023 
L 442.8 -113.080285 
L 442.8 -113.621546 
L 442.8 -114.162808 
L 442.8 -114.704069 
L 442.8 -115.245331 
L 442.8 -115.786592 
L 442.8 -116.327853 
L 442.8 -116.869115 
L 442.8 -117.410376 
L 442.8 -117.951638 
L 442.8 -118.492899 
L 442.8 -119.034161 
L 442.8 -119.575422 
L 442.8 -120.116683 
L 442.8 -120.657945 
L 442.8 -121.199206 
L 442.8 -121.740468 
L 442.8 -122.281729 
L 442.8 -122.822991 
L 442.8 -123.364252 
L 442.8 -123.905513 
L 442.8 -124.446775 
L 442.8 -124.988036 
L 442.8 -125.529298 
L 442.8 -126.070559 
L 442.8 -126.61182 
L 442.8 -127.153082 
L 442.8 -127.694343 
L 442.8 -128.235605 
L 442.8 -128.776866 
L 442.8 -129.318128 
L 442.8 -129.859389 
L 442.8 -130.40065 
L 442.8 -130.941912 
L 442.8 -131.483173 
L 442.8 -132.024435 
L 442.8 -132.565696 
L 442.8 -133.106958 
L 442.8 -133.648219 
L 442.8 -134.18948 
L 442.8 -134.730742 
L 442.8 -135.272003 
L 442.8 -135.813265 
L 442.8 -136.354526 
L 442.8 -136.895788 
L 442.8 -137.437049 
L 442.8 -137.97831 
L 442.8 -138.519572 
L 442.8 -139.060833 
L 442.8 -139.602095 
L 442.8 -140.143356 
L 442.8 -140.684618 
L 442.8 -141.225879 
L 442.8 -141.76714 
L 442.8 -142.308402 
L 442.8 -142.849663 
L 454.739974 -142.849663 
L 454.739974 -142.849663 
L 454.644464 -142.308402 
L 454.358518 -141.76714 
L 453.897193 -141.225879 
L 453.284084 -140.684618 
L 452.549685 -140.143356 
L 451.729333 -139.602095 
L 450.860975 -139.060833 
L 449.982971 -138.519572 
L 449.132139 -137.97831 
L 448.342182 -137.437049 
L 447.642567 -136.895788 
L 447.057856 -136.354526 
L 446.607428 -135.813265 
L 446.305488 -135.272003 
L 446.16123 -134.730742 
L 446.17903 -134.18948 
L 446.358584 -133.648219 
L 446.694939 -133.106958 
L 447.178436 -132.565696 
L 447.794631 -132.024435 
L 448.52431 -131.483173 
L 449.343738 -130.941912 
L 450.225293 -130.40065 
L 451.138591 -129.859389 
L 452.052181 -129.318128 
L 452.935801 -128.776866 
L 453.763119 -128.235605 
L 454.514804 -127.694343 
L 455.181706 -127.153082 
L 455.76788 -126.61182 
L 456.293201 -126.070559 
L 456.795288 -125.529298 
L 457.330563 -124.988036 
L 457.97428 -124.446775 
L 458.819468 -123.905513 
L 459.974804 -123.364252 
L 461.561488 -122.822991 
L 463.709246 -122.281729 
L 466.551607 -121.740468 
L 470.220627 -121.199206 
L 474.841207 -120.657945 
L 480.525151 -120.116683 
L 487.365121 -119.575422 
L 495.428629 -119.034161 
L 504.75224 -118.492899 
L 515.33624 -117.951638 
L 527.140019 -117.410376 
L 540.07855 -116.869115 
L 554.020334 -116.327853 
L 568.787242 -115.786592 
L 584.156622 -115.245331 
L 599.865936 -114.704069 
L 615.620043 -114.162808 
L 631.100993 -113.621546 
L 645.97996 -113.080285 
L 659.93063 -112.539023 
L 672.643192 -111.997762 
L 683.837885 -111.456501 
L 693.277036 -110.915239 
L 700.77462 -110.373978 
L 706.2026 -109.832716 
L 709.493618 -109.291455 
L 710.64 -108.750193 
L 709.689426 -108.208932 
L 706.73795 -107.667671 
L 701.921273 -107.126409 
L 695.405288 -106.585148 
L 687.376835 -106.043886 
L 678.035457 -105.502625 
L 667.586663 -104.961363 
L 656.236872 -104.420102 
L 644.189964 -103.878841 
L 631.645075 -103.337579 
L 618.795154 -102.796318 
L 605.825793 -102.255056 
L 592.913858 -101.713795 
L 580.225667 -101.172533 
L 567.914605 -100.631272 
L 556.118283 -100.090011 
L 544.955527 -99.548749 
L 534.52353 -99.007488 
L 524.895588 -98.466226 
L 516.119721 -97.924965 
L 508.218428 -97.383703 
L 501.189633 -96.842442 
L 495.008772 -96.301181 
L 489.631811 -95.759919 
L 484.998921 -95.218658 
L 481.038493 -94.677396 
L 477.671189 -94.136135 
L 474.813779 -93.594873 
L 472.38259 -93.053612 
L 470.296474 -92.512351 
L 468.479264 -91.971089 
L 466.861741 -91.429828 
L 465.383153 -90.888566 
L 463.99232 -90.347305 
L 462.648344 -89.806043 
L 461.320921 -89.264782 
z
" id="me61f888eb9" style="stroke:#737373;stroke-width:1.5;"/>
    </defs>
    <g clip-path="url(#p782f245f7b)">
     <use style="fill:#efb792;stroke:#737373;stroke-width:1.5;" x="0" xlink:href="#me61f888eb9" y="288"/>
    </g>
   </g>
   <g id="patch_3">
    <path clip-path="url(#p782f245f7b)" d="M 442.8 232.232727 
L 442.8 232.232727 
L 442.8 232.232727 
L 442.8 232.232727 
z
" style="fill:#abc9ea;stroke:#737373;stroke-linejoin:miter;stroke-width:0.75;"/>
   </g>
   <g id="patch_4">
    <path clip-path="url(#p782f245f7b)" d="M 442.8 232.232727 
L 442.8 232.232727 
L 442.8 232.232727 
L 442.8 232.232727 
z
" style="fill:#efb792;stroke:#737373;stroke-linejoin:miter;stroke-width:0.75;"/>
   </g>
   <g id="line2d_7">
    <path clip-path="url(#p782f245f7b)" d="M 442.8 193.315176 
L 442.8 166.830965 
" style="fill:none;stroke:#737373;stroke-linecap:round;stroke-width:1.5;"/>
   </g>
   <g id="line2d_8">
    <path clip-path="url(#p782f245f7b)" d="M 442.8 183.745427 
L 442.8 176.191714 
" style="fill:none;stroke:#737373;stroke-linecap:round;stroke-width:4.5;"/>
   </g>
   <g id="patch_5">
    <path d="M 108 252 
L 777.6 252 
" style="fill:none;stroke:#cccccc;stroke-linecap:square;stroke-linejoin:miter;stroke-width:1.25;"/>
   </g>
   <g id="PathCollection_1">
    <defs>
     <path d="M 0 1.5 
C 0.397805 1.5 0.77937 1.341951 1.06066 1.06066 
C 1.341951 0.77937 1.5 0.397805 1.5 0 
C 1.5 -0.397805 1.341951 -0.77937 1.06066 -1.06066 
C 0.77937 -1.341951 0.397805 -1.5 0 -1.5 
C -0.397805 -1.5 -0.77937 -1.341951 -1.06066 -1.06066 
C -1.341951 -0.77937 -1.5 -0.397805 -1.5 0 
C -1.5 0.397805 -1.341951 0.77937 -1.06066 1.06066 
C -0.77937 1.341951 -0.397805 1.5 0 1.5 
z
" id="ma0dde993ed" style="stroke:#737373;"/>
    </defs>
    <g clip-path="url(#p782f245f7b)">
     <use style="fill:#ffffff;stroke:#737373;" x="442.8" xlink:href="#ma0dde993ed" y="179.582465"/>
    </g>
   </g>
   <g id="legend_1">
    <g id="patch_6">
     <path d="M 713.576563 91.023563 
L 769.9 91.023563 
Q 772.1 91.023563 772.1 88.823563 
L 772.1 42.26 
Q 772.1 40.06 769.9 40.06 
L 713.576563 40.06 
Q 711.376562 40.06 711.376562 42.26 
L 711.376562 88.823563 
Q 711.376562 91.023563 713.576563 91.023563 
z
" style="fill:#ffffff;opacity:0.8;stroke:#cccccc;stroke-linejoin:miter;"/>
    </g>
    <g id="text_10">
     <!-- Set -->
     <defs>
      <path d="M 53.515625 70.515625 
L 53.515625 60.890625 
Q 47.90625 63.578125 42.921875 64.890625 
Q 37.9375 66.21875 33.296875 66.21875 
Q 25.25 66.21875 20.875 63.09375 
Q 16.5 59.96875 16.5 54.203125 
Q 16.5 49.359375 19.40625 46.890625 
Q 22.3125 44.4375 30.421875 42.921875 
L 36.375 41.703125 
Q 47.40625 39.59375 52.65625 34.296875 
Q 57.90625 29 57.90625 20.125 
Q 57.90625 9.515625 50.796875 4.046875 
Q 43.703125 -1.421875 29.984375 -1.421875 
Q 24.8125 -1.421875 18.96875 -0.25 
Q 13.140625 0.921875 6.890625 3.21875 
L 6.890625 13.375 
Q 12.890625 10.015625 18.65625 8.296875 
Q 24.421875 6.59375 29.984375 6.59375 
Q 38.421875 6.59375 43.015625 9.90625 
Q 47.609375 13.234375 47.609375 19.390625 
Q 47.609375 24.75 44.3125 27.78125 
Q 41.015625 30.8125 33.5 32.328125 
L 27.484375 33.5 
Q 16.453125 35.6875 11.515625 40.375 
Q 6.59375 45.0625 6.59375 53.421875 
Q 6.59375 63.09375 13.40625 68.65625 
Q 20.21875 74.21875 32.171875 74.21875 
Q 37.3125 74.21875 42.625 73.28125 
Q 47.953125 72.359375 53.515625 70.515625 
z
" id="DejaVuSans-83"/>
      <path d="M 56.203125 29.59375 
L 56.203125 25.203125 
L 14.890625 25.203125 
Q 15.484375 15.921875 20.484375 11.0625 
Q 25.484375 6.203125 34.421875 6.203125 
Q 39.59375 6.203125 44.453125 7.46875 
Q 49.3125 8.734375 54.109375 11.28125 
L 54.109375 2.78125 
Q 49.265625 0.734375 44.1875 -0.34375 
Q 39.109375 -1.421875 33.890625 -1.421875 
Q 20.796875 -1.421875 13.15625 6.1875 
Q 5.515625 13.8125 5.515625 26.8125 
Q 5.515625 40.234375 12.765625 48.109375 
Q 20.015625 56 32.328125 56 
Q 43.359375 56 49.78125 48.890625 
Q 56.203125 41.796875 56.203125 29.59375 
z
M 47.21875 32.234375 
Q 47.125 39.59375 43.09375 43.984375 
Q 39.0625 48.390625 32.421875 48.390625 
Q 24.90625 48.390625 20.390625 44.140625 
Q 15.875 39.890625 15.1875 32.171875 
z
" id="DejaVuSans-101"/>
      <path d="M 18.3125 70.21875 
L 18.3125 54.6875 
L 36.8125 54.6875 
L 36.8125 47.703125 
L 18.3125 47.703125 
L 18.3125 18.015625 
Q 18.3125 11.328125 20.140625 9.421875 
Q 21.96875 7.515625 27.59375 7.515625 
L 36.8125 7.515625 
L 36.8125 0 
L 27.59375 0 
Q 17.1875 0 13.234375 3.875 
Q 9.28125 7.765625 9.28125 18.015625 
L 9.28125 47.703125 
L 2.6875 47.703125 
L 2.6875 54.6875 
L 9.28125 54.6875 
L 9.28125 70.21875 
z
" id="DejaVuSans-116"/>
     </defs>
     <g style="fill:#262626;" transform="translate(733.363125 52.210406)scale(0.102 -0.102)">
      <use xlink:href="#DejaVuSans-83"/>
      <use x="63.476562" xlink:href="#DejaVuSans-101"/>
      <use x="125" xlink:href="#DejaVuSans-116"/>
     </g>
    </g>
    <g id="patch_7">
     <path d="M 715.776562 68.189969 
L 737.776562 68.189969 
L 737.776562 60.489969 
L 715.776562 60.489969 
z
" style="fill:#abc9ea;stroke:#737373;stroke-linejoin:miter;stroke-width:0.75;"/>
    </g>
    <g id="text_11">
     <!-- val -->
     <defs>
      <path d="M 2.984375 54.6875 
L 12.5 54.6875 
L 29.59375 8.796875 
L 46.6875 54.6875 
L 56.203125 54.6875 
L 35.6875 0 
L 23.484375 0 
z
" id="DejaVuSans-118"/>
      <path d="M 34.28125 27.484375 
Q 23.390625 27.484375 19.1875 25 
Q 14.984375 22.515625 14.984375 16.5 
Q 14.984375 11.71875 18.140625 8.90625 
Q 21.296875 6.109375 26.703125 6.109375 
Q 34.1875 6.109375 38.703125 11.40625 
Q 43.21875 16.703125 43.21875 25.484375 
L 43.21875 27.484375 
z
M 52.203125 31.203125 
L 52.203125 0 
L 43.21875 0 
L 43.21875 8.296875 
Q 40.140625 3.328125 35.546875 0.953125 
Q 30.953125 -1.421875 24.3125 -1.421875 
Q 15.921875 -1.421875 10.953125 3.296875 
Q 6 8.015625 6 15.921875 
Q 6 25.140625 12.171875 29.828125 
Q 18.359375 34.515625 30.609375 34.515625 
L 43.21875 34.515625 
L 43.21875 35.40625 
Q 43.21875 41.609375 39.140625 45 
Q 35.0625 48.390625 27.6875 48.390625 
Q 23 48.390625 18.546875 47.265625 
Q 14.109375 46.140625 10.015625 43.890625 
L 10.015625 52.203125 
Q 14.9375 54.109375 19.578125 55.046875 
Q 24.21875 56 28.609375 56 
Q 40.484375 56 46.34375 49.84375 
Q 52.203125 43.703125 52.203125 31.203125 
z
" id="DejaVuSans-97"/>
      <path d="M 9.421875 75.984375 
L 18.40625 75.984375 
L 18.40625 0 
L 9.421875 0 
z
" id="DejaVuSans-108"/>
     </defs>
     <g style="fill:#262626;" transform="translate(746.576562 68.189969)scale(0.11 -0.11)">
      <use xlink:href="#DejaVuSans-118"/>
      <use x="59.179688" xlink:href="#DejaVuSans-97"/>
      <use x="120.458984" xlink:href="#DejaVuSans-108"/>
     </g>
    </g>
    <g id="patch_8">
     <path d="M 715.776562 84.335906 
L 737.776562 84.335906 
L 737.776562 76.635906 
L 715.776562 76.635906 
z
" style="fill:#efb792;stroke:#737373;stroke-linejoin:miter;stroke-width:0.75;"/>
    </g>
    <g id="text_12">
     <!-- test -->
     <defs>
      <path d="M 44.28125 53.078125 
L 44.28125 44.578125 
Q 40.484375 46.53125 36.375 47.5 
Q 32.28125 48.484375 27.875 48.484375 
Q 21.1875 48.484375 17.84375 46.4375 
Q 14.5 44.390625 14.5 40.28125 
Q 14.5 37.15625 16.890625 35.375 
Q 19.28125 33.59375 26.515625 31.984375 
L 29.59375 31.296875 
Q 39.15625 29.25 43.1875 25.515625 
Q 47.21875 21.78125 47.21875 15.09375 
Q 47.21875 7.46875 41.1875 3.015625 
Q 35.15625 -1.421875 24.609375 -1.421875 
Q 20.21875 -1.421875 15.453125 -0.5625 
Q 10.6875 0.296875 5.421875 2 
L 5.421875 11.28125 
Q 10.40625 8.6875 15.234375 7.390625 
Q 20.0625 6.109375 24.8125 6.109375 
Q 31.15625 6.109375 34.5625 8.28125 
Q 37.984375 10.453125 37.984375 14.40625 
Q 37.984375 18.0625 35.515625 20.015625 
Q 33.0625 21.96875 24.703125 23.78125 
L 21.578125 24.515625 
Q 13.234375 26.265625 9.515625 29.90625 
Q 5.8125 33.546875 5.8125 39.890625 
Q 5.8125 47.609375 11.28125 51.796875 
Q 16.75 56 26.8125 56 
Q 31.78125 56 36.171875 55.265625 
Q 40.578125 54.546875 44.28125 53.078125 
z
" id="DejaVuSans-115"/>
     </defs>
     <g style="fill:#262626;" transform="translate(746.576562 84.335906)scale(0.11 -0.11)">
      <use xlink:href="#DejaVuSans-116"/>
      <use x="39.208984" xlink:href="#DejaVuSans-101"/>
      <use x="100.732422" xlink:href="#DejaVuSans-115"/>
      <use x="152.832031" xlink:href="#DejaVuSans-116"/>
     </g>
    </g>
   </g>
  </g>
 </g>
 <defs>
  <clipPath id="p782f245f7b">
   <rect height="217.44" width="669.6" x="108" y="34.56"/>
  </clipPath>
 </defs>
</svg>
