<?xml version="1.0" encoding="utf-8" standalone="no"?>
<!DOCTYPE svg PUBLIC "-//W3C//DTD SVG 1.1//EN"
  "http://www.w3.org/Graphics/SVG/1.1/DTD/svg11.dtd">
<!-- Created with matplotlib (https://matplotlib.org/) -->
<svg height="288pt" version="1.1" viewBox="0 0 864 288" width="864pt" xmlns="http://www.w3.org/2000/svg" xmlns:xlink="http://www.w3.org/1999/xlink">
 <defs>
  <style type="text/css">
*{stroke-linecap:butt;stroke-linejoin:round;}
  </style>
 </defs>
 <g id="figure_1">
  <g id="patch_1">
   <path d="M 0 288 
L 864 288 
L 864 0 
L 0 0 
z
" style="fill:#ffffff;"/>
  </g>
  <g id="axes_1">
   <g id="patch_2">
    <path d="M 108 252 
L 777.6 252 
L 777.6 34.56 
L 108 34.56 
z
" style="fill:#ffffff;"/>
   </g>
   <g id="matplotlib.axis_1">
    <g id="xtick_1">
     <g id="text_1">
      <!-- 1) LASTEN BS2 -->
      <defs>
       <path d="M 12.40625 8.296875 
L 28.515625 8.296875 
L 28.515625 63.921875 
L 10.984375 60.40625 
L 10.984375 69.390625 
L 28.421875 72.90625 
L 38.28125 72.90625 
L 38.28125 8.296875 
L 54.390625 8.296875 
L 54.390625 0 
L 12.40625 0 
z
" id="DejaVuSans-49"/>
       <path d="M 8.015625 75.875 
L 15.828125 75.875 
Q 23.140625 64.359375 26.78125 53.3125 
Q 30.421875 42.28125 30.421875 31.390625 
Q 30.421875 20.453125 26.78125 9.375 
Q 23.140625 -1.703125 15.828125 -13.1875 
L 8.015625 -13.1875 
Q 14.5 -2 17.703125 9.0625 
Q 20.90625 20.125 20.90625 31.390625 
Q 20.90625 42.671875 17.703125 53.65625 
Q 14.5 64.65625 8.015625 75.875 
z
" id="DejaVuSans-41"/>
       <path id="DejaVuSans-32"/>
       <path d="M 9.8125 72.90625 
L 19.671875 72.90625 
L 19.671875 8.296875 
L 55.171875 8.296875 
L 55.171875 0 
L 9.8125 0 
z
" id="DejaVuSans-76"/>
       <path d="M 34.1875 63.1875 
L 20.796875 26.90625 
L 47.609375 26.90625 
z
M 28.609375 72.90625 
L 39.796875 72.90625 
L 67.578125 0 
L 57.328125 0 
L 50.6875 18.703125 
L 17.828125 18.703125 
L 11.1875 0 
L 0.78125 0 
z
" id="DejaVuSans-65"/>
       <path d="M 53.515625 70.515625 
L 53.515625 60.890625 
Q 47.90625 63.578125 42.921875 64.890625 
Q 37.9375 66.21875 33.296875 66.21875 
Q 25.25 66.21875 20.875 63.09375 
Q 16.5 59.96875 16.5 54.203125 
Q 16.5 49.359375 19.40625 46.890625 
Q 22.3125 44.4375 30.421875 42.921875 
L 36.375 41.703125 
Q 47.40625 39.59375 52.65625 34.296875 
Q 57.90625 29 57.90625 20.125 
Q 57.90625 9.515625 50.796875 4.046875 
Q 43.703125 -1.421875 29.984375 -1.421875 
Q 24.8125 -1.421875 18.96875 -0.25 
Q 13.140625 0.921875 6.890625 3.21875 
L 6.890625 13.375 
Q 12.890625 10.015625 18.65625 8.296875 
Q 24.421875 6.59375 29.984375 6.59375 
Q 38.421875 6.59375 43.015625 9.90625 
Q 47.609375 13.234375 47.609375 19.390625 
Q 47.609375 24.75 44.3125 27.78125 
Q 41.015625 30.8125 33.5 32.328125 
L 27.484375 33.5 
Q 16.453125 35.6875 11.515625 40.375 
Q 6.59375 45.0625 6.59375 53.421875 
Q 6.59375 63.09375 13.40625 68.65625 
Q 20.21875 74.21875 32.171875 74.21875 
Q 37.3125 74.21875 42.625 73.28125 
Q 47.953125 72.359375 53.515625 70.515625 
z
" id="DejaVuSans-83"/>
       <path d="M -0.296875 72.90625 
L 61.375 72.90625 
L 61.375 64.59375 
L 35.5 64.59375 
L 35.5 0 
L 25.59375 0 
L 25.59375 64.59375 
L -0.296875 64.59375 
z
" id="DejaVuSans-84"/>
       <path d="M 9.8125 72.90625 
L 55.90625 72.90625 
L 55.90625 64.59375 
L 19.671875 64.59375 
L 19.671875 43.015625 
L 54.390625 43.015625 
L 54.390625 34.71875 
L 19.671875 34.71875 
L 19.671875 8.296875 
L 56.78125 8.296875 
L 56.78125 0 
L 9.8125 0 
z
" id="DejaVuSans-69"/>
       <path d="M 9.8125 72.90625 
L 23.09375 72.90625 
L 55.421875 11.921875 
L 55.421875 72.90625 
L 64.984375 72.90625 
L 64.984375 0 
L 51.703125 0 
L 19.390625 60.984375 
L 19.390625 0 
L 9.8125 0 
z
" id="DejaVuSans-78"/>
       <path d="M 19.671875 34.8125 
L 19.671875 8.109375 
L 35.5 8.109375 
Q 43.453125 8.109375 47.28125 11.40625 
Q 51.125 14.703125 51.125 21.484375 
Q 51.125 28.328125 47.28125 31.5625 
Q 43.453125 34.8125 35.5 34.8125 
z
M 19.671875 64.796875 
L 19.671875 42.828125 
L 34.28125 42.828125 
Q 41.5 42.828125 45.03125 45.53125 
Q 48.578125 48.25 48.578125 53.8125 
Q 48.578125 59.328125 45.03125 62.0625 
Q 41.5 64.796875 34.28125 64.796875 
z
M 9.8125 72.90625 
L 35.015625 72.90625 
Q 46.296875 72.90625 52.390625 68.21875 
Q 58.5 63.53125 58.5 54.890625 
Q 58.5 48.1875 55.375 44.234375 
Q 52.25 40.28125 46.1875 39.3125 
Q 53.46875 37.75 57.5 32.78125 
Q 61.53125 27.828125 61.53125 20.40625 
Q 61.53125 10.640625 54.890625 5.3125 
Q 48.25 0 35.984375 0 
L 9.8125 0 
z
" id="DejaVuSans-66"/>
       <path d="M 19.1875 8.296875 
L 53.609375 8.296875 
L 53.609375 0 
L 7.328125 0 
L 7.328125 8.296875 
Q 12.9375 14.109375 22.625 23.890625 
Q 32.328125 33.6875 34.8125 36.53125 
Q 39.546875 41.84375 41.421875 45.53125 
Q 43.3125 49.21875 43.3125 52.78125 
Q 43.3125 58.59375 39.234375 62.25 
Q 35.15625 65.921875 28.609375 65.921875 
Q 23.96875 65.921875 18.8125 64.3125 
Q 13.671875 62.703125 7.8125 59.421875 
L 7.8125 69.390625 
Q 13.765625 71.78125 18.9375 73 
Q 24.125 74.21875 28.421875 74.21875 
Q 39.75 74.21875 46.484375 68.546875 
Q 53.21875 62.890625 53.21875 53.421875 
Q 53.21875 48.921875 51.53125 44.890625 
Q 49.859375 40.875 45.40625 35.40625 
Q 44.1875 33.984375 37.640625 27.21875 
Q 31.109375 20.453125 19.1875 8.296875 
z
" id="DejaVuSans-50"/>
      </defs>
      <g style="fill:#262626;" transform="translate(133.785625 269.858281)scale(0.11 -0.11)">
       <use xlink:href="#DejaVuSans-49"/>
       <use x="63.623047" xlink:href="#DejaVuSans-41"/>
       <use x="102.636719" xlink:href="#DejaVuSans-32"/>
       <use x="134.423828" xlink:href="#DejaVuSans-76"/>
       <use x="190.167969" xlink:href="#DejaVuSans-65"/>
       <use x="258.576172" xlink:href="#DejaVuSans-83"/>
       <use x="322.052734" xlink:href="#DejaVuSans-84"/>
       <use x="383.136719" xlink:href="#DejaVuSans-69"/>
       <use x="446.320312" xlink:href="#DejaVuSans-78"/>
       <use x="521.125" xlink:href="#DejaVuSans-32"/>
       <use x="552.912109" xlink:href="#DejaVuSans-66"/>
       <use x="621.5" xlink:href="#DejaVuSans-83"/>
       <use x="684.976562" xlink:href="#DejaVuSans-50"/>
      </g>
     </g>
    </g>
    <g id="xtick_2">
     <g id="text_2">
      <!-- 2) LASTEN BS4 -->
      <defs>
       <path d="M 37.796875 64.3125 
L 12.890625 25.390625 
L 37.796875 25.390625 
z
M 35.203125 72.90625 
L 47.609375 72.90625 
L 47.609375 25.390625 
L 58.015625 25.390625 
L 58.015625 17.1875 
L 47.609375 17.1875 
L 47.609375 0 
L 37.796875 0 
L 37.796875 17.1875 
L 4.890625 17.1875 
L 4.890625 26.703125 
z
" id="DejaVuSans-52"/>
      </defs>
      <g style="fill:#262626;" transform="translate(267.705625 269.858281)scale(0.11 -0.11)">
       <use xlink:href="#DejaVuSans-50"/>
       <use x="63.623047" xlink:href="#DejaVuSans-41"/>
       <use x="102.636719" xlink:href="#DejaVuSans-32"/>
       <use x="134.423828" xlink:href="#DejaVuSans-76"/>
       <use x="190.167969" xlink:href="#DejaVuSans-65"/>
       <use x="258.576172" xlink:href="#DejaVuSans-83"/>
       <use x="322.052734" xlink:href="#DejaVuSans-84"/>
       <use x="383.136719" xlink:href="#DejaVuSans-69"/>
       <use x="446.320312" xlink:href="#DejaVuSans-78"/>
       <use x="521.125" xlink:href="#DejaVuSans-32"/>
       <use x="552.912109" xlink:href="#DejaVuSans-66"/>
       <use x="621.5" xlink:href="#DejaVuSans-83"/>
       <use x="684.976562" xlink:href="#DejaVuSans-52"/>
      </g>
     </g>
    </g>
    <g id="xtick_3">
     <g id="text_3">
      <!-- 3) LASTENS -->
      <defs>
       <path d="M 40.578125 39.3125 
Q 47.65625 37.796875 51.625 33 
Q 55.609375 28.21875 55.609375 21.1875 
Q 55.609375 10.40625 48.1875 4.484375 
Q 40.765625 -1.421875 27.09375 -1.421875 
Q 22.515625 -1.421875 17.65625 -0.515625 
Q 12.796875 0.390625 7.625 2.203125 
L 7.625 11.71875 
Q 11.71875 9.328125 16.59375 8.109375 
Q 21.484375 6.890625 26.8125 6.890625 
Q 36.078125 6.890625 40.9375 10.546875 
Q 45.796875 14.203125 45.796875 21.1875 
Q 45.796875 27.640625 41.28125 31.265625 
Q 36.765625 34.90625 28.71875 34.90625 
L 20.21875 34.90625 
L 20.21875 43.015625 
L 29.109375 43.015625 
Q 36.375 43.015625 40.234375 45.921875 
Q 44.09375 48.828125 44.09375 54.296875 
Q 44.09375 59.90625 40.109375 62.90625 
Q 36.140625 65.921875 28.71875 65.921875 
Q 24.65625 65.921875 20.015625 65.03125 
Q 15.375 64.15625 9.8125 62.3125 
L 9.8125 71.09375 
Q 15.4375 72.65625 20.34375 73.4375 
Q 25.25 74.21875 29.59375 74.21875 
Q 40.828125 74.21875 47.359375 69.109375 
Q 53.90625 64.015625 53.90625 55.328125 
Q 53.90625 49.265625 50.4375 45.09375 
Q 46.96875 40.921875 40.578125 39.3125 
z
" id="DejaVuSans-51"/>
      </defs>
      <g style="fill:#262626;" transform="translate(410.645625 269.858281)scale(0.11 -0.11)">
       <use xlink:href="#DejaVuSans-51"/>
       <use x="63.623047" xlink:href="#DejaVuSans-41"/>
       <use x="102.636719" xlink:href="#DejaVuSans-32"/>
       <use x="134.423828" xlink:href="#DejaVuSans-76"/>
       <use x="190.167969" xlink:href="#DejaVuSans-65"/>
       <use x="258.576172" xlink:href="#DejaVuSans-83"/>
       <use x="322.052734" xlink:href="#DejaVuSans-84"/>
       <use x="383.136719" xlink:href="#DejaVuSans-69"/>
       <use x="446.320312" xlink:href="#DejaVuSans-78"/>
       <use x="521.125" xlink:href="#DejaVuSans-83"/>
      </g>
     </g>
    </g>
    <g id="xtick_4">
     <g id="text_4">
      <!-- 4) LASTENA -->
      <g style="fill:#262626;" transform="translate(544.294922 269.858281)scale(0.11 -0.11)">
       <use xlink:href="#DejaVuSans-52"/>
       <use x="63.623047" xlink:href="#DejaVuSans-41"/>
       <use x="102.636719" xlink:href="#DejaVuSans-32"/>
       <use x="134.423828" xlink:href="#DejaVuSans-76"/>
       <use x="190.167969" xlink:href="#DejaVuSans-65"/>
       <use x="258.576172" xlink:href="#DejaVuSans-83"/>
       <use x="322.052734" xlink:href="#DejaVuSans-84"/>
       <use x="383.136719" xlink:href="#DejaVuSans-69"/>
       <use x="446.320312" xlink:href="#DejaVuSans-78"/>
       <use x="521.125" xlink:href="#DejaVuSans-65"/>
      </g>
     </g>
    </g>
    <g id="xtick_5">
     <g id="text_5">
      <!-- 5) LASTENAS -->
      <defs>
       <path d="M 10.796875 72.90625 
L 49.515625 72.90625 
L 49.515625 64.59375 
L 19.828125 64.59375 
L 19.828125 46.734375 
Q 21.96875 47.46875 24.109375 47.828125 
Q 26.265625 48.1875 28.421875 48.1875 
Q 40.625 48.1875 47.75 41.5 
Q 54.890625 34.8125 54.890625 23.390625 
Q 54.890625 11.625 47.5625 5.09375 
Q 40.234375 -1.421875 26.90625 -1.421875 
Q 22.3125 -1.421875 17.546875 -0.640625 
Q 12.796875 0.140625 7.71875 1.703125 
L 7.71875 11.625 
Q 12.109375 9.234375 16.796875 8.0625 
Q 21.484375 6.890625 26.703125 6.890625 
Q 35.15625 6.890625 40.078125 11.328125 
Q 45.015625 15.765625 45.015625 23.390625 
Q 45.015625 31 40.078125 35.4375 
Q 35.15625 39.890625 26.703125 39.890625 
Q 22.75 39.890625 18.8125 39.015625 
Q 14.890625 38.140625 10.796875 36.28125 
z
" id="DejaVuSans-53"/>
      </defs>
      <g style="fill:#262626;" transform="translate(674.723281 269.858281)scale(0.11 -0.11)">
       <use xlink:href="#DejaVuSans-53"/>
       <use x="63.623047" xlink:href="#DejaVuSans-41"/>
       <use x="102.636719" xlink:href="#DejaVuSans-32"/>
       <use x="134.423828" xlink:href="#DejaVuSans-76"/>
       <use x="190.167969" xlink:href="#DejaVuSans-65"/>
       <use x="258.576172" xlink:href="#DejaVuSans-83"/>
       <use x="322.052734" xlink:href="#DejaVuSans-84"/>
       <use x="383.136719" xlink:href="#DejaVuSans-69"/>
       <use x="446.320312" xlink:href="#DejaVuSans-78"/>
       <use x="521.125" xlink:href="#DejaVuSans-65"/>
       <use x="589.533203" xlink:href="#DejaVuSans-83"/>
      </g>
     </g>
    </g>
   </g>
   <g id="matplotlib.axis_2">
    <g id="ytick_1">
     <g id="line2d_1">
      <path clip-path="url(#p78f9afe63b)" d="M 108 218.349031 
L 777.6 218.349031 
" style="fill:none;stroke:#cccccc;stroke-linecap:round;"/>
     </g>
     <g id="text_6">
      <!-- 0.2 -->
      <defs>
       <path d="M 31.78125 66.40625 
Q 24.171875 66.40625 20.328125 58.90625 
Q 16.5 51.421875 16.5 36.375 
Q 16.5 21.390625 20.328125 13.890625 
Q 24.171875 6.390625 31.78125 6.390625 
Q 39.453125 6.390625 43.28125 13.890625 
Q 47.125 21.390625 47.125 36.375 
Q 47.125 51.421875 43.28125 58.90625 
Q 39.453125 66.40625 31.78125 66.40625 
z
M 31.78125 74.21875 
Q 44.046875 74.21875 50.515625 64.515625 
Q 56.984375 54.828125 56.984375 36.375 
Q 56.984375 17.96875 50.515625 8.265625 
Q 44.046875 -1.421875 31.78125 -1.421875 
Q 19.53125 -1.421875 13.0625 8.265625 
Q 6.59375 17.96875 6.59375 36.375 
Q 6.59375 54.828125 13.0625 64.515625 
Q 19.53125 74.21875 31.78125 74.21875 
z
" id="DejaVuSans-48"/>
       <path d="M 10.6875 12.40625 
L 21 12.40625 
L 21 0 
L 10.6875 0 
z
" id="DejaVuSans-46"/>
      </defs>
      <g style="fill:#262626;" transform="translate(81.006563 222.528172)scale(0.11 -0.11)">
       <use xlink:href="#DejaVuSans-48"/>
       <use x="63.623047" xlink:href="#DejaVuSans-46"/>
       <use x="95.410156" xlink:href="#DejaVuSans-50"/>
      </g>
     </g>
    </g>
    <g id="ytick_2">
     <g id="line2d_2">
      <path clip-path="url(#p78f9afe63b)" d="M 108 174.901742 
L 777.6 174.901742 
" style="fill:none;stroke:#cccccc;stroke-linecap:round;"/>
     </g>
     <g id="text_7">
      <!-- 0.4 -->
      <g style="fill:#262626;" transform="translate(81.006563 179.080882)scale(0.11 -0.11)">
       <use xlink:href="#DejaVuSans-48"/>
       <use x="63.623047" xlink:href="#DejaVuSans-46"/>
       <use x="95.410156" xlink:href="#DejaVuSans-52"/>
      </g>
     </g>
    </g>
    <g id="ytick_3">
     <g id="line2d_3">
      <path clip-path="url(#p78f9afe63b)" d="M 108 131.454452 
L 777.6 131.454452 
" style="fill:none;stroke:#cccccc;stroke-linecap:round;"/>
     </g>
     <g id="text_8">
      <!-- 0.6 -->
      <defs>
       <path d="M 33.015625 40.375 
Q 26.375 40.375 22.484375 35.828125 
Q 18.609375 31.296875 18.609375 23.390625 
Q 18.609375 15.53125 22.484375 10.953125 
Q 26.375 6.390625 33.015625 6.390625 
Q 39.65625 6.390625 43.53125 10.953125 
Q 47.40625 15.53125 47.40625 23.390625 
Q 47.40625 31.296875 43.53125 35.828125 
Q 39.65625 40.375 33.015625 40.375 
z
M 52.59375 71.296875 
L 52.59375 62.3125 
Q 48.875 64.0625 45.09375 64.984375 
Q 41.3125 65.921875 37.59375 65.921875 
Q 27.828125 65.921875 22.671875 59.328125 
Q 17.53125 52.734375 16.796875 39.40625 
Q 19.671875 43.65625 24.015625 45.921875 
Q 28.375 48.1875 33.59375 48.1875 
Q 44.578125 48.1875 50.953125 41.515625 
Q 57.328125 34.859375 57.328125 23.390625 
Q 57.328125 12.15625 50.6875 5.359375 
Q 44.046875 -1.421875 33.015625 -1.421875 
Q 20.359375 -1.421875 13.671875 8.265625 
Q 6.984375 17.96875 6.984375 36.375 
Q 6.984375 53.65625 15.1875 63.9375 
Q 23.390625 74.21875 37.203125 74.21875 
Q 40.921875 74.21875 44.703125 73.484375 
Q 48.484375 72.75 52.59375 71.296875 
z
" id="DejaVuSans-54"/>
      </defs>
      <g style="fill:#262626;" transform="translate(81.006563 135.633593)scale(0.11 -0.11)">
       <use xlink:href="#DejaVuSans-48"/>
       <use x="63.623047" xlink:href="#DejaVuSans-46"/>
       <use x="95.410156" xlink:href="#DejaVuSans-54"/>
      </g>
     </g>
    </g>
    <g id="ytick_4">
     <g id="line2d_4">
      <path clip-path="url(#p78f9afe63b)" d="M 108 88.007163 
L 777.6 88.007163 
" style="fill:none;stroke:#cccccc;stroke-linecap:round;"/>
     </g>
     <g id="text_9">
      <!-- 0.8 -->
      <defs>
       <path d="M 31.78125 34.625 
Q 24.75 34.625 20.71875 30.859375 
Q 16.703125 27.09375 16.703125 20.515625 
Q 16.703125 13.921875 20.71875 10.15625 
Q 24.75 6.390625 31.78125 6.390625 
Q 38.8125 6.390625 42.859375 10.171875 
Q 46.921875 13.96875 46.921875 20.515625 
Q 46.921875 27.09375 42.890625 30.859375 
Q 38.875 34.625 31.78125 34.625 
z
M 21.921875 38.8125 
Q 15.578125 40.375 12.03125 44.71875 
Q 8.5 49.078125 8.5 55.328125 
Q 8.5 64.0625 14.71875 69.140625 
Q 20.953125 74.21875 31.78125 74.21875 
Q 42.671875 74.21875 48.875 69.140625 
Q 55.078125 64.0625 55.078125 55.328125 
Q 55.078125 49.078125 51.53125 44.71875 
Q 48 40.375 41.703125 38.8125 
Q 48.828125 37.15625 52.796875 32.3125 
Q 56.78125 27.484375 56.78125 20.515625 
Q 56.78125 9.90625 50.3125 4.234375 
Q 43.84375 -1.421875 31.78125 -1.421875 
Q 19.734375 -1.421875 13.25 4.234375 
Q 6.78125 9.90625 6.78125 20.515625 
Q 6.78125 27.484375 10.78125 32.3125 
Q 14.796875 37.15625 21.921875 38.8125 
z
M 18.3125 54.390625 
Q 18.3125 48.734375 21.84375 45.5625 
Q 25.390625 42.390625 31.78125 42.390625 
Q 38.140625 42.390625 41.71875 45.5625 
Q 45.3125 48.734375 45.3125 54.390625 
Q 45.3125 60.0625 41.71875 63.234375 
Q 38.140625 66.40625 31.78125 66.40625 
Q 25.390625 66.40625 21.84375 63.234375 
Q 18.3125 60.0625 18.3125 54.390625 
z
" id="DejaVuSans-56"/>
      </defs>
      <g style="fill:#262626;" transform="translate(81.006563 92.186304)scale(0.11 -0.11)">
       <use xlink:href="#DejaVuSans-48"/>
       <use x="63.623047" xlink:href="#DejaVuSans-46"/>
       <use x="95.410156" xlink:href="#DejaVuSans-56"/>
      </g>
     </g>
    </g>
    <g id="ytick_5">
     <g id="line2d_5">
      <path clip-path="url(#p78f9afe63b)" d="M 108 44.559874 
L 777.6 44.559874 
" style="fill:none;stroke:#cccccc;stroke-linecap:round;"/>
     </g>
     <g id="text_10">
      <!-- 1.0 -->
      <g style="fill:#262626;" transform="translate(81.006563 48.739014)scale(0.11 -0.11)">
       <use xlink:href="#DejaVuSans-49"/>
       <use x="63.623047" xlink:href="#DejaVuSans-46"/>
       <use x="95.410156" xlink:href="#DejaVuSans-48"/>
      </g>
     </g>
    </g>
    <g id="text_11">
     <!-- Accuracy -->
     <defs>
      <path d="M 48.78125 52.59375 
L 48.78125 44.1875 
Q 44.96875 46.296875 41.140625 47.34375 
Q 37.3125 48.390625 33.40625 48.390625 
Q 24.65625 48.390625 19.8125 42.84375 
Q 14.984375 37.3125 14.984375 27.296875 
Q 14.984375 17.28125 19.8125 11.734375 
Q 24.65625 6.203125 33.40625 6.203125 
Q 37.3125 6.203125 41.140625 7.25 
Q 44.96875 8.296875 48.78125 10.40625 
L 48.78125 2.09375 
Q 45.015625 0.34375 40.984375 -0.53125 
Q 36.96875 -1.421875 32.421875 -1.421875 
Q 20.0625 -1.421875 12.78125 6.34375 
Q 5.515625 14.109375 5.515625 27.296875 
Q 5.515625 40.671875 12.859375 48.328125 
Q 20.21875 56 33.015625 56 
Q 37.15625 56 41.109375 55.140625 
Q 45.0625 54.296875 48.78125 52.59375 
z
" id="DejaVuSans-99"/>
      <path d="M 8.5 21.578125 
L 8.5 54.6875 
L 17.484375 54.6875 
L 17.484375 21.921875 
Q 17.484375 14.15625 20.5 10.265625 
Q 23.53125 6.390625 29.59375 6.390625 
Q 36.859375 6.390625 41.078125 11.03125 
Q 45.3125 15.671875 45.3125 23.6875 
L 45.3125 54.6875 
L 54.296875 54.6875 
L 54.296875 0 
L 45.3125 0 
L 45.3125 8.40625 
Q 42.046875 3.421875 37.71875 1 
Q 33.40625 -1.421875 27.6875 -1.421875 
Q 18.265625 -1.421875 13.375 4.4375 
Q 8.5 10.296875 8.5 21.578125 
z
M 31.109375 56 
z
" id="DejaVuSans-117"/>
      <path d="M 41.109375 46.296875 
Q 39.59375 47.171875 37.8125 47.578125 
Q 36.03125 48 33.890625 48 
Q 26.265625 48 22.1875 43.046875 
Q 18.109375 38.09375 18.109375 28.8125 
L 18.109375 0 
L 9.078125 0 
L 9.078125 54.6875 
L 18.109375 54.6875 
L 18.109375 46.1875 
Q 20.953125 51.171875 25.484375 53.578125 
Q 30.03125 56 36.53125 56 
Q 37.453125 56 38.578125 55.875 
Q 39.703125 55.765625 41.0625 55.515625 
z
" id="DejaVuSans-114"/>
      <path d="M 34.28125 27.484375 
Q 23.390625 27.484375 19.1875 25 
Q 14.984375 22.515625 14.984375 16.5 
Q 14.984375 11.71875 18.140625 8.90625 
Q 21.296875 6.109375 26.703125 6.109375 
Q 34.1875 6.109375 38.703125 11.40625 
Q 43.21875 16.703125 43.21875 25.484375 
L 43.21875 27.484375 
z
M 52.203125 31.203125 
L 52.203125 0 
L 43.21875 0 
L 43.21875 8.296875 
Q 40.140625 3.328125 35.546875 0.953125 
Q 30.953125 -1.421875 24.3125 -1.421875 
Q 15.921875 -1.421875 10.953125 3.296875 
Q 6 8.015625 6 15.921875 
Q 6 25.140625 12.171875 29.828125 
Q 18.359375 34.515625 30.609375 34.515625 
L 43.21875 34.515625 
L 43.21875 35.40625 
Q 43.21875 41.609375 39.140625 45 
Q 35.0625 48.390625 27.6875 48.390625 
Q 23 48.390625 18.546875 47.265625 
Q 14.109375 46.140625 10.015625 43.890625 
L 10.015625 52.203125 
Q 14.9375 54.109375 19.578125 55.046875 
Q 24.21875 56 28.609375 56 
Q 40.484375 56 46.34375 49.84375 
Q 52.203125 43.703125 52.203125 31.203125 
z
" id="DejaVuSans-97"/>
      <path d="M 32.171875 -5.078125 
Q 28.375 -14.84375 24.75 -17.8125 
Q 21.140625 -20.796875 15.09375 -20.796875 
L 7.90625 -20.796875 
L 7.90625 -13.28125 
L 13.1875 -13.28125 
Q 16.890625 -13.28125 18.9375 -11.515625 
Q 21 -9.765625 23.484375 -3.21875 
L 25.09375 0.875 
L 2.984375 54.6875 
L 12.5 54.6875 
L 29.59375 11.921875 
L 46.6875 54.6875 
L 56.203125 54.6875 
z
" id="DejaVuSans-121"/>
     </defs>
     <g style="fill:#262626;" transform="translate(74.510937 170.777812)rotate(-90)scale(0.12 -0.12)">
      <use xlink:href="#DejaVuSans-65"/>
      <use x="68.392578" xlink:href="#DejaVuSans-99"/>
      <use x="123.373047" xlink:href="#DejaVuSans-99"/>
      <use x="178.353516" xlink:href="#DejaVuSans-117"/>
      <use x="241.732422" xlink:href="#DejaVuSans-114"/>
      <use x="282.845703" xlink:href="#DejaVuSans-97"/>
      <use x="344.125" xlink:href="#DejaVuSans-99"/>
      <use x="399.105469" xlink:href="#DejaVuSans-121"/>
     </g>
    </g>
   </g>
   <g id="PolyCollection_1">
    <defs>
     <path d="M 174.96 -242.047585 
L 171.811438 -242.047585 
L 171.816071 -242.061651 
L 171.845622 -242.075717 
L 171.899389 -242.089783 
L 171.97611 -242.103849 
L 172.074005 -242.117915 
L 172.19085 -242.131982 
L 172.32406 -242.146048 
L 172.470784 -242.160114 
L 172.628005 -242.17418 
L 172.792641 -242.188246 
L 172.961647 -242.202312 
L 173.132104 -242.216378 
L 173.301296 -242.230444 
L 173.466778 -242.24451 
L 173.626424 -242.258576 
L 173.778457 -242.272642 
L 173.92147 -242.286708 
L 174.05442 -242.300774 
L 174.17662 -242.31484 
L 174.28771 -242.328907 
L 174.387628 -242.342973 
L 174.476565 -242.357039 
L 174.554924 -242.371105 
L 174.623277 -242.385171 
L 174.682318 -242.399237 
L 174.732826 -242.413303 
L 174.775622 -242.427369 
L 174.811544 -242.441435 
L 174.841416 -242.455501 
L 174.86603 -242.469567 
L 174.886126 -242.483633 
L 174.902385 -242.497699 
L 174.915421 -242.511766 
L 174.925782 -242.525832 
L 174.933941 -242.539898 
L 174.940311 -242.553964 
L 174.945238 -242.56803 
L 174.949014 -242.582096 
L 174.95188 -242.596162 
L 174.954031 -242.610228 
L 174.955624 -242.624294 
L 174.95678 -242.63836 
L 174.957592 -242.652426 
L 174.958125 -242.666492 
L 174.958423 -242.680558 
L 174.958503 -242.694624 
L 174.95836 -242.708691 
L 174.957963 -242.722757 
L 174.957251 -242.736823 
L 174.95612 -242.750889 
L 174.954422 -242.764955 
L 174.951942 -242.779021 
L 174.948382 -242.793087 
L 174.943337 -242.807153 
L 174.93626 -242.821219 
L 174.926427 -242.835285 
L 174.912887 -242.849351 
L 174.894403 -242.863417 
L 174.869389 -242.877483 
L 174.835827 -242.89155 
L 174.791184 -242.905616 
L 174.732314 -242.919682 
L 174.655353 -242.933748 
L 174.555617 -242.947814 
L 174.427495 -242.96188 
L 174.264351 -242.975946 
L 174.058446 -242.990012 
L 173.800878 -243.004078 
L 173.481567 -243.018144 
L 173.089276 -243.03221 
L 172.611704 -243.046276 
L 172.035636 -243.060342 
L 171.347188 -243.074408 
L 170.532133 -243.088475 
L 169.576322 -243.102541 
L 168.4662 -243.116607 
L 167.189408 -243.130673 
L 165.735462 -243.144739 
L 164.096483 -243.158805 
L 162.267954 -243.172871 
L 160.249477 -243.186937 
L 158.045471 -243.201003 
L 155.665788 -243.215069 
L 153.126191 -243.229135 
L 150.448646 -243.243201 
L 147.661398 -243.257267 
L 144.798784 -243.271334 
L 141.90078 -243.2854 
L 139.012252 -243.299466 
L 136.181938 -243.313532 
L 133.461171 -243.327598 
L 130.902394 -243.341664 
L 128.55751 -243.35573 
L 126.476161 -243.369796 
L 124.703987 -243.383862 
L 123.280965 -243.397928 
L 122.239917 -243.411994 
L 121.605249 -243.42606 
L 121.392 -243.440126 
L 174.96 -243.440126 
L 174.96 -243.440126 
L 174.96 -243.42606 
L 174.96 -243.411994 
L 174.96 -243.397928 
L 174.96 -243.383862 
L 174.96 -243.369796 
L 174.96 -243.35573 
L 174.96 -243.341664 
L 174.96 -243.327598 
L 174.96 -243.313532 
L 174.96 -243.299466 
L 174.96 -243.2854 
L 174.96 -243.271334 
L 174.96 -243.257267 
L 174.96 -243.243201 
L 174.96 -243.229135 
L 174.96 -243.215069 
L 174.96 -243.201003 
L 174.96 -243.186937 
L 174.96 -243.172871 
L 174.96 -243.158805 
L 174.96 -243.144739 
L 174.96 -243.130673 
L 174.96 -243.116607 
L 174.96 -243.102541 
L 174.96 -243.088475 
L 174.96 -243.074408 
L 174.96 -243.060342 
L 174.96 -243.046276 
L 174.96 -243.03221 
L 174.96 -243.018144 
L 174.96 -243.004078 
L 174.96 -242.990012 
L 174.96 -242.975946 
L 174.96 -242.96188 
L 174.96 -242.947814 
L 174.96 -242.933748 
L 174.96 -242.919682 
L 174.96 -242.905616 
L 174.96 -242.89155 
L 174.96 -242.877483 
L 174.96 -242.863417 
L 174.96 -242.849351 
L 174.96 -242.835285 
L 174.96 -242.821219 
L 174.96 -242.807153 
L 174.96 -242.793087 
L 174.96 -242.779021 
L 174.96 -242.764955 
L 174.96 -242.750889 
L 174.96 -242.736823 
L 174.96 -242.722757 
L 174.96 -242.708691 
L 174.96 -242.694624 
L 174.96 -242.680558 
L 174.96 -242.666492 
L 174.96 -242.652426 
L 174.96 -242.63836 
L 174.96 -242.624294 
L 174.96 -242.610228 
L 174.96 -242.596162 
L 174.96 -242.582096 
L 174.96 -242.56803 
L 174.96 -242.553964 
L 174.96 -242.539898 
L 174.96 -242.525832 
L 174.96 -242.511766 
L 174.96 -242.497699 
L 174.96 -242.483633 
L 174.96 -242.469567 
L 174.96 -242.455501 
L 174.96 -242.441435 
L 174.96 -242.427369 
L 174.96 -242.413303 
L 174.96 -242.399237 
L 174.96 -242.385171 
L 174.96 -242.371105 
L 174.96 -242.357039 
L 174.96 -242.342973 
L 174.96 -242.328907 
L 174.96 -242.31484 
L 174.96 -242.300774 
L 174.96 -242.286708 
L 174.96 -242.272642 
L 174.96 -242.258576 
L 174.96 -242.24451 
L 174.96 -242.230444 
L 174.96 -242.216378 
L 174.96 -242.202312 
L 174.96 -242.188246 
L 174.96 -242.17418 
L 174.96 -242.160114 
L 174.96 -242.146048 
L 174.96 -242.131982 
L 174.96 -242.117915 
L 174.96 -242.103849 
L 174.96 -242.089783 
L 174.96 -242.075717 
L 174.96 -242.061651 
L 174.96 -242.047585 
z
" id="m75fb2ce2f5" style="stroke:#737373;stroke-width:1.5;"/>
    </defs>
    <g clip-path="url(#p78f9afe63b)">
     <use style="fill:#abc9ea;stroke:#737373;stroke-width:1.5;" x="0" xlink:href="#m75fb2ce2f5" y="288"/>
    </g>
   </g>
   <g id="PolyCollection_2">
    <defs>
     <path d="M 177.83583 -228.122172 
L 174.96 -228.122172 
L 174.96 -228.276899 
L 174.96 -228.431625 
L 174.96 -228.586352 
L 174.96 -228.741079 
L 174.96 -228.895806 
L 174.96 -229.050533 
L 174.96 -229.20526 
L 174.96 -229.359986 
L 174.96 -229.514713 
L 174.96 -229.66944 
L 174.96 -229.824167 
L 174.96 -229.978894 
L 174.96 -230.13362 
L 174.96 -230.288347 
L 174.96 -230.443074 
L 174.96 -230.597801 
L 174.96 -230.752528 
L 174.96 -230.907254 
L 174.96 -231.061981 
L 174.96 -231.216708 
L 174.96 -231.371435 
L 174.96 -231.526162 
L 174.96 -231.680889 
L 174.96 -231.835615 
L 174.96 -231.990342 
L 174.96 -232.145069 
L 174.96 -232.299796 
L 174.96 -232.454523 
L 174.96 -232.609249 
L 174.96 -232.763976 
L 174.96 -232.918703 
L 174.96 -233.07343 
L 174.96 -233.228157 
L 174.96 -233.382883 
L 174.96 -233.53761 
L 174.96 -233.692337 
L 174.96 -233.847064 
L 174.96 -234.001791 
L 174.96 -234.156518 
L 174.96 -234.311244 
L 174.96 -234.465971 
L 174.96 -234.620698 
L 174.96 -234.775425 
L 174.96 -234.930152 
L 174.96 -235.084878 
L 174.96 -235.239605 
L 174.96 -235.394332 
L 174.96 -235.549059 
L 174.96 -235.703786 
L 174.96 -235.858513 
L 174.96 -236.013239 
L 174.96 -236.167966 
L 174.96 -236.322693 
L 174.96 -236.47742 
L 174.96 -236.632147 
L 174.96 -236.786873 
L 174.96 -236.9416 
L 174.96 -237.096327 
L 174.96 -237.251054 
L 174.96 -237.405781 
L 174.96 -237.560507 
L 174.96 -237.715234 
L 174.96 -237.869961 
L 174.96 -238.024688 
L 174.96 -238.179415 
L 174.96 -238.334142 
L 174.96 -238.488868 
L 174.96 -238.643595 
L 174.96 -238.798322 
L 174.96 -238.953049 
L 174.96 -239.107776 
L 174.96 -239.262502 
L 174.96 -239.417229 
L 174.96 -239.571956 
L 174.96 -239.726683 
L 174.96 -239.88141 
L 174.96 -240.036136 
L 174.96 -240.190863 
L 174.96 -240.34559 
L 174.96 -240.500317 
L 174.96 -240.655044 
L 174.96 -240.809771 
L 174.96 -240.964497 
L 174.96 -241.119224 
L 174.96 -241.273951 
L 174.96 -241.428678 
L 174.96 -241.583405 
L 174.96 -241.738131 
L 174.96 -241.892858 
L 174.96 -242.047585 
L 174.96 -242.202312 
L 174.96 -242.357039 
L 174.96 -242.511766 
L 174.96 -242.666492 
L 174.96 -242.821219 
L 174.96 -242.975946 
L 174.96 -243.130673 
L 174.96 -243.2854 
L 174.96 -243.440126 
L 228.528 -243.440126 
L 228.528 -243.440126 
L 228.484129 -243.2854 
L 228.002962 -243.130673 
L 227.09802 -242.975946 
L 225.793012 -242.821219 
L 224.120814 -242.666492 
L 222.122095 -242.511766 
L 219.843676 -242.357039 
L 217.336714 -242.202312 
L 214.654806 -242.047585 
L 211.852117 -241.892858 
L 208.981607 -241.738131 
L 206.093455 -241.583405 
L 203.233724 -241.428678 
L 200.443317 -241.273951 
L 197.75724 -241.119224 
L 195.204173 -240.964497 
L 192.806348 -240.809771 
L 190.579677 -240.655044 
L 188.534119 -240.500317 
L 186.674208 -240.34559 
L 184.999727 -240.190863 
L 183.506439 -240.036136 
L 182.186861 -239.88141 
L 181.031028 -239.726683 
L 180.027207 -239.571956 
L 179.162558 -239.417229 
L 178.423698 -239.262502 
L 177.797184 -239.107776 
L 177.2699 -238.953049 
L 176.829347 -238.798322 
L 176.463855 -238.643595 
L 176.162721 -238.488868 
L 175.916278 -238.334142 
L 175.715921 -238.179415 
L 175.554083 -238.024688 
L 175.424192 -237.869961 
L 175.320596 -237.715234 
L 175.238488 -237.560507 
L 175.173816 -237.405781 
L 175.123195 -237.251054 
L 175.083819 -237.096327 
L 175.053387 -236.9416 
L 175.030021 -236.786873 
L 175.012202 -236.632147 
L 174.998714 -236.47742 
L 174.988591 -236.322693 
L 174.981071 -236.167966 
L 174.975561 -236.013239 
L 174.971609 -235.858513 
L 174.968875 -235.703786 
L 174.967113 -235.549059 
L 174.966155 -235.394332 
L 174.9659 -235.239605 
L 174.966304 -235.084878 
L 174.967379 -234.930152 
L 174.969186 -234.775425 
L 174.971833 -234.620698 
L 174.975484 -234.465971 
L 174.980349 -234.311244 
L 174.986699 -234.156518 
L 174.994859 -234.001791 
L 175.00522 -233.847064 
L 175.018233 -233.692337 
L 175.034415 -233.53761 
L 175.054345 -233.382883 
L 175.078661 -233.228157 
L 175.108052 -233.07343 
L 175.143247 -232.918703 
L 175.184998 -232.763976 
L 175.234063 -232.609249 
L 175.291175 -232.454523 
L 175.357021 -232.299796 
L 175.432203 -232.145069 
L 175.517204 -231.990342 
L 175.612352 -231.835615 
L 175.717779 -231.680889 
L 175.833391 -231.526162 
L 175.958831 -231.371435 
L 176.093452 -231.216708 
L 176.236304 -231.061981 
L 176.386119 -230.907254 
L 176.541318 -230.752528 
L 176.700023 -230.597801 
L 176.860084 -230.443074 
L 177.019123 -230.288347 
L 177.174587 -230.13362 
L 177.32381 -229.978894 
L 177.464086 -229.824167 
L 177.592752 -229.66944 
L 177.707268 -229.514713 
L 177.805297 -229.359986 
L 177.884787 -229.20526 
L 177.94404 -229.050533 
L 177.98177 -228.895806 
L 177.997149 -228.741079 
L 177.989838 -228.586352 
L 177.959999 -228.431625 
L 177.908287 -228.276899 
L 177.83583 -228.122172 
z
" id="m04b583cf20" style="stroke:#737373;stroke-width:1.5;"/>
    </defs>
    <g clip-path="url(#p78f9afe63b)">
     <use style="fill:#efb792;stroke:#737373;stroke-width:1.5;" x="0" xlink:href="#m04b583cf20" y="288"/>
    </g>
   </g>
   <g id="PolyCollection_3">
    <defs>
     <path d="M 308.88 -120.861567 
L 278.979659 -120.861567 
L 277.042272 -121.558282 
L 275.124985 -122.254997 
L 273.241507 -122.951711 
L 271.405031 -123.648426 
L 269.628005 -124.345141 
L 267.921949 -125.041856 
L 266.297317 -125.73857 
L 264.763396 -126.435285 
L 263.328264 -127.132 
L 261.998786 -127.828715 
L 260.780655 -128.525429 
L 259.67847 -129.222144 
L 258.695832 -129.918859 
L 257.835471 -130.615574 
L 257.099358 -131.312288 
L 256.488831 -132.009003 
L 256.004692 -132.705718 
L 255.647283 -133.402433 
L 255.416539 -134.099147 
L 255.312 -134.795862 
L 255.332792 -135.492577 
L 255.477582 -136.189292 
L 255.744499 -136.886006 
L 256.131045 -137.582721 
L 256.633994 -138.279436 
L 257.249289 -138.976151 
L 257.971959 -139.672865 
L 258.796046 -140.36958 
L 259.714577 -141.066295 
L 260.719556 -141.76301 
L 261.802011 -142.459724 
L 262.952076 -143.156439 
L 264.159116 -143.853154 
L 265.411893 -144.549869 
L 266.698762 -145.246583 
L 268.00789 -145.943298 
L 269.327497 -146.640013 
L 270.646098 -147.336728 
L 271.952744 -148.033442 
L 273.237251 -148.730157 
L 274.490411 -149.426872 
L 275.704167 -150.123587 
L 276.871765 -150.820302 
L 277.98786 -151.517016 
L 279.048591 -152.213731 
L 280.051608 -152.910446 
L 280.996059 -153.607161 
L 281.882549 -154.303875 
L 282.713047 -155.00059 
L 283.490773 -155.697305 
L 284.220054 -156.39402 
L 284.906146 -157.090734 
L 285.555053 -157.787449 
L 286.173316 -158.484164 
L 286.767795 -159.180879 
L 287.345456 -159.877593 
L 287.913144 -160.574308 
L 288.477372 -161.271023 
L 289.044119 -161.967738 
L 289.618643 -162.664452 
L 290.205318 -163.361167 
L 290.807499 -164.057882 
L 291.427419 -164.754597 
L 292.066118 -165.451311 
L 292.723413 -166.148026 
L 293.397907 -166.844741 
L 294.087039 -167.541456 
L 294.787165 -168.23817 
L 295.493687 -168.934885 
L 296.2012 -169.6316 
L 296.903677 -170.328315 
L 297.594668 -171.025029 
L 298.267515 -171.721744 
L 298.915569 -172.418459 
L 299.532417 -173.115174 
L 300.112084 -173.811888 
L 300.649234 -174.508603 
L 301.139341 -175.205318 
L 301.578836 -175.902033 
L 301.965222 -176.598747 
L 302.297152 -177.295462 
L 302.574474 -177.992177 
L 302.798236 -178.688892 
L 302.970653 -179.385606 
L 303.095043 -180.082321 
L 303.175721 -180.779036 
L 303.217877 -181.475751 
L 303.227415 -182.172466 
L 303.210784 -182.86918 
L 303.174785 -183.565895 
L 303.126383 -184.26261 
L 303.072505 -184.959325 
L 303.019848 -185.656039 
L 302.974706 -186.352754 
L 302.942798 -187.049469 
L 302.929137 -187.746184 
L 302.937909 -188.442898 
L 302.972392 -189.139613 
L 303.034905 -189.836328 
L 308.88 -189.836328 
L 308.88 -189.836328 
L 308.88 -189.139613 
L 308.88 -188.442898 
L 308.88 -187.746184 
L 308.88 -187.049469 
L 308.88 -186.352754 
L 308.88 -185.656039 
L 308.88 -184.959325 
L 308.88 -184.26261 
L 308.88 -183.565895 
L 308.88 -182.86918 
L 308.88 -182.172466 
L 308.88 -181.475751 
L 308.88 -180.779036 
L 308.88 -180.082321 
L 308.88 -179.385606 
L 308.88 -178.688892 
L 308.88 -177.992177 
L 308.88 -177.295462 
L 308.88 -176.598747 
L 308.88 -175.902033 
L 308.88 -175.205318 
L 308.88 -174.508603 
L 308.88 -173.811888 
L 308.88 -173.115174 
L 308.88 -172.418459 
L 308.88 -171.721744 
L 308.88 -171.025029 
L 308.88 -170.328315 
L 308.88 -169.6316 
L 308.88 -168.934885 
L 308.88 -168.23817 
L 308.88 -167.541456 
L 308.88 -166.844741 
L 308.88 -166.148026 
L 308.88 -165.451311 
L 308.88 -164.754597 
L 308.88 -164.057882 
L 308.88 -163.361167 
L 308.88 -162.664452 
L 308.88 -161.967738 
L 308.88 -161.271023 
L 308.88 -160.574308 
L 308.88 -159.877593 
L 308.88 -159.180879 
L 308.88 -158.484164 
L 308.88 -157.787449 
L 308.88 -157.090734 
L 308.88 -156.39402 
L 308.88 -155.697305 
L 308.88 -155.00059 
L 308.88 -154.303875 
L 308.88 -153.607161 
L 308.88 -152.910446 
L 308.88 -152.213731 
L 308.88 -151.517016 
L 308.88 -150.820302 
L 308.88 -150.123587 
L 308.88 -149.426872 
L 308.88 -148.730157 
L 308.88 -148.033442 
L 308.88 -147.336728 
L 308.88 -146.640013 
L 308.88 -145.943298 
L 308.88 -145.246583 
L 308.88 -144.549869 
L 308.88 -143.853154 
L 308.88 -143.156439 
L 308.88 -142.459724 
L 308.88 -141.76301 
L 308.88 -141.066295 
L 308.88 -140.36958 
L 308.88 -139.672865 
L 308.88 -138.976151 
L 308.88 -138.279436 
L 308.88 -137.582721 
L 308.88 -136.886006 
L 308.88 -136.189292 
L 308.88 -135.492577 
L 308.88 -134.795862 
L 308.88 -134.099147 
L 308.88 -133.402433 
L 308.88 -132.705718 
L 308.88 -132.009003 
L 308.88 -131.312288 
L 308.88 -130.615574 
L 308.88 -129.918859 
L 308.88 -129.222144 
L 308.88 -128.525429 
L 308.88 -127.828715 
L 308.88 -127.132 
L 308.88 -126.435285 
L 308.88 -125.73857 
L 308.88 -125.041856 
L 308.88 -124.345141 
L 308.88 -123.648426 
L 308.88 -122.951711 
L 308.88 -122.254997 
L 308.88 -121.558282 
L 308.88 -120.861567 
z
" id="m3da6262cb8" style="stroke:#737373;stroke-width:1.5;"/>
    </defs>
    <g clip-path="url(#p78f9afe63b)">
     <use style="fill:#abc9ea;stroke:#737373;stroke-width:1.5;" x="0" xlink:href="#m3da6262cb8" y="288"/>
    </g>
   </g>
   <g id="PolyCollection_4">
    <defs>
     <path d="M 319.301271 -116.022595 
L 308.88 -116.022595 
L 308.88 -116.890663 
L 308.88 -117.758731 
L 308.88 -118.626799 
L 308.88 -119.494867 
L 308.88 -120.362935 
L 308.88 -121.231003 
L 308.88 -122.099071 
L 308.88 -122.967139 
L 308.88 -123.835207 
L 308.88 -124.703275 
L 308.88 -125.571343 
L 308.88 -126.439411 
L 308.88 -127.307478 
L 308.88 -128.175546 
L 308.88 -129.043614 
L 308.88 -129.911682 
L 308.88 -130.77975 
L 308.88 -131.647818 
L 308.88 -132.515886 
L 308.88 -133.383954 
L 308.88 -134.252022 
L 308.88 -135.12009 
L 308.88 -135.988158 
L 308.88 -136.856226 
L 308.88 -137.724294 
L 308.88 -138.592362 
L 308.88 -139.46043 
L 308.88 -140.328498 
L 308.88 -141.196566 
L 308.88 -142.064634 
L 308.88 -142.932702 
L 308.88 -143.80077 
L 308.88 -144.668838 
L 308.88 -145.536906 
L 308.88 -146.404973 
L 308.88 -147.273041 
L 308.88 -148.141109 
L 308.88 -149.009177 
L 308.88 -149.877245 
L 308.88 -150.745313 
L 308.88 -151.613381 
L 308.88 -152.481449 
L 308.88 -153.349517 
L 308.88 -154.217585 
L 308.88 -155.085653 
L 308.88 -155.953721 
L 308.88 -156.821789 
L 308.88 -157.689857 
L 308.88 -158.557925 
L 308.88 -159.425993 
L 308.88 -160.294061 
L 308.88 -161.162129 
L 308.88 -162.030197 
L 308.88 -162.898265 
L 308.88 -163.766333 
L 308.88 -164.634401 
L 308.88 -165.502468 
L 308.88 -166.370536 
L 308.88 -167.238604 
L 308.88 -168.106672 
L 308.88 -168.97474 
L 308.88 -169.842808 
L 308.88 -170.710876 
L 308.88 -171.578944 
L 308.88 -172.447012 
L 308.88 -173.31508 
L 308.88 -174.183148 
L 308.88 -175.051216 
L 308.88 -175.919284 
L 308.88 -176.787352 
L 308.88 -177.65542 
L 308.88 -178.523488 
L 308.88 -179.391556 
L 308.88 -180.259624 
L 308.88 -181.127692 
L 308.88 -181.99576 
L 308.88 -182.863828 
L 308.88 -183.731896 
L 308.88 -184.599964 
L 308.88 -185.468031 
L 308.88 -186.336099 
L 308.88 -187.204167 
L 308.88 -188.072235 
L 308.88 -188.940303 
L 308.88 -189.808371 
L 308.88 -190.676439 
L 308.88 -191.544507 
L 308.88 -192.412575 
L 308.88 -193.280643 
L 308.88 -194.148711 
L 308.88 -195.016779 
L 308.88 -195.884847 
L 308.88 -196.752915 
L 308.88 -197.620983 
L 308.88 -198.489051 
L 308.88 -199.357119 
L 308.88 -200.225187 
L 308.88 -201.093255 
L 308.88 -201.961323 
L 312.248005 -201.961323 
L 312.248005 -201.961323 
L 312.343177 -201.093255 
L 312.430202 -200.225187 
L 312.512586 -199.357119 
L 312.594408 -198.489051 
L 312.680095 -197.620983 
L 312.774154 -196.752915 
L 312.880894 -195.884847 
L 313.004149 -195.016779 
L 313.147022 -194.148711 
L 313.31169 -193.280643 
L 313.499259 -192.412575 
L 313.709708 -191.544507 
L 313.941927 -190.676439 
L 314.193835 -189.808371 
L 314.4626 -188.940303 
L 314.744926 -188.072235 
L 315.037397 -187.204167 
L 315.336855 -186.336099 
L 315.640778 -185.468031 
L 315.947634 -184.599964 
L 316.257175 -183.731896 
L 316.570648 -182.863828 
L 316.890906 -181.99576 
L 317.2224 -181.127692 
L 317.571054 -180.259624 
L 317.94403 -179.391556 
L 318.34939 -178.523488 
L 318.795694 -177.65542 
L 319.291553 -176.787352 
L 319.845168 -175.919284 
L 320.463905 -175.051216 
L 321.153921 -174.183148 
L 321.919877 -173.31508 
L 322.764751 -172.447012 
L 323.689764 -171.578944 
L 324.694417 -170.710876 
L 325.776621 -169.842808 
L 326.932913 -168.97474 
L 328.158718 -168.106672 
L 329.44864 -167.238604 
L 330.796743 -166.370536 
L 332.196803 -165.502468 
L 333.6425 -164.634401 
L 335.127545 -163.766333 
L 336.64573 -162.898265 
L 338.190911 -162.030197 
L 339.756925 -161.162129 
L 341.337466 -160.294061 
L 342.925941 -159.425993 
L 344.51532 -158.557925 
L 346.098011 -157.689857 
L 347.665769 -156.821789 
L 349.209651 -155.953721 
L 350.72003 -155.085653 
L 352.186662 -154.217585 
L 353.59879 -153.349517 
L 354.945299 -152.481449 
L 356.214887 -151.613381 
L 357.396244 -150.745313 
L 358.478242 -149.877245 
L 359.450107 -149.009177 
L 360.301584 -148.141109 
L 361.02308 -147.273041 
L 361.605803 -146.404973 
L 362.041885 -145.536906 
L 362.324502 -144.668838 
L 362.448 -143.80077 
L 362.40802 -142.932702 
L 362.201627 -142.064634 
L 361.827444 -141.196566 
L 361.28578 -140.328498 
L 360.578742 -139.46043 
L 359.710328 -138.592362 
L 358.68648 -137.724294 
L 357.515092 -136.856226 
L 356.205962 -135.988158 
L 354.770682 -135.12009 
L 353.222463 -134.252022 
L 351.575894 -133.383954 
L 349.846655 -132.515886 
L 348.051172 -131.647818 
L 346.206247 -130.77975 
L 344.328676 -129.911682 
L 342.434863 -129.043614 
L 340.540458 -128.175546 
L 338.660037 -127.307478 
L 336.806829 -126.439411 
L 334.992505 -125.571343 
L 333.227045 -124.703275 
L 331.51867 -123.835207 
L 329.873852 -122.967139 
L 328.297383 -122.099071 
L 326.792506 -121.231003 
L 325.361088 -120.362935 
L 324.003822 -119.494867 
L 322.720446 -118.626799 
L 321.509965 -117.758731 
L 320.370859 -116.890663 
L 319.301271 -116.022595 
z
" id="m624f88f86b" style="stroke:#737373;stroke-width:1.5;"/>
    </defs>
    <g clip-path="url(#p78f9afe63b)">
     <use style="fill:#efb792;stroke:#737373;stroke-width:1.5;" x="0" xlink:href="#m624f88f86b" y="288"/>
    </g>
   </g>
   <g id="PolyCollection_5">
    <defs>
     <path d="M 442.8 -58.558044 
L 442.611931 -58.558044 
L 442.594592 -60.42554 
L 442.578997 -62.293035 
L 442.564261 -64.160531 
L 442.549843 -66.028027 
L 442.536018 -67.895523 
L 442.524042 -69.763019 
L 442.515918 -71.630514 
L 442.513821 -73.49801 
L 442.519364 -75.365506 
L 442.532942 -77.233002 
L 442.553353 -79.100498 
L 442.577798 -80.967993 
L 442.60226 -82.835489 
L 442.622171 -84.702985 
L 442.633223 -86.570481 
L 442.63217 -88.437976 
L 442.617468 -90.305472 
L 442.589639 -92.172968 
L 442.551235 -94.040464 
L 442.506381 -95.90796 
L 442.459921 -97.775455 
L 442.416347 -99.642951 
L 442.378744 -101.510447 
L 442.348047 -103.377943 
L 442.322819 -105.245438 
L 442.299632 -107.112934 
L 442.273924 -108.98043 
L 442.241068 -110.847926 
L 442.19734 -112.715422 
L 442.140498 -114.582917 
L 442.069851 -116.450413 
L 441.98588 -118.317909 
L 441.889636 -120.185405 
L 441.782218 -122.052901 
L 441.664554 -123.920396 
L 441.53753 -125.787892 
L 441.402299 -127.655388 
L 441.260474 -129.522884 
L 441.113972 -131.390379 
L 440.964508 -133.257875 
L 440.813002 -135.125371 
L 440.659321 -136.992867 
L 440.502619 -138.860363 
L 440.342241 -140.727858 
L 440.178749 -142.595354 
L 440.01447 -144.46285 
L 439.853118 -146.330346 
L 439.698518 -148.197841 
L 439.552889 -150.065337 
L 439.415446 -151.932833 
L 439.281964 -153.800329 
L 439.145568 -155.667825 
L 438.998532 -157.53532 
L 438.8345 -159.402816 
L 438.650442 -161.270312 
L 438.447756 -163.137808 
L 438.232179 -165.005304 
L 438.012451 -166.872799 
L 437.797963 -168.740295 
L 437.595878 -170.607791 
L 437.408429 -172.475287 
L 437.231172 -174.342782 
L 437.052866 -176.210278 
L 436.857244 -178.077774 
L 436.626378 -179.94527 
L 436.344715 -181.812766 
L 436.002515 -183.680261 
L 435.597456 -185.547757 
L 435.133769 -187.415253 
L 434.619214 -189.282749 
L 434.061166 -191.150244 
L 433.463561 -193.01774 
L 432.826196 -194.885236 
L 432.146831 -196.752732 
L 431.42515 -198.620228 
L 430.666571 -200.487723 
L 429.88371 -202.355219 
L 429.094191 -204.222715 
L 428.315054 -206.090211 
L 427.555546 -207.957707 
L 426.810749 -209.825202 
L 426.058033 -211.692698 
L 425.256904 -213.560194 
L 424.351326 -215.42769 
L 423.272772 -217.295185 
L 421.942799 -219.162681 
L 420.275551 -221.030177 
L 418.182694 -222.897673 
L 415.584566 -224.765169 
L 412.430849 -226.632664 
L 408.731093 -228.50016 
L 404.590264 -230.367656 
L 400.238538 -232.235152 
L 396.040558 -234.102647 
L 392.470363 -235.970143 
L 390.04604 -237.837639 
L 389.232 -239.705135 
L 390.331716 -241.572631 
L 393.402966 -243.440126 
L 442.8 -243.440126 
L 442.8 -243.440126 
L 442.8 -241.572631 
L 442.8 -239.705135 
L 442.8 -237.837639 
L 442.8 -235.970143 
L 442.8 -234.102647 
L 442.8 -232.235152 
L 442.8 -230.367656 
L 442.8 -228.50016 
L 442.8 -226.632664 
L 442.8 -224.765169 
L 442.8 -222.897673 
L 442.8 -221.030177 
L 442.8 -219.162681 
L 442.8 -217.295185 
L 442.8 -215.42769 
L 442.8 -213.560194 
L 442.8 -211.692698 
L 442.8 -209.825202 
L 442.8 -207.957707 
L 442.8 -206.090211 
L 442.8 -204.222715 
L 442.8 -202.355219 
L 442.8 -200.487723 
L 442.8 -198.620228 
L 442.8 -196.752732 
L 442.8 -194.885236 
L 442.8 -193.01774 
L 442.8 -191.150244 
L 442.8 -189.282749 
L 442.8 -187.415253 
L 442.8 -185.547757 
L 442.8 -183.680261 
L 442.8 -181.812766 
L 442.8 -179.94527 
L 442.8 -178.077774 
L 442.8 -176.210278 
L 442.8 -174.342782 
L 442.8 -172.475287 
L 442.8 -170.607791 
L 442.8 -168.740295 
L 442.8 -166.872799 
L 442.8 -165.005304 
L 442.8 -163.137808 
L 442.8 -161.270312 
L 442.8 -159.402816 
L 442.8 -157.53532 
L 442.8 -155.667825 
L 442.8 -153.800329 
L 442.8 -151.932833 
L 442.8 -150.065337 
L 442.8 -148.197841 
L 442.8 -146.330346 
L 442.8 -144.46285 
L 442.8 -142.595354 
L 442.8 -140.727858 
L 442.8 -138.860363 
L 442.8 -136.992867 
L 442.8 -135.125371 
L 442.8 -133.257875 
L 442.8 -131.390379 
L 442.8 -129.522884 
L 442.8 -127.655388 
L 442.8 -125.787892 
L 442.8 -123.920396 
L 442.8 -122.052901 
L 442.8 -120.185405 
L 442.8 -118.317909 
L 442.8 -116.450413 
L 442.8 -114.582917 
L 442.8 -112.715422 
L 442.8 -110.847926 
L 442.8 -108.98043 
L 442.8 -107.112934 
L 442.8 -105.245438 
L 442.8 -103.377943 
L 442.8 -101.510447 
L 442.8 -99.642951 
L 442.8 -97.775455 
L 442.8 -95.90796 
L 442.8 -94.040464 
L 442.8 -92.172968 
L 442.8 -90.305472 
L 442.8 -88.437976 
L 442.8 -86.570481 
L 442.8 -84.702985 
L 442.8 -82.835489 
L 442.8 -80.967993 
L 442.8 -79.100498 
L 442.8 -77.233002 
L 442.8 -75.365506 
L 442.8 -73.49801 
L 442.8 -71.630514 
L 442.8 -69.763019 
L 442.8 -67.895523 
L 442.8 -66.028027 
L 442.8 -64.160531 
L 442.8 -62.293035 
L 442.8 -60.42554 
L 442.8 -58.558044 
z
" id="m578f96a2bf" style="stroke:#737373;stroke-width:1.5;"/>
    </defs>
    <g clip-path="url(#p78f9afe63b)">
     <use style="fill:#abc9ea;stroke:#737373;stroke-width:1.5;" x="0" xlink:href="#m578f96a2bf" y="288"/>
    </g>
   </g>
   <g id="PolyCollection_6">
    <defs>
     <path d="M 462.207926 -95.803706 
L 442.8 -95.803706 
L 442.8 -96.623698 
L 442.8 -97.44369 
L 442.8 -98.263682 
L 442.8 -99.083675 
L 442.8 -99.903667 
L 442.8 -100.723659 
L 442.8 -101.543651 
L 442.8 -102.363643 
L 442.8 -103.183635 
L 442.8 -104.003627 
L 442.8 -104.823619 
L 442.8 -105.643611 
L 442.8 -106.463603 
L 442.8 -107.283596 
L 442.8 -108.103588 
L 442.8 -108.92358 
L 442.8 -109.743572 
L 442.8 -110.563564 
L 442.8 -111.383556 
L 442.8 -112.203548 
L 442.8 -113.02354 
L 442.8 -113.843532 
L 442.8 -114.663524 
L 442.8 -115.483517 
L 442.8 -116.303509 
L 442.8 -117.123501 
L 442.8 -117.943493 
L 442.8 -118.763485 
L 442.8 -119.583477 
L 442.8 -120.403469 
L 442.8 -121.223461 
L 442.8 -122.043453 
L 442.8 -122.863445 
L 442.8 -123.683438 
L 442.8 -124.50343 
L 442.8 -125.323422 
L 442.8 -126.143414 
L 442.8 -126.963406 
L 442.8 -127.783398 
L 442.8 -128.60339 
L 442.8 -129.423382 
L 442.8 -130.243374 
L 442.8 -131.063366 
L 442.8 -131.883358 
L 442.8 -132.703351 
L 442.8 -133.523343 
L 442.8 -134.343335 
L 442.8 -135.163327 
L 442.8 -135.983319 
L 442.8 -136.803311 
L 442.8 -137.623303 
L 442.8 -138.443295 
L 442.8 -139.263287 
L 442.8 -140.083279 
L 442.8 -140.903272 
L 442.8 -141.723264 
L 442.8 -142.543256 
L 442.8 -143.363248 
L 442.8 -144.18324 
L 442.8 -145.003232 
L 442.8 -145.823224 
L 442.8 -146.643216 
L 442.8 -147.463208 
L 442.8 -148.2832 
L 442.8 -149.103193 
L 442.8 -149.923185 
L 442.8 -150.743177 
L 442.8 -151.563169 
L 442.8 -152.383161 
L 442.8 -153.203153 
L 442.8 -154.023145 
L 442.8 -154.843137 
L 442.8 -155.663129 
L 442.8 -156.483121 
L 442.8 -157.303114 
L 442.8 -158.123106 
L 442.8 -158.943098 
L 442.8 -159.76309 
L 442.8 -160.583082 
L 442.8 -161.403074 
L 442.8 -162.223066 
L 442.8 -163.043058 
L 442.8 -163.86305 
L 442.8 -164.683042 
L 442.8 -165.503035 
L 442.8 -166.323027 
L 442.8 -167.143019 
L 442.8 -167.963011 
L 442.8 -168.783003 
L 442.8 -169.602995 
L 442.8 -170.422987 
L 442.8 -171.242979 
L 442.8 -172.062971 
L 442.8 -172.882963 
L 442.8 -173.702956 
L 442.8 -174.522948 
L 442.8 -175.34294 
L 442.8 -176.162932 
L 442.8 -176.982924 
L 473.911829 -176.982924 
L 473.911829 -176.982924 
L 475.577233 -176.162932 
L 477.212503 -175.34294 
L 478.807332 -174.522948 
L 480.351965 -173.702956 
L 481.837396 -172.882963 
L 483.255547 -172.062971 
L 484.599426 -171.242979 
L 485.863267 -170.422987 
L 487.042625 -169.602995 
L 488.134457 -168.783003 
L 489.137147 -167.963011 
L 490.050508 -167.143019 
L 490.875732 -166.323027 
L 491.615314 -165.503035 
L 492.272928 -164.683042 
L 492.853281 -163.86305 
L 493.361933 -163.043058 
L 493.805093 -162.223066 
L 494.189402 -161.403074 
L 494.521709 -160.583082 
L 494.808835 -159.76309 
L 495.057353 -158.943098 
L 495.273378 -158.123106 
L 495.462367 -157.303114 
L 495.628961 -156.483121 
L 495.776843 -155.663129 
L 495.908637 -154.843137 
L 496.025847 -154.023145 
L 496.128832 -153.203153 
L 496.216822 -152.383161 
L 496.287973 -151.563169 
L 496.339459 -150.743177 
L 496.367597 -149.923185 
L 496.368 -149.103193 
L 496.335752 -148.2832 
L 496.265605 -147.463208 
L 496.152181 -146.643216 
L 495.990181 -145.823224 
L 495.774593 -145.003232 
L 495.500885 -144.18324 
L 495.165192 -143.363248 
L 494.764478 -142.543256 
L 494.296673 -141.723264 
L 493.760784 -140.903272 
L 493.156977 -140.083279 
L 492.486624 -139.263287 
L 491.752321 -138.443295 
L 490.95787 -137.623303 
L 490.108233 -136.803311 
L 489.209453 -135.983319 
L 488.268553 -135.163327 
L 487.293411 -134.343335 
L 486.292609 -133.523343 
L 485.275271 -132.703351 
L 484.250889 -131.883358 
L 483.229137 -131.063366 
L 482.219684 -130.243374 
L 481.232002 -129.423382 
L 480.275182 -128.60339 
L 479.357752 -127.783398 
L 478.487514 -126.963406 
L 477.67138 -126.143414 
L 476.915241 -125.323422 
L 476.223839 -124.50343 
L 475.600676 -123.683438 
L 475.047934 -122.863445 
L 474.566429 -122.043453 
L 474.155584 -121.223461 
L 473.81344 -120.403469 
L 473.536681 -119.583477 
L 473.320703 -118.763485 
L 473.159694 -117.943493 
L 473.046751 -117.123501 
L 472.974017 -116.303509 
L 472.932837 -115.483517 
L 472.913935 -114.663524 
L 472.9076 -113.843532 
L 472.90389 -113.02354 
L 472.89283 -112.203548 
L 472.864623 -111.383556 
L 472.809843 -110.563564 
L 472.719629 -109.743572 
L 472.58586 -108.92358 
L 472.401315 -108.103588 
L 472.159802 -107.283596 
L 471.856277 -106.463603 
L 471.486919 -105.643611 
L 471.049188 -104.823619 
L 470.541845 -104.003627 
L 469.964949 -103.183635 
L 469.31982 -102.363643 
L 468.608978 -101.543651 
L 467.836054 -100.723659 
L 467.005685 -99.903667 
L 466.123386 -99.083675 
L 465.195413 -98.263682 
L 464.228611 -97.44369 
L 463.230261 -96.623698 
L 462.207926 -95.803706 
z
" id="mf2f158d032" style="stroke:#737373;stroke-width:1.5;"/>
    </defs>
    <g clip-path="url(#p78f9afe63b)">
     <use style="fill:#efb792;stroke:#737373;stroke-width:1.5;" x="0" xlink:href="#mf2f158d032" y="288"/>
    </g>
   </g>
   <g id="PolyCollection_7">
    <defs>
     <path d="M 576.72 -66.720001 
L 576.463001 -66.720001 
L 576.469985 -68.505053 
L 576.489964 -70.290104 
L 576.51918 -72.075156 
L 576.552334 -73.860208 
L 576.583576 -75.64526 
L 576.607381 -77.430312 
L 576.619128 -79.215363 
L 576.615387 -81.000415 
L 576.594085 -82.785467 
L 576.554729 -84.570519 
L 576.498724 -86.35557 
L 576.42965 -88.140622 
L 576.353202 -89.925674 
L 576.276542 -91.710726 
L 576.207008 -93.495778 
L 576.150442 -95.280829 
L 576.109625 -97.065881 
L 576.083358 -98.850933 
L 576.066489 -100.635985 
L 576.05081 -102.421036 
L 576.026458 -104.206088 
L 575.983294 -105.99114 
L 575.911914 -107.776192 
L 575.804225 -109.561243 
L 575.653744 -111.346295 
L 575.45588 -113.131347 
L 575.208355 -114.916399 
L 574.911719 -116.701451 
L 574.569732 -118.486502 
L 574.189285 -120.271554 
L 573.779546 -122.056606 
L 573.350182 -123.841658 
L 572.908848 -125.626709 
L 572.458558 -127.411761 
L 571.995904 -129.196813 
L 571.511117 -130.981865 
L 570.990467 -132.766917 
L 570.420623 -134.551968 
L 569.793676 -136.33702 
L 569.111036 -138.122072 
L 568.384701 -139.907124 
L 567.63526 -141.692175 
L 566.887149 -143.477227 
L 566.162504 -145.262279 
L 565.475277 -147.047331 
L 564.826976 -148.832382 
L 564.204815 -150.617434 
L 563.582354 -152.402486 
L 562.922239 -154.187538 
L 562.18041 -155.97259 
L 561.311128 -157.757641 
L 560.272311 -159.542693 
L 559.030842 -161.327745 
L 557.567524 -163.112797 
L 555.881177 -164.897848 
L 553.991109 -166.6829 
L 551.936891 -168.467952 
L 549.774561 -170.253004 
L 547.569025 -172.038056 
L 545.383674 -173.823107 
L 543.269506 -175.608159 
L 541.256796 -177.393211 
L 539.351989 -179.178263 
L 537.540978 -180.963314 
L 535.797816 -182.748366 
L 534.09606 -184.533418 
L 532.419277 -186.31847 
L 530.767954 -188.103521 
L 529.161688 -189.888573 
L 527.637299 -191.673625 
L 526.244481 -193.458677 
L 525.04067 -195.243729 
L 524.086097 -197.02878 
L 523.43919 -198.813832 
L 523.152 -200.598884 
L 523.26545 -202.383936 
L 523.80468 -204.168987 
L 524.775351 -205.954039 
L 526.16198 -207.739091 
L 527.929033 -209.524143 
L 530.024679 -211.309194 
L 532.38618 -213.094246 
L 534.945385 -214.879298 
L 537.632975 -216.66435 
L 540.380785 -218.449402 
L 543.122349 -220.234453 
L 545.792279 -222.019505 
L 548.325364 -223.804557 
L 550.656454 -225.589609 
L 552.72261 -227.37466 
L 554.469161 -229.159712 
L 555.860653 -230.944764 
L 556.895526 -232.729816 
L 557.620281 -234.514868 
L 558.136306 -236.299919 
L 558.592551 -238.084971 
L 559.161118 -239.870023 
L 559.999637 -241.655075 
L 561.211165 -243.440126 
L 576.72 -243.440126 
L 576.72 -243.440126 
L 576.72 -241.655075 
L 576.72 -239.870023 
L 576.72 -238.084971 
L 576.72 -236.299919 
L 576.72 -234.514868 
L 576.72 -232.729816 
L 576.72 -230.944764 
L 576.72 -229.159712 
L 576.72 -227.37466 
L 576.72 -225.589609 
L 576.72 -223.804557 
L 576.72 -222.019505 
L 576.72 -220.234453 
L 576.72 -218.449402 
L 576.72 -216.66435 
L 576.72 -214.879298 
L 576.72 -213.094246 
L 576.72 -211.309194 
L 576.72 -209.524143 
L 576.72 -207.739091 
L 576.72 -205.954039 
L 576.72 -204.168987 
L 576.72 -202.383936 
L 576.72 -200.598884 
L 576.72 -198.813832 
L 576.72 -197.02878 
L 576.72 -195.243729 
L 576.72 -193.458677 
L 576.72 -191.673625 
L 576.72 -189.888573 
L 576.72 -188.103521 
L 576.72 -186.31847 
L 576.72 -184.533418 
L 576.72 -182.748366 
L 576.72 -180.963314 
L 576.72 -179.178263 
L 576.72 -177.393211 
L 576.72 -175.608159 
L 576.72 -173.823107 
L 576.72 -172.038056 
L 576.72 -170.253004 
L 576.72 -168.467952 
L 576.72 -166.6829 
L 576.72 -164.897848 
L 576.72 -163.112797 
L 576.72 -161.327745 
L 576.72 -159.542693 
L 576.72 -157.757641 
L 576.72 -155.97259 
L 576.72 -154.187538 
L 576.72 -152.402486 
L 576.72 -150.617434 
L 576.72 -148.832382 
L 576.72 -147.047331 
L 576.72 -145.262279 
L 576.72 -143.477227 
L 576.72 -141.692175 
L 576.72 -139.907124 
L 576.72 -138.122072 
L 576.72 -136.33702 
L 576.72 -134.551968 
L 576.72 -132.766917 
L 576.72 -130.981865 
L 576.72 -129.196813 
L 576.72 -127.411761 
L 576.72 -125.626709 
L 576.72 -123.841658 
L 576.72 -122.056606 
L 576.72 -120.271554 
L 576.72 -118.486502 
L 576.72 -116.701451 
L 576.72 -114.916399 
L 576.72 -113.131347 
L 576.72 -111.346295 
L 576.72 -109.561243 
L 576.72 -107.776192 
L 576.72 -105.99114 
L 576.72 -104.206088 
L 576.72 -102.421036 
L 576.72 -100.635985 
L 576.72 -98.850933 
L 576.72 -97.065881 
L 576.72 -95.280829 
L 576.72 -93.495778 
L 576.72 -91.710726 
L 576.72 -89.925674 
L 576.72 -88.140622 
L 576.72 -86.35557 
L 576.72 -84.570519 
L 576.72 -82.785467 
L 576.72 -81.000415 
L 576.72 -79.215363 
L 576.72 -77.430312 
L 576.72 -75.64526 
L 576.72 -73.860208 
L 576.72 -72.075156 
L 576.72 -70.290104 
L 576.72 -68.505053 
L 576.72 -66.720001 
z
" id="m63da2a32de" style="stroke:#737373;stroke-width:1.5;"/>
    </defs>
    <g clip-path="url(#p78f9afe63b)">
     <use style="fill:#abc9ea;stroke:#737373;stroke-width:1.5;" x="0" xlink:href="#m63da2a32de" y="288"/>
    </g>
   </g>
   <g id="PolyCollection_8">
    <defs>
     <path d="M 578.335916 -239.720324 
L 576.72 -239.720324 
L 576.72 -239.757898 
L 576.72 -239.795472 
L 576.72 -239.833046 
L 576.72 -239.870619 
L 576.72 -239.908193 
L 576.72 -239.945767 
L 576.72 -239.983341 
L 576.72 -240.020914 
L 576.72 -240.058488 
L 576.72 -240.096062 
L 576.72 -240.133636 
L 576.72 -240.171209 
L 576.72 -240.208783 
L 576.72 -240.246357 
L 576.72 -240.283931 
L 576.72 -240.321504 
L 576.72 -240.359078 
L 576.72 -240.396652 
L 576.72 -240.434226 
L 576.72 -240.471799 
L 576.72 -240.509373 
L 576.72 -240.546947 
L 576.72 -240.584521 
L 576.72 -240.622094 
L 576.72 -240.659668 
L 576.72 -240.697242 
L 576.72 -240.734816 
L 576.72 -240.772389 
L 576.72 -240.809963 
L 576.72 -240.847537 
L 576.72 -240.885111 
L 576.72 -240.922685 
L 576.72 -240.960258 
L 576.72 -240.997832 
L 576.72 -241.035406 
L 576.72 -241.07298 
L 576.72 -241.110553 
L 576.72 -241.148127 
L 576.72 -241.185701 
L 576.72 -241.223275 
L 576.72 -241.260848 
L 576.72 -241.298422 
L 576.72 -241.335996 
L 576.72 -241.37357 
L 576.72 -241.411143 
L 576.72 -241.448717 
L 576.72 -241.486291 
L 576.72 -241.523865 
L 576.72 -241.561438 
L 576.72 -241.599012 
L 576.72 -241.636586 
L 576.72 -241.67416 
L 576.72 -241.711733 
L 576.72 -241.749307 
L 576.72 -241.786881 
L 576.72 -241.824455 
L 576.72 -241.862029 
L 576.72 -241.899602 
L 576.72 -241.937176 
L 576.72 -241.97475 
L 576.72 -242.012324 
L 576.72 -242.049897 
L 576.72 -242.087471 
L 576.72 -242.125045 
L 576.72 -242.162619 
L 576.72 -242.200192 
L 576.72 -242.237766 
L 576.72 -242.27534 
L 576.72 -242.312914 
L 576.72 -242.350487 
L 576.72 -242.388061 
L 576.72 -242.425635 
L 576.72 -242.463209 
L 576.72 -242.500782 
L 576.72 -242.538356 
L 576.72 -242.57593 
L 576.72 -242.613504 
L 576.72 -242.651077 
L 576.72 -242.688651 
L 576.72 -242.726225 
L 576.72 -242.763799 
L 576.72 -242.801372 
L 576.72 -242.838946 
L 576.72 -242.87652 
L 576.72 -242.914094 
L 576.72 -242.951668 
L 576.72 -242.989241 
L 576.72 -243.026815 
L 576.72 -243.064389 
L 576.72 -243.101963 
L 576.72 -243.139536 
L 576.72 -243.17711 
L 576.72 -243.214684 
L 576.72 -243.252258 
L 576.72 -243.289831 
L 576.72 -243.327405 
L 576.72 -243.364979 
L 576.72 -243.402553 
L 576.72 -243.440126 
L 630.288 -243.440126 
L 630.288 -243.440126 
L 629.972439 -243.402553 
L 628.910255 -243.364979 
L 627.153226 -243.327405 
L 624.782006 -243.289831 
L 621.900346 -243.252258 
L 618.627868 -243.214684 
L 615.092076 -243.17711 
L 611.420336 -243.139536 
L 607.732511 -243.101963 
L 604.134805 -243.064389 
L 600.715242 -243.026815 
L 597.540971 -242.989241 
L 594.657408 -242.951668 
L 592.089048 -242.914094 
L 589.841649 -242.87652 
L 587.905383 -242.838946 
L 586.258552 -242.801372 
L 584.871446 -242.763799 
L 583.710008 -242.726225 
L 582.739031 -242.688651 
L 581.924713 -242.651077 
L 581.236499 -242.613504 
L 580.648206 -242.57593 
L 580.138509 -242.538356 
L 579.690894 -242.500782 
L 579.293223 -242.463209 
L 578.937053 -242.425635 
L 578.616828 -242.388061 
L 578.329073 -242.350487 
L 578.071655 -242.312914 
L 577.843159 -242.27534 
L 577.642433 -242.237766 
L 577.46826 -242.200192 
L 577.31919 -242.162619 
L 577.193468 -242.125045 
L 577.089055 -242.087471 
L 577.0037 -242.049897 
L 576.935037 -242.012324 
L 576.88069 -241.97475 
L 576.838368 -241.937176 
L 576.805945 -241.899602 
L 576.781505 -241.862029 
L 576.76338 -241.824455 
L 576.750154 -241.786881 
L 576.740656 -241.749307 
L 576.733945 -241.711733 
L 576.729277 -241.67416 
L 576.726082 -241.636586 
L 576.723929 -241.599012 
L 576.722502 -241.561438 
L 576.721569 -241.523865 
L 576.72097 -241.486291 
L 576.720591 -241.448717 
L 576.720355 -241.411143 
L 576.720211 -241.37357 
L 576.720124 -241.335996 
L 576.720074 -241.298422 
L 576.720047 -241.260848 
L 576.720035 -241.223275 
L 576.720035 -241.185701 
L 576.720047 -241.148127 
L 576.720073 -241.110553 
L 576.72012 -241.07298 
L 576.7202 -241.035406 
L 576.720332 -240.997832 
L 576.720542 -240.960258 
L 576.720874 -240.922685 
L 576.721388 -240.885111 
L 576.722172 -240.847537 
L 576.723351 -240.809963 
L 576.725093 -240.772389 
L 576.727629 -240.734816 
L 576.731261 -240.697242 
L 576.73638 -240.659668 
L 576.743477 -240.622094 
L 576.753159 -240.584521 
L 576.76615 -240.546947 
L 576.783295 -240.509373 
L 576.805543 -240.471799 
L 576.833924 -240.434226 
L 576.869509 -240.396652 
L 576.913348 -240.359078 
L 576.966393 -240.321504 
L 577.029411 -240.283931 
L 577.102881 -240.246357 
L 577.186884 -240.208783 
L 577.281014 -240.171209 
L 577.38429 -240.133636 
L 577.495104 -240.096062 
L 577.611212 -240.058488 
L 577.729767 -240.020914 
L 577.847405 -239.983341 
L 577.960388 -239.945767 
L 578.064789 -239.908193 
L 578.156711 -239.870619 
L 578.232528 -239.833046 
L 578.289121 -239.795472 
L 578.324088 -239.757898 
L 578.335916 -239.720324 
z
" id="md027903e41" style="stroke:#737373;stroke-width:1.5;"/>
    </defs>
    <g clip-path="url(#p78f9afe63b)">
     <use style="fill:#efb792;stroke:#737373;stroke-width:1.5;" x="0" xlink:href="#md027903e41" y="288"/>
    </g>
   </g>
   <g id="PolyCollection_9">
    <defs>
     <path d="M 710.64 -45.883636 
L 709.23657 -45.883636 
L 709.028859 -47.879156 
L 708.805967 -49.874677 
L 708.567412 -51.870197 
L 708.311997 -53.865717 
L 708.037596 -55.861237 
L 707.740979 -57.856757 
L 707.417738 -59.852277 
L 707.062355 -61.847797 
L 706.668452 -63.843317 
L 706.229233 -65.838837 
L 705.738113 -67.834357 
L 705.189464 -69.829878 
L 704.579393 -71.825398 
L 703.906439 -73.820918 
L 703.17206 -75.816438 
L 702.380803 -77.811958 
L 701.540101 -79.807478 
L 700.659678 -81.802998 
L 699.750626 -83.798518 
L 698.824263 -85.794038 
L 697.890912 -87.789558 
L 696.958784 -89.785079 
L 696.033089 -91.780599 
L 695.115493 -93.776119 
L 694.20395 -95.771639 
L 693.292914 -97.767159 
L 692.373832 -99.762679 
L 691.435845 -101.758199 
L 690.466554 -103.753719 
L 689.452781 -105.749239 
L 688.381245 -107.74476 
L 687.239155 -109.74028 
L 686.014727 -111.7358 
L 684.697715 -113.73132 
L 683.279986 -115.72684 
L 681.756218 -117.72236 
L 680.12471 -119.71788 
L 678.388275 -121.7134 
L 676.555111 -123.70892 
L 674.639535 -125.70444 
L 672.662415 -127.699961 
L 670.65119 -129.695481 
L 668.639359 -131.691001 
L 666.665437 -133.686521 
L 664.771399 -135.682041 
L 663.000741 -137.677561 
L 661.396323 -139.673081 
L 659.998197 -141.668601 
L 658.84163 -143.664121 
L 657.9555 -145.659641 
L 657.361184 -147.655162 
L 657.072 -149.650682 
L 657.09317 -151.646202 
L 657.422232 -153.641722 
L 658.049769 -155.637242 
L 658.960337 -157.632762 
L 660.133452 -159.628282 
L 661.544578 -161.623802 
L 663.166049 -163.619322 
L 664.967935 -165.614842 
L 666.918853 -167.610363 
L 668.986739 -169.605883 
L 671.13959 -171.601403 
L 673.346167 -173.596923 
L 675.576638 -175.592443 
L 677.803143 -177.587963 
L 680.000268 -179.583483 
L 682.145416 -181.579003 
L 684.219101 -183.574523 
L 686.205156 -185.570043 
L 688.090871 -187.565564 
L 689.867051 -189.561084 
L 691.527962 -191.556604 
L 693.071129 -193.552124 
L 694.496945 -195.547644 
L 695.808054 -197.543164 
L 697.008517 -199.538684 
L 698.10278 -201.534204 
L 699.094518 -203.529724 
L 699.985474 -205.525244 
L 700.774432 -207.520765 
L 701.456487 -209.516285 
L 702.02279 -211.511805 
L 702.460906 -213.507325 
L 702.755907 -215.502845 
L 702.892212 -217.498365 
L 702.856131 -219.493885 
L 702.638887 -221.489405 
L 702.239826 -223.484925 
L 701.669343 -225.480445 
L 700.951051 -227.475966 
L 700.122662 -229.471486 
L 699.235212 -231.467006 
L 698.350409 -233.462526 
L 697.536202 -235.458046 
L 696.860953 -237.453566 
L 696.386895 -239.449086 
L 696.163749 -241.444606 
L 696.223417 -243.440126 
L 710.64 -243.440126 
L 710.64 -243.440126 
L 710.64 -241.444606 
L 710.64 -239.449086 
L 710.64 -237.453566 
L 710.64 -235.458046 
L 710.64 -233.462526 
L 710.64 -231.467006 
L 710.64 -229.471486 
L 710.64 -227.475966 
L 710.64 -225.480445 
L 710.64 -223.484925 
L 710.64 -221.489405 
L 710.64 -219.493885 
L 710.64 -217.498365 
L 710.64 -215.502845 
L 710.64 -213.507325 
L 710.64 -211.511805 
L 710.64 -209.516285 
L 710.64 -207.520765 
L 710.64 -205.525244 
L 710.64 -203.529724 
L 710.64 -201.534204 
L 710.64 -199.538684 
L 710.64 -197.543164 
L 710.64 -195.547644 
L 710.64 -193.552124 
L 710.64 -191.556604 
L 710.64 -189.561084 
L 710.64 -187.565564 
L 710.64 -185.570043 
L 710.64 -183.574523 
L 710.64 -181.579003 
L 710.64 -179.583483 
L 710.64 -177.587963 
L 710.64 -175.592443 
L 710.64 -173.596923 
L 710.64 -171.601403 
L 710.64 -169.605883 
L 710.64 -167.610363 
L 710.64 -165.614842 
L 710.64 -163.619322 
L 710.64 -161.623802 
L 710.64 -159.628282 
L 710.64 -157.632762 
L 710.64 -155.637242 
L 710.64 -153.641722 
L 710.64 -151.646202 
L 710.64 -149.650682 
L 710.64 -147.655162 
L 710.64 -145.659641 
L 710.64 -143.664121 
L 710.64 -141.668601 
L 710.64 -139.673081 
L 710.64 -137.677561 
L 710.64 -135.682041 
L 710.64 -133.686521 
L 710.64 -131.691001 
L 710.64 -129.695481 
L 710.64 -127.699961 
L 710.64 -125.70444 
L 710.64 -123.70892 
L 710.64 -121.7134 
L 710.64 -119.71788 
L 710.64 -117.72236 
L 710.64 -115.72684 
L 710.64 -113.73132 
L 710.64 -111.7358 
L 710.64 -109.74028 
L 710.64 -107.74476 
L 710.64 -105.749239 
L 710.64 -103.753719 
L 710.64 -101.758199 
L 710.64 -99.762679 
L 710.64 -97.767159 
L 710.64 -95.771639 
L 710.64 -93.776119 
L 710.64 -91.780599 
L 710.64 -89.785079 
L 710.64 -87.789558 
L 710.64 -85.794038 
L 710.64 -83.798518 
L 710.64 -81.802998 
L 710.64 -79.807478 
L 710.64 -77.811958 
L 710.64 -75.816438 
L 710.64 -73.820918 
L 710.64 -71.825398 
L 710.64 -69.829878 
L 710.64 -67.834357 
L 710.64 -65.838837 
L 710.64 -63.843317 
L 710.64 -61.847797 
L 710.64 -59.852277 
L 710.64 -57.856757 
L 710.64 -55.861237 
L 710.64 -53.865717 
L 710.64 -51.870197 
L 710.64 -49.874677 
L 710.64 -47.879156 
L 710.64 -45.883636 
z
" id="ma58565524b" style="stroke:#737373;stroke-width:1.5;"/>
    </defs>
    <g clip-path="url(#p78f9afe63b)">
     <use style="fill:#abc9ea;stroke:#737373;stroke-width:1.5;" x="0" xlink:href="#ma58565524b" y="288"/>
    </g>
   </g>
   <g id="PolyCollection_10">
    <defs>
     <path d="M 713.876031 -232.28072 
L 710.64 -232.28072 
L 710.64 -232.393441 
L 710.64 -232.506162 
L 710.64 -232.618884 
L 710.64 -232.731605 
L 710.64 -232.844326 
L 710.64 -232.957048 
L 710.64 -233.069769 
L 710.64 -233.18249 
L 710.64 -233.295211 
L 710.64 -233.407933 
L 710.64 -233.520654 
L 710.64 -233.633375 
L 710.64 -233.746096 
L 710.64 -233.858818 
L 710.64 -233.971539 
L 710.64 -234.08426 
L 710.64 -234.196982 
L 710.64 -234.309703 
L 710.64 -234.422424 
L 710.64 -234.535145 
L 710.64 -234.647867 
L 710.64 -234.760588 
L 710.64 -234.873309 
L 710.64 -234.986031 
L 710.64 -235.098752 
L 710.64 -235.211473 
L 710.64 -235.324194 
L 710.64 -235.436916 
L 710.64 -235.549637 
L 710.64 -235.662358 
L 710.64 -235.775079 
L 710.64 -235.887801 
L 710.64 -236.000522 
L 710.64 -236.113243 
L 710.64 -236.225965 
L 710.64 -236.338686 
L 710.64 -236.451407 
L 710.64 -236.564128 
L 710.64 -236.67685 
L 710.64 -236.789571 
L 710.64 -236.902292 
L 710.64 -237.015014 
L 710.64 -237.127735 
L 710.64 -237.240456 
L 710.64 -237.353177 
L 710.64 -237.465899 
L 710.64 -237.57862 
L 710.64 -237.691341 
L 710.64 -237.804062 
L 710.64 -237.916784 
L 710.64 -238.029505 
L 710.64 -238.142226 
L 710.64 -238.254948 
L 710.64 -238.367669 
L 710.64 -238.48039 
L 710.64 -238.593111 
L 710.64 -238.705833 
L 710.64 -238.818554 
L 710.64 -238.931275 
L 710.64 -239.043997 
L 710.64 -239.156718 
L 710.64 -239.269439 
L 710.64 -239.38216 
L 710.64 -239.494882 
L 710.64 -239.607603 
L 710.64 -239.720324 
L 710.64 -239.833046 
L 710.64 -239.945767 
L 710.64 -240.058488 
L 710.64 -240.171209 
L 710.64 -240.283931 
L 710.64 -240.396652 
L 710.64 -240.509373 
L 710.64 -240.622094 
L 710.64 -240.734816 
L 710.64 -240.847537 
L 710.64 -240.960258 
L 710.64 -241.07298 
L 710.64 -241.185701 
L 710.64 -241.298422 
L 710.64 -241.411143 
L 710.64 -241.523865 
L 710.64 -241.636586 
L 710.64 -241.749307 
L 710.64 -241.862029 
L 710.64 -241.97475 
L 710.64 -242.087471 
L 710.64 -242.200192 
L 710.64 -242.312914 
L 710.64 -242.425635 
L 710.64 -242.538356 
L 710.64 -242.651077 
L 710.64 -242.763799 
L 710.64 -242.87652 
L 710.64 -242.989241 
L 710.64 -243.101963 
L 710.64 -243.214684 
L 710.64 -243.327405 
L 710.64 -243.440126 
L 764.030084 -243.440126 
L 764.030084 -243.440126 
L 764.208 -243.327405 
L 763.992896 -243.214684 
L 763.393494 -243.101963 
L 762.427072 -242.989241 
L 761.118709 -242.87652 
L 759.500262 -242.763799 
L 757.609124 -242.651077 
L 755.48683 -242.538356 
L 753.177592 -242.425635 
L 750.726814 -242.312914 
L 748.179686 -242.200192 
L 745.579877 -242.087471 
L 742.968408 -241.97475 
L 740.382718 -241.862029 
L 737.855952 -241.749307 
L 735.416478 -241.636586 
L 733.087626 -241.523865 
L 730.887629 -241.411143 
L 728.829751 -241.298422 
L 726.922566 -241.185701 
L 725.170357 -241.07298 
L 723.5736 -240.960258 
L 722.129507 -240.847537 
L 720.832591 -240.734816 
L 719.675233 -240.622094 
L 718.648228 -240.509373 
L 717.741289 -240.396652 
L 716.943512 -240.283931 
L 716.243775 -240.171209 
L 715.631078 -240.058488 
L 715.094826 -239.945767 
L 714.625039 -239.833046 
L 714.21252 -239.720324 
L 713.848957 -239.607603 
L 713.526982 -239.494882 
L 713.240185 -239.38216 
L 712.983101 -239.269439 
L 712.751158 -239.156718 
L 712.540606 -239.043997 
L 712.348437 -238.931275 
L 712.172287 -238.818554 
L 712.010334 -238.705833 
L 711.861202 -238.593111 
L 711.723867 -238.48039 
L 711.597566 -238.367669 
L 711.481723 -238.254948 
L 711.375883 -238.142226 
L 711.279658 -238.029505 
L 711.192687 -237.916784 
L 711.114609 -237.804062 
L 711.045043 -237.691341 
L 710.983582 -237.57862 
L 710.929791 -237.465899 
L 710.883216 -237.353177 
L 710.843392 -237.240456 
L 710.809863 -237.127735 
L 710.782189 -237.015014 
L 710.759972 -236.902292 
L 710.742867 -236.789571 
L 710.730599 -236.67685 
L 710.722977 -236.564128 
L 710.719903 -236.451407 
L 710.721383 -236.338686 
L 710.727532 -236.225965 
L 710.738575 -236.113243 
L 710.754848 -236.000522 
L 710.776791 -235.887801 
L 710.804941 -235.775079 
L 710.839914 -235.662358 
L 710.882388 -235.549637 
L 710.93308 -235.436916 
L 710.992714 -235.324194 
L 711.061992 -235.211473 
L 711.14155 -235.098752 
L 711.23192 -234.986031 
L 711.333485 -234.873309 
L 711.446436 -234.760588 
L 711.570728 -234.647867 
L 711.70604 -234.535145 
L 711.85174 -234.422424 
L 712.006863 -234.309703 
L 712.17009 -234.196982 
L 712.33975 -234.08426 
L 712.513827 -233.971539 
L 712.689991 -233.858818 
L 712.865634 -233.746096 
L 713.03793 -233.633375 
L 713.203905 -233.520654 
L 713.360517 -233.407933 
L 713.50475 -233.295211 
L 713.633704 -233.18249 
L 713.744696 -233.069769 
L 713.83535 -232.957048 
L 713.90368 -232.844326 
L 713.948164 -232.731605 
L 713.9678 -232.618884 
L 713.962142 -232.506162 
L 713.93132 -232.393441 
L 713.876031 -232.28072 
z
" id="m8dda9a00e9" style="stroke:#737373;stroke-width:1.5;"/>
    </defs>
    <g clip-path="url(#p78f9afe63b)">
     <use style="fill:#efb792;stroke:#737373;stroke-width:1.5;" x="0" xlink:href="#m8dda9a00e9" y="288"/>
    </g>
   </g>
   <g id="patch_3">
    <path clip-path="url(#p78f9afe63b)" d="M 174.96 261.79632 
L 174.96 261.79632 
L 174.96 261.79632 
L 174.96 261.79632 
z
" style="fill:#abc9ea;stroke:#737373;stroke-linejoin:miter;stroke-width:0.75;"/>
   </g>
   <g id="patch_4">
    <path clip-path="url(#p78f9afe63b)" d="M 174.96 261.79632 
L 174.96 261.79632 
L 174.96 261.79632 
L 174.96 261.79632 
z
" style="fill:#efb792;stroke:#737373;stroke-linejoin:miter;stroke-width:0.75;"/>
   </g>
   <g id="line2d_6">
    <path clip-path="url(#p78f9afe63b)" d="M 174.96 44.559874 
L 174.96 44.559874 
" style="fill:none;stroke:#737373;stroke-linecap:round;stroke-width:1.5;"/>
   </g>
   <g id="line2d_7">
    <path clip-path="url(#p78f9afe63b)" d="M 174.96 44.559874 
L 174.96 44.559874 
" style="fill:none;stroke:#737373;stroke-linecap:round;stroke-width:4.5;"/>
   </g>
   <g id="line2d_8">
    <path clip-path="url(#p78f9afe63b)" d="M 308.88 171.977405 
L 308.88 105.723533 
" style="fill:none;stroke:#737373;stroke-linecap:round;stroke-width:1.5;"/>
   </g>
   <g id="line2d_9">
    <path clip-path="url(#p78f9afe63b)" d="M 308.88 155.217006 
L 308.88 134.133944 
" style="fill:none;stroke:#737373;stroke-linecap:round;stroke-width:4.5;"/>
   </g>
   <g id="line2d_10">
    <path clip-path="url(#p78f9afe63b)" d="M 442.8 138.335855 
L 442.8 44.559874 
" style="fill:none;stroke:#737373;stroke-linecap:round;stroke-width:1.5;"/>
   </g>
   <g id="line2d_11">
    <path clip-path="url(#p78f9afe63b)" d="M 442.8 83.107481 
L 442.8 46.040305 
" style="fill:none;stroke:#737373;stroke-linecap:round;stroke-width:4.5;"/>
   </g>
   <g id="line2d_12">
    <path clip-path="url(#p78f9afe63b)" d="M 576.72 161.353662 
L 576.72 44.559874 
" style="fill:none;stroke:#737373;stroke-linecap:round;stroke-width:1.5;"/>
   </g>
   <g id="line2d_13">
    <path clip-path="url(#p78f9afe63b)" d="M 576.72 107.556092 
L 576.72 71.503741 
" style="fill:none;stroke:#737373;stroke-linecap:round;stroke-width:4.5;"/>
   </g>
   <g id="line2d_14">
    <path clip-path="url(#p78f9afe63b)" d="M 710.64 233.235353 
L 710.64 44.559874 
" style="fill:none;stroke:#737373;stroke-linecap:round;stroke-width:1.5;"/>
   </g>
   <g id="line2d_15">
    <path clip-path="url(#p78f9afe63b)" d="M 710.64 154.935673 
L 710.64 101.654517 
" style="fill:none;stroke:#737373;stroke-linecap:round;stroke-width:4.5;"/>
   </g>
   <g id="patch_5">
    <path d="M 108 252 
L 777.6 252 
" style="fill:none;stroke:#cccccc;stroke-linecap:square;stroke-linejoin:miter;stroke-width:1.25;"/>
   </g>
   <g id="PathCollection_1">
    <defs>
     <path d="M 0 1.5 
C 0.397805 1.5 0.77937 1.341951 1.06066 1.06066 
C 1.341951 0.77937 1.5 0.397805 1.5 0 
C 1.5 -0.397805 1.341951 -0.77937 1.06066 -1.06066 
C 0.77937 -1.341951 0.397805 -1.5 0 -1.5 
C -0.397805 -1.5 -0.77937 -1.341951 -1.06066 -1.06066 
C -1.341951 -0.77937 -1.5 -0.397805 -1.5 0 
C -1.5 0.397805 -1.341951 0.77937 -1.06066 1.06066 
C -0.77937 1.341951 -0.397805 1.5 0 1.5 
z
" id="m5e840c31f0" style="stroke:#737373;"/>
    </defs>
    <g clip-path="url(#p78f9afe63b)">
     <use style="fill:#ffffff;stroke:#737373;" x="174.96" xlink:href="#m5e840c31f0" y="44.559874"/>
    </g>
   </g>
   <g id="PathCollection_2">
    <g clip-path="url(#p78f9afe63b)">
     <use style="fill:#ffffff;stroke:#737373;" x="308.88" xlink:href="#m5e840c31f0" y="146.123776"/>
    </g>
   </g>
   <g id="PathCollection_3">
    <g clip-path="url(#p78f9afe63b)">
     <use style="fill:#ffffff;stroke:#737373;" x="442.8" xlink:href="#m5e840c31f0" y="56.312279"/>
    </g>
   </g>
   <g id="PathCollection_4">
    <g clip-path="url(#p78f9afe63b)">
     <use style="fill:#ffffff;stroke:#737373;" x="576.72" xlink:href="#m5e840c31f0" y="88.749906"/>
    </g>
   </g>
   <g id="PathCollection_5">
    <g clip-path="url(#p78f9afe63b)">
     <use style="fill:#ffffff;stroke:#737373;" x="710.64" xlink:href="#m5e840c31f0" y="132.293208"/>
    </g>
   </g>
   <g id="legend_1">
    <g id="patch_6">
     <path d="M 782 229.166406 
L 804 229.166406 
L 804 221.466406 
L 782 221.466406 
z
" style="fill:#abc9ea;stroke:#737373;stroke-linejoin:miter;stroke-width:0.75;"/>
    </g>
    <g id="text_12">
     <!-- val -->
     <defs>
      <path d="M 2.984375 54.6875 
L 12.5 54.6875 
L 29.59375 8.796875 
L 46.6875 54.6875 
L 56.203125 54.6875 
L 35.6875 0 
L 23.484375 0 
z
" id="DejaVuSans-118"/>
      <path d="M 9.421875 75.984375 
L 18.40625 75.984375 
L 18.40625 0 
L 9.421875 0 
z
" id="DejaVuSans-108"/>
     </defs>
     <g style="fill:#262626;" transform="translate(812.8 229.166406)scale(0.11 -0.11)">
      <use xlink:href="#DejaVuSans-118"/>
      <use x="59.179688" xlink:href="#DejaVuSans-97"/>
      <use x="120.458984" xlink:href="#DejaVuSans-108"/>
     </g>
    </g>
    <g id="patch_7">
     <path d="M 782 245.312344 
L 804 245.312344 
L 804 237.612344 
L 782 237.612344 
z
" style="fill:#efb792;stroke:#737373;stroke-linejoin:miter;stroke-width:0.75;"/>
    </g>
    <g id="text_13">
     <!-- test -->
     <defs>
      <path d="M 18.3125 70.21875 
L 18.3125 54.6875 
L 36.8125 54.6875 
L 36.8125 47.703125 
L 18.3125 47.703125 
L 18.3125 18.015625 
Q 18.3125 11.328125 20.140625 9.421875 
Q 21.96875 7.515625 27.59375 7.515625 
L 36.8125 7.515625 
L 36.8125 0 
L 27.59375 0 
Q 17.1875 0 13.234375 3.875 
Q 9.28125 7.765625 9.28125 18.015625 
L 9.28125 47.703125 
L 2.6875 47.703125 
L 2.6875 54.6875 
L 9.28125 54.6875 
L 9.28125 70.21875 
z
" id="DejaVuSans-116"/>
      <path d="M 56.203125 29.59375 
L 56.203125 25.203125 
L 14.890625 25.203125 
Q 15.484375 15.921875 20.484375 11.0625 
Q 25.484375 6.203125 34.421875 6.203125 
Q 39.59375 6.203125 44.453125 7.46875 
Q 49.3125 8.734375 54.109375 11.28125 
L 54.109375 2.78125 
Q 49.265625 0.734375 44.1875 -0.34375 
Q 39.109375 -1.421875 33.890625 -1.421875 
Q 20.796875 -1.421875 13.15625 6.1875 
Q 5.515625 13.8125 5.515625 26.8125 
Q 5.515625 40.234375 12.765625 48.109375 
Q 20.015625 56 32.328125 56 
Q 43.359375 56 49.78125 48.890625 
Q 56.203125 41.796875 56.203125 29.59375 
z
M 47.21875 32.234375 
Q 47.125 39.59375 43.09375 43.984375 
Q 39.0625 48.390625 32.421875 48.390625 
Q 24.90625 48.390625 20.390625 44.140625 
Q 15.875 39.890625 15.1875 32.171875 
z
" id="DejaVuSans-101"/>
      <path d="M 44.28125 53.078125 
L 44.28125 44.578125 
Q 40.484375 46.53125 36.375 47.5 
Q 32.28125 48.484375 27.875 48.484375 
Q 21.1875 48.484375 17.84375 46.4375 
Q 14.5 44.390625 14.5 40.28125 
Q 14.5 37.15625 16.890625 35.375 
Q 19.28125 33.59375 26.515625 31.984375 
L 29.59375 31.296875 
Q 39.15625 29.25 43.1875 25.515625 
Q 47.21875 21.78125 47.21875 15.09375 
Q 47.21875 7.46875 41.1875 3.015625 
Q 35.15625 -1.421875 24.609375 -1.421875 
Q 20.21875 -1.421875 15.453125 -0.5625 
Q 10.6875 0.296875 5.421875 2 
L 5.421875 11.28125 
Q 10.40625 8.6875 15.234375 7.390625 
Q 20.0625 6.109375 24.8125 6.109375 
Q 31.15625 6.109375 34.5625 8.28125 
Q 37.984375 10.453125 37.984375 14.40625 
Q 37.984375 18.0625 35.515625 20.015625 
Q 33.0625 21.96875 24.703125 23.78125 
L 21.578125 24.515625 
Q 13.234375 26.265625 9.515625 29.90625 
Q 5.8125 33.546875 5.8125 39.890625 
Q 5.8125 47.609375 11.28125 51.796875 
Q 16.75 56 26.8125 56 
Q 31.78125 56 36.171875 55.265625 
Q 40.578125 54.546875 44.28125 53.078125 
z
" id="DejaVuSans-115"/>
     </defs>
     <g style="fill:#262626;" transform="translate(812.8 245.312344)scale(0.11 -0.11)">
      <use xlink:href="#DejaVuSans-116"/>
      <use x="39.208984" xlink:href="#DejaVuSans-101"/>
      <use x="100.732422" xlink:href="#DejaVuSans-115"/>
      <use x="152.832031" xlink:href="#DejaVuSans-116"/>
     </g>
    </g>
   </g>
  </g>
 </g>
 <defs>
  <clipPath id="p78f9afe63b">
   <rect height="217.44" width="669.6" x="108" y="34.56"/>
  </clipPath>
 </defs>
</svg>
