<?xml version="1.0" encoding="utf-8" standalone="no"?>
<!DOCTYPE svg PUBLIC "-//W3C//DTD SVG 1.1//EN"
  "http://www.w3.org/Graphics/SVG/1.1/DTD/svg11.dtd">
<!-- Created with matplotlib (https://matplotlib.org/) -->
<svg height="288pt" version="1.1" viewBox="0 0 864 288" width="864pt" xmlns="http://www.w3.org/2000/svg" xmlns:xlink="http://www.w3.org/1999/xlink">
 <defs>
  <style type="text/css">
*{stroke-linecap:butt;stroke-linejoin:round;}
  </style>
 </defs>
 <g id="figure_1">
  <g id="patch_1">
   <path d="M 0 288 
L 864 288 
L 864 0 
L 0 0 
z
" style="fill:#ffffff;"/>
  </g>
  <g id="axes_1">
   <g id="patch_2">
    <path d="M 108 252 
L 777.6 252 
L 777.6 34.56 
L 108 34.56 
z
" style="fill:#ffffff;"/>
   </g>
   <g id="matplotlib.axis_1">
    <g id="xtick_1">
     <g id="text_1">
      <!-- 1 -->
      <defs>
       <path d="M 12.40625 8.296875 
L 28.515625 8.296875 
L 28.515625 63.921875 
L 10.984375 60.40625 
L 10.984375 69.390625 
L 28.421875 72.90625 
L 38.28125 72.90625 
L 38.28125 8.296875 
L 54.390625 8.296875 
L 54.390625 0 
L 12.40625 0 
z
" id="DejaVuSans-49"/>
      </defs>
      <g style="fill:#262626;" transform="translate(439.300625 269.858281)scale(0.11 -0.11)">
       <use xlink:href="#DejaVuSans-49"/>
      </g>
     </g>
    </g>
    <g id="text_2">
     <!-- ID -->
     <defs>
      <path d="M 9.8125 72.90625 
L 19.671875 72.90625 
L 19.671875 0 
L 9.8125 0 
z
" id="DejaVuSans-73"/>
      <path d="M 19.671875 64.796875 
L 19.671875 8.109375 
L 31.59375 8.109375 
Q 46.6875 8.109375 53.6875 14.9375 
Q 60.6875 21.78125 60.6875 36.53125 
Q 60.6875 51.171875 53.6875 57.984375 
Q 46.6875 64.796875 31.59375 64.796875 
z
M 9.8125 72.90625 
L 30.078125 72.90625 
Q 51.265625 72.90625 61.171875 64.09375 
Q 71.09375 55.28125 71.09375 36.53125 
Q 71.09375 17.671875 61.125 8.828125 
Q 51.171875 0 30.078125 0 
L 9.8125 0 
z
" id="DejaVuSans-68"/>
     </defs>
     <g style="fill:#262626;" transform="translate(436.41 285.264063)scale(0.12 -0.12)">
      <use xlink:href="#DejaVuSans-73"/>
      <use x="29.492188" xlink:href="#DejaVuSans-68"/>
     </g>
    </g>
   </g>
   <g id="matplotlib.axis_2">
    <g id="ytick_1">
     <g id="line2d_1">
      <path clip-path="url(#p0d0208736c)" d="M 108 245.218809 
L 777.6 245.218809 
" style="fill:none;stroke:#cccccc;stroke-linecap:round;"/>
     </g>
     <g id="text_3">
      <!-- 0.86 -->
      <defs>
       <path d="M 31.78125 66.40625 
Q 24.171875 66.40625 20.328125 58.90625 
Q 16.5 51.421875 16.5 36.375 
Q 16.5 21.390625 20.328125 13.890625 
Q 24.171875 6.390625 31.78125 6.390625 
Q 39.453125 6.390625 43.28125 13.890625 
Q 47.125 21.390625 47.125 36.375 
Q 47.125 51.421875 43.28125 58.90625 
Q 39.453125 66.40625 31.78125 66.40625 
z
M 31.78125 74.21875 
Q 44.046875 74.21875 50.515625 64.515625 
Q 56.984375 54.828125 56.984375 36.375 
Q 56.984375 17.96875 50.515625 8.265625 
Q 44.046875 -1.421875 31.78125 -1.421875 
Q 19.53125 -1.421875 13.0625 8.265625 
Q 6.59375 17.96875 6.59375 36.375 
Q 6.59375 54.828125 13.0625 64.515625 
Q 19.53125 74.21875 31.78125 74.21875 
z
" id="DejaVuSans-48"/>
       <path d="M 10.6875 12.40625 
L 21 12.40625 
L 21 0 
L 10.6875 0 
z
" id="DejaVuSans-46"/>
       <path d="M 31.78125 34.625 
Q 24.75 34.625 20.71875 30.859375 
Q 16.703125 27.09375 16.703125 20.515625 
Q 16.703125 13.921875 20.71875 10.15625 
Q 24.75 6.390625 31.78125 6.390625 
Q 38.8125 6.390625 42.859375 10.171875 
Q 46.921875 13.96875 46.921875 20.515625 
Q 46.921875 27.09375 42.890625 30.859375 
Q 38.875 34.625 31.78125 34.625 
z
M 21.921875 38.8125 
Q 15.578125 40.375 12.03125 44.71875 
Q 8.5 49.078125 8.5 55.328125 
Q 8.5 64.0625 14.71875 69.140625 
Q 20.953125 74.21875 31.78125 74.21875 
Q 42.671875 74.21875 48.875 69.140625 
Q 55.078125 64.0625 55.078125 55.328125 
Q 55.078125 49.078125 51.53125 44.71875 
Q 48 40.375 41.703125 38.8125 
Q 48.828125 37.15625 52.796875 32.3125 
Q 56.78125 27.484375 56.78125 20.515625 
Q 56.78125 9.90625 50.3125 4.234375 
Q 43.84375 -1.421875 31.78125 -1.421875 
Q 19.734375 -1.421875 13.25 4.234375 
Q 6.78125 9.90625 6.78125 20.515625 
Q 6.78125 27.484375 10.78125 32.3125 
Q 14.796875 37.15625 21.921875 38.8125 
z
M 18.3125 54.390625 
Q 18.3125 48.734375 21.84375 45.5625 
Q 25.390625 42.390625 31.78125 42.390625 
Q 38.140625 42.390625 41.71875 45.5625 
Q 45.3125 48.734375 45.3125 54.390625 
Q 45.3125 60.0625 41.71875 63.234375 
Q 38.140625 66.40625 31.78125 66.40625 
Q 25.390625 66.40625 21.84375 63.234375 
Q 18.3125 60.0625 18.3125 54.390625 
z
" id="DejaVuSans-56"/>
       <path d="M 33.015625 40.375 
Q 26.375 40.375 22.484375 35.828125 
Q 18.609375 31.296875 18.609375 23.390625 
Q 18.609375 15.53125 22.484375 10.953125 
Q 26.375 6.390625 33.015625 6.390625 
Q 39.65625 6.390625 43.53125 10.953125 
Q 47.40625 15.53125 47.40625 23.390625 
Q 47.40625 31.296875 43.53125 35.828125 
Q 39.65625 40.375 33.015625 40.375 
z
M 52.59375 71.296875 
L 52.59375 62.3125 
Q 48.875 64.0625 45.09375 64.984375 
Q 41.3125 65.921875 37.59375 65.921875 
Q 27.828125 65.921875 22.671875 59.328125 
Q 17.53125 52.734375 16.796875 39.40625 
Q 19.671875 43.65625 24.015625 45.921875 
Q 28.375 48.1875 33.59375 48.1875 
Q 44.578125 48.1875 50.953125 41.515625 
Q 57.328125 34.859375 57.328125 23.390625 
Q 57.328125 12.15625 50.6875 5.359375 
Q 44.046875 -1.421875 33.015625 -1.421875 
Q 20.359375 -1.421875 13.671875 8.265625 
Q 6.984375 17.96875 6.984375 36.375 
Q 6.984375 53.65625 15.1875 63.9375 
Q 23.390625 74.21875 37.203125 74.21875 
Q 40.921875 74.21875 44.703125 73.484375 
Q 48.484375 72.75 52.59375 71.296875 
z
" id="DejaVuSans-54"/>
      </defs>
      <g style="fill:#262626;" transform="translate(74.007812 249.397949)scale(0.11 -0.11)">
       <use xlink:href="#DejaVuSans-48"/>
       <use x="63.623047" xlink:href="#DejaVuSans-46"/>
       <use x="95.410156" xlink:href="#DejaVuSans-56"/>
       <use x="159.033203" xlink:href="#DejaVuSans-54"/>
      </g>
     </g>
    </g>
    <g id="ytick_2">
     <g id="line2d_2">
      <path clip-path="url(#p0d0208736c)" d="M 108 216.749313 
L 777.6 216.749313 
" style="fill:none;stroke:#cccccc;stroke-linecap:round;"/>
     </g>
     <g id="text_4">
      <!-- 0.88 -->
      <g style="fill:#262626;" transform="translate(74.007812 220.928454)scale(0.11 -0.11)">
       <use xlink:href="#DejaVuSans-48"/>
       <use x="63.623047" xlink:href="#DejaVuSans-46"/>
       <use x="95.410156" xlink:href="#DejaVuSans-56"/>
       <use x="159.033203" xlink:href="#DejaVuSans-56"/>
      </g>
     </g>
    </g>
    <g id="ytick_3">
     <g id="line2d_3">
      <path clip-path="url(#p0d0208736c)" d="M 108 188.279818 
L 777.6 188.279818 
" style="fill:none;stroke:#cccccc;stroke-linecap:round;"/>
     </g>
     <g id="text_5">
      <!-- 0.90 -->
      <defs>
       <path d="M 10.984375 1.515625 
L 10.984375 10.5 
Q 14.703125 8.734375 18.5 7.8125 
Q 22.3125 6.890625 25.984375 6.890625 
Q 35.75 6.890625 40.890625 13.453125 
Q 46.046875 20.015625 46.78125 33.40625 
Q 43.953125 29.203125 39.59375 26.953125 
Q 35.25 24.703125 29.984375 24.703125 
Q 19.046875 24.703125 12.671875 31.3125 
Q 6.296875 37.9375 6.296875 49.421875 
Q 6.296875 60.640625 12.9375 67.421875 
Q 19.578125 74.21875 30.609375 74.21875 
Q 43.265625 74.21875 49.921875 64.515625 
Q 56.59375 54.828125 56.59375 36.375 
Q 56.59375 19.140625 48.40625 8.859375 
Q 40.234375 -1.421875 26.421875 -1.421875 
Q 22.703125 -1.421875 18.890625 -0.6875 
Q 15.09375 0.046875 10.984375 1.515625 
z
M 30.609375 32.421875 
Q 37.25 32.421875 41.125 36.953125 
Q 45.015625 41.5 45.015625 49.421875 
Q 45.015625 57.28125 41.125 61.84375 
Q 37.25 66.40625 30.609375 66.40625 
Q 23.96875 66.40625 20.09375 61.84375 
Q 16.21875 57.28125 16.21875 49.421875 
Q 16.21875 41.5 20.09375 36.953125 
Q 23.96875 32.421875 30.609375 32.421875 
z
" id="DejaVuSans-57"/>
      </defs>
      <g style="fill:#262626;" transform="translate(74.007812 192.458958)scale(0.11 -0.11)">
       <use xlink:href="#DejaVuSans-48"/>
       <use x="63.623047" xlink:href="#DejaVuSans-46"/>
       <use x="95.410156" xlink:href="#DejaVuSans-57"/>
       <use x="159.033203" xlink:href="#DejaVuSans-48"/>
      </g>
     </g>
    </g>
    <g id="ytick_4">
     <g id="line2d_4">
      <path clip-path="url(#p0d0208736c)" d="M 108 159.810322 
L 777.6 159.810322 
" style="fill:none;stroke:#cccccc;stroke-linecap:round;"/>
     </g>
     <g id="text_6">
      <!-- 0.92 -->
      <defs>
       <path d="M 19.1875 8.296875 
L 53.609375 8.296875 
L 53.609375 0 
L 7.328125 0 
L 7.328125 8.296875 
Q 12.9375 14.109375 22.625 23.890625 
Q 32.328125 33.6875 34.8125 36.53125 
Q 39.546875 41.84375 41.421875 45.53125 
Q 43.3125 49.21875 43.3125 52.78125 
Q 43.3125 58.59375 39.234375 62.25 
Q 35.15625 65.921875 28.609375 65.921875 
Q 23.96875 65.921875 18.8125 64.3125 
Q 13.671875 62.703125 7.8125 59.421875 
L 7.8125 69.390625 
Q 13.765625 71.78125 18.9375 73 
Q 24.125 74.21875 28.421875 74.21875 
Q 39.75 74.21875 46.484375 68.546875 
Q 53.21875 62.890625 53.21875 53.421875 
Q 53.21875 48.921875 51.53125 44.890625 
Q 49.859375 40.875 45.40625 35.40625 
Q 44.1875 33.984375 37.640625 27.21875 
Q 31.109375 20.453125 19.1875 8.296875 
z
" id="DejaVuSans-50"/>
      </defs>
      <g style="fill:#262626;" transform="translate(74.007812 163.989463)scale(0.11 -0.11)">
       <use xlink:href="#DejaVuSans-48"/>
       <use x="63.623047" xlink:href="#DejaVuSans-46"/>
       <use x="95.410156" xlink:href="#DejaVuSans-57"/>
       <use x="159.033203" xlink:href="#DejaVuSans-50"/>
      </g>
     </g>
    </g>
    <g id="ytick_5">
     <g id="line2d_5">
      <path clip-path="url(#p0d0208736c)" d="M 108 131.340826 
L 777.6 131.340826 
" style="fill:none;stroke:#cccccc;stroke-linecap:round;"/>
     </g>
     <g id="text_7">
      <!-- 0.94 -->
      <defs>
       <path d="M 37.796875 64.3125 
L 12.890625 25.390625 
L 37.796875 25.390625 
z
M 35.203125 72.90625 
L 47.609375 72.90625 
L 47.609375 25.390625 
L 58.015625 25.390625 
L 58.015625 17.1875 
L 47.609375 17.1875 
L 47.609375 0 
L 37.796875 0 
L 37.796875 17.1875 
L 4.890625 17.1875 
L 4.890625 26.703125 
z
" id="DejaVuSans-52"/>
      </defs>
      <g style="fill:#262626;" transform="translate(74.007812 135.519967)scale(0.11 -0.11)">
       <use xlink:href="#DejaVuSans-48"/>
       <use x="63.623047" xlink:href="#DejaVuSans-46"/>
       <use x="95.410156" xlink:href="#DejaVuSans-57"/>
       <use x="159.033203" xlink:href="#DejaVuSans-52"/>
      </g>
     </g>
    </g>
    <g id="ytick_6">
     <g id="line2d_6">
      <path clip-path="url(#p0d0208736c)" d="M 108 102.871331 
L 777.6 102.871331 
" style="fill:none;stroke:#cccccc;stroke-linecap:round;"/>
     </g>
     <g id="text_8">
      <!-- 0.96 -->
      <g style="fill:#262626;" transform="translate(74.007812 107.050471)scale(0.11 -0.11)">
       <use xlink:href="#DejaVuSans-48"/>
       <use x="63.623047" xlink:href="#DejaVuSans-46"/>
       <use x="95.410156" xlink:href="#DejaVuSans-57"/>
       <use x="159.033203" xlink:href="#DejaVuSans-54"/>
      </g>
     </g>
    </g>
    <g id="ytick_7">
     <g id="line2d_7">
      <path clip-path="url(#p0d0208736c)" d="M 108 74.401835 
L 777.6 74.401835 
" style="fill:none;stroke:#cccccc;stroke-linecap:round;"/>
     </g>
     <g id="text_9">
      <!-- 0.98 -->
      <g style="fill:#262626;" transform="translate(74.007812 78.580976)scale(0.11 -0.11)">
       <use xlink:href="#DejaVuSans-48"/>
       <use x="63.623047" xlink:href="#DejaVuSans-46"/>
       <use x="95.410156" xlink:href="#DejaVuSans-57"/>
       <use x="159.033203" xlink:href="#DejaVuSans-56"/>
      </g>
     </g>
    </g>
    <g id="ytick_8">
     <g id="line2d_8">
      <path clip-path="url(#p0d0208736c)" d="M 108 45.93234 
L 777.6 45.93234 
" style="fill:none;stroke:#cccccc;stroke-linecap:round;"/>
     </g>
     <g id="text_10">
      <!-- 1.00 -->
      <g style="fill:#262626;" transform="translate(74.007812 50.11148)scale(0.11 -0.11)">
       <use xlink:href="#DejaVuSans-49"/>
       <use x="63.623047" xlink:href="#DejaVuSans-46"/>
       <use x="95.410156" xlink:href="#DejaVuSans-48"/>
       <use x="159.033203" xlink:href="#DejaVuSans-48"/>
      </g>
     </g>
    </g>
    <g id="text_11">
     <!-- Accuracy -->
     <defs>
      <path d="M 34.1875 63.1875 
L 20.796875 26.90625 
L 47.609375 26.90625 
z
M 28.609375 72.90625 
L 39.796875 72.90625 
L 67.578125 0 
L 57.328125 0 
L 50.6875 18.703125 
L 17.828125 18.703125 
L 11.1875 0 
L 0.78125 0 
z
" id="DejaVuSans-65"/>
      <path d="M 48.78125 52.59375 
L 48.78125 44.1875 
Q 44.96875 46.296875 41.140625 47.34375 
Q 37.3125 48.390625 33.40625 48.390625 
Q 24.65625 48.390625 19.8125 42.84375 
Q 14.984375 37.3125 14.984375 27.296875 
Q 14.984375 17.28125 19.8125 11.734375 
Q 24.65625 6.203125 33.40625 6.203125 
Q 37.3125 6.203125 41.140625 7.25 
Q 44.96875 8.296875 48.78125 10.40625 
L 48.78125 2.09375 
Q 45.015625 0.34375 40.984375 -0.53125 
Q 36.96875 -1.421875 32.421875 -1.421875 
Q 20.0625 -1.421875 12.78125 6.34375 
Q 5.515625 14.109375 5.515625 27.296875 
Q 5.515625 40.671875 12.859375 48.328125 
Q 20.21875 56 33.015625 56 
Q 37.15625 56 41.109375 55.140625 
Q 45.0625 54.296875 48.78125 52.59375 
z
" id="DejaVuSans-99"/>
      <path d="M 8.5 21.578125 
L 8.5 54.6875 
L 17.484375 54.6875 
L 17.484375 21.921875 
Q 17.484375 14.15625 20.5 10.265625 
Q 23.53125 6.390625 29.59375 6.390625 
Q 36.859375 6.390625 41.078125 11.03125 
Q 45.3125 15.671875 45.3125 23.6875 
L 45.3125 54.6875 
L 54.296875 54.6875 
L 54.296875 0 
L 45.3125 0 
L 45.3125 8.40625 
Q 42.046875 3.421875 37.71875 1 
Q 33.40625 -1.421875 27.6875 -1.421875 
Q 18.265625 -1.421875 13.375 4.4375 
Q 8.5 10.296875 8.5 21.578125 
z
M 31.109375 56 
z
" id="DejaVuSans-117"/>
      <path d="M 41.109375 46.296875 
Q 39.59375 47.171875 37.8125 47.578125 
Q 36.03125 48 33.890625 48 
Q 26.265625 48 22.1875 43.046875 
Q 18.109375 38.09375 18.109375 28.8125 
L 18.109375 0 
L 9.078125 0 
L 9.078125 54.6875 
L 18.109375 54.6875 
L 18.109375 46.1875 
Q 20.953125 51.171875 25.484375 53.578125 
Q 30.03125 56 36.53125 56 
Q 37.453125 56 38.578125 55.875 
Q 39.703125 55.765625 41.0625 55.515625 
z
" id="DejaVuSans-114"/>
      <path d="M 34.28125 27.484375 
Q 23.390625 27.484375 19.1875 25 
Q 14.984375 22.515625 14.984375 16.5 
Q 14.984375 11.71875 18.140625 8.90625 
Q 21.296875 6.109375 26.703125 6.109375 
Q 34.1875 6.109375 38.703125 11.40625 
Q 43.21875 16.703125 43.21875 25.484375 
L 43.21875 27.484375 
z
M 52.203125 31.203125 
L 52.203125 0 
L 43.21875 0 
L 43.21875 8.296875 
Q 40.140625 3.328125 35.546875 0.953125 
Q 30.953125 -1.421875 24.3125 -1.421875 
Q 15.921875 -1.421875 10.953125 3.296875 
Q 6 8.015625 6 15.921875 
Q 6 25.140625 12.171875 29.828125 
Q 18.359375 34.515625 30.609375 34.515625 
L 43.21875 34.515625 
L 43.21875 35.40625 
Q 43.21875 41.609375 39.140625 45 
Q 35.0625 48.390625 27.6875 48.390625 
Q 23 48.390625 18.546875 47.265625 
Q 14.109375 46.140625 10.015625 43.890625 
L 10.015625 52.203125 
Q 14.9375 54.109375 19.578125 55.046875 
Q 24.21875 56 28.609375 56 
Q 40.484375 56 46.34375 49.84375 
Q 52.203125 43.703125 52.203125 31.203125 
z
" id="DejaVuSans-97"/>
      <path d="M 32.171875 -5.078125 
Q 28.375 -14.84375 24.75 -17.8125 
Q 21.140625 -20.796875 15.09375 -20.796875 
L 7.90625 -20.796875 
L 7.90625 -13.28125 
L 13.1875 -13.28125 
Q 16.890625 -13.28125 18.9375 -11.515625 
Q 21 -9.765625 23.484375 -3.21875 
L 25.09375 0.875 
L 2.984375 54.6875 
L 12.5 54.6875 
L 29.59375 11.921875 
L 46.6875 54.6875 
L 56.203125 54.6875 
z
" id="DejaVuSans-121"/>
     </defs>
     <g style="fill:#262626;" transform="translate(67.512187 170.777812)rotate(-90)scale(0.12 -0.12)">
      <use xlink:href="#DejaVuSans-65"/>
      <use x="68.392578" xlink:href="#DejaVuSans-99"/>
      <use x="123.373047" xlink:href="#DejaVuSans-99"/>
      <use x="178.353516" xlink:href="#DejaVuSans-117"/>
      <use x="241.732422" xlink:href="#DejaVuSans-114"/>
      <use x="282.845703" xlink:href="#DejaVuSans-97"/>
      <use x="344.125" xlink:href="#DejaVuSans-99"/>
      <use x="399.105469" xlink:href="#DejaVuSans-121"/>
     </g>
    </g>
   </g>
   <g id="PolyCollection_1">
    <defs>
     <path d="M 442.8 -173.631373 
L 435.147429 -173.631373 
L 435.206131 -174.322649 
L 435.379552 -175.013924 
L 435.65983 -175.7052 
L 436.034525 -176.396475 
L 436.487528 -177.087751 
L 437.000214 -177.779027 
L 437.5527 -178.470302 
L 438.125113 -179.161578 
L 438.698736 -179.852854 
L 439.256963 -180.544129 
L 439.785988 -181.235405 
L 440.275207 -181.92668 
L 440.717343 -182.617956 
L 441.108308 -183.309232 
L 441.446881 -184.000507 
L 441.734233 -184.691783 
L 441.973392 -185.383059 
L 442.168681 -186.074334 
L 442.325202 -186.76561 
L 442.448374 -187.456886 
L 442.543573 -188.148161 
L 442.615856 -188.839437 
L 442.669784 -189.530712 
L 442.709326 -190.221988 
L 442.737826 -190.913264 
L 442.758019 -191.604539 
L 442.772087 -192.295815 
L 442.781725 -192.987091 
L 442.788218 -193.678366 
L 442.79252 -194.369642 
L 442.795324 -195.060917 
L 442.797121 -195.752193 
L 442.798255 -196.443469 
L 442.798958 -197.134744 
L 442.799388 -197.82602 
L 442.799646 -198.517296 
L 442.799798 -199.208571 
L 442.799887 -199.899847 
L 442.799937 -200.591123 
L 442.799966 -201.282398 
L 442.799982 -201.973674 
L 442.79999 -202.664949 
L 442.799995 -203.356225 
L 442.799997 -204.047501 
L 442.799999 -204.738776 
L 442.799999 -205.430052 
L 442.799999 -206.121328 
L 442.799999 -206.812603 
L 442.799999 -207.503879 
L 442.799997 -208.195154 
L 442.799995 -208.88643 
L 442.799989 -209.577706 
L 442.799978 -210.268981 
L 442.799955 -210.960257 
L 442.79991 -211.651533 
L 442.799825 -212.342808 
L 442.799662 -213.034084 
L 442.79936 -213.72536 
L 442.798806 -214.416635 
L 442.797806 -215.107911 
L 442.796031 -215.799186 
L 442.792929 -216.490462 
L 442.787594 -217.181738 
L 442.778567 -217.873013 
L 442.763538 -218.564289 
L 442.738918 -219.255565 
L 442.699238 -219.94684 
L 442.636323 -220.638116 
L 442.538188 -221.329391 
L 442.387613 -222.020667 
L 442.160367 -222.711943 
L 441.823059 -223.403218 
L 441.330677 -224.094494 
L 440.623907 -224.78577 
L 439.626424 -225.477045 
L 438.242446 -226.168321 
L 436.354954 -226.859596 
L 433.825058 -227.550872 
L 430.4931 -228.242148 
L 426.182066 -228.933423 
L 420.703843 -229.624699 
L 413.868707 -230.315975 
L 405.498156 -231.00725 
L 395.440825 -231.698526 
L 383.590783 -232.389802 
L 369.906992 -233.081077 
L 354.43225 -233.772353 
L 337.309564 -234.463628 
L 318.793702 -235.154904 
L 299.255762 -235.84618 
L 279.178959 -236.537455 
L 259.144514 -237.228731 
L 239.807484 -237.920007 
L 221.863478 -238.611282 
L 206.00836 -239.302558 
L 192.894057 -239.993833 
L 183.084321 -240.685109 
L 177.014601 -241.376385 
L 174.96 -242.06766 
L 442.8 -242.06766 
L 442.8 -242.06766 
L 442.8 -241.376385 
L 442.8 -240.685109 
L 442.8 -239.993833 
L 442.8 -239.302558 
L 442.8 -238.611282 
L 442.8 -237.920007 
L 442.8 -237.228731 
L 442.8 -236.537455 
L 442.8 -235.84618 
L 442.8 -235.154904 
L 442.8 -234.463628 
L 442.8 -233.772353 
L 442.8 -233.081077 
L 442.8 -232.389802 
L 442.8 -231.698526 
L 442.8 -231.00725 
L 442.8 -230.315975 
L 442.8 -229.624699 
L 442.8 -228.933423 
L 442.8 -228.242148 
L 442.8 -227.550872 
L 442.8 -226.859596 
L 442.8 -226.168321 
L 442.8 -225.477045 
L 442.8 -224.78577 
L 442.8 -224.094494 
L 442.8 -223.403218 
L 442.8 -222.711943 
L 442.8 -222.020667 
L 442.8 -221.329391 
L 442.8 -220.638116 
L 442.8 -219.94684 
L 442.8 -219.255565 
L 442.8 -218.564289 
L 442.8 -217.873013 
L 442.8 -217.181738 
L 442.8 -216.490462 
L 442.8 -215.799186 
L 442.8 -215.107911 
L 442.8 -214.416635 
L 442.8 -213.72536 
L 442.8 -213.034084 
L 442.8 -212.342808 
L 442.8 -211.651533 
L 442.8 -210.960257 
L 442.8 -210.268981 
L 442.8 -209.577706 
L 442.8 -208.88643 
L 442.8 -208.195154 
L 442.8 -207.503879 
L 442.8 -206.812603 
L 442.8 -206.121328 
L 442.8 -205.430052 
L 442.8 -204.738776 
L 442.8 -204.047501 
L 442.8 -203.356225 
L 442.8 -202.664949 
L 442.8 -201.973674 
L 442.8 -201.282398 
L 442.8 -200.591123 
L 442.8 -199.899847 
L 442.8 -199.208571 
L 442.8 -198.517296 
L 442.8 -197.82602 
L 442.8 -197.134744 
L 442.8 -196.443469 
L 442.8 -195.752193 
L 442.8 -195.060917 
L 442.8 -194.369642 
L 442.8 -193.678366 
L 442.8 -192.987091 
L 442.8 -192.295815 
L 442.8 -191.604539 
L 442.8 -190.913264 
L 442.8 -190.221988 
L 442.8 -189.530712 
L 442.8 -188.839437 
L 442.8 -188.148161 
L 442.8 -187.456886 
L 442.8 -186.76561 
L 442.8 -186.074334 
L 442.8 -185.383059 
L 442.8 -184.691783 
L 442.8 -184.000507 
L 442.8 -183.309232 
L 442.8 -182.617956 
L 442.8 -181.92668 
L 442.8 -181.235405 
L 442.8 -180.544129 
L 442.8 -179.852854 
L 442.8 -179.161578 
L 442.8 -178.470302 
L 442.8 -177.779027 
L 442.8 -177.087751 
L 442.8 -176.396475 
L 442.8 -175.7052 
L 442.8 -175.013924 
L 442.8 -174.322649 
L 442.8 -173.631373 
z
" id="ma8a1488ca6" style="stroke:#737373;stroke-width:1.5;"/>
    </defs>
    <g clip-path="url(#p0d0208736c)">
     <use style="fill:#abc9ea;stroke:#737373;stroke-width:1.5;" x="0" xlink:href="#ma8a1488ca6" y="288"/>
    </g>
   </g>
   <g id="PolyCollection_2">
    <defs>
     <path d="M 445.309738 -45.883636 
L 442.8 -45.883636 
L 442.8 -47.865293 
L 442.8 -49.84695 
L 442.8 -51.828607 
L 442.8 -53.810264 
L 442.8 -55.79192 
L 442.8 -57.773577 
L 442.8 -59.755234 
L 442.8 -61.736891 
L 442.8 -63.718548 
L 442.8 -65.700204 
L 442.8 -67.681861 
L 442.8 -69.663518 
L 442.8 -71.645175 
L 442.8 -73.626832 
L 442.8 -75.608488 
L 442.8 -77.590145 
L 442.8 -79.571802 
L 442.8 -81.553459 
L 442.8 -83.535116 
L 442.8 -85.516773 
L 442.8 -87.498429 
L 442.8 -89.480086 
L 442.8 -91.461743 
L 442.8 -93.4434 
L 442.8 -95.425057 
L 442.8 -97.406713 
L 442.8 -99.38837 
L 442.8 -101.370027 
L 442.8 -103.351684 
L 442.8 -105.333341 
L 442.8 -107.314997 
L 442.8 -109.296654 
L 442.8 -111.278311 
L 442.8 -113.259968 
L 442.8 -115.241625 
L 442.8 -117.223281 
L 442.8 -119.204938 
L 442.8 -121.186595 
L 442.8 -123.168252 
L 442.8 -125.149909 
L 442.8 -127.131565 
L 442.8 -129.113222 
L 442.8 -131.094879 
L 442.8 -133.076536 
L 442.8 -135.058193 
L 442.8 -137.03985 
L 442.8 -139.021506 
L 442.8 -141.003163 
L 442.8 -142.98482 
L 442.8 -144.966477 
L 442.8 -146.948134 
L 442.8 -148.92979 
L 442.8 -150.911447 
L 442.8 -152.893104 
L 442.8 -154.874761 
L 442.8 -156.856418 
L 442.8 -158.838074 
L 442.8 -160.819731 
L 442.8 -162.801388 
L 442.8 -164.783045 
L 442.8 -166.764702 
L 442.8 -168.746358 
L 442.8 -170.728015 
L 442.8 -172.709672 
L 442.8 -174.691329 
L 442.8 -176.672986 
L 442.8 -178.654643 
L 442.8 -180.636299 
L 442.8 -182.617956 
L 442.8 -184.599613 
L 442.8 -186.58127 
L 442.8 -188.562927 
L 442.8 -190.544583 
L 442.8 -192.52624 
L 442.8 -194.507897 
L 442.8 -196.489554 
L 442.8 -198.471211 
L 442.8 -200.452867 
L 442.8 -202.434524 
L 442.8 -204.416181 
L 442.8 -206.397838 
L 442.8 -208.379495 
L 442.8 -210.361151 
L 442.8 -212.342808 
L 442.8 -214.324465 
L 442.8 -216.306122 
L 442.8 -218.287779 
L 442.8 -220.269435 
L 442.8 -222.251092 
L 442.8 -224.232749 
L 442.8 -226.214406 
L 442.8 -228.196063 
L 442.8 -230.17772 
L 442.8 -232.159376 
L 442.8 -234.141033 
L 442.8 -236.12269 
L 442.8 -238.104347 
L 442.8 -240.086004 
L 442.8 -242.06766 
L 523.115278 -242.06766 
L 523.115278 -242.06766 
L 523.363427 -240.086004 
L 522.578341 -238.104347 
L 520.794836 -236.12269 
L 518.085461 -234.141033 
L 514.555822 -232.159376 
L 510.338012 -230.17772 
L 505.582707 -228.196063 
L 500.450618 -226.214406 
L 495.103944 -224.232749 
L 489.698448 -222.251092 
L 484.376665 -220.269435 
L 479.262596 -218.287779 
L 474.458076 -216.306122 
L 470.04085 -214.324465 
L 466.064236 -212.342808 
L 462.558173 -210.361151 
L 459.531335 -208.379495 
L 456.974012 -206.397838 
L 454.861446 -204.416181 
L 453.157314 -202.434524 
L 451.817156 -200.452867 
L 450.791565 -198.471211 
L 450.02902 -196.489554 
L 449.478307 -194.507897 
L 449.090505 -192.52624 
L 448.820538 -190.544583 
L 448.628324 -188.562927 
L 448.479545 -186.58127 
L 448.346078 -184.599613 
L 448.206116 -182.617956 
L 448.044019 -180.636299 
L 447.849931 -178.654643 
L 447.61919 -176.672986 
L 447.351595 -174.691329 
L 447.050555 -172.709672 
L 446.722191 -170.728015 
L 446.374423 -168.746358 
L 446.016111 -166.764702 
L 445.656282 -164.783045 
L 445.303474 -162.801388 
L 444.965241 -160.819731 
L 444.647797 -158.838074 
L 444.355828 -156.856418 
L 444.092441 -154.874761 
L 443.859226 -152.893104 
L 443.656419 -150.911447 
L 443.483121 -148.92979 
L 443.337549 -146.948134 
L 443.217296 -144.966477 
L 443.119576 -142.98482 
L 443.041438 -141.003163 
L 442.979945 -139.021506 
L 442.932304 -137.03985 
L 442.895965 -135.058193 
L 442.868669 -133.076536 
L 442.848477 -131.094879 
L 442.833766 -129.113222 
L 442.823212 -127.131565 
L 442.815759 -125.149909 
L 442.810584 -123.168252 
L 442.807063 -121.186595 
L 442.804732 -119.204938 
L 442.803263 -117.223281 
L 442.802432 -115.241625 
L 442.802105 -113.259968 
L 442.80222 -111.278311 
L 442.802787 -109.296654 
L 442.803879 -107.314997 
L 442.805638 -105.333341 
L 442.808285 -103.351684 
L 442.812133 -101.370027 
L 442.817596 -99.38837 
L 442.825215 -97.406713 
L 442.835665 -95.425057 
L 442.849776 -93.4434 
L 442.868537 -91.461743 
L 442.893097 -89.480086 
L 442.924749 -87.498429 
L 442.964904 -85.516773 
L 443.015038 -83.535116 
L 443.076622 -81.553459 
L 443.151031 -79.571802 
L 443.239434 -77.590145 
L 443.342662 -75.608488 
L 443.461079 -73.626832 
L 443.594448 -71.645175 
L 443.741814 -69.663518 
L 443.90142 -67.681861 
L 444.070658 -65.700204 
L 444.246081 -63.718548 
L 444.423471 -61.736891 
L 444.597979 -59.755234 
L 444.764321 -57.773577 
L 444.917037 -55.79192 
L 445.050777 -53.810264 
L 445.160611 -51.828607 
L 445.24233 -49.84695 
L 445.292713 -47.865293 
L 445.309738 -45.883636 
z
" id="maa24a07478" style="stroke:#737373;stroke-width:1.5;"/>
    </defs>
    <g clip-path="url(#p0d0208736c)">
     <use style="fill:#efb792;stroke:#737373;stroke-width:1.5;" x="0" xlink:href="#maa24a07478" y="288"/>
    </g>
   </g>
   <g id="patch_3">
    <path clip-path="url(#p0d0208736c)" d="M 442.8 1469.407118 
L 442.8 1469.407118 
L 442.8 1469.407118 
L 442.8 1469.407118 
z
" style="fill:#abc9ea;stroke:#737373;stroke-linejoin:miter;stroke-width:0.75;"/>
   </g>
   <g id="patch_4">
    <path clip-path="url(#p0d0208736c)" d="M 442.8 1469.407118 
L 442.8 1469.407118 
L 442.8 1469.407118 
L 442.8 1469.407118 
z
" style="fill:#efb792;stroke:#737373;stroke-linejoin:miter;stroke-width:0.75;"/>
   </g>
   <g id="line2d_9">
    <path clip-path="url(#p0d0208736c)" d="M 442.8 45.93234 
L 442.8 45.93234 
" style="fill:none;stroke:#737373;stroke-linecap:round;stroke-width:1.5;"/>
   </g>
   <g id="line2d_10">
    <path clip-path="url(#p0d0208736c)" d="M 442.8 45.93234 
L 442.8 45.93234 
" style="fill:none;stroke:#737373;stroke-linecap:round;stroke-width:4.5;"/>
   </g>
   <g id="patch_5">
    <path d="M 108 252 
L 777.6 252 
" style="fill:none;stroke:#cccccc;stroke-linecap:square;stroke-linejoin:miter;stroke-width:1.25;"/>
   </g>
   <g id="PathCollection_1">
    <defs>
     <path d="M 0 1.5 
C 0.397805 1.5 0.77937 1.341951 1.06066 1.06066 
C 1.341951 0.77937 1.5 0.397805 1.5 0 
C 1.5 -0.397805 1.341951 -0.77937 1.06066 -1.06066 
C 0.77937 -1.341951 0.397805 -1.5 0 -1.5 
C -0.397805 -1.5 -0.77937 -1.341951 -1.06066 -1.06066 
C -1.341951 -0.77937 -1.5 -0.397805 -1.5 0 
C -1.5 0.397805 -1.341951 0.77937 -1.06066 1.06066 
C -0.77937 1.341951 -0.397805 1.5 0 1.5 
z
" id="mb24c3e35ec" style="stroke:#737373;"/>
    </defs>
    <g clip-path="url(#p0d0208736c)">
     <use style="fill:#ffffff;stroke:#737373;" x="442.8" xlink:href="#mb24c3e35ec" y="45.93234"/>
    </g>
   </g>
   <g id="legend_1">
    <g id="patch_6">
     <path d="M 713.576563 91.023563 
L 769.9 91.023563 
Q 772.1 91.023563 772.1 88.823563 
L 772.1 42.26 
Q 772.1 40.06 769.9 40.06 
L 713.576563 40.06 
Q 711.376562 40.06 711.376562 42.26 
L 711.376562 88.823563 
Q 711.376562 91.023563 713.576563 91.023563 
z
" style="fill:#ffffff;opacity:0.8;stroke:#cccccc;stroke-linejoin:miter;"/>
    </g>
    <g id="text_12">
     <!-- Set -->
     <defs>
      <path d="M 53.515625 70.515625 
L 53.515625 60.890625 
Q 47.90625 63.578125 42.921875 64.890625 
Q 37.9375 66.21875 33.296875 66.21875 
Q 25.25 66.21875 20.875 63.09375 
Q 16.5 59.96875 16.5 54.203125 
Q 16.5 49.359375 19.40625 46.890625 
Q 22.3125 44.4375 30.421875 42.921875 
L 36.375 41.703125 
Q 47.40625 39.59375 52.65625 34.296875 
Q 57.90625 29 57.90625 20.125 
Q 57.90625 9.515625 50.796875 4.046875 
Q 43.703125 -1.421875 29.984375 -1.421875 
Q 24.8125 -1.421875 18.96875 -0.25 
Q 13.140625 0.921875 6.890625 3.21875 
L 6.890625 13.375 
Q 12.890625 10.015625 18.65625 8.296875 
Q 24.421875 6.59375 29.984375 6.59375 
Q 38.421875 6.59375 43.015625 9.90625 
Q 47.609375 13.234375 47.609375 19.390625 
Q 47.609375 24.75 44.3125 27.78125 
Q 41.015625 30.8125 33.5 32.328125 
L 27.484375 33.5 
Q 16.453125 35.6875 11.515625 40.375 
Q 6.59375 45.0625 6.59375 53.421875 
Q 6.59375 63.09375 13.40625 68.65625 
Q 20.21875 74.21875 32.171875 74.21875 
Q 37.3125 74.21875 42.625 73.28125 
Q 47.953125 72.359375 53.515625 70.515625 
z
" id="DejaVuSans-83"/>
      <path d="M 56.203125 29.59375 
L 56.203125 25.203125 
L 14.890625 25.203125 
Q 15.484375 15.921875 20.484375 11.0625 
Q 25.484375 6.203125 34.421875 6.203125 
Q 39.59375 6.203125 44.453125 7.46875 
Q 49.3125 8.734375 54.109375 11.28125 
L 54.109375 2.78125 
Q 49.265625 0.734375 44.1875 -0.34375 
Q 39.109375 -1.421875 33.890625 -1.421875 
Q 20.796875 -1.421875 13.15625 6.1875 
Q 5.515625 13.8125 5.515625 26.8125 
Q 5.515625 40.234375 12.765625 48.109375 
Q 20.015625 56 32.328125 56 
Q 43.359375 56 49.78125 48.890625 
Q 56.203125 41.796875 56.203125 29.59375 
z
M 47.21875 32.234375 
Q 47.125 39.59375 43.09375 43.984375 
Q 39.0625 48.390625 32.421875 48.390625 
Q 24.90625 48.390625 20.390625 44.140625 
Q 15.875 39.890625 15.1875 32.171875 
z
" id="DejaVuSans-101"/>
      <path d="M 18.3125 70.21875 
L 18.3125 54.6875 
L 36.8125 54.6875 
L 36.8125 47.703125 
L 18.3125 47.703125 
L 18.3125 18.015625 
Q 18.3125 11.328125 20.140625 9.421875 
Q 21.96875 7.515625 27.59375 7.515625 
L 36.8125 7.515625 
L 36.8125 0 
L 27.59375 0 
Q 17.1875 0 13.234375 3.875 
Q 9.28125 7.765625 9.28125 18.015625 
L 9.28125 47.703125 
L 2.6875 47.703125 
L 2.6875 54.6875 
L 9.28125 54.6875 
L 9.28125 70.21875 
z
" id="DejaVuSans-116"/>
     </defs>
     <g style="fill:#262626;" transform="translate(733.363125 52.210406)scale(0.102 -0.102)">
      <use xlink:href="#DejaVuSans-83"/>
      <use x="63.476562" xlink:href="#DejaVuSans-101"/>
      <use x="125" xlink:href="#DejaVuSans-116"/>
     </g>
    </g>
    <g id="patch_7">
     <path d="M 715.776562 68.189969 
L 737.776562 68.189969 
L 737.776562 60.489969 
L 715.776562 60.489969 
z
" style="fill:#abc9ea;stroke:#737373;stroke-linejoin:miter;stroke-width:0.75;"/>
    </g>
    <g id="text_13">
     <!-- val -->
     <defs>
      <path d="M 2.984375 54.6875 
L 12.5 54.6875 
L 29.59375 8.796875 
L 46.6875 54.6875 
L 56.203125 54.6875 
L 35.6875 0 
L 23.484375 0 
z
" id="DejaVuSans-118"/>
      <path d="M 9.421875 75.984375 
L 18.40625 75.984375 
L 18.40625 0 
L 9.421875 0 
z
" id="DejaVuSans-108"/>
     </defs>
     <g style="fill:#262626;" transform="translate(746.576562 68.189969)scale(0.11 -0.11)">
      <use xlink:href="#DejaVuSans-118"/>
      <use x="59.179688" xlink:href="#DejaVuSans-97"/>
      <use x="120.458984" xlink:href="#DejaVuSans-108"/>
     </g>
    </g>
    <g id="patch_8">
     <path d="M 715.776562 84.335906 
L 737.776562 84.335906 
L 737.776562 76.635906 
L 715.776562 76.635906 
z
" style="fill:#efb792;stroke:#737373;stroke-linejoin:miter;stroke-width:0.75;"/>
    </g>
    <g id="text_14">
     <!-- test -->
     <defs>
      <path d="M 44.28125 53.078125 
L 44.28125 44.578125 
Q 40.484375 46.53125 36.375 47.5 
Q 32.28125 48.484375 27.875 48.484375 
Q 21.1875 48.484375 17.84375 46.4375 
Q 14.5 44.390625 14.5 40.28125 
Q 14.5 37.15625 16.890625 35.375 
Q 19.28125 33.59375 26.515625 31.984375 
L 29.59375 31.296875 
Q 39.15625 29.25 43.1875 25.515625 
Q 47.21875 21.78125 47.21875 15.09375 
Q 47.21875 7.46875 41.1875 3.015625 
Q 35.15625 -1.421875 24.609375 -1.421875 
Q 20.21875 -1.421875 15.453125 -0.5625 
Q 10.6875 0.296875 5.421875 2 
L 5.421875 11.28125 
Q 10.40625 8.6875 15.234375 7.390625 
Q 20.0625 6.109375 24.8125 6.109375 
Q 31.15625 6.109375 34.5625 8.28125 
Q 37.984375 10.453125 37.984375 14.40625 
Q 37.984375 18.0625 35.515625 20.015625 
Q 33.0625 21.96875 24.703125 23.78125 
L 21.578125 24.515625 
Q 13.234375 26.265625 9.515625 29.90625 
Q 5.8125 33.546875 5.8125 39.890625 
Q 5.8125 47.609375 11.28125 51.796875 
Q 16.75 56 26.8125 56 
Q 31.78125 56 36.171875 55.265625 
Q 40.578125 54.546875 44.28125 53.078125 
z
" id="DejaVuSans-115"/>
     </defs>
     <g style="fill:#262626;" transform="translate(746.576562 84.335906)scale(0.11 -0.11)">
      <use xlink:href="#DejaVuSans-116"/>
      <use x="39.208984" xlink:href="#DejaVuSans-101"/>
      <use x="100.732422" xlink:href="#DejaVuSans-115"/>
      <use x="152.832031" xlink:href="#DejaVuSans-116"/>
     </g>
    </g>
   </g>
  </g>
 </g>
 <defs>
  <clipPath id="p0d0208736c">
   <rect height="217.44" width="669.6" x="108" y="34.56"/>
  </clipPath>
 </defs>
</svg>
